<?xml version="1.0" encoding="utf-8"?>
<!-- Generator: Adobe Illustrator 26.1.0, SVG Export Plug-In . SVG Version: 6.00 Build 0)  -->
<svg version="1.1" id="Lager_1" xmlns="http://www.w3.org/2000/svg" xmlns:xlink="http://www.w3.org/1999/xlink" x="0px" y="0px"
	 viewBox="0 0 283.46 283.46" style="enable-background:new 0 0 283.46 283.46;" xml:space="preserve">
<style type="text/css">
	.st0{opacity:0.3;}
	.st1{fill:#231F20;}
	.st2{fill:#F5911E;}
	.st3{fill:#F9AE40;}
	.st4{fill:#8E101C;}
</style>
<g id="Teater_2024">
	<g class="st0">
		<polygon class="st1" points="61.1,144.14 61.21,144.87 61.12,145.58 60.86,146.31 60.48,147.02 60.03,147.74 57.56,148.03 
			55.91,148.18 55.08,148.26 52.61,148.37 50.11,148.37 47.62,148.3 45.13,148.15 40.16,147.74 39.78,147.04 39.47,146.35 
			39.26,145.62 39.22,144.83 39.3,144.06 39.52,143.33 40.16,141.92 45.13,142.43 47.6,142.6 50.09,142.67 52.59,142.64 
			55.08,142.49 56.58,142.32 60.03,141.92 60.82,143.39 		"/>
		<polygon class="st1" points="232.17,142.32 233.66,142.49 236.15,142.64 238.65,142.67 241.14,142.6 243.63,142.43 248.58,141.92 
			249.24,143.33 249.44,144.06 249.54,144.83 249.48,145.62 249.28,146.35 248.96,147.04 248.58,147.74 243.63,148.15 241.14,148.3 
			238.65,148.37 236.15,148.37 233.66,148.26 232.85,148.18 231.19,148.03 228.71,147.74 228.28,147.02 227.9,146.31 227.64,145.58 
			227.55,144.87 227.66,144.14 227.92,143.39 228.71,141.92 		"/>
		<polygon class="st1" points="249.24,229.94 249.89,229.64 250.66,229.26 251.57,228.85 250.91,233.5 246.97,235.56 244.96,236.48 
			242.92,237.25 240.82,237.85 238.68,238.26 236.49,238.52 234.28,238.65 232.07,238.69 229.82,238.67 225.37,238.56 
			216.58,238.32 216.11,232.47 215.72,226.64 215.38,220.81 215.19,215 215.14,209.23 215.25,203.47 215.59,197.74 215.83,194.89 
			216.15,192.06 216.53,189.23 216.98,186.4 217.5,183.59 218.08,180.8 218.74,178 219.47,175.23 221.06,169.68 222.82,164.17 
			224.72,158.68 228.71,147.74 231.19,148.03 232.85,148.18 232.85,148.2 232.42,149.33 232.03,150.34 231.69,151.26 231.37,152.1 
			230.81,153.58 230.32,154.91 228.45,160.1 226.67,165.28 225,170.45 223.5,175.62 222.19,180.78 221.62,183.36 221.12,185.95 
			220.67,188.54 220.29,191.14 219.97,193.77 219.71,196.41 219.34,201.71 219.15,207.05 219.15,212.45 219.28,217.89 
			219.52,223.38 219.86,228.89 220.27,234.42 228.19,234.62 232.08,234.68 233.98,234.66 235.8,234.55 237.54,234.38 239.21,234.1 
			240.8,233.72 242.36,233.2 243.95,232.54 245.58,231.77 247.29,230.89 247.87,230.61 248.24,230.42 248.69,230.2 		"/>
		<polygon class="st1" points="55.91,148.18 57.56,148.03 60.03,147.74 64.04,158.68 65.94,164.17 67.7,169.68 69.29,175.23 70,178 
			70.66,180.8 71.26,183.59 71.78,186.4 72.23,189.23 72.61,192.06 72.93,194.89 73.17,197.74 73.49,203.47 73.62,209.23 73.57,215 
			73.36,220.81 73.04,226.64 72.63,232.47 72.16,238.32 63.39,238.56 58.92,238.67 56.69,238.69 54.46,238.65 52.25,238.52 
			50.08,238.26 47.92,237.85 45.84,237.25 43.8,236.48 41.79,235.56 37.85,233.5 37.17,228.85 38.08,229.26 38.87,229.64 
			39.52,229.94 40.07,230.2 40.52,230.42 40.89,230.61 41.45,230.89 43.16,231.77 44.81,232.54 46.38,233.2 47.94,233.72 
			49.53,234.1 51.2,234.38 52.96,234.55 54.78,234.66 56.66,234.68 60.56,234.62 68.47,234.42 68.88,228.89 69.23,223.38 
			69.48,217.89 69.61,212.45 69.59,207.05 69.42,201.71 69.05,196.41 68.78,193.77 68.47,191.14 68.07,188.54 67.64,185.95 
			67.14,183.36 66.55,180.78 65.24,175.62 63.74,170.45 62.09,165.28 60.29,160.1 58.42,154.91 57.93,153.58 57.39,152.1 
			57.07,151.26 56.71,150.34 56.34,149.33 55.91,148.2 		"/>
		<polygon class="st1" points="64.47,140.31 60.03,141.92 56.58,142.32 58.08,141.21 59.58,140.18 61.02,139.21 62.41,138.31 
			63.76,137.48 65.05,136.71 66.31,135.98 67.53,135.33 69.87,134.09 72.12,132.99 76.43,130.92 80.71,128.77 82.86,127.61 
			85.04,126.39 87.25,125.09 89.48,123.73 91.75,122.3 94.04,120.77 96.38,119.17 98.76,117.47 101.18,115.69 103.65,113.79 
			106.17,111.79 108.71,109.71 109.99,108.6 111.28,107.44 112.58,106.18 113.89,104.85 115.24,103.43 116.61,101.85 118.01,100.15 
			119.44,98.29 120.92,96.25 122.44,94.02 123.99,91.58 124.8,90.29 125.61,88.94 126.41,87.54 127.25,86.06 128.1,84.52 
			128.94,82.93 129.8,81.26 130.69,79.51 131.59,77.71 132.49,75.84 133.4,73.89 134.34,71.87 135.28,69.77 136.23,67.59 
			137.21,65.33 138.2,62.98 139.2,60.57 140.2,58.07 144.37,58.43 143.34,61.03 142.29,63.55 141.28,65.98 140.28,68.34 
			139.29,70.61 138.32,72.79 137.34,74.9 136.4,76.93 135.47,78.9 134.53,80.77 133.63,82.59 132.73,84.33 131.83,86.02 
			130.95,87.63 130.09,89.17 129.22,90.67 128.38,92.09 127.55,93.46 125.91,96.03 124.29,98.41 122.74,100.58 121.2,102.57 
			119.7,104.4 118.22,106.09 116.78,107.63 115.35,109.07 113.96,110.4 112.6,111.64 111.23,112.82 108.56,114.99 105.96,117.05 
			103.41,119 100.9,120.86 98.44,122.6 96.02,124.27 93.62,125.84 91.28,127.32 88.96,128.73 86.67,130.06 84.4,131.34 
			82.13,132.54 79.9,133.66 77.69,134.75 73.28,136.77 68.88,138.61 		"/>
		<polygon class="st1" points="225,137.48 226.33,138.31 227.72,139.21 229.16,140.18 230.66,141.21 232.17,142.32 228.71,141.92 
			224.27,140.31 219.86,138.61 215.48,136.77 211.07,134.75 208.84,133.66 206.61,132.54 204.36,131.34 202.09,130.06 
			199.78,128.73 197.48,127.32 195.12,125.84 192.74,124.27 190.32,122.6 187.84,120.86 185.33,119 182.78,117.05 180.18,114.99 
			177.51,112.82 176.16,111.64 174.8,110.4 173.39,109.07 171.98,107.63 170.52,106.09 169.06,104.4 167.56,102.57 166.02,100.58 
			164.45,98.41 162.85,96.03 161.2,93.46 160.36,92.09 159.52,90.67 158.67,89.17 157.79,87.63 156.91,86.02 156.03,84.33 
			155.13,82.59 154.21,80.77 153.29,78.9 152.36,76.93 151.4,74.9 150.44,72.79 149.47,70.61 148.48,68.34 147.46,65.98 
			146.45,63.55 145.42,61.03 144.37,58.43 148.54,58.07 149.54,60.57 150.56,62.98 151.53,65.33 152.51,67.59 153.46,69.77 
			154.42,71.87 155.34,73.89 156.26,75.84 157.17,77.71 158.06,79.51 158.94,81.26 159.8,82.93 160.66,84.52 161.5,86.06 
			162.33,87.54 163.15,88.94 163.96,90.29 164.75,91.58 166.32,94.02 167.82,96.25 169.3,98.29 170.75,100.15 172.15,101.85 
			173.52,103.43 174.85,104.85 176.18,106.18 177.48,107.44 178.75,108.6 180.03,109.71 182.58,111.79 185.11,113.79 187.58,115.69 
			190,117.47 192.38,119.17 194.7,120.77 197.01,122.3 199.28,123.73 201.51,125.09 203.7,126.39 205.9,127.61 208.05,128.77 
			212.33,130.92 216.64,132.99 218.87,134.09 221.21,135.33 222.43,135.98 223.69,136.71 		"/>
		<polygon class="st1" points="56.34,149.33 56.71,150.34 57.07,151.26 57.39,152.1 57.93,153.58 58.42,154.91 60.29,160.1 
			62.09,165.28 63.74,170.45 65.24,175.62 66.55,180.78 67.14,183.36 67.64,185.95 68.07,188.54 68.47,191.14 68.78,193.77 
			69.05,196.41 69.42,201.71 69.59,207.05 69.61,212.45 69.48,217.89 69.23,223.38 68.88,228.89 68.47,234.42 60.56,234.62 
			56.66,234.68 54.78,234.66 52.96,234.55 51.2,234.38 49.53,234.1 47.94,233.72 46.38,233.2 44.81,232.54 43.16,231.77 
			41.45,230.89 40.89,230.61 40.52,230.42 40.07,230.2 39.52,229.94 38.87,229.64 38.08,229.26 37.17,228.85 37.07,228.18 
			36.39,222.83 35.83,217.47 35.44,212.1 35.19,206.72 35.06,201.32 35.1,195.92 35.25,190.52 35.53,185.14 35.92,179.75 
			36.43,174.39 37.05,169.04 37.76,163.7 38.53,158.38 40.16,147.74 45.13,148.15 47.62,148.3 50.11,148.37 52.61,148.37 
			55.08,148.26 55.91,148.18 55.91,148.2 		"/>
		<polygon class="st1" points="140.2,58.07 139.2,60.57 138.2,62.98 137.21,65.33 136.23,67.59 135.28,69.77 134.34,71.87 
			133.4,73.89 132.49,75.84 131.59,77.71 130.69,79.51 129.8,81.26 128.94,82.93 128.1,84.52 127.25,86.06 126.41,87.54 
			125.61,88.94 124.8,90.29 123.99,91.58 122.44,94.02 120.92,96.25 119.44,98.29 118.01,100.15 116.61,101.85 115.24,103.43 
			113.89,104.85 112.58,106.18 111.28,107.44 109.99,108.6 108.71,109.71 106.17,111.79 103.65,113.79 101.18,115.69 98.76,117.47 
			96.38,119.17 94.04,120.77 91.75,122.3 89.48,123.73 87.25,125.09 85.04,126.39 82.86,127.61 80.71,128.77 76.43,130.92 
			72.12,132.99 69.87,134.09 67.53,135.33 66.31,135.98 65.05,136.71 63.76,137.48 62.41,138.31 61.02,139.21 59.58,140.18 
			58.08,141.21 56.58,142.32 55.08,142.49 52.59,142.64 50.09,142.67 47.6,142.6 45.13,142.43 40.16,141.92 38.32,131.58 
			37.44,126.39 36.65,121.22 35.92,116 35.3,110.79 34.82,105.55 34.48,100.3 34.27,95.03 34.22,89.77 34.33,84.5 34.59,79.25 
			35,74 35.6,68.77 36.37,63.58 37.31,58.43 50.69,57.27 64.08,56.26 70.77,55.86 77.46,55.54 84.16,55.36 90.85,55.28 97.54,55.36 
			104.23,55.54 110.91,55.86 117.6,56.26 130.99,57.27 		"/>
		<polygon class="st1" points="233.66,148.26 236.15,148.37 238.65,148.37 241.14,148.3 243.63,148.15 248.58,147.74 250.23,158.38 
			251,163.7 251.69,169.04 252.31,174.39 252.84,179.75 253.23,185.14 253.51,190.52 253.66,195.92 253.68,201.32 253.57,206.72 
			253.32,212.1 252.91,217.47 252.37,222.83 251.67,228.18 251.58,228.85 251.57,228.85 250.66,229.26 249.89,229.64 249.24,229.94 
			248.69,230.2 248.24,230.42 247.87,230.61 247.29,230.89 245.58,231.77 243.95,232.54 242.36,233.2 240.8,233.72 239.21,234.1 
			237.54,234.38 235.8,234.55 233.98,234.66 232.08,234.68 228.19,234.62 220.27,234.42 219.86,228.89 219.52,223.38 219.28,217.89 
			219.15,212.45 219.15,207.05 219.34,201.71 219.71,196.41 219.97,193.77 220.29,191.14 220.67,188.54 221.12,185.95 
			221.62,183.36 222.19,180.78 223.5,175.62 225,170.45 226.67,165.28 228.45,160.1 230.32,154.91 230.81,153.58 231.37,152.1 
			231.69,151.26 232.03,150.34 232.42,149.33 232.85,148.2 232.85,148.18 		"/>
		<polygon class="st1" points="254.43,84.5 254.52,89.77 254.49,95.03 254.28,100.3 253.92,105.55 253.44,110.79 252.82,116 
			252.11,121.22 251.3,126.39 250.44,131.58 248.58,141.92 243.63,142.43 241.14,142.6 238.65,142.67 236.15,142.64 233.66,142.49 
			232.17,142.32 230.66,141.21 229.16,140.18 227.72,139.21 226.33,138.31 225,137.48 223.69,136.71 222.43,135.98 221.21,135.33 
			218.87,134.09 216.64,132.99 212.33,130.92 208.05,128.77 205.9,127.61 203.7,126.39 201.51,125.09 199.28,123.73 197.01,122.3 
			194.7,120.77 192.38,119.17 190,117.47 187.58,115.69 185.11,113.79 182.58,111.79 180.03,109.71 178.75,108.6 177.48,107.44 
			176.18,106.18 174.85,104.85 173.52,103.43 172.15,101.85 170.75,100.15 169.3,98.29 167.82,96.25 166.32,94.02 164.75,91.58 
			163.96,90.29 163.15,88.94 162.33,87.54 161.5,86.06 160.66,84.52 159.8,82.93 158.94,81.26 158.06,79.51 157.17,77.71 
			156.26,75.84 155.34,73.89 154.42,71.87 153.46,69.77 152.51,67.59 151.53,65.33 150.56,62.98 149.54,60.57 148.54,58.07 
			157.76,57.27 171.14,56.26 177.83,55.86 184.53,55.54 191.22,55.36 197.91,55.28 204.6,55.36 211.3,55.54 217.99,55.86 
			224.68,56.26 238.06,57.27 251.45,58.43 252.37,63.58 253.14,68.77 253.74,74 254.17,79.25 		"/>
	</g>
	<g>
		<g>
			<g>
				<g>
					<g>
						<polygon class="st2" points="58.27,141.31 58.38,142.04 58.29,142.75 58.03,143.48 57.65,144.19 57.2,144.91 54.73,145.2 
							53.08,145.35 52.25,145.43 49.78,145.54 47.28,145.54 44.79,145.47 42.3,145.32 37.33,144.91 36.95,144.21 36.64,143.52 
							36.43,142.79 36.39,142 36.47,141.23 36.69,140.5 37.33,139.09 42.3,139.6 44.77,139.77 47.26,139.84 49.76,139.81 
							52.25,139.66 53.75,139.49 57.2,139.09 57.99,140.56 						"/>
						<polygon class="st2" points="229.34,139.49 230.83,139.66 233.32,139.81 235.82,139.84 238.31,139.77 240.8,139.6 
							245.75,139.09 246.41,140.5 246.61,141.23 246.71,142 246.65,142.79 246.45,143.52 246.13,144.21 245.75,144.91 240.8,145.32 
							238.31,145.47 235.82,145.54 233.32,145.54 230.83,145.43 230.02,145.35 228.36,145.2 225.88,144.91 225.45,144.19 
							225.07,143.48 224.81,142.75 224.72,142.04 224.83,141.31 225.09,140.56 225.88,139.09 						"/>
						<polygon class="st3" points="246.41,227.11 247.06,226.81 247.83,226.43 248.74,226.02 248.08,230.67 244.14,232.73 
							242.13,233.65 240.09,234.42 237.99,235.02 235.85,235.43 233.66,235.69 231.45,235.82 229.24,235.86 226.99,235.84 
							222.54,235.73 213.75,235.49 213.28,229.64 212.89,223.81 212.55,217.98 212.36,212.17 212.31,206.4 212.42,200.64 
							212.76,194.91 213,192.06 213.32,189.23 213.7,186.4 214.15,183.57 214.67,180.76 215.25,177.97 215.91,175.17 216.64,172.4 
							218.23,166.85 219.99,161.34 221.89,155.85 225.88,144.91 228.36,145.2 230.02,145.35 230.02,145.37 229.59,146.5 
							229.2,147.51 228.86,148.43 228.54,149.27 227.98,150.75 227.49,152.08 225.62,157.27 223.84,162.45 222.17,167.62 
							220.67,172.79 219.36,177.95 218.79,180.53 218.29,183.12 217.84,185.71 217.46,188.31 217.14,190.94 216.88,193.58 
							216.51,198.88 216.32,204.22 216.32,209.62 216.45,215.06 216.69,220.55 217.03,226.06 217.44,231.59 225.36,231.79 
							229.25,231.85 231.15,231.83 232.97,231.72 234.71,231.55 236.38,231.27 237.97,230.89 239.53,230.37 241.12,229.71 
							242.75,228.94 244.46,228.06 245.04,227.78 245.41,227.59 245.86,227.37 						"/>
						<polygon class="st3" points="53.08,145.35 54.73,145.2 57.2,144.91 61.21,155.85 63.11,161.34 64.87,166.85 66.46,172.4 
							67.17,175.17 67.83,177.97 68.43,180.76 68.95,183.57 69.4,186.4 69.78,189.23 70.1,192.06 70.34,194.91 70.66,200.64 
							70.79,206.4 70.74,212.17 70.53,217.98 70.21,223.81 69.8,229.64 69.33,235.49 60.56,235.73 56.09,235.84 53.86,235.86 
							51.63,235.82 49.42,235.69 47.25,235.43 45.09,235.02 43.01,234.42 40.97,233.65 38.96,232.73 35.02,230.67 34.34,226.02 
							35.25,226.43 36.04,226.81 36.69,227.11 37.24,227.37 37.69,227.59 38.06,227.78 38.62,228.06 40.33,228.94 41.98,229.71 
							43.55,230.37 45.11,230.89 46.7,231.27 48.37,231.55 50.13,231.72 51.95,231.83 53.83,231.85 57.73,231.79 65.64,231.59 
							66.05,226.06 66.4,220.55 66.65,215.06 66.78,209.62 66.76,204.22 66.59,198.88 66.22,193.58 65.95,190.94 65.64,188.31 
							65.24,185.71 64.81,183.12 64.31,180.53 63.72,177.95 62.41,172.79 60.91,167.62 59.26,162.45 57.46,157.27 55.59,152.08 
							55.1,150.75 54.56,149.27 54.24,148.43 53.88,147.51 53.51,146.5 53.08,145.37 						"/>
						<polygon class="st3" points="61.64,137.48 57.2,139.09 53.75,139.49 55.25,138.38 56.75,137.35 58.19,136.38 59.58,135.48 
							60.93,134.65 62.22,133.88 63.48,133.15 64.7,132.5 67.04,131.26 69.29,130.16 73.6,128.09 77.88,125.94 80.03,124.78 
							82.21,123.56 84.42,122.26 86.65,120.9 88.92,119.47 91.21,117.94 93.55,116.34 95.93,114.64 98.35,112.86 100.82,110.96 
							103.34,108.96 105.88,106.88 107.16,105.77 108.45,104.61 109.75,103.35 111.06,102.02 112.41,100.6 113.78,99.02 
							115.18,97.32 116.61,95.46 118.09,93.42 119.61,91.19 121.16,88.75 121.97,87.46 122.78,86.11 123.58,84.71 124.42,83.23 
							125.27,81.69 126.11,80.1 126.97,78.43 127.86,76.68 128.76,74.88 129.66,73.01 130.57,71.06 131.51,69.04 132.45,66.94 
							133.4,64.76 134.38,62.5 135.37,60.15 136.37,57.74 137.37,55.24 141.54,55.6 140.51,58.2 139.46,60.72 138.45,63.15 
							137.45,65.51 136.46,67.78 135.49,69.96 134.51,72.07 133.57,74.1 132.64,76.07 131.7,77.94 130.8,79.76 129.9,81.5 
							129,83.19 128.12,84.8 127.26,86.34 126.39,87.84 125.55,89.26 124.72,90.63 123.08,93.2 121.46,95.58 119.91,97.75 
							118.37,99.74 116.87,101.57 115.39,103.26 113.95,104.8 112.52,106.24 111.13,107.57 109.77,108.81 108.4,109.99 
							105.73,112.16 103.13,114.22 100.58,116.17 98.07,118.03 95.61,119.77 93.19,121.44 90.79,123.01 88.45,124.49 86.13,125.9 
							83.84,127.23 81.57,128.51 79.3,129.71 77.07,130.83 74.86,131.92 70.45,133.94 66.05,135.78 						"/>
						<polygon class="st3" points="222.17,134.65 223.5,135.48 224.89,136.38 226.33,137.35 227.83,138.38 229.34,139.49 
							225.88,139.09 221.44,137.48 217.03,135.78 212.65,133.94 208.24,131.92 206.01,130.83 203.78,129.71 201.53,128.51 
							199.26,127.23 196.95,125.9 194.65,124.49 192.29,123.01 189.91,121.44 187.49,119.77 185.01,118.03 182.5,116.17 
							179.95,114.22 177.35,112.16 174.68,109.99 173.33,108.81 171.97,107.57 170.56,106.24 169.15,104.8 167.69,103.26 
							166.23,101.57 164.73,99.74 163.19,97.75 161.62,95.58 160.02,93.2 158.37,90.63 157.53,89.26 156.69,87.84 155.84,86.34 
							154.96,84.8 154.08,83.19 153.2,81.5 152.3,79.76 151.38,77.94 150.46,76.07 149.53,74.1 148.57,72.07 147.61,69.96 
							146.64,67.78 145.65,65.51 144.63,63.15 143.62,60.72 142.59,58.2 141.54,55.6 145.71,55.24 146.71,57.74 147.73,60.15 
							148.7,62.5 149.68,64.76 150.63,66.94 151.59,69.04 152.51,71.06 153.43,73.01 154.34,74.88 155.23,76.68 156.11,78.43 
							156.97,80.1 157.83,81.69 158.67,83.23 159.5,84.71 160.32,86.11 161.13,87.46 161.92,88.75 163.49,91.19 164.99,93.42 
							166.47,95.46 167.92,97.32 169.32,99.02 170.69,100.6 172.02,102.02 173.35,103.35 174.65,104.61 175.92,105.77 177.2,106.88 
							179.75,108.96 182.28,110.96 184.75,112.86 187.17,114.64 189.55,116.34 191.87,117.94 194.18,119.47 196.45,120.9 
							198.68,122.26 200.87,123.56 203.07,124.78 205.22,125.94 209.5,128.09 213.81,130.16 216.04,131.26 218.38,132.5 
							219.6,133.15 220.86,133.88 						"/>
						<polygon class="st4" points="53.51,146.5 53.88,147.51 54.24,148.43 54.56,149.27 55.1,150.75 55.59,152.08 57.46,157.27 
							59.26,162.45 60.91,167.62 62.41,172.79 63.72,177.95 64.31,180.53 64.81,183.12 65.24,185.71 65.64,188.31 65.95,190.94 
							66.22,193.58 66.59,198.88 66.76,204.22 66.78,209.62 66.65,215.06 66.4,220.55 66.05,226.06 65.64,231.59 57.73,231.79 
							53.83,231.85 51.95,231.83 50.13,231.72 48.37,231.55 46.7,231.27 45.11,230.89 43.55,230.37 41.98,229.71 40.33,228.94 
							38.62,228.06 38.06,227.78 37.69,227.59 37.24,227.37 36.69,227.11 36.04,226.81 35.25,226.43 34.34,226.02 34.24,225.35 
							33.56,220 33,214.64 32.61,209.27 32.36,203.89 32.23,198.49 32.27,193.09 32.42,187.69 32.7,182.31 33.09,176.92 
							33.6,171.56 34.22,166.21 34.93,160.87 35.7,155.55 37.33,144.91 42.3,145.32 44.79,145.47 47.28,145.54 49.78,145.54 
							52.25,145.43 53.08,145.35 53.08,145.37 						"/>
						<polygon class="st4" points="137.37,55.24 136.37,57.74 135.37,60.15 134.38,62.5 133.4,64.76 132.45,66.94 131.51,69.04 
							130.57,71.06 129.66,73.01 128.76,74.88 127.86,76.68 126.97,78.43 126.11,80.1 125.27,81.69 124.42,83.23 123.58,84.71 
							122.78,86.11 121.97,87.46 121.16,88.75 119.61,91.19 118.09,93.42 116.61,95.46 115.18,97.32 113.78,99.02 112.41,100.6 
							111.06,102.02 109.75,103.35 108.45,104.61 107.16,105.77 105.88,106.88 103.34,108.96 100.82,110.96 98.35,112.86 
							95.93,114.64 93.55,116.34 91.21,117.94 88.92,119.47 86.65,120.9 84.42,122.26 82.21,123.56 80.03,124.78 77.88,125.94 
							73.6,128.09 69.29,130.16 67.04,131.26 64.7,132.5 63.48,133.15 62.22,133.88 60.93,134.65 59.58,135.48 58.19,136.38 
							56.75,137.35 55.25,138.38 53.75,139.49 52.25,139.66 49.76,139.81 47.26,139.84 44.77,139.77 42.3,139.6 37.33,139.09 
							35.49,128.75 34.61,123.56 33.82,118.39 33.09,113.17 32.47,107.96 31.99,102.72 31.65,97.47 31.44,92.2 31.39,86.94 
							31.5,81.67 31.76,76.42 32.17,71.17 32.77,65.94 33.54,60.75 34.48,55.6 47.86,54.44 61.25,53.43 67.94,53.03 74.63,52.71 
							81.33,52.53 88.02,52.45 94.71,52.53 101.4,52.71 108.08,53.03 114.77,53.43 128.16,54.44 						"/>
						<polygon class="st4" points="230.83,145.43 233.32,145.54 235.82,145.54 238.31,145.47 240.8,145.32 245.75,144.91 
							247.4,155.55 248.17,160.87 248.86,166.21 249.48,171.56 250.01,176.92 250.4,182.31 250.68,187.69 250.83,193.09 
							250.85,198.49 250.74,203.89 250.49,209.27 250.08,214.64 249.54,220 248.84,225.35 248.75,226.02 248.74,226.02 
							247.83,226.43 247.06,226.81 246.41,227.11 245.86,227.37 245.41,227.59 245.04,227.78 244.46,228.06 242.75,228.94 
							241.12,229.71 239.53,230.37 237.97,230.89 236.38,231.27 234.71,231.55 232.97,231.72 231.15,231.83 229.25,231.85 
							225.36,231.79 217.44,231.59 217.03,226.06 216.69,220.55 216.45,215.06 216.32,209.62 216.32,204.22 216.51,198.88 
							216.88,193.58 217.14,190.94 217.46,188.31 217.84,185.71 218.29,183.12 218.79,180.53 219.36,177.95 220.67,172.79 
							222.17,167.62 223.84,162.45 225.62,157.27 227.49,152.08 227.98,150.75 228.54,149.27 228.86,148.43 229.2,147.51 
							229.59,146.5 230.02,145.37 230.02,145.35 						"/>
						<polygon class="st4" points="251.6,81.67 251.69,86.94 251.66,92.2 251.45,97.47 251.09,102.72 250.61,107.96 249.99,113.17 
							249.28,118.39 248.47,123.56 247.61,128.75 245.75,139.09 240.8,139.6 238.31,139.77 235.82,139.84 233.32,139.81 
							230.83,139.66 229.34,139.49 227.83,138.38 226.33,137.35 224.89,136.38 223.5,135.48 222.17,134.65 220.86,133.88 
							219.6,133.15 218.38,132.5 216.04,131.26 213.81,130.16 209.5,128.09 205.22,125.94 203.07,124.78 200.87,123.56 
							198.68,122.26 196.45,120.9 194.18,119.47 191.87,117.94 189.55,116.34 187.17,114.64 184.75,112.86 182.28,110.96 
							179.75,108.96 177.2,106.88 175.92,105.77 174.65,104.61 173.35,103.35 172.02,102.02 170.69,100.6 169.32,99.02 
							167.92,97.32 166.47,95.46 164.99,93.42 163.49,91.19 161.92,88.75 161.13,87.46 160.32,86.11 159.5,84.71 158.67,83.23 
							157.83,81.69 156.97,80.1 156.11,78.43 155.23,76.68 154.34,74.88 153.43,73.01 152.51,71.06 151.59,69.04 150.63,66.94 
							149.68,64.76 148.7,62.5 147.73,60.15 146.71,57.74 145.71,55.24 154.93,54.44 168.31,53.43 175,53.03 181.7,52.71 
							188.39,52.53 195.08,52.45 201.77,52.53 208.47,52.71 215.16,53.03 221.85,53.43 235.23,54.44 248.62,55.6 249.54,60.75 
							250.31,65.94 250.91,71.17 251.34,76.42 						"/>
					</g>
				</g>
			</g>
		</g>
	</g>
</g>
</svg>
