<?xml version="1.0" encoding="UTF-8" standalone="no"?>
<!-- Generator: Adobe Illustrator 26.1.0, SVG Export Plug-In . SVG Version: 6.00 Build 0)  -->

<svg
   version="1.1"
   id="Information"
   x="0px"
   y="0px"
   viewBox="0 0 129.68175 164.82044"
   xml:space="preserve"
   sodipodi:docname="Ikon_var_position_1.svg"
   width="129.68175"
   height="164.82043"
   inkscape:version="1.3.2 (091e20ef0f, 2023-11-25)"
   xmlns:inkscape="http://www.inkscape.org/namespaces/inkscape"
   xmlns:sodipodi="http://sodipodi.sourceforge.net/DTD/sodipodi-0.dtd"
   xmlns="http://www.w3.org/2000/svg"
   xmlns:svg="http://www.w3.org/2000/svg"><defs
   id="defs17" /><sodipodi:namedview
   id="namedview17"
   pagecolor="#ffffff"
   bordercolor="#000000"
   borderopacity="0.25"
   inkscape:showpageshadow="2"
   inkscape:pageopacity="0.0"
   inkscape:pagecheckerboard="0"
   inkscape:deskcolor="#d1d1d1"
   inkscape:zoom="2.8363791"
   inkscape:cx="63.10863"
   inkscape:cy="80.031615"
   inkscape:window-width="1920"
   inkscape:window-height="1008"
   inkscape:window-x="0"
   inkscape:window-y="0"
   inkscape:window-maximized="1"
   inkscape:current-layer="Information" />
<style
   type="text/css"
   id="style1">
	.st0{opacity:0.3;}
	.st1{fill:#231F20;}
	.st2{fill:none;stroke:#231F20;stroke-width:4;stroke-linecap:round;stroke-linejoin:round;}
	.st3{fill:none;stroke:#231F20;stroke-width:4;stroke-linecap:round;}
	.st4{fill:#363894;}
	.st5{fill:#FAAF40;}
	.st6{fill:#F6921E;}
	.st7{fill:none;stroke:#F6921E;stroke-width:4;stroke-linecap:round;stroke-linejoin:round;}
	.st8{fill:none;stroke:#F6921E;stroke-width:4;stroke-linecap:round;}
</style>
<g
   id="Position"
   transform="translate(-78.759375,-61.585573)">
	<g
   id="ELLIPSE_00000042725703892444920420000014888084224701489073_">
		<g
   class="st0"
   id="g7">
			<path
   class="st1"
   d="m 205.93,183.97 c 4.41,13.87 -19.16,30.69 -52.83,37.45 -33.56,6.93 -64.48,1.29 -68.97,-12.57 -4.41,-13.87 19.07,-30.67 52.72,-37.62 3.46,7.84 5.87,16.43 8.22,25.12 -0.44,-9.03 -0.87,-17.96 -0.09,-26.55 30.35,-4.67 57.29,1.67 60.95,14.17 z"
   id="path1" />
			<path
   class="st1"
   d="m 144.97,169.81 c -0.78,8.59 -0.35,17.52 0.09,26.55 -2.35,-8.69 -4.76,-17.28 -8.22,-25.12 -1.4,-3.23 -2.95,-6.33 -4.82,-9.2 -5.91,-9.29 -14.38,-16.81 -23,-24.21 -16.65,-12.66 -20.52,-37.23 -8.56,-54.91 11.95,-17.78 35.12,-21.85 51.96,-9.13 16.74,12.64 20.51,37.14 8.56,54.91 -5.81,9.94 -11.52,19.95 -14.35,30.78 -0.81,3.33 -1.33,6.8 -1.66,10.33 z m 2.94,-67.07 c -1.65,-9.94 -10.54,-16.73 -19.97,-15.08 -9.61,1.6 -15.93,11.15 -14.36,21.11 1.57,9.96 10.54,16.73 20.07,15.15 9.43,-1.65 15.84,-11.13 14.26,-21.18 z"
   id="path2" />
			<path
   class="st1"
   d="m 127.94,87.66 c 9.42,-1.66 18.31,5.14 19.97,15.08 1.58,10.05 -4.83,19.53 -14.26,21.19 -9.52,1.58 -18.5,-5.2 -20.07,-15.15 -1.57,-9.95 4.75,-19.52 14.36,-21.12 z"
   id="path3" />
			<path
   class="st2"
   d="m 160.97,128.7 c 11.95,-17.78 8.18,-42.27 -8.56,-54.91 -16.84,-12.72 -40.01,-8.64 -51.96,9.13 -11.96,17.69 -8.09,42.26 8.56,54.91"
   id="path4" />
			<path
   class="st2"
   d="m 109.01,137.83 c 8.63,7.4 17.1,14.92 23,24.21 1.87,2.86 3.43,5.97 4.82,9.2 3.46,7.84 5.87,16.43 8.22,25.12"
   id="path5" />
			<path
   class="st2"
   d="m 160.97,128.7 c -5.81,9.94 -11.52,19.95 -14.35,30.78 -0.81,3.33 -1.33,6.8 -1.66,10.34 -0.78,8.59 -0.35,17.52 0.09,26.55"
   id="path6" />
			<path
   class="st3"
   d="m 136.93,171.23 -0.09,0.02 c -33.65,6.95 -57.12,23.75 -52.72,37.62 4.49,13.85 35.41,19.5 68.97,12.57 33.68,-6.76 57.24,-23.58 52.83,-37.45 -3.66,-12.5 -30.6,-18.84 -60.96,-14.16 l -0.09,0.02"
   id="path7" />
		</g>
		<g
   id="g17">
			<g
   id="g16">
				<g
   id="g15">
					<g
   id="g10">
						<path
   class="st4"
   d="m 203.09,181.14 c 4.41,13.87 -19.16,30.69 -52.83,37.45 -33.56,6.93 -64.48,1.29 -68.97,-12.57 -4.41,-13.87 19.07,-30.67 52.72,-37.62 3.46,7.84 5.87,16.43 8.22,25.12 -0.44,-9.03 -0.87,-17.96 -0.09,-26.55 30.35,-4.67 57.3,1.67 60.95,14.17 z"
   id="path8" />
						<path
   class="st5"
   d="m 142.13,166.98 c -0.78,8.59 -0.35,17.52 0.09,26.55 -2.35,-8.69 -4.76,-17.28 -8.22,-25.12 -1.4,-3.23 -2.95,-6.33 -4.82,-9.2 -5.91,-9.29 -14.38,-16.81 -23,-24.21 -16.65,-12.66 -20.52,-37.23 -8.56,-54.91 11.95,-17.78 35.12,-21.85 51.96,-9.13 16.74,12.64 20.51,37.14 8.56,54.91 -5.81,9.94 -11.52,19.95 -14.35,30.78 -0.81,3.32 -1.33,6.8 -1.66,10.33 z m 2.94,-67.08 c -1.65,-9.94 -10.54,-16.73 -19.97,-15.08 -9.61,1.6 -15.93,11.15 -14.36,21.11 1.57,9.96 10.54,16.73 20.07,15.15 9.43,-1.65 15.85,-11.13 14.26,-21.18 z"
   id="path9" />
						<path
   class="st6"
   d="m 125.11,84.82 c 9.42,-1.66 18.31,5.14 19.97,15.08 1.58,10.05 -4.83,19.53 -14.26,21.19 -9.52,1.58 -18.5,-5.2 -20.07,-15.15 -1.57,-9.95 4.75,-19.52 14.36,-21.12 z"
   id="path10" />
					</g>
					<g
   id="g14">
						<path
   class="st7"
   d="m 158.14,125.86 c 11.95,-17.78 8.18,-42.27 -8.56,-54.91 -16.84,-12.72 -40.01,-8.64 -51.96,9.13 -11.96,17.69 -8.09,42.26 8.56,54.91"
   id="path11" />
						<path
   class="st7"
   d="m 106.17,135 c 8.63,7.4 17.1,14.92 23,24.21 1.87,2.86 3.43,5.97 4.82,9.2 3.46,7.84 5.87,16.43 8.22,25.12"
   id="path12" />
						<path
   class="st7"
   d="m 158.14,125.86 c -5.81,9.94 -11.52,19.95 -14.35,30.78 -0.81,3.33 -1.33,6.8 -1.66,10.34 -0.78,8.59 -0.35,17.52 0.09,26.55"
   id="path13" />
						<path
   class="st8"
   d="m 134.09,168.39 -0.09,0.02 c -33.65,6.95 -57.12,23.75 -52.72,37.62 4.49,13.85 35.41,19.5 68.97,12.57 33.68,-6.76 57.24,-23.58 52.83,-37.45 -3.66,-12.5 -30.6,-18.84 -60.96,-14.16 l -0.09,0.02"
   id="path14" />
					</g>
				</g>
			</g>
		</g>
	</g>
</g>
</svg>
