<?xml version="1.0" encoding="utf-8"?>
<!-- Generator: Adobe Illustrator 26.1.0, SVG Export Plug-In . SVG Version: 6.00 Build 0)  -->
<svg version="1.1" id="Lager_1" xmlns="http://www.w3.org/2000/svg" xmlns:xlink="http://www.w3.org/1999/xlink" x="0px" y="0px"
	 viewBox="0 0 283.46 283.46" style="enable-background:new 0 0 283.46 283.46;" xml:space="preserve">
<style type="text/css">
	.st0{fill:#1E2676;}
	.st1{fill:none;}
	.st2{fill:none;stroke:#FFFFFF;stroke-width:2;stroke-linecap:round;stroke-linejoin:round;}
	.st3{fill:none;stroke:#FFFFFF;stroke-width:2;stroke-linecap:round;stroke-linejoin:round;stroke-miterlimit:10;}
	.st4{fill:#FFFFFF;}
	.st5{fill:none;stroke:#1E2676;stroke-linecap:round;stroke-linejoin:round;stroke-miterlimit:10;}
</style>
<g id="Priser_2024">
	<g id="Olivkvist">
		<g id="SPLINE_3555_">
			<path class="st0" d="M130.12,249.38c-0.19-2.53-0.38-5.05-1.1-7.44l0,0c-1-3.29-2.99-6.32-5.5-8.74l0,0
				c-2.45-2.37-5.4-4.14-8.5-5.5l0,0c-2.74-1.19-5.6-2.06-8.5-2.79l0,0c-2.41-0.61-4.86-1.13-7.3-1.65"/>
		</g>
		<g id="LINE_2308_">
			<line class="st1" x1="99.23" y1="223.26" x2="130.12" y2="249.38"/>
		</g>
		<g id="SPLINE_3556_">
			<path class="st0" d="M130.12,249.38c-2.52,0.23-5.04,0.47-7.53,0.16l0,0c-3.4-0.44-6.73-1.9-9.53-3.97l0,0
				c-2.74-2.03-4.98-4.63-6.83-7.47l0,0c-1.63-2.5-2.96-5.18-4.17-7.91l0,0c-1.01-2.29-1.92-4.6-2.84-6.92"/>
		</g>
		<g id="SPLINE_3557_">
			<path class="st0" d="M133.81,258.16c-2.14-1.36-4.27-2.72-6.62-3.57l0,0c-3.22-1.17-6.86-1.39-10.29-0.83l0,0
				c-3.37,0.55-6.55,1.85-9.49,3.52l0,0c-2.6,1.48-5.01,3.25-7.32,5.13l0,0c-1.94,1.57-3.81,3.22-5.69,4.86"/>
		</g>
		<g id="LINE_2309_">
			<line class="st1" x1="94.4" y1="267.27" x2="133.81" y2="258.16"/>
		</g>
		<g id="SPLINE_3558_">
			<path class="st0" d="M133.81,258.16c-1.32,2.15-2.64,4.32-4.38,6.11l0,0c-2.38,2.47-5.55,4.26-8.89,5.26l0,0
				c-3.27,0.98-6.69,1.21-10.07,1l0,0c-2.98-0.2-5.92-0.73-8.83-1.4l0,0c-2.43-0.57-4.84-1.22-7.24-1.87"/>
		</g>
		<g id="SPLINE_3559_">
			<path class="st0" d="M93.26,241.45c1.15-2.25,2.29-4.52,2.91-6.94l0,0c0.85-3.32,0.72-6.95-0.18-10.33l0,0
				c-0.87-3.29-2.47-6.33-4.43-9.09l0,0c-1.73-2.44-3.72-4.66-5.82-6.79l0,0c-1.75-1.78-3.57-3.48-5.39-5.19"/>
		</g>
		<g id="LINE_2310_">
			<line class="st1" x1="80.35" y1="203.12" x2="93.26" y2="241.45"/>
		</g>
		<g id="SPLINE_3560_">
			<path class="st0" d="M93.26,241.45c-2.28-1.11-4.56-2.21-6.52-3.76l0,0c-2.69-2.13-4.77-5.11-6.1-8.33l0,0
				c-1.3-3.15-1.86-6.54-1.98-9.92l0,0c-0.1-2.98,0.14-5.97,0.53-8.93l0,0c0.33-2.47,0.74-4.93,1.16-7.39"/>
		</g>
		<g id="SPLINE_3561_">
			<path class="st0" d="M106.98,249.85c-2.02-1.52-4.04-3.05-6.32-4.09l0,0c-3.12-1.42-6.73-1.93-10.2-1.64l0,0
				c-3.4,0.29-6.67,1.33-9.73,2.76l0,0c-2.71,1.27-5.25,2.85-7.71,4.54l0,0c-2.06,1.41-4.06,2.9-6.05,4.39"/>
		</g>
		<g id="LINE_2311_">
			<line class="st1" x1="66.97" y1="255.81" x2="106.98" y2="249.85"/>
		</g>
		<g id="SPLINE_3562_">
			<path class="st0" d="M106.98,249.85c-1.49,2.04-2.97,4.1-4.85,5.75l0,0c-2.57,2.27-5.87,3.8-9.28,4.54l0,0
				c-3.33,0.73-6.77,0.68-10.12,0.21l0,0c-2.96-0.43-5.85-1.2-8.7-2.1l0,0c-2.38-0.75-4.73-1.6-7.07-2.43"/>
		</g>
		<g id="SPLINE_3563_">
			<path class="st0" d="M67.07,227.46c1.76-1.81,3.53-3.62,4.86-5.75l0,0c1.81-2.91,2.77-6.43,2.93-9.9l0,0
				c0.16-3.41-0.46-6.79-1.49-10.01l0,0c-0.91-2.85-2.15-5.57-3.52-8.22l0,0c-1.14-2.22-2.36-4.39-3.59-6.57"/>
		</g>
		<g id="LINE_2312_">
			<line class="st1" x1="66.27" y1="187.01" x2="67.07" y2="227.46"/>
		</g>
		<g id="SPLINE_3564_">
			<path class="st0" d="M67.07,227.46c-1.84-1.75-3.68-3.48-5.08-5.55l0,0c-1.93-2.85-3.02-6.31-3.32-9.78l0,0
				c-0.29-3.4,0.19-6.8,1.09-10.06l0,0c0.79-2.88,1.93-5.65,3.18-8.36l0,0c1.05-2.26,2.19-4.48,3.32-6.7"/>
		</g>
		<g id="SPLINE_3565_">
			<path class="st0" d="M82.13,240.58c-1.54-2.01-3.07-4.02-4.99-5.63l0,0c-2.62-2.21-5.96-3.66-9.38-4.32l0,0
				c-3.35-0.64-6.78-0.51-10.12,0.05l0,0c-2.95,0.5-5.82,1.33-8.65,2.3l0,0c-2.36,0.81-4.69,1.71-7.01,2.62"/>
		</g>
		<g id="LINE_2313_">
			<line class="st1" x1="41.99" y1="235.59" x2="82.13" y2="240.58"/>
		</g>
		<g id="SPLINE_3566_">
			<path class="st0" d="M82.13,240.58c-1.98,1.58-3.96,3.14-6.21,4.23l0,0c-3.09,1.5-6.68,2.1-10.16,1.89l0,0
				c-3.4-0.2-6.7-1.16-9.8-2.51l0,0c-2.73-1.21-5.32-2.72-7.82-4.35l0,0c-2.09-1.37-4.12-2.81-6.16-4.25"/>
		</g>
		<g id="SPLINE_3567_">
			<path class="st0" d="M47.61,209.85c2.12-1.38,4.24-2.76,6-4.54l0,0c2.41-2.45,4.11-5.66,5.03-9.02l0,0
				c0.89-3.29,1.04-6.72,0.73-10.09l0,0c-0.27-2.97-0.88-5.9-1.63-8.79l0,0c-0.62-2.42-1.35-4.8-2.06-7.19"/>
		</g>
		<g id="LINE_2314_">
			<line class="st1" x1="55.67" y1="170.21" x2="47.61" y2="209.85"/>
		</g>
		<g id="SPLINE_3568_">
			<path class="st0" d="M47.61,209.85c-1.41-2.1-2.83-4.2-3.75-6.52l0,0c-1.26-3.19-1.57-6.82-1.1-10.27l0,0
				c0.46-3.38,1.67-6.59,3.27-9.58l0,0c1.41-2.64,3.12-5.09,4.93-7.46l0,0c1.52-1.98,3.11-3.9,4.71-5.82"/>
		</g>
		<g id="SPLINE_3569_">
			<path class="st0" d="M60.39,225.74c-1.12-2.27-2.24-4.54-3.81-6.48l0,0c-2.15-2.67-5.15-4.74-8.38-6.04l0,0
				c-3.16-1.27-6.56-1.81-9.93-1.9l0,0c-2.99-0.08-5.97,0.19-8.93,0.6l0,0c-2.47,0.34-4.93,0.77-7.38,1.21"/>
		</g>
		<g id="LINE_2315_">
			<line class="st1" x1="21.96" y1="213.12" x2="60.39" y2="225.74"/>
		</g>
		<g id="SPLINE_3570_">
			<path class="st0" d="M60.39,225.74c-2.25,1.17-4.5,2.33-6.91,2.97l0,0c-3.32,0.87-6.95,0.76-10.32-0.1l0,0
				c-3.3-0.85-6.35-2.43-9.13-4.36l0,0c-2.45-1.71-4.69-3.69-6.83-5.77l0,0c-1.79-1.75-3.51-3.55-5.23-5.35"/>
		</g>
		<g id="SPLINE_3571_">
			<path class="st0" d="M42.55,207.28c-0.64-2.45-1.29-4.9-2.44-7.12l0,0c-1.58-3.05-4.09-5.67-7-7.59l0,0
				c-2.85-1.88-6.06-3.08-9.36-3.85l0,0c-2.92-0.68-5.89-1.01-8.87-1.2l0,0c-2.49-0.16-4.98-0.22-7.47-0.29"/>
		</g>
		<g id="LINE_2316_">
			<line class="st1" x1="7.42" y1="187.23" x2="42.55" y2="207.28"/>
		</g>
		<g id="SPLINE_3572_">
			<path class="st0" d="M42.55,207.28c-2.43,0.69-4.87,1.38-7.37,1.52l0,0c-3.42,0.19-6.97-0.64-10.09-2.16l0,0
				c-3.07-1.49-5.74-3.65-8.08-6.1l0,0c-2.06-2.16-3.86-4.55-5.55-7.02l0,0c-1.41-2.06-2.73-4.18-4.05-6.29"/>
		</g>
		<g id="SPLINE_3573_">
			<path class="st0" d="M35.19,186.19c-0.36-2.5-0.72-5.01-1.61-7.35l0,0c-1.22-3.21-3.42-6.1-6.09-8.34l0,0
				c-2.61-2.19-5.67-3.76-8.85-4.9l0,0c-2.81-1-5.73-1.67-8.67-2.21l0,0c-2.45-0.44-4.92-0.79-7.39-1.14"/>
		</g>
		<g id="LINE_2317_">
			<line class="st1" x1="2.59" y1="162.25" x2="35.19" y2="186.19"/>
		</g>
		<g id="SPLINE_3574_">
			<path class="st0" d="M35.19,186.19c-2.5,0.41-5,0.81-7.49,0.67l0,0c-3.42-0.2-6.85-1.43-9.78-3.3l0,0
				c-2.88-1.84-5.29-4.28-7.32-6.98l0,0c-1.8-2.39-3.31-4.97-4.7-7.61l0,0c-1.17-2.21-2.23-4.46-3.31-6.71"/>
		</g>
		<g id="SPLINE_3575_">
			<path class="st0" d="M27.29,164.92c0.61-2.46,1.22-4.91,1.29-7.41l0,0c0.09-3.43-0.85-6.94-2.47-10.02l0,0
				c-1.59-3.02-3.83-5.63-6.35-7.88l0,0c-2.23-2-4.67-3.72-7.19-5.32l0,0c-2.1-1.34-4.26-2.6-6.41-3.86"/>
		</g>
		<g id="LINE_2318_">
			<line class="st1" x1="6.15" y1="130.42" x2="27.29" y2="164.92"/>
		</g>
		<g id="SPLINE_3576_">
			<path class="st0" d="M27.29,164.92c-2.47-0.57-4.93-1.14-7.19-2.22l0,0c-3.09-1.48-5.79-3.92-7.8-6.76l0,0
				c-1.97-2.79-3.27-5.96-4.14-9.23l0,0c-0.77-2.89-1.19-5.85-1.48-8.82l0,0c-0.23-2.48-0.38-4.97-0.52-7.46"/>
		</g>
		<g id="SPLINE_3577_">
			<path class="st0" d="M37.79,181.54c2.22-1.21,4.45-2.42,6.33-4.06l0,0c2.59-2.25,4.54-5.32,5.72-8.6l0,0
				c1.15-3.21,1.56-6.62,1.53-10l0,0c-0.03-2.99-0.42-5.96-0.94-8.9l0,0c-0.43-2.46-0.96-4.9-1.48-7.33"/>
		</g>
		<g id="LINE_2319_">
			<line class="st1" x1="48.94" y1="142.66" x2="37.79" y2="181.54"/>
		</g>
		<g id="SPLINE_3578_">
			<path class="st0" d="M37.79,181.54c-1.25-2.2-2.49-4.41-3.22-6.8l0,0c-1-3.28-1.03-6.92-0.29-10.32l0,0
				c0.73-3.33,2.19-6.44,4.01-9.29l0,0c1.61-2.52,3.52-4.83,5.51-7.05l0,0c1.67-1.85,3.41-3.64,5.15-5.42"/>
		</g>
		<g id="SPLINE_3579_">
			<path class="st0" d="M30.84,151.58c2.44-0.68,4.88-1.36,7.08-2.53l0,0c3.03-1.62,5.62-4.17,7.49-7.11l0,0
				c1.84-2.87,3.01-6.1,3.72-9.41l0,0c0.64-2.92,0.93-5.9,1.08-8.88l0,0c0.13-2.49,0.16-4.98,0.19-7.48"/>
		</g>
		<g id="LINE_2320_">
			<line class="st1" x1="50.41" y1="116.18" x2="30.84" y2="151.58"/>
		</g>
		<g id="SPLINE_3580_">
			<path class="st0" d="M30.84,151.58c-0.72-2.42-1.44-4.85-1.62-7.34l0,0c-0.24-3.42,0.55-6.98,2.02-10.13l0,0
				c1.45-3.09,3.57-5.79,5.99-8.16l0,0c2.14-2.09,4.5-3.93,6.94-5.64l0,0c2.04-1.44,4.14-2.79,6.24-4.14"/>
		</g>
		<g id="SPLINE_3581_">
			<path class="st0" d="M25.88,136.6c1.4-2.11,2.81-4.22,3.7-6.55l0,0c1.23-3.2,1.52-6.83,1.02-10.27l0,0
				c-0.49-3.38-1.72-6.58-3.34-9.55l0,0c-1.43-2.63-3.16-5.07-4.99-7.42l0,0c-1.54-1.97-3.14-3.87-4.75-5.78"/>
		</g>
		<g id="LINE_2321_">
			<line class="st1" x1="17.53" y1="97.02" x2="25.88" y2="136.6"/>
		</g>
		<g id="SPLINE_3582_">
			<path class="st0" d="M25.88,136.6c-2.13-1.36-4.26-2.73-6.03-4.5l0,0c-2.42-2.43-4.15-5.63-5.09-8.98l0,0
				c-0.92-3.28-1.09-6.72-0.81-10.08l0,0c0.25-2.98,0.84-5.91,1.57-8.81l0,0c0.61-2.42,1.3-4.81,2-7.21"/>
		</g>
		<g id="SPLINE_3583_">
			<path class="st0" d="M33.86,106.47c1.84-1.74,3.67-3.49,5.06-5.56l0,0c1.91-2.85,3-6.32,3.28-9.79l0,0
				c0.28-3.4-0.21-6.8-1.13-10.05l0,0c-0.81-2.88-1.95-5.65-3.22-8.35l0,0c-1.05-2.26-2.2-4.48-3.34-6.69"/>
		</g>
		<g id="LINE_2322_">
			<line class="st1" x1="34.52" y1="66.02" x2="33.86" y2="106.47"/>
		</g>
		<g id="SPLINE_3584_">
			<path class="st0" d="M33.86,106.47c-1.78-1.8-3.55-3.61-4.88-5.73l0,0c-1.82-2.91-2.79-6.41-2.96-9.89l0,0
				c-0.16-3.41,0.44-6.79,1.46-10.01l0,0c0.91-2.85,2.14-5.58,3.48-8.24l0,0c1.13-2.22,2.35-4.4,3.57-6.58"/>
		</g>
		<g id="SPLINE_3585_">
			<path class="st0" d="M37.47,116.84c2.53,0.04,5.06,0.08,7.51-0.42l0,0c3.36-0.69,6.57-2.4,9.21-4.68l0,0
				c2.58-2.23,4.62-5,6.24-7.96l0,0c1.44-2.62,2.56-5.39,3.56-8.21l0,0c0.83-2.35,1.57-4.74,2.3-7.12"/>
		</g>
		<g id="LINE_2323_">
			<line class="st1" x1="66.29" y1="88.46" x2="37.47" y2="116.84"/>
		</g>
		<g id="SPLINE_3586_">
			<path class="st0" d="M37.47,116.84c0-2.53-0.01-5.06,0.53-7.5l0,0c0.74-3.35,2.51-6.53,4.82-9.13l0,0
				c2.27-2.55,5.07-4.54,8.06-6.12l0,0c2.64-1.4,5.43-2.48,8.26-3.43l0,0c2.36-0.79,4.76-1.5,7.15-2.2"/>
		</g>
		<g id="SPLINE_3587_">
			<path class="st0" d="M45.42,90.54c2.52-0.25,5.04-0.49,7.42-1.27l0,0c3.26-1.07,6.25-3.14,8.61-5.7l0,0
				c2.31-2.51,4.02-5.49,5.3-8.62l0,0c1.13-2.77,1.93-5.65,2.6-8.56l0,0c0.55-2.43,1.02-4.88,1.48-7.33"/>
		</g>
		<g id="LINE_2324_">
			<line class="st1" x1="70.81" y1="59.05" x2="45.42" y2="90.54"/>
		</g>
		<g id="SPLINE_3588_">
			<path class="st0" d="M45.42,90.54c-0.29-2.52-0.59-5.03-0.33-7.52l0,0c0.35-3.41,1.75-6.77,3.74-9.62l0,0
				c1.97-2.79,4.52-5.09,7.31-7l0,0c2.46-1.69,5.11-3.09,7.81-4.35l0,0c2.26-1.06,4.56-2.03,6.86-3"/>
		</g>
		<g id="CIRCLE_234_">
			<path class="st0" d="M148.23,254.6c0-2.99-2.43-5.42-5.42-5.42s-5.42,2.43-5.42,5.42c0,2.99,2.43,5.42,5.42,5.42
				S148.23,257.59,148.23,254.6L148.23,254.6L148.23,254.6z"/>
		</g>
		<g id="SPLINE_3589_">
			<path class="st0" d="M155.49,249.38c0.19-2.53,0.38-5.05,1.1-7.44l0,0c0.99-3.29,3-6.32,5.49-8.74l0,0
				c2.46-2.37,5.4-4.14,8.5-5.5l0,0c2.73-1.19,5.6-2.06,8.5-2.79l0,0c2.41-0.61,4.86-1.13,7.3-1.65"/>
		</g>
		<g id="LINE_2325_">
			<line class="st1" x1="186.38" y1="223.26" x2="155.49" y2="249.38"/>
		</g>
		<g id="SPLINE_3590_">
			<path class="st0" d="M155.49,249.38c2.52,0.23,5.04,0.47,7.52,0.16l0,0c3.41-0.44,6.73-1.9,9.53-3.97l0,0
				c2.75-2.03,4.98-4.63,6.83-7.47l0,0c1.63-2.5,2.97-5.18,4.17-7.91l0,0c1-2.29,1.92-4.6,2.84-6.92"/>
		</g>
		<g id="SPLINE_3591_">
			<path class="st0" d="M151.79,258.16c2.14-1.36,4.27-2.72,6.62-3.57l0,0c3.22-1.17,6.86-1.39,10.29-0.83l0,0
				c3.37,0.55,6.55,1.85,9.49,3.52l0,0c2.6,1.48,5.01,3.25,7.32,5.13l0,0c1.94,1.57,3.82,3.22,5.69,4.86"/>
		</g>
		<g id="LINE_2326_">
			<line class="st1" x1="191.21" y1="267.27" x2="151.79" y2="258.16"/>
		</g>
		<g id="SPLINE_3592_">
			<path class="st0" d="M151.79,258.16c1.32,2.15,2.64,4.32,4.38,6.11l0,0c2.38,2.47,5.55,4.26,8.89,5.26l0,0
				c3.26,0.98,6.69,1.21,10.06,1l0,0c2.99-0.2,5.93-0.73,8.83-1.4l0,0c2.43-0.57,4.84-1.22,7.25-1.87"/>
		</g>
		<g id="SPLINE_3593_">
			<path class="st0" d="M192.35,241.45c-1.15-2.25-2.29-4.52-2.91-6.94l0,0c-0.85-3.32-0.72-6.95,0.18-10.33l0,0
				c0.88-3.29,2.48-6.33,4.43-9.09l0,0c1.73-2.44,3.73-4.66,5.83-6.79l0,0c1.75-1.78,3.57-3.48,5.39-5.19"/>
		</g>
		<g id="LINE_2327_">
			<line class="st1" x1="205.26" y1="203.12" x2="192.35" y2="241.45"/>
		</g>
		<g id="SPLINE_3594_">
			<path class="st0" d="M192.35,241.45c2.28-1.11,4.55-2.21,6.51-3.76l0,0c2.69-2.13,4.78-5.11,6.11-8.33l0,0
				c1.29-3.15,1.86-6.54,1.98-9.92l0,0c0.1-2.98-0.15-5.97-0.54-8.93l0,0c-0.32-2.47-0.74-4.93-1.15-7.39"/>
		</g>
		<g id="SPLINE_3595_">
			<path class="st0" d="M178.63,249.85c2.02-1.52,4.04-3.05,6.31-4.09l0,0c3.12-1.42,6.73-1.93,10.2-1.64l0,0
				c3.4,0.29,6.67,1.33,9.74,2.76l0,0c2.7,1.27,5.25,2.85,7.71,4.54l0,0c2.06,1.41,4.06,2.9,6.05,4.39"/>
		</g>
		<g id="LINE_2328_">
			<line class="st1" x1="218.64" y1="255.81" x2="178.63" y2="249.85"/>
		</g>
		<g id="SPLINE_3596_">
			<path class="st0" d="M178.63,249.85c1.49,2.04,2.98,4.1,4.85,5.75l0,0c2.57,2.27,5.87,3.8,9.28,4.54l0,0
				c3.33,0.73,6.76,0.68,10.11,0.21l0,0c2.96-0.43,5.85-1.2,8.7-2.1l0,0c2.38-0.75,4.73-1.6,7.08-2.43"/>
		</g>
		<g id="SPLINE_3597_">
			<path class="st0" d="M218.54,227.46c-1.77-1.81-3.54-3.62-4.86-5.75l0,0c-1.81-2.91-2.77-6.43-2.93-9.9l0,0
				c-0.16-3.41,0.46-6.79,1.49-10.01l0,0c0.91-2.85,2.15-5.57,3.52-8.22l0,0c1.14-2.22,2.36-4.39,3.59-6.57"/>
		</g>
		<g id="LINE_2329_">
			<line class="st1" x1="219.34" y1="187.01" x2="218.54" y2="227.46"/>
		</g>
		<g id="SPLINE_3598_">
			<path class="st0" d="M218.54,227.46c1.84-1.75,3.68-3.48,5.08-5.55l0,0c1.93-2.85,3.02-6.31,3.32-9.78l0,0
				c0.29-3.4-0.19-6.8-1.09-10.06l0,0c-0.8-2.88-1.93-5.65-3.18-8.36l0,0c-1.05-2.26-2.19-4.48-3.32-6.7"/>
		</g>
		<g id="SPLINE_3599_">
			<path class="st0" d="M203.47,240.58c1.54-2.01,3.08-4.02,4.99-5.63l0,0c2.62-2.21,5.96-3.66,9.38-4.32l0,0
				c3.35-0.64,6.78-0.51,10.12,0.05l0,0c2.95,0.5,5.82,1.33,8.65,2.3l0,0c2.36,0.81,4.68,1.71,7.01,2.62"/>
		</g>
		<g id="LINE_2330_">
			<line class="st1" x1="243.62" y1="235.59" x2="203.47" y2="240.58"/>
		</g>
		<g id="SPLINE_3600_">
			<path class="st0" d="M203.47,240.58c1.99,1.58,3.96,3.14,6.22,4.23l0,0c3.08,1.5,6.68,2.1,10.15,1.89l0,0
				c3.41-0.2,6.71-1.16,9.8-2.51l0,0c2.73-1.21,5.31-2.72,7.81-4.35l0,0c2.1-1.37,4.13-2.81,6.17-4.25"/>
		</g>
		<g id="SPLINE_3601_">
			<path class="st0" d="M238,209.85c-2.12-1.38-4.25-2.76-6-4.54l0,0c-2.4-2.45-4.1-5.66-5.02-9.02l0,0
				c-0.9-3.29-1.04-6.72-0.74-10.09l0,0c0.27-2.97,0.89-5.9,1.63-8.79l0,0c0.62-2.42,1.34-4.8,2.06-7.19"/>
		</g>
		<g id="LINE_2331_">
			<line class="st1" x1="229.94" y1="170.21" x2="238" y2="209.85"/>
		</g>
		<g id="SPLINE_3602_">
			<path class="st0" d="M238,209.85c1.41-2.1,2.83-4.2,3.74-6.52l0,0c1.26-3.19,1.57-6.82,1.1-10.27l0,0
				c-0.46-3.38-1.67-6.59-3.26-9.58l0,0c-1.41-2.64-3.12-5.09-4.93-7.46l0,0c-1.52-1.98-3.11-3.9-4.71-5.82"/>
		</g>
		<g id="SPLINE_3603_">
			<path class="st0" d="M225.22,225.74c1.12-2.27,2.24-4.54,3.81-6.48l0,0c2.16-2.67,5.15-4.74,8.38-6.04l0,0
				c3.16-1.27,6.56-1.81,9.93-1.9l0,0c2.99-0.08,5.97,0.19,8.92,0.6l0,0c2.47,0.34,4.93,0.77,7.38,1.21"/>
		</g>
		<g id="LINE_2332_">
			<line class="st1" x1="263.65" y1="213.12" x2="225.22" y2="225.74"/>
		</g>
		<g id="SPLINE_3604_">
			<path class="st0" d="M225.22,225.74c2.25,1.17,4.49,2.33,6.91,2.97l0,0c3.31,0.87,6.95,0.76,10.32-0.1l0,0
				c3.3-0.85,6.35-2.43,9.13-4.36l0,0c2.45-1.71,4.7-3.69,6.83-5.77l0,0c1.79-1.75,3.51-3.55,5.23-5.35"/>
		</g>
		<g id="SPLINE_3605_">
			<path class="st0" d="M243.06,207.28c0.64-2.45,1.29-4.9,2.43-7.12l0,0c1.58-3.05,4.1-5.67,7-7.59l0,0
				c2.84-1.88,6.06-3.08,9.36-3.85l0,0c2.91-0.68,5.88-1.01,8.87-1.2l0,0c2.49-0.16,4.98-0.22,7.47-0.29"/>
		</g>
		<g id="LINE_2333_">
			<line class="st1" x1="278.19" y1="187.23" x2="243.06" y2="207.28"/>
		</g>
		<g id="SPLINE_3606_">
			<path class="st0" d="M243.06,207.28c2.43,0.69,4.87,1.38,7.36,1.52l0,0c3.43,0.19,6.97-0.64,10.1-2.16l0,0
				c3.07-1.49,5.74-3.65,8.08-6.1l0,0c2.06-2.16,3.86-4.55,5.54-7.02l0,0c1.41-2.06,2.73-4.18,4.06-6.29"/>
		</g>
		<g id="SPLINE_3607_">
			<path class="st0" d="M250.41,186.19c0.36-2.5,0.72-5.01,1.61-7.35l0,0c1.22-3.21,3.42-6.1,6.09-8.34l0,0
				c2.61-2.19,5.66-3.76,8.85-4.9l0,0c2.81-1,5.73-1.67,8.67-2.21l0,0c2.45-0.44,4.93-0.79,7.39-1.14"/>
		</g>
		<g id="LINE_2334_">
			<line class="st1" x1="283.02" y1="162.25" x2="250.41" y2="186.19"/>
		</g>
		<g id="SPLINE_3608_">
			<path class="st0" d="M250.41,186.19c2.5,0.41,5,0.81,7.49,0.67l0,0c3.42-0.2,6.85-1.43,9.78-3.3l0,0
				c2.87-1.84,5.29-4.28,7.32-6.98l0,0c1.8-2.39,3.31-4.97,4.7-7.61l0,0c1.16-2.21,2.23-4.46,3.31-6.71"/>
		</g>
		<g id="SPLINE_3609_">
			<path class="st0" d="M258.32,164.92c-0.61-2.46-1.22-4.91-1.29-7.41l0,0c-0.09-3.43,0.85-6.94,2.47-10.02l0,0
				c1.59-3.02,3.82-5.63,6.34-7.88l0,0c2.23-2,4.67-3.72,7.19-5.32l0,0c2.1-1.34,4.26-2.6,6.41-3.86"/>
		</g>
		<g id="LINE_2335_">
			<line class="st1" x1="279.45" y1="130.42" x2="258.32" y2="164.92"/>
		</g>
		<g id="SPLINE_3610_">
			<path class="st0" d="M258.32,164.92c2.47-0.57,4.93-1.14,7.19-2.22l0,0c3.1-1.48,5.8-3.92,7.81-6.76l0,0
				c1.97-2.79,3.27-5.96,4.14-9.23l0,0c0.77-2.89,1.19-5.85,1.47-8.82l0,0c0.24-2.48,0.38-4.97,0.52-7.46"/>
		</g>
		<g id="SPLINE_3611_">
			<path class="st0" d="M247.82,181.54c-2.23-1.21-4.45-2.42-6.33-4.06l0,0c-2.59-2.25-4.54-5.32-5.72-8.6l0,0
				c-1.16-3.21-1.57-6.62-1.53-10l0,0c0.03-2.99,0.42-5.96,0.93-8.9l0,0c0.44-2.46,0.96-4.9,1.49-7.33"/>
		</g>
		<g id="LINE_2336_">
			<line class="st1" x1="236.66" y1="142.66" x2="247.82" y2="181.54"/>
		</g>
		<g id="SPLINE_3612_">
			<path class="st0" d="M247.82,181.54c1.25-2.2,2.49-4.41,3.22-6.8l0,0c1-3.28,1.03-6.92,0.29-10.32l0,0
				c-0.72-3.33-2.18-6.44-4.01-9.29l0,0c-1.61-2.52-3.51-4.83-5.51-7.05l0,0c-1.67-1.85-3.41-3.64-5.15-5.42"/>
		</g>
		<g id="SPLINE_3613_">
			<path class="st0" d="M254.76,151.58c-2.43-0.68-4.88-1.36-7.08-2.53l0,0c-3.03-1.62-5.62-4.17-7.5-7.11l0,0
				c-1.84-2.87-3-6.1-3.72-9.41l0,0c-0.63-2.92-0.92-5.9-1.07-8.88l0,0c-0.13-2.49-0.16-4.98-0.19-7.48"/>
		</g>
		<g id="LINE_2337_">
			<line class="st1" x1="235.2" y1="116.18" x2="254.76" y2="151.58"/>
		</g>
		<g id="SPLINE_3614_">
			<path class="st0" d="M254.76,151.58c0.73-2.42,1.44-4.85,1.63-7.34l0,0c0.24-3.42-0.55-6.98-2.03-10.13l0,0
				c-1.45-3.09-3.57-5.79-5.98-8.16l0,0c-2.14-2.09-4.5-3.93-6.95-5.64l0,0c-2.04-1.44-4.13-2.79-6.23-4.14"/>
		</g>
		<g id="SPLINE_3615_">
			<path class="st0" d="M259.72,136.6c-1.4-2.11-2.8-4.22-3.7-6.55l0,0c-1.23-3.2-1.52-6.83-1.02-10.27l0,0
				c0.48-3.38,1.72-6.58,3.33-9.55l0,0c1.43-2.63,3.16-5.07,4.99-7.42l0,0c1.54-1.97,3.14-3.87,4.75-5.78"/>
		</g>
		<g id="LINE_2338_">
			<line class="st1" x1="268.08" y1="97.02" x2="259.72" y2="136.6"/>
		</g>
		<g id="SPLINE_3616_">
			<path class="st0" d="M259.72,136.6c2.13-1.36,4.27-2.73,6.03-4.5l0,0c2.42-2.43,4.15-5.63,5.08-8.98l0,0
				c0.92-3.28,1.09-6.72,0.81-10.08l0,0c-0.25-2.98-0.84-5.91-1.57-8.81l0,0c-0.61-2.42-1.31-4.81-2-7.21"/>
		</g>
		<g id="SPLINE_3617_">
			<path class="st0" d="M251.75,106.47c-1.84-1.74-3.67-3.49-5.07-5.56l0,0c-1.91-2.85-3-6.32-3.29-9.79l0,0
				c-0.27-3.4,0.21-6.8,1.13-10.05l0,0c0.81-2.88,1.95-5.65,3.21-8.35l0,0c1.06-2.26,2.21-4.48,3.35-6.69"/>
		</g>
		<g id="LINE_2339_">
			<line class="st1" x1="251.08" y1="66.02" x2="251.75" y2="106.47"/>
		</g>
		<g id="SPLINE_3618_">
			<path class="st0" d="M251.75,106.47c1.78-1.8,3.55-3.61,4.88-5.73l0,0c1.82-2.91,2.79-6.41,2.96-9.89l0,0
				c0.17-3.41-0.43-6.79-1.45-10.01l0,0c-0.9-2.85-2.13-5.58-3.49-8.24l0,0c-1.13-2.22-2.34-4.4-3.56-6.58"/>
		</g>
		<g id="SPLINE_3619_">
			<path class="st0" d="M248.14,116.84c-2.53,0.04-5.06,0.08-7.51-0.42l0,0c-3.37-0.69-6.57-2.4-9.21-4.68l0,0
				c-2.58-2.23-4.62-5-6.24-7.96l0,0c-1.45-2.62-2.57-5.39-3.56-8.21l0,0c-0.83-2.35-1.57-4.74-2.3-7.12"/>
		</g>
		<g id="LINE_2340_">
			<line class="st1" x1="219.32" y1="88.46" x2="248.14" y2="116.84"/>
		</g>
		<g id="SPLINE_3620_">
			<path class="st0" d="M248.14,116.84c0.01-2.53,0.01-5.06-0.54-7.5l0,0c-0.74-3.35-2.5-6.53-4.82-9.13l0,0
				c-2.27-2.55-5.07-4.54-8.06-6.12l0,0c-2.64-1.4-5.43-2.48-8.26-3.43l0,0c-2.36-0.79-4.76-1.5-7.15-2.2"/>
		</g>
		<g id="SPLINE_3621_">
			<path class="st0" d="M240.19,90.54c-2.52-0.25-5.04-0.49-7.42-1.27l0,0c-3.26-1.07-6.25-3.14-8.61-5.7l0,0
				c-2.31-2.51-4.01-5.49-5.29-8.62l0,0c-1.13-2.77-1.93-5.65-2.6-8.56l0,0c-0.56-2.43-1.02-4.88-1.48-7.33"/>
		</g>
		<g id="LINE_2341_">
			<line class="st1" x1="214.8" y1="59.05" x2="240.19" y2="90.54"/>
		</g>
		<g id="SPLINE_3622_">
			<path class="st0" d="M240.19,90.54c0.29-2.52,0.59-5.03,0.33-7.52l0,0c-0.35-3.41-1.74-6.77-3.75-9.62l0,0
				c-1.96-2.79-4.52-5.09-7.3-7l0,0c-2.46-1.69-5.11-3.09-7.81-4.35l0,0c-2.26-1.06-4.56-2.03-6.86-3"/>
		</g>
	</g>
	<g id="Kategorier">
		<g id="Bästa_koreografi">
			<g id="Dans_2024">
				<g id="Lager_50">
					<polyline class="st2" points="67.2,94.24 57.21,78.4 50.67,70.48 					"/>
					<polyline class="st2" points="57.56,64.43 63.2,72.88 67.08,77.28 					"/>
					<polyline class="st2" points="213.25,196.55 221.27,205.56 227.13,215.48 					"/>
					<line class="st2" x1="234.78" y1="209.36" x2="226.1" y2="198.64"/>
					<path class="st2" d="M228.82,216.87c-0.03-0.21,8.29,4.47,7.49-4.76"/>
					<path class="st3" d="M63.63,86.42c0,0-2.39,5.74,4.28,6.87"/>
				</g>
				<g id="Dansare_2024">
					<g>
						<g id="XMLID_00000078732804700191003250000005873888036785642401_">
							<g>
								<g>
									<polygon class="st4" points="69.3,91.84 69.27,91.18 68.96,90.81 68.36,90.81 67.24,91.01 67.14,91.01 67.08,90.94 
										67.74,90.82 68.15,90.63 68.19,90.28 67.4,89.81 66.74,89.98 67.17,89.69 67.16,89.23 66.84,88.94 66.09,88.73 
										66.29,88.35 65.65,87.45 64.68,87.08 63.63,85.44 63.82,83.44 64.21,81.46 67.16,81.81 70.02,82.35 75.83,88.07 
										81.28,93.55 84.84,97.92 95.76,105.83 97.72,107.31 98.4,111.58 98.32,113.74 97.81,115.84 97,117.85 96.02,119.78 
										94.9,121.62 94.37,122.57 94.17,123.63 89.61,119.05 85.2,114.33 80.93,109.45 79.03,106.84 77.4,104.05 74.64,101.29 
										72.11,98.33 69.81,95.18 67.86,92.18 68.96,92.15 									"/>
									<polygon class="st4" points="229.2,204.68 230.41,206.54 231.37,208.46 231.7,209.48 231.87,210.62 231.84,211.83 
										231.67,212.35 231.34,212.73 230.84,212.93 230.27,212.97 229.18,212.75 227.26,211.64 225.57,210.24 224.1,208.61 
										223.01,206.92 222.25,205.07 226.88,201.66 227.75,202.37 228.44,203.21 									"/>
									<polygon class="st0" points="233.94,210.33 234.65,212 234.98,213.78 234.87,214.7 234.53,215.55 233.93,216.21 
										233.09,216.59 232.16,216.69 231.25,216.55 229.65,215.68 228.27,214.45 225.97,211.67 224.1,208.61 225.57,210.24 
										227.26,211.64 229.18,212.75 230.27,212.97 230.84,212.93 231.34,212.73 231.67,212.35 231.84,211.83 231.87,210.62 
										231.7,209.48 231.37,208.46 230.41,206.54 229.2,204.68 228.44,203.21 230.88,205.87 233.04,208.77 									"/>
									<polygon class="st4" points="215.05,37.75 215.15,38.09 214.98,38.4 215.25,38.64 215.29,38.98 214.87,39.57 215,40.21 
										214.58,40.72 213.24,41.08 212.73,41.48 212.38,42.07 211.96,43.36 213.64,42.81 214.45,42.45 214.9,42.43 215.24,42.72 
										215.21,43.19 214.83,43.5 214.03,44.06 213.35,44.67 212.8,45.45 211.79,47.11 210.47,48.5 209.12,53.97 207.64,59.4 
										206.69,62.04 205.54,64.59 202.84,69.53 201.89,73.22 200.74,76.84 197.99,83.94 192.32,98.06 191.65,102.2 190.56,106.24 
										189.41,107.75 188.83,108.26 188.23,108.47 187.61,108.28 187.01,107.78 186.04,106.43 185.41,105 185.02,103.53 
										184.54,100.53 183.88,94.4 183.82,88.26 187.23,83.37 190.17,78.19 195.66,67.58 197.81,62.18 200.29,56.91 203.24,51.89 
										206.72,47.23 207.66,44.16 208.37,42.73 209.28,41.39 210.32,40.15 211.5,39.04 212.85,38.22 214.37,37.67 214.75,37.6 
																			"/>
									<polygon class="st0" points="165.09,131.63 166.45,132.57 167.98,133.29 169.58,133.81 172.87,134.35 176.18,134.38 
										179.53,134 182.85,133.23 184.39,132.62 185.79,131.78 186.99,130.68 188.1,129.42 191.11,133.84 193.95,138.4 
										199.34,147.69 201.86,152.44 204.11,157.31 206.01,162.31 207.74,167.4 213.2,175.56 218.14,184.03 227.13,201.46 
										226.88,201.66 222.25,205.07 219.11,201.16 215.83,197.4 208.73,190.34 205.29,186.69 202.13,182.82 199.33,178.68 
										196.75,174.39 191.09,167.87 185.8,161.06 180.79,154.04 175.93,146.9 164.34,158.61 158.37,164.29 152.17,169.72 
										152.59,174.34 152.42,178.97 151.1,188.21 148.05,206.54 147.38,206.8 145.87,207.16 144.31,207.13 141.23,206.49 
										140.66,206.34 139.36,185.46 139.24,175.02 139.24,169.78 139.21,167.16 139.43,165.89 139.85,164.64 142.25,159.96 
										144.97,155.51 147.84,151.14 150.86,146.86 157.29,138.59 163.89,130.48 									"/>
									<polygon class="st0" points="164.34,95.41 167.99,88.8 168.04,88.71 169.75,88.59 169.17,91.5 169.24,93 169.66,94.48 
										170.48,95.72 171.78,96.45 173.29,96.71 174.79,96.59 176.23,96.19 177.6,95.55 178.86,94.68 179.95,93.64 180.84,92.44 
										181.49,91.1 182.44,88.26 183.82,88.26 183.88,94.4 184.54,100.53 185.02,103.53 185.41,105 186.04,106.43 187.01,107.78 
										187.61,108.28 188.23,108.47 188.83,108.26 189.41,107.75 190.56,106.24 189.07,111.76 188.03,117.4 187.75,120.26 
										187.73,123.13 188,125.98 188.59,128.79 188.1,129.42 186.99,130.68 185.79,131.78 184.39,132.62 182.85,133.23 
										179.53,134 176.18,134.38 172.87,134.35 169.58,133.81 167.98,133.29 166.45,132.57 165.09,131.63 163.89,130.48 
										163.63,130.2 164.34,126.74 164.79,123.26 164.79,119.76 164.42,116.26 163.29,109.33 162.44,102.37 162.41,101.67 
										162.46,100.75 162.84,98.92 163.5,97.13 									"/>
									<polygon class="st4" points="169.18,67.41 170.31,66.19 170.98,67.21 171.82,68.11 172.78,68.88 173.84,69.49 
										176.17,70.27 178.61,70.63 178.02,72.31 177.64,74.06 177.61,75.84 178.34,77.45 179.7,76.56 181.23,76.01 181.94,76.37 
										182.28,77.04 182.31,77.86 182.14,78.64 181.77,79.32 181.27,79.92 180.01,80.83 180.02,81.99 180.44,83.07 180,83.5 
										179.74,84.03 179.68,85.31 179.92,87.81 181.32,88.09 182.44,88.26 181.49,91.1 180.84,92.44 179.95,93.64 178.86,94.68 
										177.6,95.55 176.23,96.19 174.79,96.59 173.29,96.71 171.78,96.45 170.48,95.72 169.66,94.48 169.24,93 169.17,91.5 
										169.75,88.59 172.2,88.13 172.18,86.57 171.97,85.81 171.45,85.22 170.09,84.45 168.62,83.95 167,83.83 166.2,83.8 
										165.52,83.49 165.1,82.85 165,82.05 165.34,80.51 165.04,80.13 164.93,79.67 165.14,79.27 165.53,78.96 165.05,78.23 
										165.17,77.91 165.49,77.64 166.02,77 166.32,76.25 165.59,75.88 164.98,75.29 164.8,74.5 164.97,74.12 165.28,73.89 
										166.91,73.31 167.57,72.82 168,72.15 168.57,68.9 168.8,68.11 									"/>
									<polygon class="st0" points="182.19,82.62 181.36,83.17 180.85,83.31 180.44,83.07 180.02,81.99 180.01,80.83 
										181.27,79.92 181.77,79.32 182.14,78.64 182.31,77.86 182.28,77.04 181.94,76.37 181.23,76.01 179.7,76.56 178.34,77.45 
										177.61,75.84 177.64,74.06 178.02,72.31 178.61,70.63 176.17,70.27 173.84,69.49 172.78,68.88 171.82,68.11 170.98,67.21 
										170.31,66.19 169.38,64.36 169.18,63.4 169.26,62.43 169.5,62.96 169.43,61.95 170.55,62.66 171.73,63.01 174.33,62.87 
										176.87,62.97 179.35,63.58 181.77,64.53 183.95,65.9 184.85,66.82 185.56,67.89 185.94,69.11 186.07,70.38 186.64,71.21 
										187.03,72.12 187.19,73.11 187.15,74.14 186.61,76.05 185.69,77.81 183.48,81.09 									"/>
									<polygon class="st4" points="162.41,101.67 162.44,102.37 159.65,102.38 156.87,102.12 151.37,101.2 140.43,99.02 
										143.25,95.03 144.53,92.96 145.62,90.78 151.25,90.72 156.85,90.09 162.44,89.29 167.99,88.8 164.34,95.41 163.5,97.13 
										162.84,98.92 162.46,100.75 									"/>
									<polygon class="st4" points="137.87,210.48 140.73,209.03 141.23,206.49 144.31,207.13 145.87,207.16 147.38,206.8 
										147.38,208.69 146.12,210 144.67,211.07 143.02,211.83 141.28,212.38 137.76,213.24 135.91,213.3 135.12,212.89 
										134.93,212.46 135.08,212.05 136.4,211.15 									"/>
									<polygon class="st0" points="141.79,214.85 138.35,215.93 134.85,216.55 133.14,216.66 131.19,216.41 130.77,216.22 
										130.53,215.92 130.54,215.51 130.74,215.07 131.28,214.25 131.92,213.63 133.43,212.73 135.08,212.05 134.93,212.46 
										135.12,212.89 135.91,213.3 137.76,213.24 141.28,212.38 143.02,211.83 144.67,211.07 146.12,210 147.38,208.69 
										148,210.35 148.06,212.18 147.72,212.97 146.94,213.44 145.22,213.99 									"/>
									<polygon class="st0" points="133.52,146.1 131.92,146.39 130.32,146.22 127.2,145.41 128.52,144.58 129.91,144.04 
										132.91,143.62 135.88,143.31 137.37,143.01 138.64,142.23 136.3,144.49 134.99,145.43 									"/>
									<polygon class="st0" points="129.61,76.09 129.86,77.69 130.37,79.2 129.27,78.01 128.34,76.68 128.04,75.91 127.59,75.26 
										126.12,74.5 125.5,75.05 125.14,75.75 125.11,76.59 125.29,77.39 125.7,78.1 126.32,78.65 127.08,78.91 127.9,78.9 
										127.51,79.99 126.89,80.98 126.12,81.85 125.14,82.47 124.1,82.9 122.97,82.99 121.84,82.86 120.75,82.54 118.8,81.42 
										117.13,79.88 116.5,78.95 116.01,77.93 115.44,75.72 115.28,73.47 115.46,71.21 114.22,71.18 112.99,70.88 111.85,70.32 
										110.97,69.44 110.53,68.26 110.5,66.97 110.83,65.75 111.42,64.65 112.23,63.65 113.23,62.85 114.37,62.3 115.62,62.08 
										116.84,62.29 117.92,62.93 119.73,64.68 120.97,63.84 122.31,63.21 123.78,62.87 125.27,62.72 126.76,62.8 128.26,63.16 
										129.58,63.84 130.65,64.89 131.57,64.91 132.45,65.18 133.27,65.61 133.99,66.17 134.6,66.88 135.04,67.69 135.29,68.59 
										135.32,69.5 134.72,68.67 133.93,67.97 133,67.5 131.99,67.29 132.34,68.01 132.47,68.8 132.37,70.42 131.99,71.11 
										131.45,71.72 130.46,73.05 129.81,74.49 									"/>
									<polygon class="st4" points="166.72,46.39 165.63,47.68 165,48.86 166.56,47.57 167.45,46.95 167.94,47.06 168.11,47.26 
										168.09,47.51 166.87,49.16 166.16,49.93 165.69,50.81 164.92,53.19 164.26,54.24 163.34,55.1 161.36,60.69 159.16,66.21 
										156.56,71.55 153.55,76.67 149.67,83.76 147.55,87.23 145.62,90.78 144.53,92.96 143.25,95.03 140.43,99.02 139.47,100.94 
										139.19,100.16 138.76,99.49 138.18,98.97 137.49,98.6 135.88,98.21 134.24,98.05 131.07,98.25 128.01,99.06 126.88,97.42 
										125.58,95.91 123.99,94.69 122.18,93.84 120.21,93.51 118.24,93.84 116.45,94.72 114.85,95.9 110.62,95.86 106.39,96.03 
										102.17,96.33 97.94,96.4 93.73,96.04 89.54,95.37 85.39,94.56 81.28,93.55 75.83,88.07 80.83,88.2 85.83,88.5 95.77,89.5 
										110.76,86.89 114.53,86.41 118.32,86.14 122.13,86.1 125.91,86.35 126.53,85.23 126.92,84.03 126.78,83.42 126.29,83.02 
										125.14,82.47 126.12,81.85 126.89,80.98 127.51,79.99 127.9,78.9 127.08,78.91 126.32,78.65 125.7,78.1 125.29,77.39 
										125.11,76.59 125.14,75.75 125.5,75.05 126.12,74.5 127.59,75.26 128.04,75.91 128.34,76.68 129.27,78.01 130.37,79.2 
										129.86,77.69 129.61,76.09 129.81,74.49 130.46,73.05 131.45,71.72 131.99,71.11 132.37,70.42 132.47,68.8 132.34,68.01 
										131.99,67.29 133,67.5 133.93,67.97 134.72,68.67 135.32,69.5 135.75,71.26 136.16,72.06 136.82,72.68 137.55,73.2 
										138.18,73.83 138.22,74.29 138.01,74.69 137.38,75.34 137.56,75.83 137.92,76.26 138.12,76.68 137.85,77.13 138.09,77.39 
										138.18,77.74 138.06,78.06 137.77,78.29 138.18,79.44 138.29,80.51 138.13,80.98 137.81,81.42 136.86,81.89 135.81,82.19 
										134.85,82.69 133.06,83.88 133.04,86.56 133.38,89.2 134.68,89.55 136.03,89.67 139.06,86.23 141.7,82.51 144.18,78.66 
										147.03,75.08 149.98,69.54 153.2,64.17 159.9,53.55 163.17,47.31 164.29,45.97 165.55,44.76 166.82,43.41 167.5,42.81 
										168.32,42.61 168.55,42.82 168.54,43.15 168.19,43.75 167.27,44.67 168.33,44.3 168.87,44.2 169.39,44.42 169.41,44.67 
										169.24,44.93 168.78,45.25 167.73,45.64 									"/>
									<polygon class="st4" points="115.33,197.91 115.28,198.92 114.29,198.21 									"/>
									<polygon class="st4" points="112.92,198.62 115.2,200.49 115.12,202.08 113.4,202.82 109.77,199.68 									"/>
									<polygon class="st4" points="115.06,203.58 115.04,204.48 114.44,203.86 									"/>
									<polygon class="st0" points="114.48,215.11 115.2,215.33 115.54,215.19 115.79,214.88 115.75,217.67 115.61,218.33 
										115.27,218.98 114.73,219.46 114.08,219.49 113.47,219.1 113.03,218.53 112.55,217.25 111.96,214.53 111.9,214.38 
										113.77,213.68 114.04,214.46 									"/>
									<polygon class="st0" points="113.77,213.68 111.9,214.38 111.47,213.23 110.78,212.04 108.98,209.91 108.34,208.68 
										108.23,207.98 108.34,207.3 109.14,206.16 110.23,205.29 111.13,206.53 111.88,207.87 112.86,210.77 									"/>
									<polygon class="st0" points="115.12,202.08 115.06,203.58 114.44,203.86 115.04,204.48 115.06,205.85 113.48,204.27 
										110.23,205.29 110.13,203.83 112.35,203.18 109.92,201.03 109.77,199.68 113.4,202.82 									"/>
									<polygon class="st4" points="114.04,214.46 113.77,213.68 112.86,210.77 111.88,207.87 111.13,206.53 110.23,205.29 
										113.48,204.27 115.06,205.85 115.79,214.88 115.54,215.19 115.2,215.33 114.48,215.11 									"/>
									<polygon class="st4" points="110.13,203.83 109.92,201.03 112.35,203.18 									"/>
									<polygon class="st4" points="109.21,139.48 111.17,139.69 113.06,140.12 114.82,140.97 116.38,142.14 119.41,144.61 
										121.09,145.58 122.93,146.26 121.63,158.83 120.82,165.09 120.48,168.23 119.91,171.34 117.67,177.25 116.88,180.29 
										116.38,183.43 115.72,189.71 115.41,196.02 112.96,197.16 108.95,193.83 108.11,188.12 107.68,182.34 107.76,179.43 
										108.13,176.55 108.83,173.76 109.83,171.06 108.97,163.18 108.62,155.29 108.69,147.38 									"/>
									<polygon class="st4" points="111.62,197.62 109.6,198.28 109.27,195.92 									"/>
									<polygon class="st0" points="114.29,198.21 115.28,198.92 115.2,200.49 112.92,198.62 109.77,199.68 109.6,198.28 
										111.62,197.62 109.27,195.92 108.95,193.83 112.96,197.16 115.41,196.02 115.33,197.91 									"/>
									<polygon class="st0" points="122.93,146.26 121.09,145.58 119.41,144.61 116.38,142.14 114.82,140.97 113.06,140.12 
										111.17,139.69 109.21,139.48 107.72,139.3 106.27,138.95 104.9,138.36 103.6,137.58 101.25,135.61 100.26,134.45 
										99.53,133.16 99.12,131.71 99.11,130.17 99.21,128.62 98.9,127.97 98.29,127.5 96.9,126.94 95.56,126.24 94.57,125.09 
										94.28,124.39 94.17,123.63 94.37,122.57 94.9,121.62 96.02,119.78 97,117.85 97.81,115.84 98.32,113.74 98.4,111.58 
										97.72,107.31 97.7,105.42 97.97,103.55 101.06,106.21 102.74,107.39 104.53,108.43 106.38,109.31 108.31,110 
										112.27,110.99 113.27,109.31 114.03,107.52 114.43,105.63 114.57,103.68 114.85,95.9 116.45,94.72 118.24,93.84 
										120.21,93.51 122.18,93.84 123.99,94.69 125.58,95.91 126.88,97.42 128.01,99.06 131.07,98.25 134.24,98.05 135.88,98.21 
										137.49,98.6 138.18,98.97 138.76,99.49 139.19,100.16 139.47,100.94 139.59,102.45 139.27,103.95 138.68,105.4 
										137.92,106.72 136.07,109.11 133.97,111.29 131.89,113.5 130.04,115.89 128.51,118.5 127.9,119.91 127.51,121.36 
										127.38,122.87 127.52,124.38 127.88,125.84 128.39,127.25 129.81,129.97 131.46,132.54 134.98,137.45 138.64,142.23 
										137.37,143.01 135.88,143.31 132.91,143.62 129.91,144.04 128.52,144.58 127.2,145.41 126.26,146.04 125.23,146.46 
										124.07,146.48 									"/>
									<polygon class="st0" points="95.76,105.83 97.97,103.55 97.7,105.42 97.72,107.31 									"/>
									<polygon class="st4" points="66.1,78.18 68.76,81.02 64.51,80.54 65.17,79.27 									"/>
									<polygon class="st4" points="62.6,83.91 61.28,81.97 62.08,81.63 62.94,81.47 									"/>
									<polygon class="st4" points="63.72,75.61 61.55,75.51 62.41,74.14 62.57,74.35 									"/>
									<polygon class="st4" points="63.2,80.45 61.89,80.55 60.63,80.97 60.73,78.88 61.07,76.83 65.15,77.15 63.99,78.69 
																			"/>
									<polygon class="st0" points="61.89,80.55 63.2,80.45 63.99,78.69 65.15,77.15 66.1,78.18 65.17,79.27 64.51,80.54 
										68.76,81.02 70.02,82.35 67.16,81.81 64.21,81.46 63.82,83.44 63.63,85.44 62.6,83.91 62.94,81.47 62.08,81.63 
										61.28,81.97 60.63,80.97 									"/>
									<polygon class="st4" points="60.53,71.24 61.51,72.88 60.71,74.15 60.14,75.57 58.64,75.81 57.21,76.31 55.6,74.7 
										53.95,71.22 53.38,69.28 53.47,68.32 54.1,67.62 55.06,67.37 55.99,67.62 57.69,68.64 									"/>
									<polygon class="st4" points="59.76,77.02 59.51,79.25 58.45,77.55 									"/>
									<polygon class="st0" points="61.07,76.83 60.73,78.88 60.63,80.97 59.51,79.25 59.76,77.02 58.45,77.55 57.21,76.31 
										58.64,75.81 60.14,75.57 60.71,74.15 61.51,72.88 62.41,74.14 61.55,75.51 63.72,75.61 65.15,77.15 									"/>
									<polygon class="st0" points="51.41,68.51 51.05,67.04 51.12,65.54 51.41,64.82 51.91,64.28 52.61,64.01 53.39,63.98 
										54.86,64.39 56.12,65.22 57.24,66.26 59.08,68.63 60.53,71.24 57.69,68.64 55.99,67.62 55.06,67.37 54.1,67.62 
										53.47,68.32 53.38,69.28 53.95,71.22 55.6,74.7 53.71,72.36 52.04,69.87 									"/>
								</g>
								<g>
									<polyline class="st5" points="114.85,95.9 116.45,94.72 118.24,93.84 120.21,93.51 122.18,93.84 123.99,94.69 
										125.58,95.91 126.88,97.42 128.01,99.06 									"/>
									<polyline class="st5" points="128.01,99.06 131.07,98.25 134.24,98.05 135.88,98.21 137.49,98.6 138.18,98.97 
										138.76,99.49 139.19,100.16 139.47,100.94 									"/>
									<polyline class="st5" points="139.47,100.94 139.59,102.45 139.27,103.95 138.68,105.4 137.92,106.72 136.07,109.11 
										133.97,111.29 131.89,113.5 130.04,115.89 128.51,118.5 127.9,119.91 127.51,121.36 127.38,122.87 127.52,124.38 
										127.88,125.84 128.39,127.25 129.81,129.97 131.46,132.54 134.98,137.45 138.64,142.23 									"/>
									<polyline class="st5" points="114.85,95.9 114.57,103.68 114.43,105.63 114.03,107.52 113.27,109.31 112.27,110.99 
																			"/>
									<polyline class="st5" points="112.27,110.99 108.31,110 106.38,109.31 104.53,108.43 102.74,107.39 101.06,106.21 
										97.97,103.55 									"/>
									<polyline class="st5" points="97.97,103.55 97.7,105.42 97.72,107.31 									"/>
									<polyline class="st5" points="97.72,107.31 98.4,111.58 98.32,113.74 97.81,115.84 97,117.85 96.02,119.78 94.9,121.62 
										94.37,122.57 94.17,123.63 									"/>
									<polyline class="st5" points="94.17,123.63 94.28,124.39 94.57,125.09 95.56,126.24 96.9,126.94 98.29,127.5 98.9,127.97 
										99.21,128.62 99.11,130.17 99.12,131.71 99.53,133.16 100.26,134.45 101.25,135.61 103.6,137.58 104.9,138.36 
										106.27,138.95 107.72,139.3 109.21,139.48 									"/>
									<polyline class="st5" points="109.21,139.48 111.17,139.69 113.06,140.12 114.82,140.97 116.38,142.14 119.41,144.61 
										121.09,145.58 122.93,146.26 									"/>
									<polyline class="st5" points="122.93,146.26 124.07,146.48 125.23,146.46 126.26,146.04 127.2,145.41 									"/>
									<polyline class="st5" points="127.2,145.41 128.52,144.58 129.91,144.04 132.91,143.62 135.88,143.31 137.37,143.01 
										138.64,142.23 									"/>
									<polyline class="st5" points="138.64,142.23 136.3,144.49 134.99,145.43 133.52,146.1 131.92,146.39 130.32,146.22 
										127.2,145.41 									"/>
									<line class="st5" x1="97.97" y1="103.55" x2="95.76" y2="105.83"/>
									<polyline class="st5" points="109.21,139.48 108.69,147.38 108.62,155.29 108.97,163.18 109.83,171.06 									"/>
									<polyline class="st5" points="109.83,171.06 108.83,173.76 108.13,176.55 107.76,179.43 107.68,182.34 108.11,188.12 
										108.95,193.83 									"/>
									<line class="st5" x1="108.95" y1="193.83" x2="109.27" y2="195.92"/>
									<line class="st5" x1="109.27" y1="195.92" x2="109.6" y2="198.28"/>
									<line class="st5" x1="109.6" y1="198.28" x2="109.77" y2="199.68"/>
									<line class="st5" x1="109.77" y1="199.68" x2="109.92" y2="201.03"/>
									<line class="st5" x1="109.92" y1="201.03" x2="110.13" y2="203.83"/>
									<line class="st5" x1="110.13" y1="203.83" x2="110.23" y2="205.29"/>
									<polyline class="st5" points="110.23,205.29 109.14,206.16 108.34,207.3 108.23,207.98 108.34,208.68 108.98,209.91 
										110.78,212.04 111.47,213.23 111.9,214.38 111.96,214.53 112.55,217.25 113.03,218.53 113.47,219.1 114.08,219.49 
										114.73,219.46 115.27,218.98 115.61,218.33 115.75,217.67 115.79,214.88 									"/>
									<polyline class="st5" points="115.79,214.88 115.54,215.19 115.2,215.33 114.48,215.11 114.04,214.46 113.77,213.68 
										112.86,210.77 111.88,207.87 111.13,206.53 110.23,205.29 									"/>
									<polyline class="st5" points="122.93,146.26 121.63,158.83 120.82,165.09 120.48,168.23 119.91,171.34 117.67,177.25 
										116.88,180.29 116.38,183.43 115.72,189.71 115.41,196.02 									"/>
									<line class="st5" x1="115.41" y1="196.02" x2="115.33" y2="197.91"/>
									<line class="st5" x1="115.33" y1="197.91" x2="115.28" y2="198.92"/>
									<line class="st5" x1="115.28" y1="198.92" x2="115.2" y2="200.49"/>
									<line class="st5" x1="115.2" y1="200.49" x2="115.12" y2="202.08"/>
									<line class="st5" x1="115.12" y1="202.08" x2="115.06" y2="203.58"/>
									<line class="st5" x1="115.06" y1="203.58" x2="115.04" y2="204.48"/>
									<line class="st5" x1="115.04" y1="204.48" x2="115.06" y2="205.85"/>
									<line class="st5" x1="115.06" y1="205.85" x2="115.79" y2="214.88"/>
									<line class="st5" x1="97.72" y1="107.31" x2="95.76" y2="105.83"/>
									<line class="st5" x1="95.76" y1="105.83" x2="84.84" y2="97.92"/>
									<line class="st5" x1="84.84" y1="97.92" x2="81.28" y2="93.55"/>
									<line class="st5" x1="81.28" y1="93.55" x2="75.83" y2="88.07"/>
									<line class="st5" x1="75.83" y1="88.07" x2="70.02" y2="82.35"/>
									<line class="st5" x1="70.02" y1="82.35" x2="68.76" y2="81.02"/>
									<line class="st5" x1="68.76" y1="81.02" x2="66.1" y2="78.18"/>
									<line class="st5" x1="66.1" y1="78.18" x2="65.15" y2="77.15"/>
									<line class="st5" x1="65.15" y1="77.15" x2="63.72" y2="75.61"/>
									<line class="st5" x1="63.72" y1="75.61" x2="62.57" y2="74.35"/>
									<line class="st5" x1="62.57" y1="74.35" x2="62.41" y2="74.14"/>
									<line class="st5" x1="62.41" y1="74.14" x2="61.51" y2="72.88"/>
									<line class="st5" x1="61.51" y1="72.88" x2="60.53" y2="71.24"/>
									<polyline class="st5" points="60.53,71.24 57.69,68.64 55.99,67.62 55.06,67.37 54.1,67.62 53.47,68.32 53.38,69.28 
										53.95,71.22 55.6,74.7 									"/>
									<polyline class="st5" points="55.6,74.7 53.71,72.36 52.04,69.87 51.41,68.51 51.05,67.04 51.12,65.54 51.41,64.82 
										51.91,64.28 52.61,64.01 53.39,63.98 54.86,64.39 56.12,65.22 57.24,66.26 59.08,68.63 60.53,71.24 									"/>
									<line class="st5" x1="55.6" y1="74.7" x2="57.21" y2="76.31"/>
									<line class="st5" x1="57.21" y1="76.31" x2="58.45" y2="77.55"/>
									<line class="st5" x1="58.45" y1="77.55" x2="59.51" y2="79.25"/>
									<line class="st5" x1="59.51" y1="79.25" x2="60.63" y2="80.97"/>
									<line class="st5" x1="60.63" y1="80.97" x2="61.28" y2="81.97"/>
									<line class="st5" x1="61.28" y1="81.97" x2="62.6" y2="83.91"/>
									<line class="st5" x1="62.6" y1="83.91" x2="63.63" y2="85.44"/>
									<polyline class="st5" points="63.63,85.44 64.68,87.08 64.87,87.36 65.06,87.66 									"/>
									<line class="st5" x1="66.4" y1="89.83" x2="66.53" y2="90.04"/>
									<line class="st5" x1="67.08" y1="90.94" x2="67.14" y2="91.01"/>
									<polyline class="st5" points="67.69,91.91 67.86,92.18 69.81,95.18 72.11,98.33 74.64,101.29 77.4,104.05 									"/>
									<polyline class="st5" points="77.4,104.05 79.03,106.84 80.93,109.45 85.2,114.33 89.61,119.05 94.17,123.63 									"/>
									<polyline class="st5" points="163.34,55.1 161.36,60.69 159.16,66.21 156.56,71.55 153.55,76.67 									"/>
									<polyline class="st5" points="153.55,76.67 149.67,83.76 147.55,87.23 145.62,90.78 									"/>
									<polyline class="st5" points="145.62,90.78 144.53,92.96 143.25,95.03 140.43,99.02 									"/>
									<line class="st5" x1="140.43" y1="99.02" x2="139.47" y2="100.94"/>
									<polyline class="st5" points="163.34,55.1 164.26,54.24 164.92,53.19 165.69,50.81 									"/>
									<polyline class="st5" points="159.9,53.55 163.17,47.31 164.29,45.97 165.55,44.76 166.82,43.41 167.5,42.81 168.32,42.61 
																			"/>
									<polyline class="st5" points="159.9,53.55 153.2,64.17 149.98,69.54 147.03,75.08 									"/>
									<polyline class="st5" points="147.03,75.08 144.18,78.66 141.7,82.51 139.06,86.23 136.03,89.67 									"/>
									<polyline class="st5" points="136.03,89.67 134.68,89.55 133.38,89.2 									"/>
									<polyline class="st5" points="133.38,89.2 133.04,86.56 133.06,83.88 									"/>
									<polyline class="st5" points="133.06,83.88 134.85,82.69 135.81,82.19 136.86,81.89 137.81,81.42 138.13,80.98 
										138.29,80.51 138.18,79.44 137.77,78.29 									"/>
									<polyline class="st5" points="125.14,82.47 126.29,83.02 126.78,83.42 126.92,84.03 126.53,85.23 125.91,86.35 									
										"/>
									<polyline class="st5" points="125.14,82.47 126.12,81.85 126.89,80.98 127.51,79.99 127.9,78.9 									"/>
									<polyline class="st5" points="127.9,78.9 127.08,78.91 126.32,78.65 125.7,78.1 125.29,77.39 125.11,76.59 125.14,75.75 
										125.5,75.05 126.12,74.5 									"/>
									<polyline class="st5" points="126.12,74.5 127.59,75.26 128.04,75.91 128.34,76.68 129.27,78.01 130.37,79.2 									"/>
									<polyline class="st5" points="130.37,79.2 129.86,77.69 129.61,76.09 129.81,74.49 130.46,73.05 131.45,71.72 
										131.99,71.11 132.37,70.42 132.47,68.8 132.34,68.01 131.99,67.29 									"/>
									<polyline class="st5" points="131.99,67.29 133,67.5 133.93,67.97 134.72,68.67 135.32,69.5 									"/>
									<polyline class="st5" points="135.32,69.5 135.29,68.59 135.04,67.69 134.6,66.88 133.99,66.17 133.27,65.61 132.45,65.18 
										131.57,64.91 130.65,64.89 									"/>
									<polyline class="st5" points="130.65,64.89 129.58,63.84 128.26,63.16 126.76,62.8 125.27,62.72 123.78,62.87 
										122.31,63.21 120.97,63.84 119.73,64.68 									"/>
									<polyline class="st5" points="119.73,64.68 117.92,62.93 116.84,62.29 115.62,62.08 114.37,62.3 113.23,62.85 
										112.23,63.65 111.42,64.65 110.83,65.75 110.5,66.97 110.53,68.26 110.97,69.44 111.85,70.32 112.99,70.88 114.22,71.18 
										115.46,71.21 									"/>
									<polyline class="st5" points="115.46,71.21 115.28,73.47 115.44,75.72 116.01,77.93 116.5,78.95 117.13,79.88 118.8,81.42 
										120.75,82.54 121.84,82.86 122.97,82.99 124.1,82.9 125.14,82.47 									"/>
									<polyline class="st5" points="135.32,69.5 135.75,71.26 136.16,72.06 136.82,72.68 137.55,73.2 138.18,73.83 138.22,74.29 
										138.01,74.69 137.38,75.34 									"/>
									<polyline class="st5" points="137.38,75.34 137.56,75.83 137.92,76.26 138.12,76.68 137.85,77.13 									"/>
									<polyline class="st5" points="137.85,77.13 138.09,77.39 138.18,77.74 138.06,78.06 137.77,78.29 									"/>
									<polyline class="st5" points="125.91,86.35 122.13,86.1 118.32,86.14 114.53,86.41 110.76,86.89 95.77,89.5 									"/>
									<polyline class="st5" points="95.77,89.5 85.83,88.5 80.83,88.2 75.83,88.07 									"/>
									<polyline class="st5" points="114.85,95.9 110.62,95.86 106.39,96.03 102.17,96.33 97.94,96.4 93.73,96.04 89.54,95.37 
										85.39,94.56 81.28,93.55 									"/>
									<polyline class="st5" points="145.62,90.78 151.25,90.72 156.85,90.09 162.44,89.29 167.99,88.8 									"/>
									<line class="st5" x1="168.04" y1="88.71" x2="169.75" y2="88.59"/>
									<line class="st5" x1="169.75" y1="88.59" x2="172.2" y2="88.13"/>
									<polyline class="st5" points="169.75,88.59 169.17,91.5 169.24,93 169.66,94.48 170.48,95.72 171.78,96.45 173.29,96.71 
										174.79,96.59 176.23,96.19 177.6,95.55 178.86,94.68 179.95,93.64 180.84,92.44 181.49,91.1 182.44,88.26 									"/>
									<line class="st5" x1="183.82" y1="88.26" x2="182.44" y2="88.26"/>
									<polyline class="st5" points="182.44,88.26 181.32,88.09 179.92,87.81 									"/>
									<polyline class="st5" points="179.92,87.81 179.68,85.31 179.74,84.03 180,83.5 180.44,83.07 									"/>
									<polyline class="st5" points="172.2,88.13 172.18,86.57 171.97,85.81 171.45,85.22 170.09,84.45 168.62,83.95 167,83.83 
										166.2,83.8 165.52,83.49 165.1,82.85 165,82.05 165.34,80.51 									"/>
									<polyline class="st5" points="170.31,66.19 169.18,67.41 168.8,68.11 168.57,68.9 168,72.15 167.57,72.82 166.91,73.31 
										165.28,73.89 164.97,74.12 164.8,74.5 164.98,75.29 165.59,75.88 166.32,76.25 									"/>
									<polyline class="st5" points="166.32,76.25 166.02,77 165.49,77.64 165.17,77.91 165.05,78.23 165.53,78.96 									"/>
									<polyline class="st5" points="165.53,78.96 165.14,79.27 164.93,79.67 165.04,80.13 165.34,80.51 									"/>
									<polyline class="st5" points="178.34,77.45 179.7,76.56 181.23,76.01 									"/>
									<polyline class="st5" points="181.23,76.01 181.94,76.37 182.28,77.04 182.31,77.86 182.14,78.64 181.77,79.32 
										181.27,79.92 180.01,80.83 									"/>
									<polyline class="st5" points="180.01,80.83 180.02,81.99 180.44,83.07 									"/>
									<polyline class="st5" points="180.44,83.07 180.85,83.31 181.36,83.17 182.19,82.62 183.48,81.09 185.69,77.81 
										186.61,76.05 187.15,74.14 187.19,73.11 187.03,72.12 186.64,71.21 186.07,70.38 									"/>
									<polyline class="st5" points="186.07,70.38 185.94,69.11 185.56,67.89 184.85,66.82 183.95,65.9 181.77,64.53 
										179.35,63.58 176.87,62.97 174.33,62.87 171.73,63.01 170.55,62.66 169.43,61.95 									"/>
									<polyline class="st5" points="170.31,66.19 169.38,64.36 169.18,63.4 169.26,62.43 									"/>
									<polyline class="st5" points="170.31,66.19 170.98,67.21 171.82,68.11 172.78,68.88 173.84,69.49 176.17,70.27 
										178.61,70.63 									"/>
									<polyline class="st5" points="178.61,70.63 178.02,72.31 177.64,74.06 177.61,75.84 178.34,77.45 									"/>
									<polyline class="st5" points="140.43,99.02 151.37,101.2 156.87,102.12 159.65,102.38 162.44,102.37 									"/>
									<polyline class="st5" points="162.44,102.37 163.29,109.33 164.42,116.26 164.79,119.76 164.79,123.26 164.34,126.74 
										163.63,130.2 									"/>
									<line class="st5" x1="163.63" y1="130.2" x2="163.89" y2="130.48"/>
									<polyline class="st5" points="163.89,130.48 165.09,131.63 166.45,132.57 167.98,133.29 169.58,133.81 172.87,134.35 
										176.18,134.38 179.53,134 182.85,133.23 184.39,132.62 185.79,131.78 186.99,130.68 188.1,129.42 									"/>
									<line class="st5" x1="188.1" y1="129.42" x2="188.59" y2="128.79"/>
									<polyline class="st5" points="188.59,128.79 188,125.98 187.73,123.13 187.75,120.26 188.03,117.4 189.07,111.76 
										190.56,106.24 									"/>
									<polyline class="st5" points="190.56,106.24 191.65,102.2 192.32,98.06 									"/>
									<polyline class="st5" points="162.44,102.37 162.41,101.67 162.46,100.75 162.84,98.92 163.5,97.13 164.34,95.41 
										167.99,88.8 									"/>
									<line class="st5" x1="167.99" y1="88.8" x2="168.04" y2="88.71"/>
									<polyline class="st5" points="183.82,88.26 183.88,94.4 184.54,100.53 185.02,103.53 185.41,105 186.04,106.43 
										187.01,107.78 187.61,108.28 188.23,108.47 188.83,108.26 189.41,107.75 190.56,106.24 									"/>
									<polyline class="st5" points="183.82,88.26 187.23,83.37 190.17,78.19 195.66,67.58 									"/>
									<polyline class="st5" points="195.66,67.58 197.81,62.18 200.29,56.91 203.24,51.89 206.72,47.23 									"/>
									<polyline class="st5" points="206.72,47.23 207.66,44.16 208.37,42.73 209.28,41.39 210.32,40.15 211.5,39.04 
										212.85,38.22 214.37,37.67 									"/>
									<polyline class="st5" points="192.32,98.06 197.99,83.94 200.74,76.84 201.89,73.22 202.84,69.53 									"/>
									<polyline class="st5" points="202.84,69.53 205.54,64.59 206.69,62.04 207.64,59.4 209.12,53.97 210.47,48.5 									"/>
									<polyline class="st5" points="210.47,48.5 211.79,47.11 212.8,45.45 213.35,44.67 214.03,44.06 214.83,43.5 215.21,43.19 
										215.24,42.72 									"/>
									<polyline class="st5" points="207.74,167.4 206.01,162.31 204.11,157.31 201.86,152.44 199.34,147.69 193.95,138.4 
										191.11,133.84 188.1,129.42 									"/>
									<polyline class="st5" points="175.93,146.9 180.79,154.04 185.8,161.06 191.09,167.87 196.75,174.39 									"/>
									<polyline class="st5" points="196.75,174.39 199.33,178.68 202.13,182.82 205.29,186.69 208.73,190.34 215.83,197.4 
										219.11,201.16 222.25,205.07 									"/>
									<line class="st5" x1="222.25" y1="205.07" x2="226.88" y2="201.66"/>
									<line class="st5" x1="226.88" y1="201.66" x2="227.13" y2="201.46"/>
									<polyline class="st5" points="227.13,201.46 218.14,184.03 213.2,175.56 207.74,167.4 									"/>
									<polyline class="st5" points="175.93,146.9 164.34,158.61 158.37,164.29 152.17,169.72 									"/>
									<polyline class="st5" points="152.17,169.72 152.59,174.34 152.42,178.97 151.1,188.21 148.05,206.54 									"/>
									<line class="st5" x1="148.05" y1="206.54" x2="147.38" y2="206.8"/>
									<polyline class="st5" points="147.38,206.8 145.87,207.16 144.31,207.13 141.23,206.49 									"/>
									<line class="st5" x1="141.23" y1="206.49" x2="140.66" y2="206.34"/>
									<polyline class="st5" points="140.66,206.34 139.36,185.46 139.24,175.02 139.24,169.78 139.21,167.16 139.43,165.89 
										139.85,164.64 142.25,159.96 144.97,155.51 147.84,151.14 150.86,146.86 157.29,138.59 163.89,130.48 									"/>
									<polyline class="st5" points="222.25,205.07 223.01,206.92 224.1,208.61 									"/>
									<polyline class="st5" points="224.1,208.61 225.57,210.24 227.26,211.64 229.18,212.75 230.27,212.97 230.84,212.93 
										231.34,212.73 231.67,212.35 231.84,211.83 231.87,210.62 231.7,209.48 231.37,208.46 230.41,206.54 229.2,204.68 
																			"/>
									<line class="st5" x1="229.2" y1="204.68" x2="228.44" y2="203.21"/>
									<polyline class="st5" points="228.44,203.21 227.75,202.37 226.88,201.66 									"/>
									<polyline class="st5" points="224.1,208.61 225.97,211.67 228.27,214.45 229.65,215.68 231.25,216.55 232.16,216.69 
										233.09,216.59 233.93,216.21 234.53,215.55 234.87,214.7 234.98,213.78 234.65,212 233.94,210.33 233.04,208.77 
										230.88,205.87 228.44,203.21 									"/>
									<polyline class="st5" points="147.38,208.69 148,210.35 148.06,212.18 147.72,212.97 146.94,213.44 145.22,213.99 
										141.79,214.85 138.35,215.93 134.85,216.55 133.14,216.66 131.19,216.41 130.77,216.22 130.53,215.92 130.54,215.51 
										130.74,215.07 131.28,214.25 131.92,213.63 133.43,212.73 135.08,212.05 									"/>
									<line class="st5" x1="147.38" y1="208.69" x2="147.38" y2="206.8"/>
									<line class="st5" x1="141.23" y1="206.49" x2="140.73" y2="209.03"/>
									<polyline class="st5" points="140.73,209.03 137.87,210.48 136.4,211.15 135.08,212.05 									"/>
									<polyline class="st5" points="135.08,212.05 134.93,212.46 135.12,212.89 135.91,213.3 137.76,213.24 141.28,212.38 
										143.02,211.83 144.67,211.07 146.12,210 147.38,208.69 									"/>
									<polyline class="st5" points="165,48.86 166.56,47.57 167.45,46.95 167.94,47.06 168.11,47.26 168.09,47.51 166.87,49.16 
										166.16,49.93 165.69,50.81 									"/>
									<line class="st5" x1="165" y1="48.86" x2="165.63" y2="47.68"/>
									<line class="st5" x1="165.63" y1="47.68" x2="166.72" y2="46.39"/>
									<line class="st5" x1="166.72" y1="46.39" x2="167.73" y2="45.64"/>
									<polyline class="st5" points="167.73,45.64 168.78,45.25 169.24,44.93 169.41,44.67 169.39,44.42 168.87,44.2 168.33,44.3 
										167.27,44.67 									"/>
									<polyline class="st5" points="167.27,44.67 168.19,43.75 168.54,43.15 168.55,42.82 168.32,42.61 									"/>
									<polyline class="st5" points="211.96,43.36 213.64,42.81 214.45,42.45 214.9,42.43 215.24,42.72 									"/>
									<polyline class="st5" points="211.96,43.36 212.38,42.07 212.73,41.48 213.24,41.08 214.58,40.72 215,40.21 214.87,39.57 
																			"/>
									<polyline class="st5" points="214.87,39.57 215.29,38.98 215.25,38.64 214.98,38.4 									"/>
									<polyline class="st5" points="214.98,38.4 215.15,38.09 215.05,37.75 214.75,37.6 214.37,37.67 									"/>
									<line class="st5" x1="169.43" y1="61.95" x2="169.5" y2="62.96"/>
									<line class="st5" x1="169.5" y1="62.96" x2="169.26" y2="62.43"/>
									<polyline class="st5" points="64.8,87.4 64.37,87.66 64.2,88.1 64.44,88.55 64.83,88.71 64.89,88.73 									"/>
									<polyline class="st5" points="65.13,88.68 64.83,88.71 64.81,88.71 64.29,88.7 64.2,89.23 64.83,89.69 65.61,89.96 
										66,90.1 									"/>
									<polyline class="st5" points="66.4,90.22 66.74,89.98 67.17,89.69 67.16,89.23 66.84,88.94 66.09,88.73 65.49,88.56 
																			"/>
									<polyline class="st5" points="65.91,89.05 66.09,88.73 66.29,88.35 65.65,87.45 64.68,87.08 64.54,87.02 									"/>
									<polyline class="st5" points="65.88,89.82 65.61,89.96 65.14,90.21 64.95,90.59 65.14,90.94 65.96,91.22 66.44,91.22 
										66.78,91.22 									"/>
									<polyline class="st5" points="67.08,90.94 67.74,90.82 68.15,90.63 68.19,90.28 67.4,89.81 66.74,89.98 66.53,90.04 
																			"/>
									<polyline class="st5" points="66.4,90.99 66.44,91.22 66.55,91.82 66.73,92.05 67.32,92.18 67.65,92.18 									"/>
									<polyline class="st5" points="67.65,92.18 67.86,92.18 68.96,92.15 69.3,91.84 69.27,91.18 68.96,90.81 68.36,90.81 
										67.24,91.01 									"/>
								</g>
							</g>
						</g>
					</g>
				</g>
				<g id="Handgrepp_2024">
					<g id="XMLID_00000016055244828933019930000011383434774383362238_">
						<g>
							<polygon class="st4" points="68.92,91.13 69,91.57 68.62,91.84 67.7,91.93 67.24,91.95 66.83,91.8 66.69,91.38 66.73,90.93 
								66.1,90.93 65.49,90.72 65.39,90.42 65.53,90.13 66.1,89.83 64.82,89.53 64.6,89.28 64.6,88.96 64.82,88.73 65.14,88.7 
								64.8,88.56 64.61,88.22 64.74,87.87 65.07,87.68 65.92,88.01 66.07,88.46 65.74,88.77 66.78,89.06 66.91,89.3 66.88,89.58 
								66.41,89.84 66.54,90.05 67.2,90.03 67.81,90.24 67.91,90.55 67.75,90.84 67.09,90.96 67.15,91.02 68.05,91 68.51,90.92 
															"/>
						</g>
					</g>
				</g>
			</g>
		</g>
	</g>
</g>
</svg>
