<?xml version="1.0" encoding="utf-8"?>
<!-- Generator: Adobe Illustrator 26.1.0, SVG Export Plug-In . SVG Version: 6.00 Build 0)  -->
<svg version="1.1" id="Lager_1" xmlns="http://www.w3.org/2000/svg" xmlns:xlink="http://www.w3.org/1999/xlink" x="0px" y="0px"
	 viewBox="0 0 283.46 283.46" style="enable-background:new 0 0 283.46 283.46;" xml:space="preserve">
<style type="text/css">
	.st0{fill:#1E2676;}
	.st1{fill:none;}
	.st2{fill:#FFFFFF;}
</style>
<g id="Priser_2024">
	<g id="Olivkvist">
		<g id="SPLINE_3555_">
			<path class="st0" d="M130.12,249.38c-0.19-2.53-0.38-5.05-1.1-7.44l0,0c-1-3.29-2.99-6.32-5.5-8.74l0,0
				c-2.45-2.37-5.4-4.14-8.5-5.5l0,0c-2.74-1.19-5.6-2.06-8.5-2.79l0,0c-2.41-0.61-4.86-1.13-7.3-1.65"/>
		</g>
		<g id="LINE_2308_">
			<line class="st1" x1="99.23" y1="223.26" x2="130.12" y2="249.38"/>
		</g>
		<g id="SPLINE_3556_">
			<path class="st0" d="M130.12,249.38c-2.52,0.23-5.04,0.47-7.53,0.16l0,0c-3.4-0.44-6.73-1.9-9.53-3.97l0,0
				c-2.74-2.03-4.98-4.63-6.83-7.47l0,0c-1.63-2.5-2.96-5.18-4.17-7.91l0,0c-1.01-2.29-1.92-4.6-2.84-6.92"/>
		</g>
		<g id="SPLINE_3557_">
			<path class="st0" d="M133.81,258.16c-2.14-1.36-4.27-2.72-6.62-3.57l0,0c-3.22-1.17-6.86-1.39-10.29-0.83l0,0
				c-3.37,0.55-6.55,1.85-9.49,3.52l0,0c-2.6,1.48-5.01,3.25-7.32,5.13l0,0c-1.94,1.57-3.81,3.22-5.69,4.86"/>
		</g>
		<g id="LINE_2309_">
			<line class="st1" x1="94.4" y1="267.27" x2="133.81" y2="258.16"/>
		</g>
		<g id="SPLINE_3558_">
			<path class="st0" d="M133.81,258.16c-1.32,2.15-2.64,4.32-4.38,6.11l0,0c-2.38,2.47-5.55,4.26-8.89,5.26l0,0
				c-3.27,0.98-6.69,1.21-10.07,1l0,0c-2.98-0.2-5.92-0.73-8.83-1.4l0,0c-2.43-0.57-4.84-1.22-7.24-1.87"/>
		</g>
		<g id="SPLINE_3559_">
			<path class="st0" d="M93.26,241.45c1.15-2.25,2.29-4.52,2.91-6.94l0,0c0.85-3.32,0.72-6.95-0.18-10.33l0,0
				c-0.87-3.29-2.47-6.33-4.43-9.09l0,0c-1.73-2.44-3.72-4.66-5.82-6.79l0,0c-1.75-1.78-3.57-3.48-5.39-5.19"/>
		</g>
		<g id="LINE_2310_">
			<line class="st1" x1="80.35" y1="203.12" x2="93.26" y2="241.45"/>
		</g>
		<g id="SPLINE_3560_">
			<path class="st0" d="M93.26,241.45c-2.28-1.11-4.56-2.21-6.52-3.76l0,0c-2.69-2.13-4.77-5.11-6.1-8.33l0,0
				c-1.3-3.15-1.86-6.54-1.98-9.92l0,0c-0.1-2.98,0.14-5.97,0.53-8.93l0,0c0.33-2.47,0.74-4.93,1.16-7.39"/>
		</g>
		<g id="SPLINE_3561_">
			<path class="st0" d="M106.98,249.85c-2.02-1.52-4.04-3.05-6.32-4.09l0,0c-3.12-1.42-6.73-1.93-10.2-1.64l0,0
				c-3.4,0.29-6.67,1.33-9.73,2.76l0,0c-2.71,1.27-5.25,2.85-7.71,4.54l0,0c-2.06,1.41-4.06,2.9-6.05,4.39"/>
		</g>
		<g id="LINE_2311_">
			<line class="st1" x1="66.97" y1="255.81" x2="106.98" y2="249.85"/>
		</g>
		<g id="SPLINE_3562_">
			<path class="st0" d="M106.98,249.85c-1.49,2.04-2.97,4.1-4.85,5.75l0,0c-2.57,2.27-5.87,3.8-9.28,4.54l0,0
				c-3.33,0.73-6.77,0.68-10.12,0.21l0,0c-2.96-0.43-5.85-1.2-8.7-2.1l0,0c-2.38-0.75-4.73-1.6-7.07-2.43"/>
		</g>
		<g id="SPLINE_3563_">
			<path class="st0" d="M67.07,227.46c1.76-1.81,3.53-3.62,4.86-5.75l0,0c1.81-2.91,2.77-6.43,2.93-9.9l0,0
				c0.16-3.41-0.46-6.79-1.49-10.01l0,0c-0.91-2.85-2.15-5.57-3.52-8.22l0,0c-1.14-2.22-2.36-4.39-3.59-6.57"/>
		</g>
		<g id="LINE_2312_">
			<line class="st1" x1="66.27" y1="187.01" x2="67.07" y2="227.46"/>
		</g>
		<g id="SPLINE_3564_">
			<path class="st0" d="M67.07,227.46c-1.84-1.75-3.68-3.48-5.08-5.55l0,0c-1.93-2.85-3.02-6.31-3.32-9.78l0,0
				c-0.29-3.4,0.19-6.8,1.09-10.06l0,0c0.79-2.88,1.93-5.65,3.18-8.36l0,0c1.05-2.26,2.19-4.48,3.32-6.7"/>
		</g>
		<g id="SPLINE_3565_">
			<path class="st0" d="M82.13,240.58c-1.54-2.01-3.07-4.02-4.99-5.63l0,0c-2.62-2.21-5.96-3.66-9.38-4.32l0,0
				c-3.35-0.64-6.78-0.51-10.12,0.05l0,0c-2.95,0.5-5.82,1.33-8.65,2.3l0,0c-2.36,0.81-4.69,1.71-7.01,2.62"/>
		</g>
		<g id="LINE_2313_">
			<line class="st1" x1="41.99" y1="235.59" x2="82.13" y2="240.58"/>
		</g>
		<g id="SPLINE_3566_">
			<path class="st0" d="M82.13,240.58c-1.98,1.58-3.96,3.14-6.21,4.23l0,0c-3.09,1.5-6.68,2.1-10.16,1.89l0,0
				c-3.4-0.2-6.7-1.16-9.8-2.51l0,0c-2.73-1.21-5.32-2.72-7.82-4.35l0,0c-2.09-1.37-4.12-2.81-6.16-4.25"/>
		</g>
		<g id="SPLINE_3567_">
			<path class="st0" d="M47.61,209.85c2.12-1.38,4.24-2.76,6-4.54l0,0c2.41-2.45,4.11-5.66,5.03-9.02l0,0
				c0.89-3.29,1.04-6.72,0.73-10.09l0,0c-0.27-2.97-0.88-5.9-1.63-8.79l0,0c-0.62-2.42-1.35-4.8-2.06-7.19"/>
		</g>
		<g id="LINE_2314_">
			<line class="st1" x1="55.67" y1="170.21" x2="47.61" y2="209.85"/>
		</g>
		<g id="SPLINE_3568_">
			<path class="st0" d="M47.61,209.85c-1.41-2.1-2.83-4.2-3.75-6.52l0,0c-1.26-3.19-1.57-6.82-1.1-10.27l0,0
				c0.46-3.38,1.67-6.59,3.27-9.58l0,0c1.41-2.64,3.12-5.09,4.93-7.46l0,0c1.52-1.98,3.11-3.9,4.71-5.82"/>
		</g>
		<g id="SPLINE_3569_">
			<path class="st0" d="M60.39,225.74c-1.12-2.27-2.24-4.54-3.81-6.48l0,0c-2.15-2.67-5.15-4.74-8.38-6.04l0,0
				c-3.16-1.27-6.56-1.81-9.93-1.9l0,0c-2.99-0.08-5.97,0.19-8.93,0.6l0,0c-2.47,0.34-4.93,0.77-7.38,1.21"/>
		</g>
		<g id="LINE_2315_">
			<line class="st1" x1="21.96" y1="213.12" x2="60.39" y2="225.74"/>
		</g>
		<g id="SPLINE_3570_">
			<path class="st0" d="M60.39,225.74c-2.25,1.17-4.5,2.33-6.91,2.97l0,0c-3.32,0.87-6.95,0.76-10.32-0.1l0,0
				c-3.3-0.85-6.35-2.43-9.13-4.36l0,0c-2.45-1.71-4.69-3.69-6.83-5.77l0,0c-1.79-1.75-3.51-3.55-5.23-5.35"/>
		</g>
		<g id="SPLINE_3571_">
			<path class="st0" d="M42.55,207.28c-0.64-2.45-1.29-4.9-2.44-7.12l0,0c-1.58-3.05-4.09-5.67-7-7.59l0,0
				c-2.85-1.88-6.06-3.08-9.36-3.85l0,0c-2.92-0.68-5.89-1.01-8.87-1.2l0,0c-2.49-0.16-4.98-0.22-7.47-0.29"/>
		</g>
		<g id="LINE_2316_">
			<line class="st1" x1="7.42" y1="187.23" x2="42.55" y2="207.28"/>
		</g>
		<g id="SPLINE_3572_">
			<path class="st0" d="M42.55,207.28c-2.43,0.69-4.87,1.38-7.37,1.52l0,0c-3.42,0.19-6.97-0.64-10.09-2.16l0,0
				c-3.07-1.49-5.74-3.65-8.08-6.1l0,0c-2.06-2.16-3.86-4.55-5.55-7.02l0,0c-1.41-2.06-2.73-4.18-4.05-6.29"/>
		</g>
		<g id="SPLINE_3573_">
			<path class="st0" d="M35.19,186.19c-0.36-2.5-0.72-5.01-1.61-7.35l0,0c-1.22-3.21-3.42-6.1-6.09-8.34l0,0
				c-2.61-2.19-5.67-3.76-8.85-4.9l0,0c-2.81-1-5.73-1.67-8.67-2.21l0,0c-2.45-0.44-4.92-0.79-7.39-1.14"/>
		</g>
		<g id="LINE_2317_">
			<line class="st1" x1="2.59" y1="162.25" x2="35.19" y2="186.19"/>
		</g>
		<g id="SPLINE_3574_">
			<path class="st0" d="M35.19,186.19c-2.5,0.41-5,0.81-7.49,0.67l0,0c-3.42-0.2-6.85-1.43-9.78-3.3l0,0
				c-2.88-1.84-5.29-4.28-7.32-6.98l0,0c-1.8-2.39-3.31-4.97-4.7-7.61l0,0c-1.17-2.21-2.23-4.46-3.31-6.71"/>
		</g>
		<g id="SPLINE_3575_">
			<path class="st0" d="M27.29,164.92c0.61-2.46,1.22-4.91,1.29-7.41l0,0c0.09-3.43-0.85-6.94-2.47-10.02l0,0
				c-1.59-3.02-3.83-5.63-6.35-7.88l0,0c-2.23-2-4.67-3.72-7.19-5.32l0,0c-2.1-1.34-4.26-2.6-6.41-3.86"/>
		</g>
		<g id="LINE_2318_">
			<line class="st1" x1="6.15" y1="130.42" x2="27.29" y2="164.92"/>
		</g>
		<g id="SPLINE_3576_">
			<path class="st0" d="M27.29,164.92c-2.47-0.57-4.93-1.14-7.19-2.22l0,0c-3.09-1.48-5.79-3.92-7.8-6.76l0,0
				c-1.97-2.79-3.27-5.96-4.14-9.23l0,0c-0.77-2.89-1.19-5.85-1.48-8.82l0,0c-0.23-2.48-0.38-4.97-0.52-7.46"/>
		</g>
		<g id="SPLINE_3577_">
			<path class="st0" d="M37.79,181.54c2.22-1.21,4.45-2.42,6.33-4.06l0,0c2.59-2.25,4.54-5.32,5.72-8.6l0,0
				c1.15-3.21,1.56-6.62,1.53-10l0,0c-0.03-2.99-0.42-5.96-0.94-8.9l0,0c-0.43-2.46-0.96-4.9-1.48-7.33"/>
		</g>
		<g id="LINE_2319_">
			<line class="st1" x1="48.94" y1="142.66" x2="37.79" y2="181.54"/>
		</g>
		<g id="SPLINE_3578_">
			<path class="st0" d="M37.79,181.54c-1.25-2.2-2.49-4.41-3.22-6.8l0,0c-1-3.28-1.03-6.92-0.29-10.32l0,0
				c0.73-3.33,2.19-6.44,4.01-9.29l0,0c1.61-2.52,3.52-4.83,5.51-7.05l0,0c1.67-1.85,3.41-3.64,5.15-5.42"/>
		</g>
		<g id="SPLINE_3579_">
			<path class="st0" d="M30.84,151.58c2.44-0.68,4.88-1.36,7.08-2.53l0,0c3.03-1.62,5.62-4.17,7.49-7.11l0,0
				c1.84-2.87,3.01-6.1,3.72-9.41l0,0c0.64-2.92,0.93-5.9,1.08-8.88l0,0c0.13-2.49,0.16-4.98,0.19-7.48"/>
		</g>
		<g id="LINE_2320_">
			<line class="st1" x1="50.41" y1="116.18" x2="30.84" y2="151.58"/>
		</g>
		<g id="SPLINE_3580_">
			<path class="st0" d="M30.84,151.58c-0.72-2.42-1.44-4.85-1.62-7.34l0,0c-0.24-3.42,0.55-6.98,2.02-10.13l0,0
				c1.45-3.09,3.57-5.79,5.99-8.16l0,0c2.14-2.09,4.5-3.93,6.94-5.64l0,0c2.04-1.44,4.14-2.79,6.24-4.14"/>
		</g>
		<g id="SPLINE_3581_">
			<path class="st0" d="M25.88,136.6c1.4-2.11,2.81-4.22,3.7-6.55l0,0c1.23-3.2,1.52-6.83,1.02-10.27l0,0
				c-0.49-3.38-1.72-6.58-3.34-9.55l0,0c-1.43-2.63-3.16-5.07-4.99-7.42l0,0c-1.54-1.97-3.14-3.87-4.75-5.78"/>
		</g>
		<g id="LINE_2321_">
			<line class="st1" x1="17.53" y1="97.02" x2="25.88" y2="136.6"/>
		</g>
		<g id="SPLINE_3582_">
			<path class="st0" d="M25.88,136.6c-2.13-1.36-4.26-2.73-6.03-4.5l0,0c-2.42-2.43-4.15-5.63-5.09-8.98l0,0
				c-0.92-3.28-1.09-6.72-0.81-10.08l0,0c0.25-2.98,0.84-5.91,1.57-8.81l0,0c0.61-2.42,1.3-4.81,2-7.21"/>
		</g>
		<g id="SPLINE_3583_">
			<path class="st0" d="M33.86,106.47c1.84-1.74,3.67-3.49,5.06-5.56l0,0c1.91-2.85,3-6.32,3.28-9.79l0,0
				c0.28-3.4-0.21-6.8-1.13-10.05l0,0c-0.81-2.88-1.95-5.65-3.22-8.35l0,0c-1.05-2.26-2.2-4.48-3.34-6.69"/>
		</g>
		<g id="LINE_2322_">
			<line class="st1" x1="34.52" y1="66.02" x2="33.86" y2="106.47"/>
		</g>
		<g id="SPLINE_3584_">
			<path class="st0" d="M33.86,106.47c-1.78-1.8-3.55-3.61-4.88-5.73l0,0c-1.82-2.91-2.79-6.41-2.96-9.89l0,0
				c-0.16-3.41,0.44-6.79,1.46-10.01l0,0c0.91-2.85,2.14-5.58,3.48-8.24l0,0c1.13-2.22,2.35-4.4,3.57-6.58"/>
		</g>
		<g id="SPLINE_3585_">
			<path class="st0" d="M37.47,116.84c2.53,0.04,5.06,0.08,7.51-0.42l0,0c3.36-0.69,6.57-2.4,9.21-4.68l0,0
				c2.58-2.23,4.62-5,6.24-7.96l0,0c1.44-2.62,2.56-5.39,3.56-8.21l0,0c0.83-2.35,1.57-4.74,2.3-7.12"/>
		</g>
		<g id="LINE_2323_">
			<line class="st1" x1="66.29" y1="88.46" x2="37.47" y2="116.84"/>
		</g>
		<g id="SPLINE_3586_">
			<path class="st0" d="M37.47,116.84c0-2.53-0.01-5.06,0.53-7.5l0,0c0.74-3.35,2.51-6.53,4.82-9.13l0,0
				c2.27-2.55,5.07-4.54,8.06-6.12l0,0c2.64-1.4,5.43-2.48,8.26-3.43l0,0c2.36-0.79,4.76-1.5,7.15-2.2"/>
		</g>
		<g id="SPLINE_3587_">
			<path class="st0" d="M45.42,90.54c2.52-0.25,5.04-0.49,7.42-1.27l0,0c3.26-1.07,6.25-3.14,8.61-5.7l0,0
				c2.31-2.51,4.02-5.49,5.3-8.62l0,0c1.13-2.77,1.93-5.65,2.6-8.56l0,0c0.55-2.43,1.02-4.88,1.48-7.33"/>
		</g>
		<g id="LINE_2324_">
			<line class="st1" x1="70.81" y1="59.05" x2="45.42" y2="90.54"/>
		</g>
		<g id="SPLINE_3588_">
			<path class="st0" d="M45.42,90.54c-0.29-2.52-0.59-5.03-0.33-7.52l0,0c0.35-3.41,1.75-6.77,3.74-9.62l0,0
				c1.97-2.79,4.52-5.09,7.31-7l0,0c2.46-1.69,5.11-3.09,7.81-4.35l0,0c2.26-1.06,4.56-2.03,6.86-3"/>
		</g>
		<g id="CIRCLE_234_">
			<path class="st0" d="M148.23,254.6c0-2.99-2.43-5.42-5.42-5.42s-5.42,2.43-5.42,5.42c0,2.99,2.43,5.42,5.42,5.42
				S148.23,257.59,148.23,254.6L148.23,254.6L148.23,254.6z"/>
		</g>
		<g id="SPLINE_3589_">
			<path class="st0" d="M155.49,249.38c0.19-2.53,0.38-5.05,1.1-7.44l0,0c0.99-3.29,3-6.32,5.49-8.74l0,0
				c2.46-2.37,5.4-4.14,8.5-5.5l0,0c2.73-1.19,5.6-2.06,8.5-2.79l0,0c2.41-0.61,4.86-1.13,7.3-1.65"/>
		</g>
		<g id="LINE_2325_">
			<line class="st1" x1="186.38" y1="223.26" x2="155.49" y2="249.38"/>
		</g>
		<g id="SPLINE_3590_">
			<path class="st0" d="M155.49,249.38c2.52,0.23,5.04,0.47,7.52,0.16l0,0c3.41-0.44,6.73-1.9,9.53-3.97l0,0
				c2.75-2.03,4.98-4.63,6.83-7.47l0,0c1.63-2.5,2.97-5.18,4.17-7.91l0,0c1-2.29,1.92-4.6,2.84-6.92"/>
		</g>
		<g id="SPLINE_3591_">
			<path class="st0" d="M151.79,258.16c2.14-1.36,4.27-2.72,6.62-3.57l0,0c3.22-1.17,6.86-1.39,10.29-0.83l0,0
				c3.37,0.55,6.55,1.85,9.49,3.52l0,0c2.6,1.48,5.01,3.25,7.32,5.13l0,0c1.94,1.57,3.82,3.22,5.69,4.86"/>
		</g>
		<g id="LINE_2326_">
			<line class="st1" x1="191.21" y1="267.27" x2="151.79" y2="258.16"/>
		</g>
		<g id="SPLINE_3592_">
			<path class="st0" d="M151.79,258.16c1.32,2.15,2.64,4.32,4.38,6.11l0,0c2.38,2.47,5.55,4.26,8.89,5.26l0,0
				c3.26,0.98,6.69,1.21,10.06,1l0,0c2.99-0.2,5.93-0.73,8.83-1.4l0,0c2.43-0.57,4.84-1.22,7.25-1.87"/>
		</g>
		<g id="SPLINE_3593_">
			<path class="st0" d="M192.35,241.45c-1.15-2.25-2.29-4.52-2.91-6.94l0,0c-0.85-3.32-0.72-6.95,0.18-10.33l0,0
				c0.88-3.29,2.48-6.33,4.43-9.09l0,0c1.73-2.44,3.73-4.66,5.83-6.79l0,0c1.75-1.78,3.57-3.48,5.39-5.19"/>
		</g>
		<g id="LINE_2327_">
			<line class="st1" x1="205.26" y1="203.12" x2="192.35" y2="241.45"/>
		</g>
		<g id="SPLINE_3594_">
			<path class="st0" d="M192.35,241.45c2.28-1.11,4.55-2.21,6.51-3.76l0,0c2.69-2.13,4.78-5.11,6.11-8.33l0,0
				c1.29-3.15,1.86-6.54,1.98-9.92l0,0c0.1-2.98-0.15-5.97-0.54-8.93l0,0c-0.32-2.47-0.74-4.93-1.15-7.39"/>
		</g>
		<g id="SPLINE_3595_">
			<path class="st0" d="M178.63,249.85c2.02-1.52,4.04-3.05,6.31-4.09l0,0c3.12-1.42,6.73-1.93,10.2-1.64l0,0
				c3.4,0.29,6.67,1.33,9.74,2.76l0,0c2.7,1.27,5.25,2.85,7.71,4.54l0,0c2.06,1.41,4.06,2.9,6.05,4.39"/>
		</g>
		<g id="LINE_2328_">
			<line class="st1" x1="218.64" y1="255.81" x2="178.63" y2="249.85"/>
		</g>
		<g id="SPLINE_3596_">
			<path class="st0" d="M178.63,249.85c1.49,2.04,2.98,4.1,4.85,5.75l0,0c2.57,2.27,5.87,3.8,9.28,4.54l0,0
				c3.33,0.73,6.76,0.68,10.11,0.21l0,0c2.96-0.43,5.85-1.2,8.7-2.1l0,0c2.38-0.75,4.73-1.6,7.08-2.43"/>
		</g>
		<g id="SPLINE_3597_">
			<path class="st0" d="M218.54,227.46c-1.77-1.81-3.54-3.62-4.86-5.75l0,0c-1.81-2.91-2.77-6.43-2.93-9.9l0,0
				c-0.16-3.41,0.46-6.79,1.49-10.01l0,0c0.91-2.85,2.15-5.57,3.52-8.22l0,0c1.14-2.22,2.36-4.39,3.59-6.57"/>
		</g>
		<g id="LINE_2329_">
			<line class="st1" x1="219.34" y1="187.01" x2="218.54" y2="227.46"/>
		</g>
		<g id="SPLINE_3598_">
			<path class="st0" d="M218.54,227.46c1.84-1.75,3.68-3.48,5.08-5.55l0,0c1.93-2.85,3.02-6.31,3.32-9.78l0,0
				c0.29-3.4-0.19-6.8-1.09-10.06l0,0c-0.8-2.88-1.93-5.65-3.18-8.36l0,0c-1.05-2.26-2.19-4.48-3.32-6.7"/>
		</g>
		<g id="SPLINE_3599_">
			<path class="st0" d="M203.47,240.58c1.54-2.01,3.08-4.02,4.99-5.63l0,0c2.62-2.21,5.96-3.66,9.38-4.32l0,0
				c3.35-0.64,6.78-0.51,10.12,0.05l0,0c2.95,0.5,5.82,1.33,8.65,2.3l0,0c2.36,0.81,4.68,1.71,7.01,2.62"/>
		</g>
		<g id="LINE_2330_">
			<line class="st1" x1="243.62" y1="235.59" x2="203.47" y2="240.58"/>
		</g>
		<g id="SPLINE_3600_">
			<path class="st0" d="M203.47,240.58c1.99,1.58,3.96,3.14,6.22,4.23l0,0c3.08,1.5,6.68,2.1,10.15,1.89l0,0
				c3.41-0.2,6.71-1.16,9.8-2.51l0,0c2.73-1.21,5.31-2.72,7.81-4.35l0,0c2.1-1.37,4.13-2.81,6.17-4.25"/>
		</g>
		<g id="SPLINE_3601_">
			<path class="st0" d="M238,209.85c-2.12-1.38-4.25-2.76-6-4.54l0,0c-2.4-2.45-4.1-5.66-5.02-9.02l0,0
				c-0.9-3.29-1.04-6.72-0.74-10.09l0,0c0.27-2.97,0.89-5.9,1.63-8.79l0,0c0.62-2.42,1.34-4.8,2.06-7.19"/>
		</g>
		<g id="LINE_2331_">
			<line class="st1" x1="229.94" y1="170.21" x2="238" y2="209.85"/>
		</g>
		<g id="SPLINE_3602_">
			<path class="st0" d="M238,209.85c1.41-2.1,2.83-4.2,3.74-6.52l0,0c1.26-3.19,1.57-6.82,1.1-10.27l0,0
				c-0.46-3.38-1.67-6.59-3.26-9.58l0,0c-1.41-2.64-3.12-5.09-4.93-7.46l0,0c-1.52-1.98-3.11-3.9-4.71-5.82"/>
		</g>
		<g id="SPLINE_3603_">
			<path class="st0" d="M225.22,225.74c1.12-2.27,2.24-4.54,3.81-6.48l0,0c2.16-2.67,5.15-4.74,8.38-6.04l0,0
				c3.16-1.27,6.56-1.81,9.93-1.9l0,0c2.99-0.08,5.97,0.19,8.92,0.6l0,0c2.47,0.34,4.93,0.77,7.38,1.21"/>
		</g>
		<g id="LINE_2332_">
			<line class="st1" x1="263.65" y1="213.12" x2="225.22" y2="225.74"/>
		</g>
		<g id="SPLINE_3604_">
			<path class="st0" d="M225.22,225.74c2.25,1.17,4.49,2.33,6.91,2.97l0,0c3.31,0.87,6.95,0.76,10.32-0.1l0,0
				c3.3-0.85,6.35-2.43,9.13-4.36l0,0c2.45-1.71,4.7-3.69,6.83-5.77l0,0c1.79-1.75,3.51-3.55,5.23-5.35"/>
		</g>
		<g id="SPLINE_3605_">
			<path class="st0" d="M243.06,207.28c0.64-2.45,1.29-4.9,2.43-7.12l0,0c1.58-3.05,4.1-5.67,7-7.59l0,0
				c2.84-1.88,6.06-3.08,9.36-3.85l0,0c2.91-0.68,5.88-1.01,8.87-1.2l0,0c2.49-0.16,4.98-0.22,7.47-0.29"/>
		</g>
		<g id="LINE_2333_">
			<line class="st1" x1="278.19" y1="187.23" x2="243.06" y2="207.28"/>
		</g>
		<g id="SPLINE_3606_">
			<path class="st0" d="M243.06,207.28c2.43,0.69,4.87,1.38,7.36,1.52l0,0c3.43,0.19,6.97-0.64,10.1-2.16l0,0
				c3.07-1.49,5.74-3.65,8.08-6.1l0,0c2.06-2.16,3.86-4.55,5.54-7.02l0,0c1.41-2.06,2.73-4.18,4.06-6.29"/>
		</g>
		<g id="SPLINE_3607_">
			<path class="st0" d="M250.41,186.19c0.36-2.5,0.72-5.01,1.61-7.35l0,0c1.22-3.21,3.42-6.1,6.09-8.34l0,0
				c2.61-2.19,5.66-3.76,8.85-4.9l0,0c2.81-1,5.73-1.67,8.67-2.21l0,0c2.45-0.44,4.93-0.79,7.39-1.14"/>
		</g>
		<g id="LINE_2334_">
			<line class="st1" x1="283.02" y1="162.25" x2="250.41" y2="186.19"/>
		</g>
		<g id="SPLINE_3608_">
			<path class="st0" d="M250.41,186.19c2.5,0.41,5,0.81,7.49,0.67l0,0c3.42-0.2,6.85-1.43,9.78-3.3l0,0
				c2.87-1.84,5.29-4.28,7.32-6.98l0,0c1.8-2.39,3.31-4.97,4.7-7.61l0,0c1.16-2.21,2.23-4.46,3.31-6.71"/>
		</g>
		<g id="SPLINE_3609_">
			<path class="st0" d="M258.32,164.92c-0.61-2.46-1.22-4.91-1.29-7.41l0,0c-0.09-3.43,0.85-6.94,2.47-10.02l0,0
				c1.59-3.02,3.82-5.63,6.34-7.88l0,0c2.23-2,4.67-3.72,7.19-5.32l0,0c2.1-1.34,4.26-2.6,6.41-3.86"/>
		</g>
		<g id="LINE_2335_">
			<line class="st1" x1="279.45" y1="130.42" x2="258.32" y2="164.92"/>
		</g>
		<g id="SPLINE_3610_">
			<path class="st0" d="M258.32,164.92c2.47-0.57,4.93-1.14,7.19-2.22l0,0c3.1-1.48,5.8-3.92,7.81-6.76l0,0
				c1.97-2.79,3.27-5.96,4.14-9.23l0,0c0.77-2.89,1.19-5.85,1.47-8.82l0,0c0.24-2.48,0.38-4.97,0.52-7.46"/>
		</g>
		<g id="SPLINE_3611_">
			<path class="st0" d="M247.82,181.54c-2.23-1.21-4.45-2.42-6.33-4.06l0,0c-2.59-2.25-4.54-5.32-5.72-8.6l0,0
				c-1.16-3.21-1.57-6.62-1.53-10l0,0c0.03-2.99,0.42-5.96,0.93-8.9l0,0c0.44-2.46,0.96-4.9,1.49-7.33"/>
		</g>
		<g id="LINE_2336_">
			<line class="st1" x1="236.66" y1="142.66" x2="247.82" y2="181.54"/>
		</g>
		<g id="SPLINE_3612_">
			<path class="st0" d="M247.82,181.54c1.25-2.2,2.49-4.41,3.22-6.8l0,0c1-3.28,1.03-6.92,0.29-10.32l0,0
				c-0.72-3.33-2.18-6.44-4.01-9.29l0,0c-1.61-2.52-3.51-4.83-5.51-7.05l0,0c-1.67-1.85-3.41-3.64-5.15-5.42"/>
		</g>
		<g id="SPLINE_3613_">
			<path class="st0" d="M254.76,151.58c-2.43-0.68-4.88-1.36-7.08-2.53l0,0c-3.03-1.62-5.62-4.17-7.5-7.11l0,0
				c-1.84-2.87-3-6.1-3.72-9.41l0,0c-0.63-2.92-0.92-5.9-1.07-8.88l0,0c-0.13-2.49-0.16-4.98-0.19-7.48"/>
		</g>
		<g id="LINE_2337_">
			<line class="st1" x1="235.2" y1="116.18" x2="254.76" y2="151.58"/>
		</g>
		<g id="SPLINE_3614_">
			<path class="st0" d="M254.76,151.58c0.73-2.42,1.44-4.85,1.63-7.34l0,0c0.24-3.42-0.55-6.98-2.03-10.13l0,0
				c-1.45-3.09-3.57-5.79-5.98-8.16l0,0c-2.14-2.09-4.5-3.93-6.95-5.64l0,0c-2.04-1.44-4.13-2.79-6.23-4.14"/>
		</g>
		<g id="SPLINE_3615_">
			<path class="st0" d="M259.72,136.6c-1.4-2.11-2.8-4.22-3.7-6.55l0,0c-1.23-3.2-1.52-6.83-1.02-10.27l0,0
				c0.48-3.38,1.72-6.58,3.33-9.55l0,0c1.43-2.63,3.16-5.07,4.99-7.42l0,0c1.54-1.97,3.14-3.87,4.75-5.78"/>
		</g>
		<g id="LINE_2338_">
			<line class="st1" x1="268.08" y1="97.02" x2="259.72" y2="136.6"/>
		</g>
		<g id="SPLINE_3616_">
			<path class="st0" d="M259.72,136.6c2.13-1.36,4.27-2.73,6.03-4.5l0,0c2.42-2.43,4.15-5.63,5.08-8.98l0,0
				c0.92-3.28,1.09-6.72,0.81-10.08l0,0c-0.25-2.98-0.84-5.91-1.57-8.81l0,0c-0.61-2.42-1.31-4.81-2-7.21"/>
		</g>
		<g id="SPLINE_3617_">
			<path class="st0" d="M251.75,106.47c-1.84-1.74-3.67-3.49-5.07-5.56l0,0c-1.91-2.85-3-6.32-3.29-9.79l0,0
				c-0.27-3.4,0.21-6.8,1.13-10.05l0,0c0.81-2.88,1.95-5.65,3.21-8.35l0,0c1.06-2.26,2.21-4.48,3.35-6.69"/>
		</g>
		<g id="LINE_2339_">
			<line class="st1" x1="251.08" y1="66.02" x2="251.75" y2="106.47"/>
		</g>
		<g id="SPLINE_3618_">
			<path class="st0" d="M251.75,106.47c1.78-1.8,3.55-3.61,4.88-5.73l0,0c1.82-2.91,2.79-6.41,2.96-9.89l0,0
				c0.17-3.41-0.43-6.79-1.45-10.01l0,0c-0.9-2.85-2.13-5.58-3.49-8.24l0,0c-1.13-2.22-2.34-4.4-3.56-6.58"/>
		</g>
		<g id="SPLINE_3619_">
			<path class="st0" d="M248.14,116.84c-2.53,0.04-5.06,0.08-7.51-0.42l0,0c-3.37-0.69-6.57-2.4-9.21-4.68l0,0
				c-2.58-2.23-4.62-5-6.24-7.96l0,0c-1.45-2.62-2.57-5.39-3.56-8.21l0,0c-0.83-2.35-1.57-4.74-2.3-7.12"/>
		</g>
		<g id="LINE_2340_">
			<line class="st1" x1="219.32" y1="88.46" x2="248.14" y2="116.84"/>
		</g>
		<g id="SPLINE_3620_">
			<path class="st0" d="M248.14,116.84c0.01-2.53,0.01-5.06-0.54-7.5l0,0c-0.74-3.35-2.5-6.53-4.82-9.13l0,0
				c-2.27-2.55-5.07-4.54-8.06-6.12l0,0c-2.64-1.4-5.43-2.48-8.26-3.43l0,0c-2.36-0.79-4.76-1.5-7.15-2.2"/>
		</g>
		<g id="SPLINE_3621_">
			<path class="st0" d="M240.19,90.54c-2.52-0.25-5.04-0.49-7.42-1.27l0,0c-3.26-1.07-6.25-3.14-8.61-5.7l0,0
				c-2.31-2.51-4.01-5.49-5.29-8.62l0,0c-1.13-2.77-1.93-5.65-2.6-8.56l0,0c-0.56-2.43-1.02-4.88-1.48-7.33"/>
		</g>
		<g id="LINE_2341_">
			<line class="st1" x1="214.8" y1="59.05" x2="240.19" y2="90.54"/>
		</g>
		<g id="SPLINE_3622_">
			<path class="st0" d="M240.19,90.54c0.29-2.52,0.59-5.03,0.33-7.52l0,0c-0.35-3.41-1.74-6.77-3.75-9.62l0,0
				c-1.96-2.79-4.52-5.09-7.3-7l0,0c-2.46-1.69-5.11-3.09-7.81-4.35l0,0c-2.26-1.06-4.56-2.03-6.86-3"/>
		</g>
	</g>
	<g id="Kategorier">
		<g id="Bästa_musikalaksa_framförande_1_">
			<g id="Sångare_2017">
				<g id="XMLID_8_">
					<g>
						<path class="st0" d="M118.5,107.01c-0.42,0-0.82,0.03-1.18,0.18c-0.27,0.11-0.53,0.3-0.78,0.48c0.47,0.03,0.94,0.07,1.4,0.16
							c0.6,0.11,1.19,0.3,1.68,0.64c0.33,0.22,0.62,0.51,0.91,0.79c-0.42-0.27-0.83-0.55-1.3-0.68c-0.28-0.08-0.57-0.11-0.86-0.11
							c-0.11,0-0.22,0-0.33,0.01c-0.4,0.02-0.8,0.1-1.19,0.18c0.46,0.02,0.92,0.03,1.33,0.2c0.37,0.14,0.69,0.41,1.01,0.67
							c-0.43-0.12-0.86-0.24-1.29-0.27c-0.32-0.02-0.65,0.01-0.97,0.04c0.74,0.13,1.48,0.26,2.16,0.57c0.49,0.22,0.94,0.53,1.3,0.92
							c0.26,0.29,0.47,0.62,0.69,0.95c-0.15-0.16-0.29-0.32-0.45-0.46c-0.3-0.26-0.65-0.45-1.01-0.63c0.19,0.26,0.37,0.52,0.54,0.79
							c0.27,0.41,0.51,0.84,0.64,1.31c0.15,0.54,0.13,1.12,0.12,1.7c-0.06-0.3-0.12-0.6-0.21-0.89c-0.21-0.65-0.59-1.25-1.07-1.76
							c-0.45-0.47-1-0.86-1.6-1.03c-0.45-0.13-0.94-0.13-1.42-0.14c0.2,0.14,0.4,0.28,0.6,0.43c0.41,0.31,0.8,0.68,1.04,1.13
							c0.19,0.35,0.29,0.74,0.39,1.13c-0.13-0.17-0.27-0.34-0.4-0.51c-0.36-0.43-0.76-0.85-1.21-1.17c-0.8-0.57-1.78-0.84-2.76-1.1
							c1.8,1.08,3.61,2.16,4.94,3.72c0.99,1.16,1.73,2.58,2.86,3.59c0.26,0.24,0.54,0.45,0.83,0.66c0.71,0.53,1.44,1.05,1.92,1.75
							c0.34,0.49,0.54,1.07,0.75,1.65c0.13,0.17,0.25,0.33,0.3,0.52c0.02,0.08,0.03,0.16,0.03,0.24c0,0.17-0.04,0.35-0.05,0.53
							c-0.02,0.27,0.01,0.55-0.08,0.79c-0.07,0.17-0.18,0.32-0.3,0.47c-0.02,0.21-0.04,0.43-0.07,0.66
							c-0.01,0.09-0.02,0.19-0.02,0.29c0,0.14,0.02,0.28,0.09,0.39c0.06,0.11,0.18,0.2,0.3,0.28c0.45,0.31,0.93,0.5,1.39,0.75
							c0.48,0.26,0.94,0.57,1.43,0.85c0.67,0.39,1.38,0.72,2.13,0.9c0.4,0.09,0.8,0.15,1.2,0.25c0.57,0.15,1.12,0.39,1.58,0.75
							c0.34,0.27,0.63,0.6,0.82,1c0.13,0.27,0.2,0.57,0.21,0.87c0,0.02,0,0.03,0,0.05c0,0.41-0.13,0.82-0.32,1.19
							c-0.16,0.31-0.37,0.59-0.6,0.85c-0.28,0.33-0.6,0.64-0.92,0.94c-0.03,0.24-0.06,0.47-0.06,0.71c0,0.17,0.01,0.35,0.02,0.53
							c0.06,0.2,0.12,0.41,0.17,0.62c0.06,0.22,0.12,0.45,0.24,0.64c0.15,0.24,0.4,0.41,0.66,0.56c0.2,0.11,0.41,0.2,0.58,0.34
							c0.24,0.2,0.41,0.5,0.55,0.82c0.1,0.23,0.2,0.47,0.2,0.71c0,0.01,0,0.02,0,0.03c-0.02,0.17-0.09,0.34-0.18,0.49
							c-0.15,0.27-0.37,0.48-0.57,0.71c-0.23,0.26-0.43,0.54-0.64,0.81c-0.24,0.29-0.49,0.57-0.79,0.81
							c-0.23,0.18-0.47,0.33-0.62,0.57c-0.1,0.13-0.15,0.3-0.24,0.44c-0.15,0.25-0.39,0.43-0.58,0.66
							c-0.16,0.22-0.28,0.47-0.34,0.73c-0.02,0.12-0.03,0.24-0.03,0.37c0,0.25,0.04,0.5,0.12,0.74c0.08,0.26,0.2,0.52,0.38,0.71
							c0.36,0.37,0.95,0.46,1.5,0.57c0.59,0.12,1.14,0.25,1.71,0.28c0.1,0,0.2,0.01,0.31,0.01c0.53,0,1.09-0.05,1.63,0.05
							c0.39,0.08,0.77,0.23,1.07,0.49c0.18,0.16,0.33,0.37,0.45,0.58c0.11,0.21,0.19,0.44,0.23,0.68c0.02,0.1,0.04,0.2,0.04,0.3
							c0,0.08-0.01,0.16-0.04,0.24c-0.05,0.15-0.17,0.29-0.28,0.42c-0.12,0.16-0.22,0.33-0.31,0.5c0,0.19,0,0.39,0,0.58
							c-0.02,0.33-0.07,0.66-0.11,0.99c-0.03,0.28-0.05,0.57-0.07,0.85c0.22,0.29,0.43,0.59,0.6,0.9c0.27,0.47,0.45,0.98,0.64,1.49
							c0.17,0.45,0.35,0.9,0.41,1.37c0.02,0.12,0.02,0.25,0.02,0.37c0,0.27-0.03,0.55-0.11,0.82c-0.12,0.45-0.35,0.87-0.66,1.2
							c-0.44,0.48-1.04,0.77-1.63,1.06c-2.36,1.19-4.54,2.46-6.72,3.89c-0.22,0.14-0.43,0.28-0.65,0.42
							c0.11,0.42,0.23,0.84,0.44,1.23c0.07,0.13,0.15,0.26,0.24,0.38c1.66-0.66,3.31-1.33,4.96-2.02c2.82-1.17,5.62-2.41,8.2-4.08
							c2.15-1.38,4.14-3.06,6.46-4.04c1.59-0.67,3.33-1.01,5.07-1.27c1.84-0.27,3.69-0.45,5.53-0.45c0.44,0,0.88,0.01,1.32,0.03
							c3.35,0.15,6.69,0.95,10.02,0.95c0.65,0,1.3-0.03,1.95-0.1c0.15-0.02,0.31-0.04,0.46-0.06c2.71-0.37,5.34-1.22,8.03-1.65
							c2.79-0.44,5.64-0.43,8.44-0.84c0.81-0.12,1.61-0.28,2.41-0.43c0.05-0.19,0.09-0.37,0.09-0.55c0-0.28-0.11-0.56-0.25-0.81
							c-0.24-0.46-0.56-0.85-0.84-1.28c-0.4-0.61-0.71-1.29-1.06-1.94c-0.33-0.61-0.7-1.19-1.09-1.76
							c-0.38-0.56-0.78-1.12-1.19-1.66c-0.41-0.51-0.83-1.02-1.28-1.49c-0.54-0.58-1.13-1.1-1.66-1.69c-0.55-0.6-1.03-1.26-1.6-1.83
							c-0.56-0.55-1.19-1.01-1.8-1.5c-0.7-0.57-1.38-1.17-2.04-1.77c-0.43-0.4-0.85-0.79-1.25-1.24c-0.32-0.38-0.63-0.79-1.05-1.02
							c-0.2-0.1-0.42-0.17-0.61-0.27c-0.21-0.12-0.39-0.28-0.59-0.39c-0.33-0.18-0.74-0.22-1.12-0.28c-0.93-0.14-1.8-0.36-2.69-0.53
							c-0.71-0.14-1.43-0.24-2.13-0.42c-0.74-0.19-1.44-0.47-2.19-0.73c-0.37-0.13-0.76-0.24-1.05-0.49
							c-0.28-0.25-0.47-0.62-0.6-0.99c-0.11-0.31-0.18-0.61-0.29-0.91c-0.13-0.34-0.32-0.67-0.5-0.99
							c-0.07-0.12-0.13-0.23-0.19-0.35h-0.01c-0.09,0.1-0.2,0.18-0.33,0.25c-0.2,0.1-0.45,0.15-0.56,0.32
							c-0.08,0.12-0.1,0.28-0.16,0.41c-0.13,0.26-0.48,0.36-0.72,0.54c-0.25,0.17-0.4,0.42-0.62,0.61c-0.14,0.12-0.31,0.23-0.4,0.38
							c-0.06,0.1-0.09,0.23-0.16,0.33c-0.08,0.14-0.23,0.23-0.35,0.35c-0.15,0.15-0.25,0.34-0.39,0.48c0.03,0.07,0.06,0.15,0.1,0.25
							c-0.27,0.49-0.43,0.72-0.6,0.95c-0.22,0.28-0.46,0.56-0.7,0.81c-0.31,0.31-0.62,0.6-0.94,0.88c-0.25,0.21-0.51,0.43-0.78,0.63
							c0,0.07-0.02,0.13-0.03,0.21c-0.03,0.14-0.09,0.29-0.16,0.42c-0.05,0.1-0.12,0.19-0.19,0.28c-0.08,0.09-0.18,0.17-0.28,0.23
							c-0.13,0.08-0.27,0.13-0.41,0.17c-0.15,0.03-0.29,0.04-0.43,0.04c-0.04,0-0.08,0-0.12,0c-0.08-0.01-0.16-0.02-0.24-0.03
							c-0.24,0.16-0.48,0.31-0.73,0.46c-0.58,0.35-1.17,0.69-1.76,1.02c-0.3,0.17-0.59,0.33-0.89,0.5s-0.59,0.34-0.9,0.52
							c-0.33,0.19-0.68,0.38-1.04,0.54c-0.26,0.1-0.52,0.19-0.79,0.25c-0.22,0.05-0.45,0.08-0.68,0.08c-0.07,0-0.13-0.01-0.19-0.01
							c-0.29-0.01-0.58-0.07-0.86-0.16c-0.28-0.1-0.55-0.24-0.78-0.4c-0.34-0.25-0.62-0.54-0.88-0.83
							c-0.25-0.29-0.47-0.59-0.69-0.88c-0.29-0.4-0.56-0.8-0.82-1.19c-0.27-0.39-0.54-0.76-0.82-1.14c-0.25-0.32-0.5-0.65-0.75-0.99
							c-0.12-0.17-0.25-0.34-0.37-0.52c-0.13-0.18-0.26-0.36-0.38-0.56c-0.12-0.21-0.24-0.43-0.32-0.68
							c-0.07-0.23-0.12-0.47-0.12-0.73c0-0.02,0-0.05,0-0.07c0-0.2,0.03-0.41,0.09-0.61c0.05-0.2,0.13-0.39,0.23-0.56
							c0.11-0.2,0.24-0.38,0.36-0.54c0.13-0.17,0.25-0.32,0.38-0.48c0.18-0.22,0.37-0.44,0.56-0.65c0.27-0.31,0.56-0.62,0.85-0.91
							c0.69-0.68,1.4-1.32,2.12-1.95c0.27-0.24,0.55-0.47,0.84-0.71c0-0.05,0-0.1,0.01-0.16c0.01-0.11,0.04-0.23,0.09-0.34
							c0.04-0.11,0.1-0.21,0.16-0.3c0.2-0.26,0.47-0.46,0.77-0.57c0.15-0.05,0.32-0.08,0.48-0.08c0.12,0,0.22,0.01,0.32,0.03
							c0,0,0,0,0.01,0c0.1-0.07,0.2-0.14,0.3-0.21c0.54-0.36,1.1-0.7,1.71-0.96c0.37-0.16,0.75-0.29,1.12-0.41
							c0.28-0.09,0.57-0.17,1.13-0.25c0.08,0.09,0.17,0.18,0.24,0.26c0.06-0.04,0.12-0.07,0.18-0.1c0.13-0.07,0.26-0.13,0.38-0.19
							c-0.16-0.31-0.32-0.61-0.49-0.91c-0.31-0.59-0.63-1.16-0.84-1.8c-0.12-0.35-0.2-0.71-0.2-1.07c0-0.07,0-0.14,0.01-0.21
							c0.05-0.44,0.25-0.86,0.5-1.25c0.23-0.35,0.5-0.68,0.85-0.89c0.21-0.13,0.46-0.21,0.7-0.27c0.36-0.09,0.72-0.12,1.09-0.12
							c0.45,0,0.91,0.05,1.37,0.11c0.62,0.07,1.24,0.15,1.79,0.38c-0.04-0.32-0.08-0.65-0.06-0.97c0.02-0.51,0.15-1.03,0.41-1.47
							c0.22-0.38,0.54-0.7,0.92-0.92c0.32-0.19,0.68-0.3,1.04-0.33c0.06,0,0.11-0.01,0.17-0.01c0.49,0,0.97,0.16,1.45,0.29
							c0.32,0.08,0.63,0.17,0.93,0.28c-0.04-0.21-0.07-0.31-0.1-0.41c-0.07-0.22-0.15-0.44-0.19-0.66
							c-0.01-0.09-0.02-0.19-0.02-0.28c0-0.19,0.03-0.37,0.08-0.55c0.11-0.41,0.34-0.78,0.66-1.07c0.39-0.35,0.9-0.58,1.4-0.58
							c0.03,0,0.06,0,0.09,0c0.33,0.01,0.66,0.14,0.96,0.29c0.48,0.24,0.92,0.54,1.32,0.88c0.32,0.27,0.62,0.56,0.89,0.88
							c0.1-0.09,0.21-0.17,0.33-0.24c0.16-0.11,0.33-0.2,0.51-0.29c-0.04-0.28-0.08-0.55-0.13-0.85c-0.05-0.32-0.11-0.66-0.11-0.98
							c0-0.3,0.05-0.59,0.2-0.83c0.17-0.29,0.49-0.51,0.81-0.68c0.43-0.22,0.89-0.35,1.38-0.35c0.1,0,0.21,0.01,0.32,0.02
							c0.32,0.03,0.65,0.12,0.83,0.33c0.01,0.01,0.02,0.02,0.03,0.03c0.23,0.3,0.46,0.6,0.7,0.89c0.07,0.07,0.13,0.15,0.19,0.22
							l22.55-16.76c0.31,0.18,0.62,0.35,0.91,0.56c0.67,0.49,1.2,1.16,1.7,1.83c0.48,0.63,0.93,1.26,1.37,1.9
							c0.4,0.6,0.78,1.21,1.11,1.85c0.16,0.31,0.3,0.62,0.41,0.94c0.1,0.32,0.18,0.64,0.25,0.97l-21.51,15.58
							c0.25,0.29,0.5,0.59,0.74,0.89c0.6,0.78,1.12,1.62,1.69,2.41c0.52,0.73,1.09,1.41,1.68,2.09c1.25,1.44,2.56,2.83,3.9,4.19
							c1.61,1.63,3.25,3.23,4.94,4.77c1.79,1.63,3.64,3.18,5.52,4.7c1.99,1.61,4.01,3.18,5.8,4.98c1.85,1.85,3.45,3.95,4.95,6.1
							c0.84,1.21,1.64,2.44,2.55,3.58c0.79,0.99,1.65,1.92,2.51,2.88c0.71,0.79,1.41,1.61,1.89,2.55c0.18,0.35,0.32,0.71,0.49,1.07
							c0.23,0.47,0.51,0.91,0.7,1.4c0.18,0.43,0.29,0.91,0.29,1.37c0,0.02,0,0.04,0,0.06c-0.01,0.79-0.31,1.56-0.7,2.27
							c-0.44,0.8-0.99,1.52-1.52,2.26c-0.61,0.84-1.19,1.71-1.93,2.44c-0.63,0.62-1.36,1.13-2.14,1.53
							c-0.34,0.16-0.68,0.31-1.03,0.45c-1.18,0.45-2.42,0.75-3.62,1.15c-1.15,0.38-2.26,0.86-3.38,1.32
							c-2.09,0.84-4.22,1.6-6.37,2.26c-1.63,0.49-3.27,0.93-4.9,1.39c-2.43,0.69-4.85,1.41-7.34,1.87
							c-1.89,0.35-3.82,0.54-5.72,0.81c-1.91,0.26-3.79,0.6-5.6,1.24c-0.63,0.23-1.25,0.49-1.89,0.7c-2.07,0.7-4.32,0.91-6.3,1.81
							c-0.57,0.27-1.13,0.59-1.68,0.91c0.94,4.27,1.88,8.54,1.78,12.83c-0.07,3.42-0.79,6.86-0.83,10.3c0,0.1,0,0.2,0,0.31
							c0,0.87,0.04,1.75,0.08,2.62c0.09,1.69,0.33,5.06,0.58,8.42c0.12,1.61,0.24,3.22,0.35,4.64c-7.84,3.62-20.13,11.2-20.04,23.01
							c-4.86-2.28-9.06-1.35-11.81-0.1c-4.67-22.92-29.76-25.86-37.19-26.22c-1.77-3.08-5.21-8.19-11.1-13.78
							c0.02-0.07,0.05-0.13,0.08-0.2c0.93-2.12,2.13-4.09,3.1-6.18c0.93-2,1.65-4.1,2.44-6.17c0.79-2.06,1.65-4.09,2.86-5.94
							c0.68-1.06,1.48-2.05,2.22-3.07c0.74-1.01,1.44-2.05,1.91-3.2c0.23-0.55,0.41-1.13,0.56-1.72c0.2-0.77,0.36-1.56,0.36-2.34
							c0-0.21-0.01-0.42-0.04-0.63c-0.13-1.09-0.64-2.13-1.24-3.08c-0.9-1.45-2-2.7-3.1-3.96c0.07,0.28,0.13,0.55,0.21,0.82
							c0.09,0.27,0.19,0.53,0.25,0.79c0.12,0.48,0.12,0.99,0.12,1.5c-0.15-0.37-0.31-0.73-0.5-1.07c-0.3-0.57-0.68-1.09-1.1-1.57
							c-0.38-0.44-0.8-0.85-1.23-1.26c0.29,0.59,0.57,1.18,0.57,1.76c0,0.01,0,0.02,0,0.03c-0.01,0.52-0.26,1.05-0.5,1.57
							c-0.05-0.46-0.1-0.93-0.28-1.32c-0.32-0.64-1.01-1.08-1.61-1.57c-0.43-0.35-0.81-0.72-1.26-1c-0.89-0.56-2.03-0.74-2.95-1.29
							c-0.61-0.37-1.12-0.91-1.73-1.29c-0.48-0.31-1.03-0.51-1.57-0.72c0.09,0.39,0.18,0.77,0.22,1.16c0.05,0.5,0.01,1-0.03,1.51
							c-0.13-0.24-0.26-0.48-0.42-0.7c-0.52-0.75-1.31-1.3-2.04-1.88c-0.39-0.32-0.76-0.65-1.13-0.98c0.06,0.52,0.12,1.04,0.32,1.51
							c0.17,0.42,0.46,0.79,0.75,1.16c-0.32-0.17-0.64-0.34-0.94-0.53c-0.65-0.42-1.2-0.95-1.79-1.45
							c-0.65-0.53-1.32-1.03-1.86-1.66c-0.49-0.58-0.86-1.28-1.38-1.82c-0.55-0.57-1.26-0.98-1.96-1.38
							c0.07,0.77,0.14,1.53,0.21,2.29c-0.33-0.72-0.66-1.44-1.06-2.12c-1.09-1.86-2.69-3.35-4.15-5.03c-1-1.14-1.93-2.36-2.41-3.74
							c-0.47-1.37-0.47-2.9-0.48-4.43c-0.12,0.37-0.24,0.73-0.32,1.1c-0.19,0.79-0.23,1.6-0.27,2.42c-0.1-1.73-0.19-3.46-0.33-5.19
							c-0.1-1.18-0.22-2.36-0.22-3.54c0-0.04,0-0.09,0-0.13c0.01-1.34,0.18-2.67,0.25-4.02c0.06-0.94,0.06-1.89,0.22-2.81
							c0.17-1.03,0.54-2.04,0.94-3.02c0.12-0.29,0.25-0.59,0.37-0.88c-0.19,0.1-0.38,0.21-0.53,0.36c-0.27,0.25-0.41,0.63-0.56,1
							c0.11-0.64,0.23-1.28,0.35-1.92c0.15-0.82,0.31-1.64,0.55-2.45c0.22-0.75,0.52-1.5,0.99-2.1c0.36-0.44,0.83-0.8,1.29-1.16
							c-0.16-0.01-0.31-0.02-0.46-0.02c-0.11,0-0.22,0-0.33,0.02c-0.38,0.05-0.75,0.23-1.11,0.4c0.38-0.67,0.75-1.34,1.34-1.63
							c0.43-0.2,0.96-0.22,1.49-0.23c-0.28-0.24-0.57-0.47-0.87-0.67c-0.36-0.23-0.75-0.41-1.14-0.58c0.4-0.07,0.8-0.14,1.18-0.14
							c0.25,0,0.49,0.03,0.71,0.11c0.51,0.17,0.94,0.61,1.36,1.04c-0.17-0.6-0.34-1.21-0.37-1.85c0-0.06,0-0.13,0-0.2
							c0-0.57,0.12-1.15,0.44-1.6c0.18-0.24,0.41-0.44,0.65-0.65c-0.15,0.54-0.31,1.09-0.31,1.55c0,0.28,0.06,0.53,0.21,0.74
							c0.22,0.3,0.63,0.49,1.04,0.69c-0.05-0.42-0.11-0.84-0.11-1.26c0-0.21,0.01-0.41,0.05-0.61c0.13-0.78,0.58-1.49,0.9-2.28
							c0.13-0.35,0.24-0.71,0.24-1.06c0-0.06,0-0.13-0.01-0.19c-0.06-0.39-0.28-0.76-0.51-1.13c0.41,0.15,0.82,0.3,1.15,0.55
							c0.37,0.28,0.64,0.67,0.9,1.07c0.13-0.59,0.25-1.17,0.26-1.76c0-0.33-0.03-0.65-0.06-0.98c0.25,0.33,0.5,0.66,0.6,1.04
							c0.09,0.33,0.06,0.7,0.03,1.07c0.41-0.31,0.83-0.62,1.22-0.97c0.52-0.46,0.97-0.99,1.48-1.47c0.56-0.52,1.18-0.96,1.83-1.37
							c0.26-0.16,0.51-0.31,0.77-0.47c-0.01,0.12-0.01,0.23-0.03,0.34c-0.02,0.19-0.06,0.39-0.1,0.58c0.16-0.22,0.32-0.43,0.52-0.61
							c0.17-0.16,0.36-0.28,0.55-0.41c-0.01,0.2-0.03,0.4-0.05,0.59c-0.05,0.34-0.15,0.67-0.24,1c0.48-0.54,0.96-1.09,1.53-1.53
							c0.34-0.27,0.71-0.49,1.11-0.65c0.27-0.11,0.56-0.18,0.85-0.26c-0.1,0.2-0.19,0.4-0.3,0.59c-0.09,0.18-0.18,0.35-0.27,0.52
							c0.42-0.17,0.85-0.35,1.29-0.46c0.41-0.1,0.83-0.15,1.26-0.2c-0.26,0.11-0.51,0.22-0.71,0.4c-0.2,0.19-0.35,0.46-0.49,0.72
							c0.94-0.47,1.87-0.93,2.85-1.28c0.96-0.33,1.96-0.55,2.96-0.74c0.38-0.08,0.77-0.15,1.14-0.23c0.64-0.15,1.26-0.35,1.83-0.66
							c0.57-0.31,1.08-0.71,1.67-0.92c0.37-0.14,0.76-0.19,1.15-0.25c-0.52,0.21-1.04,0.42-1.45,0.77
							c-0.25,0.21-0.47,0.48-0.68,0.74c0.73-0.29,1.46-0.58,2.22-0.74c1-0.21,2.04-0.18,3.07-0.21c1.22-0.04,2.42-0.14,3.62-0.14
							c0.1,0,0.2,0,0.3,0c1.33,0.03,2.65,0.22,4.01,0.37c0.35,0.04,0.71,0.08,1.06,0.08c0.32,0,0.64-0.03,0.95-0.12
							c0.23-0.06,0.45-0.15,0.67-0.24c-0.03,0.11-0.07,0.23-0.12,0.33c-0.07,0.15-0.19,0.27-0.31,0.4c0.27-0.12,0.54-0.23,0.74-0.42
							c0.14-0.13,0.25-0.31,0.35-0.48c0.01,0.12,0.01,0.24,0.01,0.37c0,0.12,0,0.24-0.02,0.36c-0.03,0.19-0.09,0.38-0.15,0.56
							c0.15-0.07,0.31-0.15,0.44-0.26c0.23-0.18,0.38-0.44,0.54-0.7c-0.11,0.24-0.23,0.48-0.24,0.73c-0.01,0.21,0.06,0.43,0.13,0.66
							c0.51-0.1,1.01-0.2,1.28-0.54c0.13-0.16,0.2-0.37,0.28-0.58c0,0.08,0,0.16,0,0.23c0,0.28-0.02,0.55-0.12,0.78
							c-0.16,0.32-0.49,0.56-0.83,0.79c0.8-0.18,1.61-0.36,2.41-0.36c0.15,0,0.31,0.01,0.46,0.02c0.33,0.03,0.67,0.1,1,0.17
							C118.85,107.01,118.67,107.01,118.5,107.01z M162.2,130.46c0.04-0.05,0.09-0.12,0.15-0.19c0.03-0.04,0.07-0.09,0.11-0.14
							c0.1-0.09,0.18-0.15,0.23-0.2c0.05-0.04,0.07-0.06,0.07-0.06s0.02-0.05,0.06-0.14c0.02-0.05,0.05-0.11,0.09-0.19
							c0.09-0.14,0.19-0.24,0.28-0.32c0.09-0.07,0.16-0.13,0.21-0.17c0.04-0.03,0.08-0.07,0.12-0.12c0.04-0.04,0.09-0.09,0.14-0.15
							c0.07-0.08,0.14-0.16,0.24-0.25c0.06-0.05,0.13-0.11,0.2-0.16c0.08-0.05,0.15-0.09,0.21-0.12c0.11-0.07,0.21-0.12,0.26-0.15
							c0.04-0.03,0.06-0.05,0.06-0.05c0-0.01,0.02-0.06,0.04-0.14c0.02-0.06,0.05-0.14,0.1-0.23c0.03-0.07,0.08-0.14,0.13-0.19
							c0.05-0.06,0.1-0.1,0.15-0.14c0.12-0.09,0.24-0.14,0.33-0.17c0.09-0.04,0.16-0.07,0.2-0.09s0.08-0.05,0.12-0.08
							c0.06-0.05,0.13-0.12,0.19-0.21c-0.08-0.16-0.16-0.32-0.23-0.49c-0.18-0.42-0.33-0.86-0.47-1.31
							c-0.09-0.3-0.18-0.61-0.26-0.92c-0.09-0.35-0.17-0.69-0.23-1.05c-0.04-0.28-0.07-0.56-0.07-0.84c0-0.13,0.01-0.26,0.02-0.39
							c0.03-0.41,0.13-0.82,0.14-1.23c0-0.3-0.04-0.61-0.06-0.91c-0.02-0.24-0.03-0.47-0.03-0.7c0-0.32,0.02-0.65,0.04-0.99
							c0-0.07,0.01-0.15,0.01-0.23c-0.05-0.02-0.1-0.04-0.15-0.07c-0.07-0.04-0.14-0.08-0.21-0.12c0.07,0.11,0.12,0.24,0.15,0.37
							c0.02,0.08,0.02,0.15,0.02,0.23c0,0.31-0.11,0.62-0.27,0.9c-0.23,0.41-0.55,0.75-0.94,0.99c-0.35,0.22-0.75,0.35-1.16,0.41
							c-0.15,0.02-0.31,0.03-0.46,0.03c-0.37,0-0.74-0.05-1.11-0.13c-0.44-0.1-0.87-0.24-1.29-0.4c-0.07-0.03-0.13-0.05-0.2-0.08
							c-0.01,0.01-0.03,0.02-0.04,0.03c-0.07,0.06-0.14,0.12-0.2,0.17c-0.07,0.06-0.13,0.12-0.2,0.19
							c-0.08,0.07-0.16,0.16-0.27,0.24c-0.05,0.05-0.1,0.09-0.16,0.14c-0.07,0.04-0.14,0.08-0.21,0.12
							c-0.11,0.05-0.22,0.09-0.31,0.13c-0.07,0.02-0.14,0.05-0.19,0.07s-0.08,0.04-0.11,0.05c-0.03,0.02-0.08,0.07-0.14,0.13
							c-0.04,0.04-0.09,0.09-0.14,0.15c-0.06,0.06-0.12,0.12-0.19,0.18c-0.14,0.11-0.27,0.19-0.4,0.26c-0.1,0.06-0.2,0.11-0.3,0.15
							c-0.09,0.05-0.17,0.09-0.24,0.13c0.26,0.31,0.47,0.57,0.67,0.84c0.46,0.61,0.92,1.22,1.36,1.84c0.44,0.61,0.88,1.22,1.34,1.82
							c0.37,0.49,0.76,0.97,1.15,1.47c0.3,0.4,0.6,0.79,0.88,1.22C161.71,129.61,161.96,130.03,162.2,130.46z M151.51,138.58
							l0.26-0.07c0.11-0.03,0.22-0.07,0.33-0.12l0.49-0.23c0.17-0.09,0.34-0.18,0.51-0.28c0.09-0.05,0.17-0.1,0.26-0.15
							c0.02-0.01,0.04-0.03,0.06-0.04h0.01c0-0.01,0.01-0.01,0.01-0.01l0.39-0.22h0.01c0.02-0.02,0.04-0.03,0.06-0.04
							c0.09-0.05,0.17-0.1,0.26-0.15c0.17-0.09,0.33-0.19,0.5-0.28l0.41-0.23h0.01c0.14-0.09,0.28-0.17,0.42-0.24l0.26-0.15
							c0.04-0.03,0.09-0.05,0.13-0.08h0.01c0.13-0.08,0.26-0.16,0.39-0.23c0.09-0.06,0.18-0.11,0.27-0.16v-0.01
							c0.17-0.1,0.34-0.2,0.51-0.31c0.02-0.01,0.05-0.03,0.07-0.04c0.04-0.02,0.07-0.04,0.1-0.07l-0.13-0.17l-0.37-0.51l-0.35-0.46
							l-0.25-0.35h-0.01l-0.19-0.27h-0.01l-0.01-0.01v-0.01l-0.24-0.32v-0.01l-0.14-0.18l-0.2-0.27l-0.14-0.19l-0.24-0.32
							l-0.02-0.03l-0.2-0.27l-0.26-0.35l-0.34-0.46l-0.38-0.51l-0.23-0.31v-0.01l-0.39-0.51l-0.33-0.45v-0.01l-0.27-0.35l-0.2-0.27
							l-0.01-0.02l-0.24-0.32l-0.15-0.2l-0.2-0.27l-0.13-0.18l-0.24-0.32l-0.03-0.04l-0.19-0.27h-0.01l-0.25-0.34l-0.34-0.46
							l-0.37-0.5l-0.24-0.32v-0.01l-0.39-0.52c-0.03,0.03-0.07,0.06-0.1,0.08v0.01c-0.09,0.07-0.18,0.14-0.27,0.22
							c-0.07,0.06-0.13,0.11-0.2,0.17c-0.09,0.08-0.19,0.16-0.28,0.24c-0.02,0.02-0.05,0.04-0.07,0.06
							c-0.08,0.07-0.17,0.15-0.25,0.22c-0.01,0.01-0.01,0.01-0.02,0.02c-0.07,0.06-0.14,0.12-0.21,0.19
							c-0.09,0.08-0.18,0.16-0.27,0.24c-0.02,0.02-0.04,0.04-0.06,0.05v0.01c-0.09,0.08-0.18,0.16-0.27,0.25
							c-0.06,0.05-0.12,0.11-0.18,0.17h-0.01c-0.08,0.08-0.17,0.16-0.25,0.25c-0.04,0.03-0.08,0.07-0.11,0.1v0.01l-0.27,0.26
							c-0.04,0.03-0.07,0.07-0.11,0.11l-0.23,0.25c-0.08,0.07-0.15,0.15-0.21,0.22l-0.47,0.51c-0.13,0.14-0.25,0.29-0.36,0.44
							l-0.28,0.33v0.01c-0.12,0.15-0.23,0.3-0.32,0.46h-0.01c-0.05,0.08-0.09,0.16-0.13,0.25h-0.01l-0.1,0.27v0.01
							c-0.06,0.19-0.09,0.38-0.09,0.57c0,0.1,0.01,0.21,0.03,0.32c0,0.01,0.01,0.03,0.01,0.04c0,0.02,0.01,0.05,0.02,0.07
							c0.02,0.09,0.05,0.18,0.08,0.26c0.07,0.18,0.17,0.36,0.27,0.53l0.27,0.4c0.02,0.02,0.03,0.05,0.05,0.07
							c0.08,0.11,0.16,0.23,0.24,0.34h0.01l0.19,0.27c0.01,0.01,0.03,0.03,0.04,0.05l0.24,0.32c0.04,0.05,0.09,0.11,0.13,0.17
							c0.07,0.08,0.13,0.17,0.2,0.26c0.05,0.06,0.1,0.13,0.15,0.19v0.01c0.08,0.11,0.16,0.21,0.24,0.32v0.01
							c0.01,0,0.01,0.01,0.01,0.01c0.05,0.06,0.09,0.13,0.14,0.19c0.02,0.03,0.04,0.05,0.05,0.08c0.1,0.13,0.19,0.27,0.28,0.4
							l0.28,0.41c0.12,0.18,0.24,0.36,0.37,0.53l0.3,0.41c0.1,0.14,0.2,0.27,0.3,0.4h0.01l0.17,0.22l0.24,0.27
							c0.1,0.11,0.21,0.22,0.33,0.33h0.01l0.38,0.28c0.01,0.02,0.01,0.02,0.02,0.01c0.06,0.05,0.11,0.08,0.17,0.11
							c0.1,0.06,0.22,0.1,0.33,0.15c0.08,0.02,0.17,0.05,0.25,0.07c0.17,0.04,0.34,0.07,0.51,0.07c0.04,0.01,0.07,0.01,0.11,0.01
							c0.03,0,0.07,0,0.1,0c0.02,0,0.03,0,0.05,0C151.17,138.65,151.34,138.62,151.51,138.58z M152.56,124.83l0.15,0.19l0.2,0.27
							l0.13,0.18l0.24,0.32l0.03,0.04l0.19,0.27l0.26,0.34l0.34,0.47h0.01l0.36,0.49v0.01l0.24,0.31v0.01l0.39,0.52l0.33,0.45
							l0.27,0.36l0.2,0.27l0.01,0.01l0.24,0.33l0.15,0.2l0.2,0.27l0.13,0.17l0.24,0.32l0.03,0.05l0.2,0.27l0.24,0.32v0.01l0.36,0.47
							l0.36,0.49v0.01l0.24,0.31l0.4,0.54l0.32,0.44l0.27,0.37h0.01l0.05,0.07c0.02-0.02,0.05-0.04,0.07-0.06h0.01
							c0.03-0.03,0.06-0.05,0.09-0.07v-0.01c0.09-0.07,0.18-0.14,0.27-0.22c0.07-0.05,0.14-0.11,0.21-0.17l0.29-0.26
							c0.02-0.01,0.03-0.02,0.04-0.04c0.09-0.08,0.19-0.16,0.27-0.25c0.07-0.06,0.13-0.12,0.19-0.19c0.08-0.08,0.16-0.16,0.24-0.25
							c0.04-0.04,0.08-0.08,0.12-0.13l0.28-0.33c0.01-0.01,0.02-0.02,0.02-0.03c0.01-0.01,0.01-0.01,0.02-0.02l0.17-0.23
							c0.12-0.16,0.23-0.32,0.34-0.49h0.01v-0.01c0.01-0.01,0.01-0.02,0.02-0.03c-0.01-0.01-0.01-0.03-0.02-0.04
							c-0.04-0.06-0.07-0.13-0.11-0.19c-0.1-0.18-0.2-0.36-0.29-0.53l-0.3-0.5c-0.06-0.1-0.12-0.2-0.19-0.3v-0.01l-0.18-0.26
							c-0.03-0.05-0.07-0.1-0.11-0.15c-0.07-0.11-0.15-0.22-0.23-0.33v-0.01l-0.04-0.04c-0.06-0.09-0.13-0.18-0.2-0.27
							c-0.08-0.1-0.16-0.21-0.24-0.31l-0.39-0.5h-0.01c-0.1-0.14-0.21-0.28-0.32-0.42l-0.19-0.24c-0.04-0.05-0.08-0.1-0.12-0.15
							c-0.13-0.18-0.27-0.36-0.4-0.54h-0.01l-0.24-0.34c-0.12-0.16-0.23-0.31-0.34-0.47h-0.01l-0.37-0.52
							c-0.07-0.1-0.14-0.2-0.21-0.29l-0.2-0.27c-0.02-0.04-0.05-0.07-0.07-0.1c-0.08-0.11-0.15-0.21-0.23-0.31v-0.01
							c-0.03-0.04-0.06-0.07-0.09-0.11c-0.06-0.09-0.13-0.18-0.2-0.27c-0.06-0.09-0.13-0.17-0.19-0.26
							c-0.07-0.09-0.14-0.19-0.21-0.28c-0.01-0.01-0.02-0.03-0.03-0.04c-0.06-0.08-0.12-0.15-0.18-0.23c-0.1-0.13-0.2-0.26-0.3-0.39
							v-0.01c-0.11-0.14-0.22-0.27-0.32-0.41c-0.06-0.08-0.12-0.15-0.18-0.23c-0.08,0.02-0.16,0.05-0.24,0.07s-0.17,0.05-0.26,0.07
							c-0.04,0.02-0.08,0.03-0.13,0.04h-0.01c-0.22,0.07-0.44,0.14-0.65,0.22h-0.03c-0.17,0.06-0.34,0.12-0.5,0.19
							c-0.05,0.02-0.09,0.04-0.14,0.06c-0.04,0.02-0.08,0.04-0.12,0.06c-0.1,0.04-0.2,0.09-0.3,0.15l-0.5,0.27
							c-0.18,0.11-0.36,0.22-0.54,0.34l-0.26,0.18c-0.01,0-0.01,0.01-0.02,0.01l0.01,0.02l0.24,0.32l0.27,0.36l0.2,0.26l0.01,0.02
							L152.56,124.83z M195.92,104.67l7.82-5.66c-0.04-0.2-0.09-0.39-0.15-0.56c-0.09-0.29-0.22-0.57-0.37-0.86
							c-0.15-0.28-0.3-0.57-0.47-0.85c-0.3-0.49-0.62-0.98-0.96-1.46c-0.29-0.42-0.59-0.83-0.89-1.24
							c-0.31-0.41-0.62-0.82-0.95-1.18c-0.17-0.18-0.33-0.35-0.51-0.5s-0.36-0.28-0.56-0.4c-0.09-0.06-0.18-0.11-0.27-0.16
							l-7.99,5.94c0.6,0.47,1.18,0.95,1.71,1.49c0.83,0.84,1.52,1.82,2.16,2.83c0.45,0.69,0.88,1.4,1.22,2.14
							C195.79,104.36,195.86,104.51,195.92,104.67z M195.45,105.02c-0.08-0.18-0.16-0.36-0.24-0.54c-0.34-0.74-0.77-1.45-1.22-2.14
							c-0.65-1.01-1.33-1.99-2.16-2.83c-0.51-0.52-1.08-0.99-1.65-1.45l-14.56,10.82c0.06,0.28,0.12,0.56,0.16,0.84
							c0.05,0.42,0.06,0.85,0.06,1.3c0,0.17,0,0.34,0,0.52c0,0.53-0.01,1.08-0.24,1.5c-0.24,0.42-0.72,0.71-1.28,0.89
							c-0.25,0.09-0.52,0.15-0.77,0.15c-0.17,0-0.34-0.04-0.47-0.12c-0.04-0.03-0.09-0.07-0.13-0.12c0,0.01,0,0.03,0,0.04
							c0,0.03,0,0.05,0,0.08c0,0.25-0.08,0.51-0.17,0.75c-0.12,0.33-0.26,0.64-0.47,0.91c-0.21,0.28-0.5,0.51-0.83,0.64
							c-0.21,0.08-0.44,0.12-0.67,0.12c0.11,0.11,0.21,0.23,0.27,0.36c0.09,0.18,0.12,0.39,0.12,0.6c0,0.1-0.01,0.2-0.02,0.3
							c-0.05,0.32-0.15,0.62-0.29,0.92c-0.08,0.19-0.18,0.39-0.34,0.49c-0.08,0.05-0.18,0.07-0.29,0.08c0.1,0.33,0.16,0.66,0.21,1
							c0.07,0.46,0.12,0.93,0.12,1.39c0,0.33-0.03,0.65-0.06,0.98c0.08,0.13,0.17,0.27,0.24,0.4L195.45,105.02z M172.54,113.01
							c-0.1-0.25-0.18-0.49-0.26-0.74c-0.08-0.24-0.16-0.49-0.22-0.74l-0.33,0.24c0.04,0.08,0.08,0.15,0.12,0.23
							c0.09,0.2,0.18,0.41,0.3,0.59C172.26,112.74,172.41,112.87,172.54,113.01z M159.04,134.22l-7.76-10.47
							c-0.13-0.04-0.26-0.07-0.39-0.07c-0.02,0-0.03,0-0.05,0c-0.19,0-0.39,0.06-0.56,0.17c-0.2,0.14-0.35,0.34-0.41,0.56
							c-0.04,0.14-0.03,0.29-0.02,0.44l7.72,10.41c0.14,0.03,0.28,0.06,0.43,0.07c0.23,0,0.48-0.04,0.67-0.18
							c0.15-0.13,0.25-0.31,0.31-0.5C159.02,134.51,159.03,134.36,159.04,134.22z"/>
						<path class="st0" d="M151.42,131.13l0.52,0.03l0.03-0.51l-0.52-0.03L151.42,131.13z M152.75,130.44l0.03-0.52l-0.51-0.02
							l-0.03,0.51L152.75,130.44z M155.1,134.44l0.51,0.03l0.03-0.51l-0.51-0.03L155.1,134.44z M147.7,128.6l0.52,0.03l0.03-0.51
							l-0.52-0.03L147.7,128.6z M149.74,128.98l-0.51-0.03l-0.03,0.51l0.51,0.03L149.74,128.98z M153.94,136.69l0.03-0.51
							l-0.51-0.03l-0.04,0.51L153.94,136.69z M148.04,131.71l0.03-0.51l-0.51-0.03l-0.03,0.51L148.04,131.71z M152.11,132.72
							l0.51,0.03l0.03-0.51l-0.52-0.03L152.11,132.72z M145.26,130.78l0.51,0.03l0.03-0.51l-0.51-0.03L145.26,130.78z
							 M150.26,133.39l0.03-0.52l-0.51-0.03l-0.03,0.52L150.26,133.39z M151.11,132.15l-0.52-0.03l-0.03,0.51l0.52,0.03
							L151.11,132.15z M152.05,133.75l-0.03,0.51l0.51,0.03l0.03-0.51L152.05,133.75z M155.53,136.01l0.02-0.51l-0.51-0.03
							l-0.03,0.51L155.53,136.01z M148.2,128.89l-0.51-0.03l-0.03,0.51l0.51,0.03L148.2,128.89z M147.62,130.14l0.51,0.03l0.03-0.51
							l-0.52-0.03L147.62,130.14z M148.52,127.87l0.51,0.03l0.03-0.51l-0.51-0.03L148.52,127.87z M145.33,129.5l-0.03,0.51
							l0.52,0.03l0.03-0.52L145.33,129.5z M152.88,132.76l0.51,0.03l0.03-0.51l-0.51-0.03L152.88,132.76z M150.95,134.97l0.03-0.51
							l-0.52-0.03l-0.03,0.51L150.95,134.97z M151.96,135.29l-0.03,0.51l0.51,0.03l0.03-0.51L151.96,135.29z M146.74,131.9
							l-0.03,0.51l0.52,0.03l0.02-0.51L146.74,131.9z M149.87,131.3l-0.03,0.52l0.51,0.03l0.03-0.52L149.87,131.3z M152.58,133.52
							l0.02-0.51l-0.51-0.03l-0.03,0.51L152.58,133.52z M150.39,135.71l0.51,0.03l0.03-0.51l-0.51-0.03L150.39,135.71z
							 M150.64,131.35l-0.03,0.51l0.51,0.03l0.03-0.51L150.64,131.35z M152.35,137.37l0.03-0.51l-0.51-0.03l-0.03,0.51
							L152.35,137.37z M145.99,131.6l0.51,0.02l0.03-0.51l-0.52-0.03L145.99,131.6z M151.2,130.61l-0.52-0.03l-0.03,0.51l0.52,0.03
							L151.2,130.61z M146.46,132.39l0.02-0.51l-0.51-0.03l-0.03,0.52L146.46,132.39z M154.06,134.64l-0.52-0.03l-0.03,0.51
							l0.52,0.03L154.06,134.64z M153.15,136.9l-0.51-0.02l-0.03,0.51l0.51,0.03L153.15,136.9z M147.33,135.02l-0.03,0.52l0.52,0.03
							l0.03-0.52L147.33,135.02z M150.53,128.76l0.03-0.51l-0.51-0.03l-0.03,0.51L150.53,128.76z M149.66,134.9l0.51,0.03l0.04-0.51
							l-0.52-0.03L149.66,134.9z M151.54,138.1l0.03-0.51l-0.52-0.03l-0.03,0.51L151.54,138.1z M148.03,136.35l0.51,0.03l0.03-0.51
							l-0.51-0.03L148.03,136.35z M148.59,126.59l-0.03,0.51l0.52,0.03l0.03-0.51L148.59,126.59z M150.73,129.81l-0.03,0.51
							l0.51,0.03l0.03-0.51L150.73,129.81z M150.52,133.4l0.51,0.03l0.03-0.51l-0.51-0.03L150.52,133.4z M150.12,135.96l-0.52-0.03
							l-0.03,0.51l0.52,0.03L150.12,135.96z M148.68,134.07l0.03-0.51l-0.52-0.03l-0.02,0.51L148.68,134.07z M148.08,135.58
							l0.51,0.03l0.03-0.51l-0.51-0.03L148.08,135.58z M152.49,135.06l0.03-0.51l-0.52-0.03l-0.03,0.51L152.49,135.06z
							 M150.51,133.66l-0.03,0.51l0.51,0.03l0.03-0.51L150.51,133.66z M150.07,136.73l-0.51-0.03l-0.03,0.51l0.51,0.03
							L150.07,136.73z M148.08,130.94l0.03-0.51l-0.51-0.03l-0.03,0.51L148.08,130.94z M152.77,134.56l-0.03,0.52l0.52,0.03
							l0.03-0.52L152.77,134.56z M148.72,133.3l0.03-0.51l-0.51-0.03l-0.03,0.51L148.72,133.3z M149.61,131.29l-0.51-0.03
							l-0.03,0.51l0.51,0.03L149.61,131.29z M150.62,127.22l0.03-0.51l-0.52-0.03l-0.02,0.51L150.62,127.22z M145.73,131.58
							l0.03-0.51l-0.52-0.03l-0.03,0.51L145.73,131.58z M149.7,129.75l-0.51-0.03l-0.03,0.51l0.51,0.03L149.7,129.75z
							 M152.79,134.31l0.51,0.03l0.03-0.52l-0.51-0.03L152.79,134.31z M152.86,133.02l-0.03,0.52l0.52,0.03l0.03-0.52L152.86,133.02
							z M148.98,133.31l0.51,0.03l0.03-0.51l-0.51-0.03L148.98,133.31z M149.79,132.59l0.52,0.03l0.03-0.52l-0.52-0.03
							L149.79,132.59z M150.49,129.53l0.02-0.51l-0.51-0.03l-0.03,0.51L150.49,129.53z M149.79,128.21l-0.51-0.03l-0.03,0.51
							l0.51,0.03L149.79,128.21z M152.22,130.67l-0.03,0.51l0.52,0.03l0.03-0.51L152.22,130.67z M149.32,136.43l0.02-0.52
							l-0.51-0.03l-0.03,0.52L149.32,136.43z M153.72,131.52l-0.03,0.52l0.52,0.03l0.03-0.52L153.72,131.52z M150.77,129.04
							l-0.03,0.51l0.52,0.03l0.03-0.51L150.77,129.04z M150.44,130.31l0.03-0.52l-0.51-0.03l-0.03,0.52L150.44,130.31z
							 M146.89,129.33l0.51,0.03l0.03-0.52l-0.51-0.03L146.89,129.33z M147.38,134.25l-0.03,0.52l0.51,0.03l0.03-0.52L147.38,134.25
							z M152.73,135.33l-0.03,0.52l0.51,0.03l0.03-0.52L152.73,135.33z M151.54,129.08l-0.03,0.51l0.52,0.03l0.03-0.51
							L151.54,129.08z M149.39,135.14l-0.51-0.03l-0.03,0.52l0.51,0.03L149.39,135.14z M155.08,134.7l-0.02,0.51l0.51,0.03
							l0.03-0.51L155.08,134.7z M154.83,134.68l-0.52-0.03l-0.02,0.52l0.51,0.03L154.83,134.68z M151.41,131.39l-0.03,0.52
							l0.51,0.03l0.03-0.52L151.41,131.39z M151.14,136.02l-0.03,0.51l0.52,0.03l0.03-0.52L151.14,136.02z M146.79,131.12
							l-0.03,0.52l0.51,0.03l0.03-0.51L146.79,131.12z M153.63,133.07l-0.03,0.51l0.52,0.03l0.03-0.51L153.63,133.07z
							 M148.89,134.86l0.51,0.03l0.03-0.52l-0.51-0.03L148.89,134.86z M147.14,133.98l0.03-0.51l-0.52-0.03l-0.03,0.51
							L147.14,133.98z M152.95,131.48l-0.03,0.51l0.52,0.03l0.02-0.51L152.95,131.48z M150.57,127.99l0.03-0.51l-0.51-0.03
							l-0.03,0.51L150.57,127.99z M150.4,131.08l0.03-0.52l-0.52-0.03l-0.03,0.52L150.4,131.08z M151.23,134.47l-0.03,0.52
							l0.52,0.03l0.03-0.52L151.23,134.47z M148.34,130.96l0.52,0.03l0.02-0.52l-0.51-0.03L148.34,130.96z M150.33,136.74
							l-0.03,0.52l0.51,0.03l0.03-0.52L150.33,136.74z M145.93,132.62l-0.03,0.52l0.51,0.03l0.03-0.52L145.93,132.62z
							 M149.51,137.47l-0.03,0.51l0.52,0.03l0.03-0.51L149.51,137.47z M149.36,126.63l-0.03,0.52l0.52,0.03l0.03-0.52L149.36,126.63
							z M149.62,135.67l0.51,0.03l0.03-0.51l-0.51-0.03L149.62,135.67z M154.75,135.97l0.03-0.52l-0.51-0.03l-0.03,0.52
							L154.75,135.97z M148.84,131.24l-0.51-0.03l-0.03,0.52l0.51,0.03L148.84,131.24z M149.11,131l0.52,0.03l0.03-0.51l-0.52-0.03
							L149.11,131z M147.95,133.25l0.03-0.51l-0.51-0.03l-0.03,0.51L147.95,133.25z M152.01,129.88l-0.51-0.03l-0.03,0.52l0.51,0.02
							L152.01,129.88z M148,132.48l0.03-0.51l-0.52-0.03l-0.03,0.51L148,132.48z M154.16,132.84l0.03-0.51l-0.51-0.04l-0.03,0.52
							L154.16,132.84z M151.34,132.68l0.51,0.03l0.03-0.52l-0.51-0.03L151.34,132.68z M149.83,127.44l-0.51-0.03l-0.03,0.51
							l0.51,0.03L149.83,127.44z M149.41,125.86l-0.03,0.52l0.51,0.03l0.03-0.52L149.41,125.86z M151.58,137.33l0.03-0.51
							l-0.51-0.03l-0.03,0.51L151.58,137.33z M153.98,135.92l0.03-0.51l-0.51-0.03l-0.03,0.51L153.98,135.92z M148.79,136.65
							l-0.03,0.52l0.51,0.03l0.03-0.52L148.79,136.65z M152.34,137.63l-0.51-0.03l-0.04,0.52l0.52,0.03L152.34,137.63z
							 M155.86,134.74l-0.03,0.51l0.51,0.03l0.03-0.51L155.86,134.74z M153.59,133.84l-0.03,0.51l0.51,0.03l0.03-0.51L153.59,133.84
							z M149.02,128.16l-0.52-0.03l-0.03,0.52l0.52,0.02L149.02,128.16z M147.75,127.83l0.51,0.03l0.03-0.51l-0.51-0.03
							L147.75,127.83z M151.19,135.25l-0.03,0.51l0.51,0.03l0.03-0.51L151.19,135.25z M147.18,133.21l0.03-0.51l-0.51-0.03
							l-0.03,0.51L147.18,133.21z M147.36,130.13l0.03-0.52l-0.51-0.03l-0.04,0.52L147.36,130.13z M152.96,131.22l0.52,0.03
							l0.03-0.51l-0.51-0.03L152.96,131.22z M151.79,133.73l-0.51-0.03l-0.03,0.52l0.51,0.03L151.79,133.73z M152.66,136.62
							l0.51,0.03l0.03-0.52l-0.52-0.03L152.66,136.62z M149.71,134.13l0.51,0.03l0.03-0.52l-0.51-0.02L149.71,134.13z
							 M150.79,128.78l0.51,0.03l0.03-0.52l-0.51-0.03L150.79,128.78z M148.39,130.19l0.51,0.03l0.03-0.52l-0.51-0.03L148.39,130.19
							z M146.96,128.04l-0.03,0.52l0.52,0.03l0.03-0.52L146.96,128.04z M147.42,133.48l-0.03,0.52l0.52,0.03l0.03-0.52
							L147.42,133.48z M152.15,131.95l0.51,0.03l0.03-0.51l-0.51-0.03L152.15,131.95z M148.77,132.53l0.03-0.52l-0.52-0.02
							l-0.03,0.51L148.77,132.53z M148.93,134.08l0.52,0.03l0.03-0.51l-0.52-0.03L148.93,134.08z M147.31,130.9l0.03-0.52
							l-0.51-0.03l-0.03,0.52L147.31,130.9z M154.2,136.71l0.51,0.03l0.03-0.52l-0.51-0.03L154.2,136.71z M149.02,132.54l0.52,0.03
							l0.03-0.51l-0.52-0.03L149.02,132.54z M146.1,129.54l-0.03,0.51l0.52,0.03l0.03-0.51L146.1,129.54z M146.06,130.31l-0.03,0.51
							l0.51,0.03l0.03-0.51L146.06,130.31z M148.94,129.45l0.03-0.52l-0.51-0.03l-0.03,0.52L148.94,129.45z M151.29,133.45
							l0.51,0.03l0.03-0.52l-0.51-0.03L151.29,133.45z M152.4,136.6l0.03-0.51l-0.52-0.03l-0.03,0.51L152.4,136.6z M145.17,132.32
							l0.51,0.03l0.03-0.51l-0.51-0.03L145.17,132.32z M148.63,134.84l0.03-0.51l-0.51-0.03l-0.03,0.51L148.63,134.84z
							 M150.86,136.51l0.03-0.51l-0.52-0.03l-0.03,0.52L150.86,136.51z M146.12,129.28l0.51,0.03l0.03-0.51l-0.51-0.03
							L146.12,129.28z M150.77,138.06l0.03-0.52l-0.52-0.03l-0.03,0.52L150.77,138.06z M154.87,133.91l-0.51-0.03l-0.03,0.51
							l0.51,0.03L154.87,133.91z M154.92,133.14l-0.52-0.03l-0.03,0.51l0.52,0.03L154.92,133.14z M155.76,136.37l-0.26,0.15
							l0.01-0.25l-0.51-0.03l-0.03,0.51l0.1,0.01l-0.41,0.23l-0.48-0.03l-0.02,0.31c-0.09,0.05-0.17,0.1-0.26,0.15l0.02-0.47
							l-0.51-0.03l-0.03,0.51l0.45,0.03l-0.39,0.22c0,0-0.01,0-0.01,0.01h-0.01h-0.05l-0.01,0.04c-0.09,0.05-0.17,0.1-0.26,0.15
							l0.01-0.2l-0.51-0.03l-0.03,0.51h0.02l-0.49,0.23l-0.32-0.02l-0.01,0.14l-0.26,0.07l0.01-0.22l-0.51-0.03l-0.02,0.33
							c-0.02,0-0.03,0-0.05,0c-0.03,0-0.07,0-0.1,0c-0.04,0-0.07,0-0.11-0.01l0.02-0.34l-0.51-0.03l-0.02,0.3
							c-0.08-0.02-0.17-0.05-0.25-0.07l0.01-0.24l-0.51-0.03h-0.02l-0.38-0.28l0.16,0.01l0.03-0.52l-0.52-0.03l-0.01,0.21
							l-0.24-0.27l-0.17-0.22l0.18,0.01l0.03-0.51l-0.51-0.03l-0.01,0.13l-0.3-0.41l0.06,0.01l0.03-0.52l-0.46-0.02l-0.28-0.41
							l0.02-0.38l-0.3-0.02c-0.01-0.03-0.03-0.05-0.05-0.08c-0.05-0.06-0.09-0.13-0.14-0.19l0.5,0.03l0.03-0.51l-0.51-0.03
							l-0.03,0.49c-0.08-0.11-0.16-0.21-0.24-0.32v-0.01l0.01-0.18l-0.16-0.01c-0.07-0.09-0.13-0.18-0.2-0.26l0.38,0.02l0.03-0.52
							l-0.52-0.03l-0.02,0.36l-0.24-0.32v-0.05h-0.04l-0.19-0.27l0.25,0.01l0.03-0.51l-0.51-0.03l-0.02,0.19
							c-0.02-0.02-0.03-0.05-0.05-0.07l-0.27-0.4l0.09,0.01l0.03-0.52l-0.39-0.02c-0.03-0.08-0.06-0.17-0.08-0.26l0.49,0.03
							l0.03-0.52l-0.52-0.03l-0.02,0.45c0-0.01-0.01-0.03-0.01-0.04c-0.02-0.11-0.03-0.22-0.03-0.32c0-0.19,0.03-0.38,0.09-0.57
							l-0.01,0.23l0.51,0.03l0.03-0.52l-0.42-0.02c0.04-0.09,0.08-0.17,0.13-0.25h0.01l0.3,0.01l0.02-0.47v-0.01l0.28-0.33v0.06
							l0.51,0.03l0.03-0.52l-0.18-0.01l0.47-0.51l-0.02,0.28l0.52,0.03l0.03-0.51l-0.32-0.02l0.23-0.25l0.1,0.01l0.01-0.12
							l0.27-0.26l-0.02,0.4l0.51,0.03l0.03-0.52l-0.41-0.02c0.08-0.09,0.17-0.17,0.25-0.25h0.01l0.17,0.02l0.01-0.19
							c0.09-0.09,0.18-0.17,0.27-0.25l-0.03,0.45l0.52,0.03l0.03-0.51l-0.46-0.03c0.09-0.08,0.18-0.16,0.27-0.24l0.2,0.01l0.01-0.2
							c0.01-0.01,0.01-0.01,0.02-0.02c0.08-0.07,0.17-0.15,0.25-0.22l-0.02,0.45l0.51,0.03l0.03-0.51l-0.45-0.03
							c0.09-0.08,0.19-0.16,0.28-0.24l0.19,0.01l0.01-0.18c0.09-0.08,0.18-0.15,0.27-0.22l-0.03,0.42l0.52,0.03v-0.01l0.24,0.32
							l-0.03,0.47l0.4,0.03l0.34,0.46l-0.01,0.33l0.26,0.01h0.01l0.19,0.27l-0.48-0.03l-0.03,0.52l0.51,0.03l0.03-0.48l0.24,0.32
							l-0.01,0.17l0.14,0.01l0.2,0.27l-0.35-0.02l-0.03,0.51l0.51,0.03l0.02-0.32l0.24,0.32v0.02h0.01l0.2,0.27l-0.23-0.02
							l-0.03,0.52l0.52,0.03l0.01-0.17l0.33,0.45l-0.1-0.01l-0.03,0.51l0.51,0.03l0.01-0.01l0.23,0.31l-0.02,0.49l0.4,0.02
							l0.34,0.46l-0.02,0.33l0.28,0.02l0.2,0.27l-0.49-0.03l-0.03,0.51l0.51,0.03l0.03-0.48l0.24,0.32l-0.01,0.18l0.15,0.01
							l0.2,0.27l-0.37-0.02l-0.03,0.51l0.52,0.03l0.02-0.33l0.24,0.32v0.01v0.01h0.01h0.01l0.19,0.27l-0.23-0.01l-0.03,0.51
							l0.51,0.03l0.01-0.18l0.35,0.46h-0.11l-0.03,0.51l0.51,0.03v-0.03l0.13,0.17c-0.03,0.03-0.06,0.05-0.1,0.07
							c-0.02,0.01-0.05,0.03-0.07,0.04l-0.49-0.02l-0.02,0.33v0.01c-0.09,0.05-0.18,0.1-0.27,0.16l0.03-0.52l-0.51-0.03l-0.03,0.52
							l0.51,0.03c-0.13,0.07-0.26,0.15-0.39,0.23h-0.01l-0.12-0.01L155.76,136.37z"/>
						<path class="st0" d="M156.18,124.71l-0.52-0.03l-0.03,0.51l0.52,0.03L156.18,124.71z M157.5,128.65l-0.52-0.03l-0.03,0.51
							l0.52,0.03L157.5,128.65z M153.37,124.29l0.51,0.03l0.03-0.52l-0.52-0.03L153.37,124.29z M156.74,128.35l0.03-0.52l-0.52-0.03
							l-0.02,0.52L156.74,128.35z M158.58,127.68l0.52,0.03l0.02-0.51l-0.51-0.03L158.58,127.68z M158.33,127.67l0.02-0.52
							l-0.51-0.03l-0.03,0.52L158.33,127.67z M157.68,129.95l0.51,0.03l0.03-0.52l-0.51-0.02L157.68,129.95z M154.13,124.33
							l0.52,0.03l0.03-0.51l-0.51-0.03L154.13,124.33z M159.18,130.81l0.51,0.03l0.03-0.52l-0.51-0.03L159.18,130.81z
							 M159.04,133.12l0.52,0.03l0.02-0.51l-0.51-0.03L159.04,133.12z M158.32,132.31l0.51,0.02l0.03-0.51l-0.51-0.03L158.32,132.31
							z M158.28,128.44l0.03-0.52l-0.51-0.03l-0.03,0.52L158.28,128.44z M154.94,123.86l-0.03,0.52l0.51,0.03l0.03-0.52
							L154.94,123.86z M157.13,126.05l0.51,0.03l0.03-0.51l-0.51-0.03L157.13,126.05z M155.51,122.87l0.03-0.52l-0.52-0.03
							l-0.02,0.51L155.51,122.87z M159.85,128.01l-0.51-0.03l-0.03,0.52l0.51,0.03L159.85,128.01z M155.24,127.49l0.03-0.52
							l-0.51-0.02l-0.03,0.51L155.24,127.49z M155.49,123.12l-0.51-0.03l-0.03,0.52l0.51,0.03L155.49,123.12z M158.52,128.71
							l-0.03,0.51l0.52,0.03l0.03-0.51L158.52,128.71z M159.93,131.11l-0.03,0.51l0.52,0.03l0.03-0.51L159.93,131.11z
							 M153.14,123.76l-0.52-0.03l-0.03,0.51l0.52,0.03L153.14,123.76z M154.22,122.79l0.52,0.03l0.03-0.51l-0.52-0.03
							L154.22,122.79z M155.57,126.22l-0.03,0.51l0.52,0.03l0.03-0.51L155.57,126.22z M155.62,125.45l-0.03,0.51l0.51,0.03
							l0.03-0.51L155.62,125.45z M160.37,132.42l0.03-0.51l-0.51-0.03l-0.03,0.51L160.37,132.42z M154.72,123.08l-0.51-0.03
							l-0.03,0.51l0.51,0.03L154.72,123.08z M158.48,129.48l-0.03,0.51l0.51,0.03l0.03-0.51L158.48,129.48z M153.32,125.06
							l0.51,0.03l0.03-0.52l-0.51-0.03L153.32,125.06z M156.87,126.04l0.03-0.52l-0.51-0.03l-0.03,0.52L156.87,126.04z
							 M158.4,126.38l-0.51-0.03l-0.03,0.52l0.51,0.03L158.4,126.38z M155.32,126.21l-0.52-0.04l-0.03,0.52l0.52,0.03L155.32,126.21
							z M154.08,125.36l-0.03,0.51l0.51,0.03l0.03-0.51L154.08,125.36z M160.02,129.57l-0.03,0.51l0.51,0.03l0.03-0.51
							L160.02,129.57z M158.87,131.56l0.03-0.51l-0.51-0.03l-0.03,0.52L158.87,131.56z M159.25,129.52l-0.03,0.52l0.51,0.03
							l0.03-0.52L159.25,129.52z M158.15,130.75l0.03-0.51l-0.52-0.03l-0.03,0.51L158.15,130.75z M161.22,131.18l-0.52-0.03
							l-0.03,0.52l0.52,0.03L161.22,131.18z M159.64,131.61l0.03-0.52l-0.51-0.02l-0.03,0.51L159.64,131.61z M157,128.36l0.51,0.03
							l0.03-0.51l-0.51-0.03L157,128.36z M156.86,126.29l-0.52-0.03l-0.03,0.52l0.52,0.03L156.86,126.29z M156.43,124.72l-0.03,0.52
							l0.52,0.03l0.03-0.52L156.43,124.72z M157.42,129.93l0.03-0.51l-0.51-0.03l-0.03,0.51L157.42,129.93z M156.22,123.94
							l-0.51-0.03l-0.03,0.51l0.51,0.03L156.22,123.94z M156.01,127.53l0.03-0.51l-0.51-0.03l-0.03,0.51L156.01,127.53z
							 M157.04,127.59l0.51,0.03l0.03-0.51l-0.51-0.03L157.04,127.59z M159.26,129.27l0.52,0.03l0.03-0.52l-0.52-0.03L159.26,129.27
							z M154.03,126.13l-0.03,0.51l0.52,0.03l0.03-0.51L154.03,126.13z M154.61,125.13l0.02-0.51l-0.51-0.03l-0.03,0.51
							L154.61,125.13z M161.26,130.41l-0.51-0.03l-0.03,0.52l0.51,0.03L161.26,130.41z M157.59,131.49l0.51,0.03l0.03-0.51
							l-0.51-0.03L157.59,131.49z M158.95,130.28l-0.52-0.03l-0.02,0.51l0.51,0.03L158.95,130.28z M153.18,122.99l-0.51-0.03
							l-0.03,0.51l0.51,0.03L153.18,122.99z M157.08,126.82l0.52,0.03l0.03-0.51l-0.51-0.03L157.08,126.82z M158.57,127.94
							l-0.03,0.51l0.51,0.03l0.03-0.51L158.57,127.94z M157.75,128.66l-0.03,0.52l0.52,0.03l0.03-0.52L157.75,128.66z
							 M159.63,131.87l-0.51-0.03l-0.03,0.51l0.51,0.03L159.63,131.87z M155.33,125.95l0.03-0.52l-0.51-0.03l-0.03,0.52
							L155.33,125.95z M154.86,125.15l0.52,0.03l0.03-0.52l-0.52-0.03L154.86,125.15z M160.49,130.37l-0.52-0.03l-0.02,0.51
							l0.51,0.03L160.49,130.37z M152.38,123.46l0.03-0.47l0.5-0.27l0.29,0.01l0.01-0.16c0.04-0.02,0.08-0.04,0.12-0.06
							c0.05-0.02,0.09-0.04,0.14-0.06l-0.02,0.3l0.52,0.03l0.03-0.52c0.21-0.08,0.43-0.15,0.65-0.22h0.01l0.12,0.01l0.01-0.05
							c0.09-0.02,0.18-0.05,0.26-0.07l-0.01,0.13l0.43,0.03c0.1,0.14,0.21,0.27,0.32,0.41v0.01l-0.02,0.37l0.32,0.02
							c0.06,0.08,0.12,0.15,0.18,0.23v0.04l-0.52-0.03l-0.03,0.51l0.52,0.03l0.03-0.51h0.03c0.07,0.09,0.14,0.19,0.21,0.28
							l-0.02,0.25l0.21,0.01c0.07,0.09,0.14,0.18,0.2,0.27l-0.42-0.03l-0.03,0.52l0.51,0.02l0.03-0.39c0.08,0.1,0.15,0.2,0.23,0.31
							v0.1h0.07l0.2,0.27l-0.29-0.01l-0.03,0.51l0.52,0.03l0.01-0.24l0.37,0.52l-0.14-0.01l-0.03,0.52l0.51,0.02l0.01-0.06
							l0.24,0.34l-0.03,0.51l0.44,0.03c0.04,0.05,0.08,0.1,0.12,0.15l0.19,0.24l-0.03,0.4l0.35,0.02h0.01l0.39,0.5l-0.02,0.29
							l0.26,0.02c0.07,0.09,0.14,0.18,0.2,0.27l-0.48-0.03l-0.03,0.51l0.52,0.03l0.03-0.46c0.08,0.11,0.16,0.22,0.23,0.33
							l-0.01,0.15h0.12l0.18,0.26v0.01l-0.31-0.02l-0.03,0.52l0.51,0.03l0.02-0.23l0.3,0.5h-0.07l-0.03,0.51l0.39,0.02
							c0.04,0.06,0.07,0.13,0.11,0.19v0.07v0.01h-0.01l-0.51-0.03l-0.03,0.51l0.2,0.01l-0.17,0.23c-0.01,0.01-0.01,0.01-0.02,0.02
							h-0.02V132l-0.28,0.33l0.02-0.38l-0.51-0.03l-0.03,0.52l0.4,0.02c-0.08,0.09-0.16,0.17-0.24,0.25l-0.18-0.01l-0.01,0.2
							c-0.08,0.09-0.18,0.17-0.27,0.25l0.03-0.47l-0.52-0.03l-0.03,0.51l0.48,0.03l-0.29,0.26c-0.07,0.06-0.14,0.12-0.21,0.17
							c-0.09,0.08-0.18,0.15-0.27,0.22l0.02-0.43l-0.51-0.03l-0.01,0.16l-0.32-0.44l0.09,0.01l0.02-0.52l-0.51-0.03l-0.24-0.31
							v-0.01l0.03-0.46l-0.39-0.03l-0.36-0.47v-0.01l0.02-0.31l-0.26-0.01l-0.2-0.27l0.48,0.02l0.03-0.51l-0.52-0.03l-0.02,0.47
							l-0.24-0.32l0.01-0.16l-0.14-0.01l-0.2-0.27l0.35,0.02l0.03-0.51l-0.51-0.03l-0.02,0.32l-0.24-0.33v-0.01h-0.01l-0.2-0.27
							l0.22,0.02l0.03-0.52l-0.51-0.03l-0.01,0.17l-0.33-0.45l0.1,0.01l0.03-0.51l-0.52-0.03l-0.24-0.31v-0.01l0.03-0.47l-0.39-0.02
							h-0.01l-0.34-0.47l0.01-0.32l-0.27-0.02l-0.19-0.27l0.48,0.03l0.03-0.52l-0.51-0.02l-0.03,0.47l-0.24-0.32l0.01-0.17
							l-0.14-0.01l-0.2-0.27l0.35,0.02l0.03-0.51l-0.51-0.03l-0.02,0.33l-0.24-0.33v-0.01l-0.01-0.01l-0.2-0.26l0.23,0.01l0.03-0.52
							l-0.52-0.02l-0.01,0.17l-0.24-0.32l0.01-0.03l0.26-0.18v0.1L152.38,123.46z M153.41,123.52l0.51,0.03l0.03-0.52l-0.51-0.03
							L153.41,123.52z M156.21,128.58l-0.03,0.51l0.52,0.03l0.02-0.51L156.21,128.58z M156.3,127.03l-0.03,0.52l0.51,0.03l0.03-0.52
							L156.3,127.03z M155.45,128.27l0.52,0.03l0.03-0.51l-0.52-0.03L155.45,128.27z"/>
						<path class="st0" d="M209.39,52.04c1.35,0.81,1.32,2.88-0.05,4.61c-1.37,1.74-3.58,2.49-4.92,1.68l4.23,19.21l-0.61,0.14
							l-4.55-20.67c-0.26-0.88,0.18-2.35,0.98-3.29C205.84,51.99,208.04,51.24,209.39,52.04z"/>
						<path class="st2" d="M203.74,99.01l-7.82,5.66c-0.06-0.16-0.13-0.31-0.21-0.47c-0.34-0.74-0.77-1.45-1.22-2.14
							c-0.64-1.01-1.33-1.99-2.16-2.83c-0.53-0.54-1.11-1.02-1.71-1.49l7.99-5.94c0.09,0.05,0.18,0.1,0.27,0.16
							c0.2,0.12,0.38,0.25,0.56,0.4s0.34,0.32,0.51,0.5c0.33,0.36,0.64,0.77,0.95,1.18c0.3,0.41,0.6,0.82,0.89,1.24
							c0.34,0.48,0.66,0.97,0.96,1.46c0.17,0.28,0.32,0.57,0.47,0.85c0.15,0.29,0.28,0.57,0.37,0.86
							C203.65,98.62,203.7,98.81,203.74,99.01z"/>
						<path class="st2" d="M195.21,104.48c0.08,0.18,0.16,0.36,0.24,0.54l-24.68,17.88c-0.07-0.13-0.16-0.27-0.24-0.4
							c0.03-0.33,0.06-0.65,0.06-0.98c0-0.46-0.05-0.93-0.12-1.39c-0.05-0.34-0.11-0.67-0.21-1c0.11-0.01,0.21-0.03,0.29-0.08
							c0.16-0.1,0.26-0.3,0.34-0.49c0.14-0.3,0.24-0.6,0.29-0.92c0.01-0.1,0.02-0.2,0.02-0.3c0-0.21-0.03-0.42-0.12-0.6
							c-0.06-0.13-0.16-0.25-0.27-0.36c0.23,0,0.46-0.04,0.67-0.12c0.33-0.13,0.62-0.36,0.83-0.64c0.21-0.27,0.35-0.58,0.47-0.91
							c0.09-0.24,0.17-0.5,0.17-0.75c0-0.03,0-0.05,0-0.08c0-0.01,0-0.03,0-0.04c0.04,0.05,0.09,0.09,0.13,0.12
							c0.13,0.08,0.3,0.12,0.47,0.12c0.25,0,0.52-0.06,0.77-0.15c0.56-0.18,1.04-0.47,1.28-0.89c0.23-0.42,0.24-0.97,0.24-1.5
							c0-0.18,0-0.35,0-0.52c0-0.45-0.01-0.88-0.06-1.3c-0.04-0.28-0.1-0.56-0.16-0.84l14.56-10.82c0.57,0.46,1.14,0.93,1.65,1.45
							c0.83,0.84,1.51,1.82,2.16,2.83C194.44,103.03,194.87,103.74,195.21,104.48z"/>
						<path class="st0" d="M194.46,68.99c0,0.29-0.01,0.57-0.03,0.85c-0.09,1.1-0.37,2.18-0.73,3.24c-0.45,1.36-1.03,2.67-1.77,3.87
							c-0.93,1.51-2.12,2.83-3.24,4.27c-0.75,0.95-1.46,1.95-2.45,2.57c-0.36,0.23-0.77,0.4-1.18,0.58
							c0.31-0.54,0.62-1.07,0.95-1.59c0.77-1.19,1.69-2.28,2.55-3.41c0.81-1.07,1.58-2.18,2.21-3.35c0.51-0.94,0.94-1.92,1.25-2.94
							c0.38-1.24,0.6-2.53,0.61-3.81c0-1.42-0.25-2.83-0.6-4.22c-0.29-1.15-0.63-2.28-1.22-3.3c-0.46-0.81-1.07-1.55-1.76-2.18
							c-0.48-0.44-1-0.83-1.58-1.2c-0.43-0.28-0.88-0.54-1.34-0.56c-0.01,0-0.03,0-0.04,0c-0.3,0-0.59,0.1-0.9,0.21l-9.36,27.84
							c-0.47,1.84-2.84,4-5.28,4.81c-4.31,1.63-9.05,0.6-10.59-2.28c-1.53-2.89,0.72-6.55,5.04-8.18c4.31-1.62,9.05-0.6,10.59,2.29
							l13.07-38.85l1.23,0.42c-0.28,1.38-0.55,2.75-0.58,4.14c0,0.11,0,0.22,0,0.32c0,2.13,0.55,4.26,1.26,6.31
							c0.72,2.06,1.6,4.02,2.29,6.06c0.59,1.74,1.05,3.54,1.35,5.37C194.35,67.18,194.46,68.09,194.46,68.99z"/>
						<path class="st0" d="M180.02,29.73l-5.98,20.31c-0.19,0.89-1.28,1.97-2.44,2.4c-2.04,0.86-4.33,0.46-5.12-0.9
							s0.22-3.15,2.26-4.01s4.34-0.46,5.13,0.9l3.6-12.24l-10.27-6.1l-3.94,13.37c-0.19,0.89-1.29,1.97-2.44,2.41
							c-2.04,0.86-4.33,0.45-5.12-0.9c-0.79-1.36,0.22-3.16,2.26-4.02c2.04-0.85,4.34-0.45,5.12,0.91l5.56-18.88L180.02,29.73z"/>
						<path class="st2" d="M172.28,112.27c0.08,0.25,0.16,0.49,0.26,0.74c-0.13-0.14-0.28-0.27-0.39-0.42
							c-0.12-0.18-0.21-0.39-0.3-0.59c-0.04-0.08-0.08-0.15-0.12-0.23l0.33-0.24C172.12,111.78,172.2,112.03,172.28,112.27z"/>
						<path class="st2" d="M165.66,126.31c0.07,0.17,0.15,0.33,0.23,0.49c-0.06,0.09-0.13,0.16-0.19,0.21
							c-0.04,0.03-0.08,0.06-0.12,0.08c-0.04,0.02-0.11,0.05-0.2,0.09c-0.09,0.03-0.21,0.08-0.33,0.17
							c-0.05,0.04-0.1,0.08-0.15,0.14c-0.05,0.05-0.1,0.12-0.13,0.19c-0.05,0.09-0.08,0.17-0.1,0.23c-0.02,0.08-0.04,0.13-0.04,0.14
							c0,0-0.02,0.02-0.06,0.05c-0.05,0.03-0.15,0.08-0.26,0.15c-0.06,0.03-0.13,0.07-0.21,0.12c-0.07,0.05-0.14,0.11-0.2,0.16
							c-0.1,0.09-0.17,0.17-0.24,0.25c-0.05,0.06-0.1,0.11-0.14,0.15c-0.04,0.05-0.08,0.09-0.12,0.12c-0.05,0.04-0.12,0.1-0.21,0.17
							c-0.09,0.08-0.19,0.18-0.28,0.32c-0.04,0.08-0.07,0.14-0.09,0.19c-0.04,0.09-0.06,0.14-0.06,0.14s-0.02,0.02-0.07,0.06
							c-0.05,0.05-0.13,0.11-0.23,0.2c-0.04,0.05-0.08,0.1-0.11,0.14c-0.06,0.07-0.11,0.14-0.15,0.19
							c-0.24-0.43-0.49-0.85-0.77-1.26c-0.28-0.43-0.58-0.82-0.88-1.22c-0.39-0.5-0.78-0.98-1.15-1.47c-0.46-0.6-0.9-1.21-1.34-1.82
							c-0.44-0.62-0.9-1.23-1.36-1.84c-0.2-0.27-0.41-0.53-0.67-0.84c0.07-0.04,0.15-0.08,0.24-0.13c0.1-0.04,0.2-0.09,0.3-0.15
							c0.13-0.07,0.26-0.15,0.4-0.26c0.07-0.06,0.13-0.12,0.19-0.18c0.05-0.06,0.1-0.11,0.14-0.15c0.06-0.06,0.11-0.11,0.14-0.13
							c0.03-0.01,0.06-0.03,0.11-0.05c0.05-0.02,0.12-0.05,0.19-0.07c0.09-0.04,0.2-0.08,0.31-0.13c0.07-0.04,0.14-0.08,0.21-0.12
							c0.06-0.05,0.11-0.09,0.16-0.14c0.11-0.08,0.19-0.17,0.27-0.24c0.07-0.07,0.13-0.13,0.2-0.19c0.06-0.05,0.13-0.11,0.2-0.17
							c0.01-0.01,0.03-0.02,0.04-0.03c0.07,0.03,0.13,0.05,0.2,0.08c0.42,0.16,0.85,0.3,1.29,0.4c0.37,0.08,0.74,0.13,1.11,0.13
							c0.15,0,0.31-0.01,0.46-0.03c0.41-0.06,0.81-0.19,1.16-0.41c0.39-0.24,0.71-0.58,0.94-0.99c0.16-0.28,0.27-0.59,0.27-0.9
							c0-0.08,0-0.15-0.02-0.23c-0.03-0.13-0.08-0.26-0.15-0.37c0.07,0.04,0.14,0.08,0.21,0.12c0.05,0.03,0.1,0.05,0.15,0.07
							c0,0.08-0.01,0.16-0.01,0.23c-0.02,0.34-0.04,0.67-0.04,0.99c0,0.23,0.01,0.46,0.03,0.7c0.02,0.3,0.06,0.61,0.06,0.91
							c-0.01,0.41-0.11,0.82-0.14,1.23c-0.01,0.13-0.02,0.26-0.02,0.39c0,0.28,0.03,0.56,0.07,0.84c0.06,0.36,0.14,0.7,0.23,1.05
							c0.08,0.31,0.17,0.62,0.26,0.92C165.33,125.45,165.48,125.89,165.66,126.31z"/>
						<path class="st2" d="M151.28,123.75l7.76,10.47c-0.01,0.14-0.02,0.29-0.06,0.43c-0.06,0.19-0.16,0.37-0.31,0.5
							c-0.19,0.14-0.44,0.18-0.67,0.18c-0.15-0.01-0.29-0.04-0.43-0.07l-7.72-10.41c-0.01-0.15-0.02-0.3,0.02-0.44
							c0.06-0.22,0.21-0.42,0.41-0.56c0.17-0.11,0.37-0.17,0.56-0.17c0.02,0,0.03,0,0.05,0
							C151.02,123.68,151.15,123.71,151.28,123.75z"/>
						<path class="st0" d="M154.2,74.73c0.04,0.63,0.06,1.26,0.06,1.88c0,0.78-0.04,1.54-0.16,2.3c-0.16,1.05-0.48,2.08-0.89,3.08
							c-0.43,1.02-0.96,2-1.66,2.84c-0.77,0.92-1.74,1.66-2.71,2.4c-1.26,0.94-2.54,1.88-3.97,2.46c-1.14,0.47-2.38,0.72-3.62,0.84
							c-0.55,0.05-1.11,0.07-1.66,0.07c-0.47,0-0.93-0.01-1.4-0.05c-1.46-0.11-2.91-0.39-4.31-0.81c-1.28-0.38-2.52-0.88-3.67-1.53
							c-1.24-0.7-2.38-1.57-3.36-2.59c-0.79-0.81-1.49-1.72-2.15-2.65c-0.82-1.14-1.58-2.31-2.17-3.58
							c-0.65-1.39-1.08-2.9-1.35-4.42c-0.23-1.28-0.34-2.57-0.35-3.87c0-0.06,0-0.11,0-0.17c0-1.42,0.12-2.85,0.44-4.24
							c0.33-1.43,0.86-2.81,1.49-4.14c0.8-1.69,1.75-3.28,2.81-4.81c0.94-1.36,1.97-2.66,3.05-3.92c1.14-1.32,2.34-2.59,3.58-3.83
							c1.34-1.35,2.71-2.65,4.1-3.94c1.35-1.26,2.7-2.5,4.03-3.82c1.11-1.1,2.2-2.25,2.93-3.6c0.46-0.85,0.77-1.77,1.16-2.68
							c0.47-1.11,1.04-2.2,1.25-3.35c0.08-0.42,0.11-0.84,0.11-1.28c0-0.75-0.09-1.52-0.16-2.3c-0.09-0.94-0.15-1.91-0.54-2.71
							c-0.24-0.5-0.61-0.93-1.03-1.37c-0.56-0.59-1.2-1.18-1.89-1.27c-0.06-0.01-0.12-0.01-0.18-0.01c-0.96,0-1.97,0.89-2.6,1.82
							c-0.79,1.15-1.01,2.37-1.4,3.56c-0.36,1.13-0.87,2.24-1.18,3.41c-0.27,1.03-0.39,2.09-0.42,3.16
							c-0.01,0.26-0.01,0.52-0.01,0.77c0,0.58,0.01,1.16,0.02,1.73c0.01,0.68,0.01,1.35,0.04,2.03c0.04,0.67,0.12,1.35,0.2,2.02
							l-2.11,1.87c-0.16-1.27-0.26-2.13-0.35-2.99c-0.2-1.78-0.38-3.57-0.45-5.36c-0.02-0.53-0.03-1.06-0.03-1.59
							c0-1.54,0.09-3.09,0.34-4.62c0.29-1.84,0.78-3.67,1.57-5.31c0.71-1.46,1.65-2.78,2.75-4.09c0.67-0.8,1.4-1.59,2.36-1.85
							c0.23-0.06,0.48-0.09,0.73-0.09c0.41,0,0.82,0.08,1.19,0.23c0.65,0.26,1.15,0.76,1.58,1.34c0.43,0.58,0.79,1.26,1.16,1.91
							c0.79,1.39,1.62,2.64,2.13,4.04c0.46,1.29,0.65,2.71,0.79,4.11c0.11,1.13,0.19,2.26,0.19,3.38c0,0.52-0.02,1.05-0.06,1.57
							c-0.16,2.14-0.7,4.24-1.33,6.34c-0.74,2.43-1.6,4.85-3.02,6.9c-1.15,1.66-2.68,3.08-4.18,4.48c-2,1.86-3.96,3.7-5.9,5.6
							c-1.64,1.61-3.27,3.26-4.63,5.1c-1.17,1.6-2.14,3.34-2.98,5.16c-0.65,1.41-1.22,2.87-1.48,4.38c-0.12,0.73-0.17,1.46-0.17,2.2
							c0,0.53,0.03,1.05,0.07,1.58c0.12,1.45,0.35,2.9,0.89,4.24c0.58,1.44,1.51,2.75,2.61,3.85c1.1,1.1,2.37,2,3.74,2.74
							c1.22,0.66,2.52,1.2,3.87,1.47c0.75,0.15,1.52,0.22,2.29,0.22c0.39,0,0.78-0.02,1.17-0.05c2.57-0.19,5.13-0.96,7.26-2.46
							c1.52-1.07,2.83-2.51,3.51-4.21c0.39-0.98,0.58-2.04,0.58-3.1c0-0.03,0-0.05,0-0.08c0-1.55-0.4-3.08-1.05-4.5
							c-0.48-1.04-1.09-2.02-1.9-2.81c-0.9-0.87-2.04-1.51-3.24-1.88c-0.83-0.25-1.68-0.39-2.53-0.39c-0.32,0-0.64,0.02-0.96,0.06
							c-1.05,0.12-2.07,0.46-2.97,1.01c-1.01,0.62-1.85,1.52-2.51,2.51c-0.5,0.76-0.89,1.57-1.12,2.45
							c-0.14,0.53-0.22,1.08-0.22,1.63c0,0.44,0.05,0.87,0.16,1.29c0.26,0.98,0.84,1.86,1.5,2.68c0.44,0.55,0.92,1.07,1.48,1.46
							c0.38,0.26,0.79,0.46,1.2,0.68c0.13,0.06,0.26,0.13,0.35,0.24c0.09,0.11,0.15,0.27,0.15,0.42c0,0.08-0.02,0.15-0.05,0.22
							c-0.11,0.25-0.44,0.36-0.73,0.38c-0.03,0-0.05,0-0.08,0c-0.5,0-0.9-0.27-1.32-0.53c-0.72-0.44-1.47-0.85-2.08-1.35
							c-0.66-0.53-1.16-1.14-1.63-1.81c-0.64-0.91-1.21-1.9-1.57-2.98c-0.34-1.01-0.48-2.11-0.48-3.2c0-0.08,0-0.15,0-0.22
							c0.01-1.38,0.23-2.75,0.72-4.02c0.47-1.22,1.18-2.35,2.02-3.35c0.84-0.99,1.8-1.86,2.91-2.51c0.57-0.33,1.18-0.61,1.8-0.82
							l-1.06-5.19l2-2.05l1.37,6.82c0.83-0.05,1.67-0.02,2.52,0.04c1.28,0.08,2.57,0.21,3.72,0.69c1.28,0.55,2.37,1.54,3.31,2.6
							c0.89,1,1.64,2.07,2.32,3.21c0.42,0.69,0.82,1.41,1.06,2.17C154.08,72.88,154.14,73.81,154.2,74.73z"/>
						<path class="st0" d="M148.56,102.67c0,0.61-0.04,1.23-0.11,1.84c-0.14,1.18-0.43,2.35-0.98,3.39
							c-0.56,1.09-1.39,2.03-2.38,2.78c-1.11,0.85-2.42,1.44-3.76,1.72c-0.96,0.19-1.94,0.23-2.93,0.26
							c-0.31,0.01-0.62,0.02-0.93,0.02c-0.67,0-1.34-0.04-1.98-0.2c-1.13-0.27-2.18-0.89-3.15-1.59c-0.86-0.61-1.64-1.29-2.31-2.09
							c-0.77-0.91-1.38-1.98-1.66-3.14c-0.11-0.49-0.17-1-0.17-1.51c0-0.69,0.1-1.39,0.29-2.06c0.29-1.01,0.77-1.97,1.49-2.72
							c0.67-0.7,1.53-1.22,2.49-1.49c0.48-0.13,0.98-0.2,1.47-0.2c0.72,0,1.42,0.14,2.05,0.44c0.91,0.43,1.66,1.18,2.22,2.04
							c0.49,0.74,0.84,1.56,0.96,2.42c0.03,0.23,0.05,0.47,0.05,0.71c0,0.52-0.08,1.05-0.24,1.56c-0.25,0.82-0.71,1.59-1.34,2.16
							c-0.53,0.49-1.19,0.83-1.88,1.02c-0.51,0.14-1.03,0.19-1.55,0.2c-0.08,0.01-0.16,0.01-0.24,0.01s-0.16,0-0.24-0.01
							c0.01,0.42,0.06,0.82,0.26,1.15c0.2,0.34,0.57,0.6,0.95,0.8c0.85,0.44,1.78,0.57,2.71,0.57c1.11,0,2.21-0.19,3.29-0.53
							c1.25-0.39,2.48-0.99,3.33-1.93c0.91-1.02,1.39-2.42,1.64-3.81c0.15-0.85,0.22-1.69,0.22-2.54c0-0.47-0.02-0.95-0.06-1.43
							c-0.06-0.84-0.17-1.67-0.34-2.49c-0.28-1.42-0.7-2.81-1.02-4.23c-0.1-0.48-0.2-0.97-0.29-1.45l2.2-0.58
							c0.14,0.74,0.28,1.48,0.43,2.21c0.3,1.44,0.66,2.87,0.97,4.31c0.17,0.78,0.32,1.57,0.41,2.37
							C148.51,101.32,148.56,101.99,148.56,102.67z"/>
						<polygon class="st0" points="142.77,72.69 145.25,85.07 143.05,85.64 140.41,72.7 						"/>
						<path class="st0" d="M108.81,78.26c0.44,1.51-0.22,4.15-1.45,5.85c-2.5,3.78-7.09,5.87-10.25,4.66l0.46-1
							c0.29-0.04,0.58-0.08,0.87-0.15c0.71-0.17,1.37-0.55,1.97-0.98c0.99-0.72,1.82-1.61,2.66-2.47c1.05-1.07,2.13-2.11,3.03-3.35
							c0.53-0.72,1-1.51,1.14-2.38c0.03-0.2,0.05-0.41,0.05-0.63c0-0.3-0.03-0.61-0.08-0.92c-0.07-0.48-0.18-0.95-0.29-1.42
							L98.79,35.3l1.27-0.26L108.81,78.26z"/>
						<path class="st0" d="M103.55,74.78l0.12,1.71c-0.39,0.14-0.78,0.29-1.15,0.46c-0.84,0.41-1.58,1.02-2.25,1.69
							c-0.84,0.83-1.56,1.76-2.25,2.71c-0.55,0.76-1.09,1.54-1.54,2.36c-0.24,0.45-0.46,0.91-0.59,1.42c-0.06,0.23-0.1,0.47-0.1,0.7
							c0,0.12,0.01,0.23,0.03,0.34c0.03,0.13,0.08,0.26,0.13,0.38l-0.5,1.09c-1.04-0.99-1.43-3.27-0.86-5.04
							C95.65,78.65,99.66,75.15,103.55,74.78z"/>
						<path class="st0" d="M90.7,46.74l-7.1,25.48c-0.23,1.12-1.57,2.49-3.01,3.05c-2.53,1.11-5.41,0.65-6.42-1.03
							c-1.01-1.68,0.23-3.95,2.76-5.06s5.41-0.65,6.42,1.04l6.59-23.69L90.7,46.74z"/>
					</g>
				</g>
			</g>
		</g>
	</g>
</g>
</svg>
