<?xml version="1.0" encoding="utf-8"?>
<!-- Generator: Adobe Illustrator 26.1.0, SVG Export Plug-In . SVG Version: 6.00 Build 0)  -->
<svg version="1.1" id="Lager_1" xmlns="http://www.w3.org/2000/svg" xmlns:xlink="http://www.w3.org/1999/xlink" x="0px" y="0px"
	 viewBox="0 0 283.46 283.46" style="enable-background:new 0 0 283.46 283.46;" xml:space="preserve">
<style type="text/css">
	.st0{fill:#1E2676;}
	.st1{fill:none;}
	.st2{fill:#FFFFFF;}
	.st3{fill:none;stroke:#FFFFFF;stroke-width:0.5;stroke-linecap:round;stroke-linejoin:round;}
	.st4{fill:none;stroke:#1E2676;stroke-linecap:round;stroke-linejoin:round;}
	.st5{fill:none;stroke:#1E2676;stroke-width:0.5;stroke-linecap:round;stroke-linejoin:round;}
</style>
<g id="Priser_2024">
	<g id="Olivkvist">
		<g id="SPLINE_3555_">
			<path class="st0" d="M130.12,249.38c-0.19-2.53-0.38-5.05-1.1-7.44l0,0c-1-3.29-2.99-6.32-5.5-8.74l0,0
				c-2.45-2.37-5.4-4.14-8.5-5.5l0,0c-2.74-1.19-5.6-2.06-8.5-2.79l0,0c-2.41-0.61-4.86-1.13-7.3-1.65"/>
		</g>
		<g id="LINE_2308_">
			<line class="st1" x1="99.23" y1="223.26" x2="130.12" y2="249.38"/>
		</g>
		<g id="SPLINE_3556_">
			<path class="st0" d="M130.12,249.38c-2.52,0.23-5.04,0.47-7.53,0.16l0,0c-3.4-0.44-6.73-1.9-9.53-3.97l0,0
				c-2.74-2.03-4.98-4.63-6.83-7.47l0,0c-1.63-2.5-2.96-5.18-4.17-7.91l0,0c-1.01-2.29-1.92-4.6-2.84-6.92"/>
		</g>
		<g id="SPLINE_3557_">
			<path class="st0" d="M133.81,258.16c-2.14-1.36-4.27-2.72-6.62-3.57l0,0c-3.22-1.17-6.86-1.39-10.29-0.83l0,0
				c-3.37,0.55-6.55,1.85-9.49,3.52l0,0c-2.6,1.48-5.01,3.25-7.32,5.13l0,0c-1.94,1.57-3.81,3.22-5.69,4.86"/>
		</g>
		<g id="LINE_2309_">
			<line class="st1" x1="94.4" y1="267.27" x2="133.81" y2="258.16"/>
		</g>
		<g id="SPLINE_3558_">
			<path class="st0" d="M133.81,258.16c-1.32,2.15-2.64,4.32-4.38,6.11l0,0c-2.38,2.47-5.55,4.26-8.89,5.26l0,0
				c-3.27,0.98-6.69,1.21-10.07,1l0,0c-2.98-0.2-5.92-0.73-8.83-1.4l0,0c-2.43-0.57-4.84-1.22-7.24-1.87"/>
		</g>
		<g id="SPLINE_3559_">
			<path class="st0" d="M93.26,241.45c1.15-2.25,2.29-4.52,2.91-6.94l0,0c0.85-3.32,0.72-6.95-0.18-10.33l0,0
				c-0.87-3.29-2.47-6.33-4.43-9.09l0,0c-1.73-2.44-3.72-4.66-5.82-6.79l0,0c-1.75-1.78-3.57-3.48-5.39-5.19"/>
		</g>
		<g id="LINE_2310_">
			<line class="st1" x1="80.35" y1="203.12" x2="93.26" y2="241.45"/>
		</g>
		<g id="SPLINE_3560_">
			<path class="st0" d="M93.26,241.45c-2.28-1.11-4.56-2.21-6.52-3.76l0,0c-2.69-2.13-4.77-5.11-6.1-8.33l0,0
				c-1.3-3.15-1.86-6.54-1.98-9.92l0,0c-0.1-2.98,0.14-5.97,0.53-8.93l0,0c0.33-2.47,0.74-4.93,1.16-7.39"/>
		</g>
		<g id="SPLINE_3561_">
			<path class="st0" d="M106.98,249.85c-2.02-1.52-4.04-3.05-6.32-4.09l0,0c-3.12-1.42-6.73-1.93-10.2-1.64l0,0
				c-3.4,0.29-6.67,1.33-9.73,2.76l0,0c-2.71,1.27-5.25,2.85-7.71,4.54l0,0c-2.06,1.41-4.06,2.9-6.05,4.39"/>
		</g>
		<g id="LINE_2311_">
			<line class="st1" x1="66.97" y1="255.81" x2="106.98" y2="249.85"/>
		</g>
		<g id="SPLINE_3562_">
			<path class="st0" d="M106.98,249.85c-1.49,2.04-2.97,4.1-4.85,5.75l0,0c-2.57,2.27-5.87,3.8-9.28,4.54l0,0
				c-3.33,0.73-6.77,0.68-10.12,0.21l0,0c-2.96-0.43-5.85-1.2-8.7-2.1l0,0c-2.38-0.75-4.73-1.6-7.07-2.43"/>
		</g>
		<g id="SPLINE_3563_">
			<path class="st0" d="M67.07,227.46c1.76-1.81,3.53-3.62,4.86-5.75l0,0c1.81-2.91,2.77-6.43,2.93-9.9l0,0
				c0.16-3.41-0.46-6.79-1.49-10.01l0,0c-0.91-2.85-2.15-5.57-3.52-8.22l0,0c-1.14-2.22-2.36-4.39-3.59-6.57"/>
		</g>
		<g id="LINE_2312_">
			<line class="st1" x1="66.27" y1="187.01" x2="67.07" y2="227.46"/>
		</g>
		<g id="SPLINE_3564_">
			<path class="st0" d="M67.07,227.46c-1.84-1.75-3.68-3.48-5.08-5.55l0,0c-1.93-2.85-3.02-6.31-3.32-9.78l0,0
				c-0.29-3.4,0.19-6.8,1.09-10.06l0,0c0.79-2.88,1.93-5.65,3.18-8.36l0,0c1.05-2.26,2.19-4.48,3.32-6.7"/>
		</g>
		<g id="SPLINE_3565_">
			<path class="st0" d="M82.13,240.58c-1.54-2.01-3.07-4.02-4.99-5.63l0,0c-2.62-2.21-5.96-3.66-9.38-4.32l0,0
				c-3.35-0.64-6.78-0.51-10.12,0.05l0,0c-2.95,0.5-5.82,1.33-8.65,2.3l0,0c-2.36,0.81-4.69,1.71-7.01,2.62"/>
		</g>
		<g id="LINE_2313_">
			<line class="st1" x1="41.99" y1="235.59" x2="82.13" y2="240.58"/>
		</g>
		<g id="SPLINE_3566_">
			<path class="st0" d="M82.13,240.58c-1.98,1.58-3.96,3.14-6.21,4.23l0,0c-3.09,1.5-6.68,2.1-10.16,1.89l0,0
				c-3.4-0.2-6.7-1.16-9.8-2.51l0,0c-2.73-1.21-5.32-2.72-7.82-4.35l0,0c-2.09-1.37-4.12-2.81-6.16-4.25"/>
		</g>
		<g id="SPLINE_3567_">
			<path class="st0" d="M47.61,209.85c2.12-1.38,4.24-2.76,6-4.54l0,0c2.41-2.45,4.11-5.66,5.03-9.02l0,0
				c0.89-3.29,1.04-6.72,0.73-10.09l0,0c-0.27-2.97-0.88-5.9-1.63-8.79l0,0c-0.62-2.42-1.35-4.8-2.06-7.19"/>
		</g>
		<g id="LINE_2314_">
			<line class="st1" x1="55.67" y1="170.21" x2="47.61" y2="209.85"/>
		</g>
		<g id="SPLINE_3568_">
			<path class="st0" d="M47.61,209.85c-1.41-2.1-2.83-4.2-3.75-6.52l0,0c-1.26-3.19-1.57-6.82-1.1-10.27l0,0
				c0.46-3.38,1.67-6.59,3.27-9.58l0,0c1.41-2.64,3.12-5.09,4.93-7.46l0,0c1.52-1.98,3.11-3.9,4.71-5.82"/>
		</g>
		<g id="SPLINE_3569_">
			<path class="st0" d="M60.39,225.74c-1.12-2.27-2.24-4.54-3.81-6.48l0,0c-2.15-2.67-5.15-4.74-8.38-6.04l0,0
				c-3.16-1.27-6.56-1.81-9.93-1.9l0,0c-2.99-0.08-5.97,0.19-8.93,0.6l0,0c-2.47,0.34-4.93,0.77-7.38,1.21"/>
		</g>
		<g id="LINE_2315_">
			<line class="st1" x1="21.96" y1="213.12" x2="60.39" y2="225.74"/>
		</g>
		<g id="SPLINE_3570_">
			<path class="st0" d="M60.39,225.74c-2.25,1.17-4.5,2.33-6.91,2.97l0,0c-3.32,0.87-6.95,0.76-10.32-0.1l0,0
				c-3.3-0.85-6.35-2.43-9.13-4.36l0,0c-2.45-1.71-4.69-3.69-6.83-5.77l0,0c-1.79-1.75-3.51-3.55-5.23-5.35"/>
		</g>
		<g id="SPLINE_3571_">
			<path class="st0" d="M42.55,207.28c-0.64-2.45-1.29-4.9-2.44-7.12l0,0c-1.58-3.05-4.09-5.67-7-7.59l0,0
				c-2.85-1.88-6.06-3.08-9.36-3.85l0,0c-2.92-0.68-5.89-1.01-8.87-1.2l0,0c-2.49-0.16-4.98-0.22-7.47-0.29"/>
		</g>
		<g id="LINE_2316_">
			<line class="st1" x1="7.42" y1="187.23" x2="42.55" y2="207.28"/>
		</g>
		<g id="SPLINE_3572_">
			<path class="st0" d="M42.55,207.28c-2.43,0.69-4.87,1.38-7.37,1.52l0,0c-3.42,0.19-6.97-0.64-10.09-2.16l0,0
				c-3.07-1.49-5.74-3.65-8.08-6.1l0,0c-2.06-2.16-3.86-4.55-5.55-7.02l0,0c-1.41-2.06-2.73-4.18-4.05-6.29"/>
		</g>
		<g id="SPLINE_3573_">
			<path class="st0" d="M35.19,186.19c-0.36-2.5-0.72-5.01-1.61-7.35l0,0c-1.22-3.21-3.42-6.1-6.09-8.34l0,0
				c-2.61-2.19-5.67-3.76-8.85-4.9l0,0c-2.81-1-5.73-1.67-8.67-2.21l0,0c-2.45-0.44-4.92-0.79-7.39-1.14"/>
		</g>
		<g id="LINE_2317_">
			<line class="st1" x1="2.59" y1="162.25" x2="35.19" y2="186.19"/>
		</g>
		<g id="SPLINE_3574_">
			<path class="st0" d="M35.19,186.19c-2.5,0.41-5,0.81-7.49,0.67l0,0c-3.42-0.2-6.85-1.43-9.78-3.3l0,0
				c-2.88-1.84-5.29-4.28-7.32-6.98l0,0c-1.8-2.39-3.31-4.97-4.7-7.61l0,0c-1.17-2.21-2.23-4.46-3.31-6.71"/>
		</g>
		<g id="SPLINE_3575_">
			<path class="st0" d="M27.29,164.92c0.61-2.46,1.22-4.91,1.29-7.41l0,0c0.09-3.43-0.85-6.94-2.47-10.02l0,0
				c-1.59-3.02-3.83-5.63-6.35-7.88l0,0c-2.23-2-4.67-3.72-7.19-5.32l0,0c-2.1-1.34-4.26-2.6-6.41-3.86"/>
		</g>
		<g id="LINE_2318_">
			<line class="st1" x1="6.15" y1="130.42" x2="27.29" y2="164.92"/>
		</g>
		<g id="SPLINE_3576_">
			<path class="st0" d="M27.29,164.92c-2.47-0.57-4.93-1.14-7.19-2.22l0,0c-3.09-1.48-5.79-3.92-7.8-6.76l0,0
				c-1.97-2.79-3.27-5.96-4.14-9.23l0,0c-0.77-2.89-1.19-5.85-1.48-8.82l0,0c-0.23-2.48-0.38-4.97-0.52-7.46"/>
		</g>
		<g id="SPLINE_3577_">
			<path class="st0" d="M37.79,181.54c2.22-1.21,4.45-2.42,6.33-4.06l0,0c2.59-2.25,4.54-5.32,5.72-8.6l0,0
				c1.15-3.21,1.56-6.62,1.53-10l0,0c-0.03-2.99-0.42-5.96-0.94-8.9l0,0c-0.43-2.46-0.96-4.9-1.48-7.33"/>
		</g>
		<g id="LINE_2319_">
			<line class="st1" x1="48.94" y1="142.66" x2="37.79" y2="181.54"/>
		</g>
		<g id="SPLINE_3578_">
			<path class="st0" d="M37.79,181.54c-1.25-2.2-2.49-4.41-3.22-6.8l0,0c-1-3.28-1.03-6.92-0.29-10.32l0,0
				c0.73-3.33,2.19-6.44,4.01-9.29l0,0c1.61-2.52,3.52-4.83,5.51-7.05l0,0c1.67-1.85,3.41-3.64,5.15-5.42"/>
		</g>
		<g id="SPLINE_3579_">
			<path class="st0" d="M30.84,151.58c2.44-0.68,4.88-1.36,7.08-2.53l0,0c3.03-1.62,5.62-4.17,7.49-7.11l0,0
				c1.84-2.87,3.01-6.1,3.72-9.41l0,0c0.64-2.92,0.93-5.9,1.08-8.88l0,0c0.13-2.49,0.16-4.98,0.19-7.48"/>
		</g>
		<g id="LINE_2320_">
			<line class="st1" x1="50.41" y1="116.18" x2="30.84" y2="151.58"/>
		</g>
		<g id="SPLINE_3580_">
			<path class="st0" d="M30.84,151.58c-0.72-2.42-1.44-4.85-1.62-7.34l0,0c-0.24-3.42,0.55-6.98,2.02-10.13l0,0
				c1.45-3.09,3.57-5.79,5.99-8.16l0,0c2.14-2.09,4.5-3.93,6.94-5.64l0,0c2.04-1.44,4.14-2.79,6.24-4.14"/>
		</g>
		<g id="SPLINE_3581_">
			<path class="st0" d="M25.88,136.6c1.4-2.11,2.81-4.22,3.7-6.55l0,0c1.23-3.2,1.52-6.83,1.02-10.27l0,0
				c-0.49-3.38-1.72-6.58-3.34-9.55l0,0c-1.43-2.63-3.16-5.07-4.99-7.42l0,0c-1.54-1.97-3.14-3.87-4.75-5.78"/>
		</g>
		<g id="LINE_2321_">
			<line class="st1" x1="17.53" y1="97.02" x2="25.88" y2="136.6"/>
		</g>
		<g id="SPLINE_3582_">
			<path class="st0" d="M25.88,136.6c-2.13-1.36-4.26-2.73-6.03-4.5l0,0c-2.42-2.43-4.15-5.63-5.09-8.98l0,0
				c-0.92-3.28-1.09-6.72-0.81-10.08l0,0c0.25-2.98,0.84-5.91,1.57-8.81l0,0c0.61-2.42,1.3-4.81,2-7.21"/>
		</g>
		<g id="SPLINE_3583_">
			<path class="st0" d="M33.86,106.47c1.84-1.74,3.67-3.49,5.06-5.56l0,0c1.91-2.85,3-6.32,3.28-9.79l0,0
				c0.28-3.4-0.21-6.8-1.13-10.05l0,0c-0.81-2.88-1.95-5.65-3.22-8.35l0,0c-1.05-2.26-2.2-4.48-3.34-6.69"/>
		</g>
		<g id="LINE_2322_">
			<line class="st1" x1="34.52" y1="66.02" x2="33.86" y2="106.47"/>
		</g>
		<g id="SPLINE_3584_">
			<path class="st0" d="M33.86,106.47c-1.78-1.8-3.55-3.61-4.88-5.73l0,0c-1.82-2.91-2.79-6.41-2.96-9.89l0,0
				c-0.16-3.41,0.44-6.79,1.46-10.01l0,0c0.91-2.85,2.14-5.58,3.48-8.24l0,0c1.13-2.22,2.35-4.4,3.57-6.58"/>
		</g>
		<g id="SPLINE_3585_">
			<path class="st0" d="M37.47,116.84c2.53,0.04,5.06,0.08,7.51-0.42l0,0c3.36-0.69,6.57-2.4,9.21-4.68l0,0
				c2.58-2.23,4.62-5,6.24-7.96l0,0c1.44-2.62,2.56-5.39,3.56-8.21l0,0c0.83-2.35,1.57-4.74,2.3-7.12"/>
		</g>
		<g id="LINE_2323_">
			<line class="st1" x1="66.29" y1="88.46" x2="37.47" y2="116.84"/>
		</g>
		<g id="SPLINE_3586_">
			<path class="st0" d="M37.47,116.84c0-2.53-0.01-5.06,0.53-7.5l0,0c0.74-3.35,2.51-6.53,4.82-9.13l0,0
				c2.27-2.55,5.07-4.54,8.06-6.12l0,0c2.64-1.4,5.43-2.48,8.26-3.43l0,0c2.36-0.79,4.76-1.5,7.15-2.2"/>
		</g>
		<g id="SPLINE_3587_">
			<path class="st0" d="M45.42,90.54c2.52-0.25,5.04-0.49,7.42-1.27l0,0c3.26-1.07,6.25-3.14,8.61-5.7l0,0
				c2.31-2.51,4.02-5.49,5.3-8.62l0,0c1.13-2.77,1.93-5.65,2.6-8.56l0,0c0.55-2.43,1.02-4.88,1.48-7.33"/>
		</g>
		<g id="LINE_2324_">
			<line class="st1" x1="70.81" y1="59.05" x2="45.42" y2="90.54"/>
		</g>
		<g id="SPLINE_3588_">
			<path class="st0" d="M45.42,90.54c-0.29-2.52-0.59-5.03-0.33-7.52l0,0c0.35-3.41,1.75-6.77,3.74-9.62l0,0
				c1.97-2.79,4.52-5.09,7.31-7l0,0c2.46-1.69,5.11-3.09,7.81-4.35l0,0c2.26-1.06,4.56-2.03,6.86-3"/>
		</g>
		<g id="CIRCLE_234_">
			<path class="st0" d="M148.23,254.6c0-2.99-2.43-5.42-5.42-5.42s-5.42,2.43-5.42,5.42c0,2.99,2.43,5.42,5.42,5.42
				S148.23,257.59,148.23,254.6L148.23,254.6L148.23,254.6z"/>
		</g>
		<g id="SPLINE_3589_">
			<path class="st0" d="M155.49,249.38c0.19-2.53,0.38-5.05,1.1-7.44l0,0c0.99-3.29,3-6.32,5.49-8.74l0,0
				c2.46-2.37,5.4-4.14,8.5-5.5l0,0c2.73-1.19,5.6-2.06,8.5-2.79l0,0c2.41-0.61,4.86-1.13,7.3-1.65"/>
		</g>
		<g id="LINE_2325_">
			<line class="st1" x1="186.38" y1="223.26" x2="155.49" y2="249.38"/>
		</g>
		<g id="SPLINE_3590_">
			<path class="st0" d="M155.49,249.38c2.52,0.23,5.04,0.47,7.52,0.16l0,0c3.41-0.44,6.73-1.9,9.53-3.97l0,0
				c2.75-2.03,4.98-4.63,6.83-7.47l0,0c1.63-2.5,2.97-5.18,4.17-7.91l0,0c1-2.29,1.92-4.6,2.84-6.92"/>
		</g>
		<g id="SPLINE_3591_">
			<path class="st0" d="M151.79,258.16c2.14-1.36,4.27-2.72,6.62-3.57l0,0c3.22-1.17,6.86-1.39,10.29-0.83l0,0
				c3.37,0.55,6.55,1.85,9.49,3.52l0,0c2.6,1.48,5.01,3.25,7.32,5.13l0,0c1.94,1.57,3.82,3.22,5.69,4.86"/>
		</g>
		<g id="LINE_2326_">
			<line class="st1" x1="191.21" y1="267.27" x2="151.79" y2="258.16"/>
		</g>
		<g id="SPLINE_3592_">
			<path class="st0" d="M151.79,258.16c1.32,2.15,2.64,4.32,4.38,6.11l0,0c2.38,2.47,5.55,4.26,8.89,5.26l0,0
				c3.26,0.98,6.69,1.21,10.06,1l0,0c2.99-0.2,5.93-0.73,8.83-1.4l0,0c2.43-0.57,4.84-1.22,7.25-1.87"/>
		</g>
		<g id="SPLINE_3593_">
			<path class="st0" d="M192.35,241.45c-1.15-2.25-2.29-4.52-2.91-6.94l0,0c-0.85-3.32-0.72-6.95,0.18-10.33l0,0
				c0.88-3.29,2.48-6.33,4.43-9.09l0,0c1.73-2.44,3.73-4.66,5.83-6.79l0,0c1.75-1.78,3.57-3.48,5.39-5.19"/>
		</g>
		<g id="LINE_2327_">
			<line class="st1" x1="205.26" y1="203.12" x2="192.35" y2="241.45"/>
		</g>
		<g id="SPLINE_3594_">
			<path class="st0" d="M192.35,241.45c2.28-1.11,4.55-2.21,6.51-3.76l0,0c2.69-2.13,4.78-5.11,6.11-8.33l0,0
				c1.29-3.15,1.86-6.54,1.98-9.92l0,0c0.1-2.98-0.15-5.97-0.54-8.93l0,0c-0.32-2.47-0.74-4.93-1.15-7.39"/>
		</g>
		<g id="SPLINE_3595_">
			<path class="st0" d="M178.63,249.85c2.02-1.52,4.04-3.05,6.31-4.09l0,0c3.12-1.42,6.73-1.93,10.2-1.64l0,0
				c3.4,0.29,6.67,1.33,9.74,2.76l0,0c2.7,1.27,5.25,2.85,7.71,4.54l0,0c2.06,1.41,4.06,2.9,6.05,4.39"/>
		</g>
		<g id="LINE_2328_">
			<line class="st1" x1="218.64" y1="255.81" x2="178.63" y2="249.85"/>
		</g>
		<g id="SPLINE_3596_">
			<path class="st0" d="M178.63,249.85c1.49,2.04,2.98,4.1,4.85,5.75l0,0c2.57,2.27,5.87,3.8,9.28,4.54l0,0
				c3.33,0.73,6.76,0.68,10.11,0.21l0,0c2.96-0.43,5.85-1.2,8.7-2.1l0,0c2.38-0.75,4.73-1.6,7.08-2.43"/>
		</g>
		<g id="SPLINE_3597_">
			<path class="st0" d="M218.54,227.46c-1.77-1.81-3.54-3.62-4.86-5.75l0,0c-1.81-2.91-2.77-6.43-2.93-9.9l0,0
				c-0.16-3.41,0.46-6.79,1.49-10.01l0,0c0.91-2.85,2.15-5.57,3.52-8.22l0,0c1.14-2.22,2.36-4.39,3.59-6.57"/>
		</g>
		<g id="LINE_2329_">
			<line class="st1" x1="219.34" y1="187.01" x2="218.54" y2="227.46"/>
		</g>
		<g id="SPLINE_3598_">
			<path class="st0" d="M218.54,227.46c1.84-1.75,3.68-3.48,5.08-5.55l0,0c1.93-2.85,3.02-6.31,3.32-9.78l0,0
				c0.29-3.4-0.19-6.8-1.09-10.06l0,0c-0.8-2.88-1.93-5.65-3.18-8.36l0,0c-1.05-2.26-2.19-4.48-3.32-6.7"/>
		</g>
		<g id="SPLINE_3599_">
			<path class="st0" d="M203.47,240.58c1.54-2.01,3.08-4.02,4.99-5.63l0,0c2.62-2.21,5.96-3.66,9.38-4.32l0,0
				c3.35-0.64,6.78-0.51,10.12,0.05l0,0c2.95,0.5,5.82,1.33,8.65,2.3l0,0c2.36,0.81,4.68,1.71,7.01,2.62"/>
		</g>
		<g id="LINE_2330_">
			<line class="st1" x1="243.62" y1="235.59" x2="203.47" y2="240.58"/>
		</g>
		<g id="SPLINE_3600_">
			<path class="st0" d="M203.47,240.58c1.99,1.58,3.96,3.14,6.22,4.23l0,0c3.08,1.5,6.68,2.1,10.15,1.89l0,0
				c3.41-0.2,6.71-1.16,9.8-2.51l0,0c2.73-1.21,5.31-2.72,7.81-4.35l0,0c2.1-1.37,4.13-2.81,6.17-4.25"/>
		</g>
		<g id="SPLINE_3601_">
			<path class="st0" d="M238,209.85c-2.12-1.38-4.25-2.76-6-4.54l0,0c-2.4-2.45-4.1-5.66-5.02-9.02l0,0
				c-0.9-3.29-1.04-6.72-0.74-10.09l0,0c0.27-2.97,0.89-5.9,1.63-8.79l0,0c0.62-2.42,1.34-4.8,2.06-7.19"/>
		</g>
		<g id="LINE_2331_">
			<line class="st1" x1="229.94" y1="170.21" x2="238" y2="209.85"/>
		</g>
		<g id="SPLINE_3602_">
			<path class="st0" d="M238,209.85c1.41-2.1,2.83-4.2,3.74-6.52l0,0c1.26-3.19,1.57-6.82,1.1-10.27l0,0
				c-0.46-3.38-1.67-6.59-3.26-9.58l0,0c-1.41-2.64-3.12-5.09-4.93-7.46l0,0c-1.52-1.98-3.11-3.9-4.71-5.82"/>
		</g>
		<g id="SPLINE_3603_">
			<path class="st0" d="M225.22,225.74c1.12-2.27,2.24-4.54,3.81-6.48l0,0c2.16-2.67,5.15-4.74,8.38-6.04l0,0
				c3.16-1.27,6.56-1.81,9.93-1.9l0,0c2.99-0.08,5.97,0.19,8.92,0.6l0,0c2.47,0.34,4.93,0.77,7.38,1.21"/>
		</g>
		<g id="LINE_2332_">
			<line class="st1" x1="263.65" y1="213.12" x2="225.22" y2="225.74"/>
		</g>
		<g id="SPLINE_3604_">
			<path class="st0" d="M225.22,225.74c2.25,1.17,4.49,2.33,6.91,2.97l0,0c3.31,0.87,6.95,0.76,10.32-0.1l0,0
				c3.3-0.85,6.35-2.43,9.13-4.36l0,0c2.45-1.71,4.7-3.69,6.83-5.77l0,0c1.79-1.75,3.51-3.55,5.23-5.35"/>
		</g>
		<g id="SPLINE_3605_">
			<path class="st0" d="M243.06,207.28c0.64-2.45,1.29-4.9,2.43-7.12l0,0c1.58-3.05,4.1-5.67,7-7.59l0,0
				c2.84-1.88,6.06-3.08,9.36-3.85l0,0c2.91-0.68,5.88-1.01,8.87-1.2l0,0c2.49-0.16,4.98-0.22,7.47-0.29"/>
		</g>
		<g id="LINE_2333_">
			<line class="st1" x1="278.19" y1="187.23" x2="243.06" y2="207.28"/>
		</g>
		<g id="SPLINE_3606_">
			<path class="st0" d="M243.06,207.28c2.43,0.69,4.87,1.38,7.36,1.52l0,0c3.43,0.19,6.97-0.64,10.1-2.16l0,0
				c3.07-1.49,5.74-3.65,8.08-6.1l0,0c2.06-2.16,3.86-4.55,5.54-7.02l0,0c1.41-2.06,2.73-4.18,4.06-6.29"/>
		</g>
		<g id="SPLINE_3607_">
			<path class="st0" d="M250.41,186.19c0.36-2.5,0.72-5.01,1.61-7.35l0,0c1.22-3.21,3.42-6.1,6.09-8.34l0,0
				c2.61-2.19,5.66-3.76,8.85-4.9l0,0c2.81-1,5.73-1.67,8.67-2.21l0,0c2.45-0.44,4.93-0.79,7.39-1.14"/>
		</g>
		<g id="LINE_2334_">
			<line class="st1" x1="283.02" y1="162.25" x2="250.41" y2="186.19"/>
		</g>
		<g id="SPLINE_3608_">
			<path class="st0" d="M250.41,186.19c2.5,0.41,5,0.81,7.49,0.67l0,0c3.42-0.2,6.85-1.43,9.78-3.3l0,0
				c2.87-1.84,5.29-4.28,7.32-6.98l0,0c1.8-2.39,3.31-4.97,4.7-7.61l0,0c1.16-2.21,2.23-4.46,3.31-6.71"/>
		</g>
		<g id="SPLINE_3609_">
			<path class="st0" d="M258.32,164.92c-0.61-2.46-1.22-4.91-1.29-7.41l0,0c-0.09-3.43,0.85-6.94,2.47-10.02l0,0
				c1.59-3.02,3.82-5.63,6.34-7.88l0,0c2.23-2,4.67-3.72,7.19-5.32l0,0c2.1-1.34,4.26-2.6,6.41-3.86"/>
		</g>
		<g id="LINE_2335_">
			<line class="st1" x1="279.45" y1="130.42" x2="258.32" y2="164.92"/>
		</g>
		<g id="SPLINE_3610_">
			<path class="st0" d="M258.32,164.92c2.47-0.57,4.93-1.14,7.19-2.22l0,0c3.1-1.48,5.8-3.92,7.81-6.76l0,0
				c1.97-2.79,3.27-5.96,4.14-9.23l0,0c0.77-2.89,1.19-5.85,1.47-8.82l0,0c0.24-2.48,0.38-4.97,0.52-7.46"/>
		</g>
		<g id="SPLINE_3611_">
			<path class="st0" d="M247.82,181.54c-2.23-1.21-4.45-2.42-6.33-4.06l0,0c-2.59-2.25-4.54-5.32-5.72-8.6l0,0
				c-1.16-3.21-1.57-6.62-1.53-10l0,0c0.03-2.99,0.42-5.96,0.93-8.9l0,0c0.44-2.46,0.96-4.9,1.49-7.33"/>
		</g>
		<g id="LINE_2336_">
			<line class="st1" x1="236.66" y1="142.66" x2="247.82" y2="181.54"/>
		</g>
		<g id="SPLINE_3612_">
			<path class="st0" d="M247.82,181.54c1.25-2.2,2.49-4.41,3.22-6.8l0,0c1-3.28,1.03-6.92,0.29-10.32l0,0
				c-0.72-3.33-2.18-6.44-4.01-9.29l0,0c-1.61-2.52-3.51-4.83-5.51-7.05l0,0c-1.67-1.85-3.41-3.64-5.15-5.42"/>
		</g>
		<g id="SPLINE_3613_">
			<path class="st0" d="M254.76,151.58c-2.43-0.68-4.88-1.36-7.08-2.53l0,0c-3.03-1.62-5.62-4.17-7.5-7.11l0,0
				c-1.84-2.87-3-6.1-3.72-9.41l0,0c-0.63-2.92-0.92-5.9-1.07-8.88l0,0c-0.13-2.49-0.16-4.98-0.19-7.48"/>
		</g>
		<g id="LINE_2337_">
			<line class="st1" x1="235.2" y1="116.18" x2="254.76" y2="151.58"/>
		</g>
		<g id="SPLINE_3614_">
			<path class="st0" d="M254.76,151.58c0.73-2.42,1.44-4.85,1.63-7.34l0,0c0.24-3.42-0.55-6.98-2.03-10.13l0,0
				c-1.45-3.09-3.57-5.79-5.98-8.16l0,0c-2.14-2.09-4.5-3.93-6.95-5.64l0,0c-2.04-1.44-4.13-2.79-6.23-4.14"/>
		</g>
		<g id="SPLINE_3615_">
			<path class="st0" d="M259.72,136.6c-1.4-2.11-2.8-4.22-3.7-6.55l0,0c-1.23-3.2-1.52-6.83-1.02-10.27l0,0
				c0.48-3.38,1.72-6.58,3.33-9.55l0,0c1.43-2.63,3.16-5.07,4.99-7.42l0,0c1.54-1.97,3.14-3.87,4.75-5.78"/>
		</g>
		<g id="LINE_2338_">
			<line class="st1" x1="268.08" y1="97.02" x2="259.72" y2="136.6"/>
		</g>
		<g id="SPLINE_3616_">
			<path class="st0" d="M259.72,136.6c2.13-1.36,4.27-2.73,6.03-4.5l0,0c2.42-2.43,4.15-5.63,5.08-8.98l0,0
				c0.92-3.28,1.09-6.72,0.81-10.08l0,0c-0.25-2.98-0.84-5.91-1.57-8.81l0,0c-0.61-2.42-1.31-4.81-2-7.21"/>
		</g>
		<g id="SPLINE_3617_">
			<path class="st0" d="M251.75,106.47c-1.84-1.74-3.67-3.49-5.07-5.56l0,0c-1.91-2.85-3-6.32-3.29-9.79l0,0
				c-0.27-3.4,0.21-6.8,1.13-10.05l0,0c0.81-2.88,1.95-5.65,3.21-8.35l0,0c1.06-2.26,2.21-4.48,3.35-6.69"/>
		</g>
		<g id="LINE_2339_">
			<line class="st1" x1="251.08" y1="66.02" x2="251.75" y2="106.47"/>
		</g>
		<g id="SPLINE_3618_">
			<path class="st0" d="M251.75,106.47c1.78-1.8,3.55-3.61,4.88-5.73l0,0c1.82-2.91,2.79-6.41,2.96-9.89l0,0
				c0.17-3.41-0.43-6.79-1.45-10.01l0,0c-0.9-2.85-2.13-5.58-3.49-8.24l0,0c-1.13-2.22-2.34-4.4-3.56-6.58"/>
		</g>
		<g id="SPLINE_3619_">
			<path class="st0" d="M248.14,116.84c-2.53,0.04-5.06,0.08-7.51-0.42l0,0c-3.37-0.69-6.57-2.4-9.21-4.68l0,0
				c-2.58-2.23-4.62-5-6.24-7.96l0,0c-1.45-2.62-2.57-5.39-3.56-8.21l0,0c-0.83-2.35-1.57-4.74-2.3-7.12"/>
		</g>
		<g id="LINE_2340_">
			<line class="st1" x1="219.32" y1="88.46" x2="248.14" y2="116.84"/>
		</g>
		<g id="SPLINE_3620_">
			<path class="st0" d="M248.14,116.84c0.01-2.53,0.01-5.06-0.54-7.5l0,0c-0.74-3.35-2.5-6.53-4.82-9.13l0,0
				c-2.27-2.55-5.07-4.54-8.06-6.12l0,0c-2.64-1.4-5.43-2.48-8.26-3.43l0,0c-2.36-0.79-4.76-1.5-7.15-2.2"/>
		</g>
		<g id="SPLINE_3621_">
			<path class="st0" d="M240.19,90.54c-2.52-0.25-5.04-0.49-7.42-1.27l0,0c-3.26-1.07-6.25-3.14-8.61-5.7l0,0
				c-2.31-2.51-4.01-5.49-5.29-8.62l0,0c-1.13-2.77-1.93-5.65-2.6-8.56l0,0c-0.56-2.43-1.02-4.88-1.48-7.33"/>
		</g>
		<g id="LINE_2341_">
			<line class="st1" x1="214.8" y1="59.05" x2="240.19" y2="90.54"/>
		</g>
		<g id="SPLINE_3622_">
			<path class="st0" d="M240.19,90.54c0.29-2.52,0.59-5.03,0.33-7.52l0,0c-0.35-3.41-1.74-6.77-3.75-9.62l0,0
				c-1.96-2.79-4.52-5.09-7.3-7l0,0c-2.46-1.69-5.11-3.09-7.81-4.35l0,0c-2.26-1.06-4.56-2.03-6.86-3"/>
		</g>
	</g>
	<g id="Kategorier">
		<g id="Svensk_Mästare">
			<g id="Pokal_2017">
				<g id="LINE_1674_">
					<g id="XMLID_2_">
						<g>
							<path class="st0" d="M200.82,91.36c0.08,1.06,0.15,2.12,0.05,3.18c-0.13,1.65-0.64,3.26-1.19,4.85
								c-0.95,2.73-1.99,5.42-3.41,7.9c-1.4,2.46-3.18,4.74-4.96,7c-2.06,2.61-4.15,5.21-6.37,7.69c-2.27,2.56-4.7,4.99-7.04,7.46
								c-0.95,0.99-1.88,1.99-2.68,3.11c-0.82,1.14-1.48,2.4-1.83,3.75c-0.22,0.88-0.32,1.79-0.32,2.71c0,0.47,0.03,0.94,0.08,1.42
								c0.11,1.19,0.36,2.37,0.62,3.54c0.04,0.34,0.06,0.68,0,1c-0.11,0.46-0.45,0.86-0.89,1.14c-0.38,0.25-0.83,0.4-1.25,0.4
								c-0.22,0-0.43-0.04-0.62-0.14c-0.4-0.19-0.69-0.59-0.89-0.99c-0.46-0.89-0.57-1.85-0.59-2.82c0-0.11,0-0.21,0-0.32
								c0-1.24,0.13-2.48,0.32-3.69c0.17-1.14,0.37-2.25,0.6-3.37c0.93-1.43,1.83-2.87,2.67-4.35l0.01,0.01
								c0.79-0.82,1.59-1.65,2.39-2.46c1.42-1.48,2.84-2.91,4.18-4.45c1.06-1.2,2.05-2.45,3.15-3.6c1.36-1.46,2.9-2.79,4.05-4.39
								c0.99-1.37,1.69-2.94,2.12-4.59c0.34-1.32,0.51-2.69,0.55-4.02c0-0.16,0-0.32,0-0.48c0-0.84-0.03-1.67-0.12-2.56
								c-0.03-0.49-0.09-1-0.42-1.32c-0.09-0.12-0.2-0.2-0.34-0.27c-0.23-0.1-0.48-0.14-0.72-0.14c-0.28,0-0.56,0.04-0.85,0.09
								c-0.61,0.11-1.23,0.25-1.8,0.25c-0.31,0-0.61-0.05-0.89-0.16c-0.59-0.25-1.08-0.83-1.55-1.37c-0.37-0.42-0.76-0.79-1.14-1.17
								h-0.02c0-0.65-0.01-1.29-0.02-1.94l0.65-0.46l0.01,0.01c0.26,0.25,0.55,0.51,0.87,0.7c0.42,0.28,0.93,0.47,1.44,0.47
								c0.15,0,0.31-0.02,0.45-0.05c0.62-0.14,1.19-0.64,1.45-1.23c0.14-0.31,0.2-0.64,0.2-0.98c0-0.32-0.05-0.65-0.14-0.97
								c-0.19-0.78-0.59-1.48-0.82-2.24c-0.2-0.64-0.28-1.32-0.28-2.01c0-0.7,0.08-1.42,0.23-2.11c0.3-1.48,0.83-2.88,1.62-4.17
								c0.72-1.19,1.63-2.28,2.83-2.93c0.83-0.44,1.77-0.65,2.75-0.65c0.16,0,0.32,0.01,0.48,0.02c0.91,0.08,1.8,0.34,2.56,0.83
								c1.06,0.72,1.82,1.92,2.23,3.15c0.38,1.05,0.52,2.17,0.63,3.27c0.4,0.46,0.8,0.89,1.15,1.37
								C200.32,90.62,200.57,90.98,200.82,91.36z M196.26,93.52c0.02-0.25,0.03-0.5,0.03-0.75c0-0.82-0.08-1.65-0.15-2.5
								c-0.09-0.96-0.17-1.93-0.54-2.82c-0.34-0.87-0.93-1.69-1.77-2.16c-0.48-0.26-1.05-0.42-1.61-0.42c-0.25,0-0.48,0.03-0.71,0.1
								c-0.62,0.2-1.15,0.7-1.53,1.27c-0.65,0.97-0.83,2.16-0.97,3.32c-0.14,1.02-0.23,2.02-0.32,3.02
								c0.43,0.21,0.86,0.44,1.17,0.78c0.2,0.2,0.35,0.45,0.48,0.72c0.08,0.32,0.14,0.64,0.17,0.96c0.04,0.36,0.07,0.73,0.07,1.1
								c0,0.42-0.03,0.85-0.1,1.26c-0.09,0.48-0.23,0.93-0.37,1.38c0.04,0.23,0.1,0.45,0.15,0.68c0.15,0.61,0.37,1.17,0.61,1.74
								c0.13,0.31,0.28,0.61,0.36,0.93c0.06,0.2,0.08,0.42,0.09,0.6c0,0.32-0.03,0.63-0.09,0.93c0.39,0.07,0.77,0.14,1.15,0.14
								c0.04,0,0.08,0,0.12,0c0.37-0.02,0.72-0.14,1.09-0.25c0-0.13,0.01-0.25,0.01-0.38c0-0.06,0-0.13-0.01-0.19
								c0-0.16-0.01-0.32-0.01-0.48c0-0.32,0.03-0.65,0.14-0.94c0.06-0.15,0.14-0.32,0.21-0.48c0.08-0.23,0.11-0.47,0.11-0.71
								c0-0.44-0.1-0.9-0.17-1.35c-0.08-0.65-0.11-1.25-0.15-1.86c0.32-0.09,0.66-0.2,0.97-0.34c0.38-0.15,0.74-0.38,1.1-0.6
								C195.98,95.34,196.19,94.43,196.26,93.52z"/>
							<polygon class="st0" points="183.39,97.08 182.35,97.79 181.7,98.25 142.37,98.25 103.02,98.25 102.38,97.8 101.36,97.08 
								142.37,97.08 							"/>
							<path class="st0" d="M181.72,100.19c0.02,1.49,0.01,2.99-0.08,4.47c-0.18,2.94-0.64,5.87-1.33,8.75
								c-0.7,2.88-1.63,5.7-2.73,8.44c-1.17,2.86-2.55,5.63-4.07,8.31c-0.13,0.23-0.25,0.45-0.39,0.67
								c-0.84,1.48-1.73,2.92-2.67,4.35c-0.62,0.96-1.26,1.9-1.91,2.85c-1.61,2.29-3.32,4.53-5.37,6.34
								c-2.63,2.29-5.83,3.88-9.05,5.45h-11.75h-11.76c-3.2-1.57-6.42-3.16-9.04-5.45c-2.06-1.82-3.75-4.05-5.36-6.34
								c-0.65-0.94-1.3-1.89-1.92-2.85c-0.94-1.43-1.83-2.87-2.68-4.34c-0.14-0.22-0.26-0.45-0.39-0.68
								c-1.52-2.68-2.88-5.45-4.05-8.31c-1.1-2.74-2.04-5.56-2.73-8.44c-0.7-2.88-1.16-5.81-1.33-8.75
								c-0.09-1.48-0.1-2.97-0.08-4.47c0-0.65,0-1.29,0.01-1.94h39.35h39.33C181.71,98.9,181.72,99.54,181.72,100.19z"/>
							<polygon class="st0" points="174.33,216.84 174.33,220.37 142.37,220.37 110.41,220.37 110.41,216.84 142.37,216.84 							
								"/>
							<polygon class="st2" points="174.33,216.84 142.37,216.84 110.41,216.84 110.75,216.5 112.17,216.5 142.37,216.5 
								172.57,216.5 173.97,216.5 							"/>
							<polygon class="st0" points="172.57,204.76 172.57,216.5 142.37,216.5 112.17,216.5 112.17,204.76 142.37,204.76 							"/>
							<polygon class="st2" points="172.57,204.76 142.37,204.76 112.17,204.76 112.57,204.34 121.1,204.34 142.37,204.34 
								163.64,204.34 172.15,204.34 							"/>
							<polygon class="st0" points="163.23,202.54 163.64,204.34 142.37,204.34 121.1,204.34 121.51,202.54 142.37,202.54 							
								"/>
							<polygon class="st0" points="163.23,197.77 163.23,202.54 142.37,202.54 121.51,202.54 121.51,197.77 142.37,197.77 							
								"/>
							<path class="st0" d="M163.23,197.77h-20.86h-20.86c0-1.23,0-2.46,0.26-3.63c0.29-1.31,0.87-2.56,1.61-3.66
								c1.31-1.91,3.13-3.39,4.82-5c1.97-1.87,3.79-3.96,5.05-6.34c0.66-1.21,1.15-2.5,1.66-3.79h7.45h7.43
								c0.51,1.29,1.02,2.57,1.66,3.79c1.28,2.39,3.11,4.48,5.08,6.34c1.68,1.61,3.48,3.09,4.79,5c0.76,1.1,1.34,2.35,1.63,3.66
								C163.23,195.3,163.23,196.54,163.23,197.77z"/>
							<path class="st0" d="M154.77,165.4c0,0.35-0.03,0.7-0.07,1.05c-0.13,1.17-0.48,2.31-1.11,3.22c-0.86,1.17-2.2,1.91-3.57,2.68
								h-7.65h-7.65c-1.37-0.76-2.71-1.5-3.56-2.68c-0.65-0.91-1.01-2.05-1.14-3.22c-0.04-0.33-0.06-0.66-0.06-0.99
								c0-0.99,0.19-1.97,0.65-2.84c0.59-1.14,1.63-2.08,2.82-2.51c0.57-0.2,1.17-0.29,1.78-0.37h7.16h7.14
								c0.6,0.08,1.23,0.17,1.8,0.37c1.2,0.43,2.23,1.38,2.82,2.51C154.58,163.47,154.77,164.43,154.77,165.4z"/>
							<path class="st0" d="M154.12,149.82c0.06,0.95,0.11,1.89-0.17,2.69c-0.22,0.61-0.63,1.12-1.14,1.6s-1.12,0.9-1.74,1.34h-8.7
								h-8.7c-0.62-0.44-1.23-0.87-1.74-1.34s-0.92-0.99-1.14-1.6c-0.28-0.8-0.25-1.74-0.19-2.69h11.76H154.12z"/>
							<path class="st0" d="M142.37,155.45h8.7c-0.02,0.59-0.04,1.17-0.19,1.74c-0.23,0.91-0.8,1.74-1.37,2.56h-7.14h-7.16
								c-0.55-0.82-1.12-1.65-1.35-2.56c-0.14-0.57-0.17-1.15-0.19-1.74H142.37z"/>
							<path class="st0" d="M150.02,172.35c0.21,0.45,0.44,0.91,0.44,1.34c0,0.55-0.32,1.1-0.66,1.65h-7.43h-7.45
								c-0.31-0.54-0.64-1.05-0.64-1.59c0-0.02,0-0.04,0-0.06c0-0.43,0.2-0.89,0.43-1.34h7.65H150.02z"/>
							<path class="st0" d="M115.21,142.11c0,0.15,0,0.31-0.01,0.46c-0.02,0.97-0.11,1.93-0.57,2.82c-0.2,0.4-0.49,0.8-0.88,0.99
								c-0.2,0.09-0.41,0.14-0.64,0.14c-0.42,0-0.87-0.15-1.24-0.4c-0.44-0.28-0.78-0.68-0.89-1.14c-0.08-0.32-0.04-0.66,0-1
								c0.25-1.17,0.51-2.35,0.63-3.54c0.04-0.47,0.07-0.93,0.07-1.39c0-0.93-0.09-1.84-0.34-2.73c-0.34-1.35-1-2.62-1.82-3.75
								c-0.8-1.12-1.72-2.12-2.67-3.11c-2.37-2.48-4.78-4.91-7.05-7.46c-2.22-2.48-4.31-5.08-6.39-7.69c-1.78-2.26-3.54-4.54-4.96-7
								c-1.4-2.48-2.45-5.17-3.4-7.9c-0.54-1.59-1.06-3.2-1.19-4.85c-0.09-1.06-0.02-2.12,0.03-3.18c0.26-0.37,0.51-0.74,0.8-1.1
								c0.36-0.48,0.76-0.91,1.14-1.37c0.13-1.1,0.26-2.22,0.62-3.27c0.44-1.23,1.2-2.43,2.26-3.15c0.74-0.49,1.65-0.76,2.56-0.83
								c0.16-0.01,0.32-0.02,0.48-0.02c0.96,0,1.93,0.2,2.75,0.65c1.2,0.65,2.11,1.74,2.83,2.93c0.77,1.29,1.32,2.69,1.63,4.17
								c0.14,0.69,0.23,1.4,0.23,2.1s-0.08,1.39-0.29,2.03c-0.23,0.76-0.63,1.46-0.83,2.24c-0.08,0.32-0.13,0.66-0.13,1
								c0,0.32,0.05,0.65,0.18,0.94c0.29,0.59,0.86,1.09,1.48,1.23c0.14,0.03,0.3,0.05,0.45,0.05c0.5,0,1.01-0.19,1.44-0.47
								c0.32-0.19,0.59-0.45,0.87-0.7l0.65,0.45C103,98.91,103,99.55,103,100.2h-0.03c-0.37,0.38-0.75,0.76-1.12,1.17
								c-0.48,0.54-0.97,1.12-1.57,1.37c-0.28,0.11-0.58,0.16-0.88,0.16c-0.57,0-1.18-0.14-1.79-0.25c-0.3-0.05-0.59-0.09-0.86-0.09
								c-0.25,0-0.49,0.04-0.71,0.14c-0.14,0.08-0.25,0.15-0.34,0.27c-0.32,0.32-0.38,0.83-0.42,1.32
								c-0.08,0.91-0.12,1.76-0.12,2.62c0,0.14,0,0.29,0,0.43c0.04,1.32,0.21,2.69,0.55,4.02c0.42,1.65,1.14,3.22,2.12,4.59
								c1.15,1.61,2.68,2.93,4.05,4.39c1.09,1.15,2.09,2.4,3.15,3.6c1.32,1.54,2.76,2.97,4.19,4.45c0.79,0.82,1.59,1.65,2.37,2.46
								c0.85,1.47,1.74,2.91,2.68,4.34c0.21,1.12,0.44,2.23,0.61,3.37C115.07,139.72,115.21,140.92,115.21,142.11z M96.05,92.59
								c-0.09-1-0.19-2-0.32-3.02c-0.15-1.16-0.32-2.35-0.97-3.32c-0.37-0.57-0.91-1.06-1.55-1.27c-0.23-0.07-0.47-0.1-0.71-0.1
								c-0.54,0-1.11,0.16-1.6,0.42c-0.83,0.47-1.42,1.28-1.77,2.16c-0.34,0.89-0.44,1.86-0.52,2.82c-0.08,0.82-0.15,1.63-0.15,2.43
								c0,0.27,0.01,0.54,0.03,0.82c0.08,0.91,0.28,1.82,0.49,2.71c0.36,0.22,0.7,0.45,1.1,0.6c0.31,0.14,0.63,0.25,0.97,0.34
								c-0.03,0.61-0.08,1.21-0.17,1.86c-0.06,0.44-0.15,0.9-0.15,1.34c0,0.25,0.03,0.49,0.11,0.72c0.06,0.15,0.15,0.32,0.21,0.48
								c0.1,0.3,0.13,0.6,0.13,0.92c0,0.17-0.01,0.34-0.02,0.5c0,0.19,0,0.38,0,0.57c0.37,0.11,0.74,0.23,1.1,0.25
								c0.04,0,0.08,0,0.12,0c0.37,0,0.76-0.07,1.13-0.14c-0.04-0.3-0.08-0.6-0.08-0.93c0-0.19,0.03-0.4,0.08-0.6
								c0.09-0.32,0.23-0.63,0.38-0.93c0.25-0.57,0.45-1.13,0.6-1.74c0.06-0.23,0.09-0.45,0.15-0.68c-0.14-0.46-0.26-0.91-0.37-1.38
								c-0.08-0.4-0.11-0.82-0.11-1.25c0-0.37,0.03-0.74,0.08-1.1c0.03-0.32,0.09-0.64,0.15-0.96c0.15-0.27,0.3-0.52,0.49-0.72
								C95.18,93.03,95.62,92.8,96.05,92.59z"/>
						</g>
						<g>
							<path class="st3" d="M103.02,98.25c-0.01,0.65-0.01,1.29-0.01,1.94c-0.02,1.49-0.01,2.99,0.08,4.47
								c0.17,2.94,0.64,5.87,1.33,8.75c0.7,2.88,1.63,5.7,2.73,8.44c1.17,2.86,2.53,5.63,4.05,8.31c0.13,0.23,0.25,0.46,0.39,0.68
								c0.85,1.47,1.74,2.91,2.68,4.34c0.62,0.96,1.27,1.9,1.92,2.85c1.61,2.29,3.3,4.53,5.36,6.34c2.62,2.29,5.83,3.88,9.04,5.45"
								/>
							<line class="st3" x1="130.61" y1="149.82" x2="142.37" y2="149.82"/>
							<line class="st3" x1="133.67" y1="155.45" x2="142.37" y2="155.45"/>
							<line class="st3" x1="135.21" y1="159.75" x2="142.37" y2="159.75"/>
							<line class="st3" x1="134.72" y1="172.35" x2="142.37" y2="172.35"/>
							<line class="st3" x1="134.92" y1="175.34" x2="142.37" y2="175.34"/>
							<line class="st3" x1="103.02" y1="98.25" x2="142.37" y2="98.25"/>
							<polyline class="st3" points="103.02,98.25 102.38,97.8 101.36,97.08 							"/>
							<path class="st3" d="M181.7,98.25c0.01,0.65,0.02,1.29,0.02,1.94c0.02,1.49,0.01,2.99-0.08,4.47
								c-0.18,2.94-0.64,5.87-1.33,8.75c-0.7,2.88-1.63,5.7-2.73,8.44c-1.17,2.86-2.55,5.63-4.07,8.31
								c-0.13,0.23-0.25,0.45-0.39,0.67c-0.84,1.48-1.73,2.92-2.67,4.35c-0.62,0.96-1.26,1.9-1.91,2.85
								c-1.61,2.29-3.32,4.53-5.37,6.34c-2.63,2.29-5.83,3.88-9.05,5.45"/>
							<line class="st3" x1="154.12" y1="149.82" x2="142.37" y2="149.82"/>
							<line class="st3" x1="151.07" y1="155.45" x2="142.37" y2="155.45"/>
							<line class="st3" x1="149.51" y1="159.75" x2="142.37" y2="159.75"/>
							<line class="st3" x1="150.02" y1="172.35" x2="142.37" y2="172.35"/>
							<line class="st3" x1="149.8" y1="175.34" x2="142.37" y2="175.34"/>
							<line class="st3" x1="181.7" y1="98.25" x2="142.37" y2="98.25"/>
							<polyline class="st3" points="181.7,98.25 182.35,97.79 183.39,97.08 							"/>
						</g>
					</g>
				</g>
				<g id="Etta">
					<g id="LINE_263_">
						<g id="XMLID_11_">
							<g>
								<polygon class="st2" points="150.26,140.98 150.26,146.61 134.34,146.61 134.34,140.98 137.24,140.98 137.24,118.78 
									134.34,121.15 134.34,112.28 147.03,101.93 147.36,102.17 147.36,140.98 								"/>
							</g>
							<g>
								<line class="st4" x1="137.24" y1="140.98" x2="134.34" y2="140.98"/>
								<line class="st4" x1="134.34" y1="140.98" x2="134.34" y2="146.61"/>
								<line class="st4" x1="147.36" y1="140.98" x2="150.26" y2="140.98"/>
								<line class="st4" x1="150.26" y1="140.98" x2="150.26" y2="146.61"/>
								<line class="st4" x1="150.26" y1="146.61" x2="134.34" y2="146.61"/>
								<line class="st4" x1="134.34" y1="121.15" x2="134.34" y2="112.28"/>
								<line class="st4" x1="147.03" y1="101.93" x2="134.34" y2="112.28"/>
								<line class="st4" x1="137.24" y1="118.78" x2="134.34" y2="121.15"/>
								<line class="st4" x1="147.03" y1="101.93" x2="147.36" y2="102.17"/>
								<line class="st4" x1="137.24" y1="118.78" x2="137.24" y2="140.98"/>
								<line class="st4" x1="147.36" y1="140.98" x2="147.36" y2="102.17"/>
							</g>
						</g>
					</g>
				</g>
				<g id="Jokerhatt">
					<g id="LINE_2625_">
						<g id="XMLID_3_">
							<g>
								<path class="st2" d="M214.11,82.86c0,0.24-0.01,0.49-0.04,0.73c-0.18,0.71-0.36,1.43-0.67,2.07
									c-0.2-0.7-0.64-1.34-1.11-1.93c-0.5-0.62-1.03-1.18-1.63-1.66c-0.69-0.53-1.46-0.95-2.26-1.34c0.2-0.52-0.11-1.14-0.69-1.4
									c-0.58-0.25-1.21-0.04-1.41,0.48c-0.21,0.52,0.1,1.14,0.68,1.4c0.41,0.2,0.96,0.12,1.23-0.19c0.63,0.59,1.25,1.18,1.87,1.79
									c0.57,0.56,1.12,1.12,1.51,1.78c0.42,0.72,0.65,1.55,0.85,2.38c-1.06,0.66-2.12,1.27-3.29,1.44
									c-0.24,0.03-0.48,0.05-0.73,0.05c-0.63,0-1.27-0.1-1.88-0.26c-0.8-0.21-1.56-0.52-2.31-0.86c0.13-0.43-0.22-1.03-0.77-1.35
									s-1.1-0.23-1.22,0.2c-0.13,0.42,0.22,1.03,0.77,1.35c0.37,0.22,0.83,0.25,1.05,0.06c0.64,0.55,1.31,1.06,2.09,1.39
									c0.72,0.32,1.52,0.49,2.31,0.49c0.11,0,0.21,0,0.31-0.01c0.53-0.03,1.04-0.15,1.55-0.32c-0.99,0.53-2.11,0.82-3.31,0.82
									c-3.92,0-7.1-3.18-7.1-7.11c0-1.05,0.23-2.05,0.65-2.95c0.19-0.44,0.43-0.86,0.73-1.24c1.28-1.77,3.37-2.91,5.72-2.91
									C210.93,75.76,214.11,78.94,214.11,82.86z"/>
								<path class="st0" d="M213.4,85.66c0.31-0.64,0.49-1.36,0.67-2.07c-0.24,2.42-1.7,4.47-3.75,5.56
									c-0.51,0.17-1.02,0.29-1.55,0.32c-0.1,0.01-0.2,0.01-0.31,0.01c-0.79,0-1.59-0.17-2.31-0.49c-0.78-0.33-1.45-0.84-2.09-1.39
									c-0.22,0.19-0.68,0.16-1.05-0.06c-0.55-0.32-0.9-0.93-0.77-1.35c0.12-0.43,0.67-0.52,1.22-0.2s0.9,0.92,0.77,1.35
									c0.75,0.34,1.51,0.65,2.31,0.86c0.61,0.16,1.25,0.26,1.88,0.26c0.25,0,0.49-0.02,0.73-0.05c1.17-0.17,2.23-0.78,3.29-1.44
									c-0.2-0.83-0.43-1.66-0.85-2.38c-0.39-0.66-0.94-1.22-1.51-1.78c-0.62-0.61-1.24-1.2-1.87-1.79
									c-0.27,0.31-0.82,0.39-1.23,0.19c-0.58-0.26-0.89-0.88-0.68-1.4c0.2-0.52,0.83-0.73,1.41-0.48c0.58,0.26,0.89,0.88,0.69,1.4
									c0.8,0.39,1.57,0.81,2.26,1.34c0.6,0.48,1.13,1.04,1.63,1.66C212.76,84.32,213.2,84.96,213.4,85.66z"/>
								<path class="st0" d="M205.87,38.38c0.17,0.58,0.25,1.2,0.25,1.84c0,1.78-0.65,3.41-1.74,4.65c0.38-0.59,0.77-1.19,1.02-1.82
									c-0.65,0.32-1.42,0.43-2.18,0.48c-0.28,0.02-0.56,0.03-0.85,0.03c-0.49,0-0.99-0.03-1.47-0.11
									c-0.86-0.15-1.69-0.43-2.51-0.77c-0.17,0.38-0.67,0.62-1.13,0.55c-0.62-0.07-1.1-0.59-1.06-1.14
									c0.04-0.56,0.58-0.95,1.21-0.88c0.63,0.08,1.1,0.59,1.06,1.14c0.86,0.07,1.72,0.13,2.59,0.17c0.33,0.02,0.66,0.03,0.99,0.03
									c0.45,0,0.9-0.03,1.34-0.12c0.81-0.17,1.57-0.57,2.33-0.98c-0.23-1.22-0.51-2.42-1.17-3.4c-0.48-0.7-1.17-1.3-1.91-1.78
									c-0.69-0.45-1.44-0.8-2.19-1.12c-0.14,0.27-0.61,0.45-1.05,0.42c-0.64-0.02-1.19-0.38-1.23-0.81
									c-0.03-0.43,0.47-0.75,1.12-0.73c0.64,0.03,1.2,0.39,1.23,0.82c0.84,0.1,1.67,0.26,2.44,0.6c0.81,0.36,1.56,0.92,2.12,1.61
									C205.4,37.46,205.66,37.9,205.87,38.38z"/>
								<path class="st2" d="M205.87,38.38c-0.21-0.48-0.47-0.92-0.79-1.32c-0.56-0.69-1.31-1.25-2.12-1.61
									c-0.77-0.34-1.6-0.5-2.44-0.6c-0.03-0.43-0.59-0.79-1.23-0.82c-0.65-0.02-1.15,0.3-1.12,0.73c0.04,0.43,0.59,0.79,1.23,0.81
									c0.44,0.03,0.91-0.15,1.05-0.42c0.75,0.32,1.5,0.67,2.19,1.12c0.74,0.48,1.43,1.08,1.91,1.78c0.66,0.98,0.94,2.18,1.17,3.4
									c-0.76,0.41-1.52,0.81-2.33,0.98c-0.44,0.09-0.89,0.12-1.34,0.12c-0.33,0-0.66-0.01-0.99-0.03
									c-0.87-0.04-1.73-0.1-2.59-0.17c0.04-0.55-0.43-1.06-1.06-1.14c-0.63-0.07-1.17,0.32-1.21,0.88
									c-0.04,0.55,0.44,1.07,1.06,1.14c0.46,0.07,0.96-0.17,1.13-0.55c0.82,0.34,1.65,0.62,2.51,0.77
									c0.48,0.08,0.98,0.11,1.47,0.11c0.29,0,0.57-0.01,0.85-0.03c0.76-0.05,1.53-0.16,2.18-0.48c-0.25,0.63-0.64,1.23-1.02,1.82
									c-1.29,1.51-3.21,2.46-5.36,2.46c-3.92,0-7.1-3.19-7.1-7.11c0-0.55,0.06-1.09,0.19-1.6c0.1-0.48,0.26-0.93,0.46-1.36
									c1.12-2.44,3.59-4.14,6.45-4.14C202.31,33.12,205.07,35.35,205.87,38.38z"/>
								<path class="st0" d="M201.28,78.66L201.28,78.66c-0.29,0.39-0.53,0.81-0.72,1.25h-0.01c-1.99-0.49-3.98-0.97-5.7-1.69
									c-1.71-0.71-3.15-1.65-4.02-3.04c-0.71-1.12-1.05-2.53-1.4-3.99c-0.34-1.46-0.67-2.96-1.37-4.26
									c-0.72-1.36-1.84-2.5-3.16-3.36s-2.84-1.45-4.4-1.7c-0.63-0.1-1.26-0.15-1.89-0.15c-2.11,0-4.19,0.56-5.97,1.57
									c-1.52,0.85-2.82,2.01-4.07,3.24s-2.47,2.52-3.8,3.63c-2.7,2.23-5.91,3.72-9.13,5.21c4.51-5.14,5.27-8.94,5.27-12.19
									c0-1.38-0.14-2.67-0.18-3.91c-0.1-2.8,0.29-5.4,1.15-8.04c0.87-0.29,1.4-0.45,1.95-0.58c1.8-0.45,3.77-0.67,5.81-0.67
									c9.42,0,20.28,4.61,22.66,11.69c0.7,2.11,0.66,4.44,0.69,6.63c0.02,2.2,0.12,4.24,1.11,5.79
									C195.68,76.56,199.55,77.75,201.28,78.66z"/>
								<path class="st2" d="M194.85,78.22c1.72,0.72,3.71,1.2,5.7,1.69c-8.97-1.56-12-2.87-13.71-6.15
									c-0.42-0.81-0.76-1.74-1.25-2.68s-1.14-1.9-2.17-2.77c-0.72-0.6-1.62-1.16-2.53-1.58c-0.92-0.41-1.85-0.68-2.63-0.69
									c-0.02,0-0.04,0-0.06,0c-4.23,0-3.91,7.54-2.18,14.79h-33.76c2.21-3.45,4.42-6.9,6.51-10.45c1.22-2.07,2.4-4.17,3.41-6.35
									c1.01-2.18,1.84-4.44,2.36-6.82c0.5-2.28,0.71-4.67,1.08-6.98c0.36-2.3,0.87-4.51,1.97-6.44c1.18-2.07,3.03-3.8,5.2-5.16
									c2.17-1.35,4.67-2.33,7.15-2.88c1.81-0.4,3.61-0.58,5.4-0.58c5.64,0,11.21,1.73,16.77,3.45c-8.6-0.98-16.93-1.36-23.17,3.01
									c-1.54,1.08-2.95,2.45-4.16,4.06c-1.2,1.61-2.2,3.47-2.9,5.54c-0.86,2.64-1.25,5.24-1.15,8.04
									c0.04,1.24,0.18,2.53,0.18,3.91c0,3.25-0.76,7.05-5.27,12.19c3.22-1.49,6.43-2.98,9.13-5.21c1.33-1.11,2.55-2.4,3.8-3.63
									c1.25-1.23,2.55-2.39,4.07-3.24c1.78-1.01,3.86-1.57,5.97-1.57c0.63,0,1.26,0.05,1.89,0.15c1.56,0.25,3.08,0.84,4.4,1.7
									c1.32,0.86,2.44,2,3.16,3.36c0.7,1.3,1.03,2.8,1.37,4.26c0.35,1.46,0.69,2.87,1.4,3.99
									C191.7,76.57,193.14,77.51,194.85,78.22z"/>
								<path class="st0" d="M192.57,37.26c-0.2,0.43-0.36,0.88-0.46,1.36c-5.56-1.72-11.13-3.45-16.77-3.45
									c-1.79,0-3.59,0.18-5.4,0.58c-2.48,0.55-4.98,1.53-7.15,2.88c-2.17,1.36-4.02,3.09-5.2,5.16c-1.1,1.93-1.61,4.14-1.97,6.44
									c-0.37,2.31-0.58,4.7-1.08,6.98c-0.52,2.38-1.35,4.64-2.36,6.82s-2.19,4.28-3.41,6.35c-2.09,3.55-4.3,7-6.51,10.45h-33.84
									V80.8c1.55-1.84,2.57-3.69,3.28-5.68c0.72-1.99,1.12-4.12,1.42-6.55c0.23-1.83,0.41-3.83,0.41-5.72
									c0-3.61-0.64-6.85-2.76-7.83c-0.51-0.24-1.12-0.34-1.78-0.34c-2.06,0-4.71,1.02-7.07,2.19c-7.29,3.62-11.91,8.71-16.1,14.02
									c1.78-3.62,3.54-7.25,5.95-10.41c1.53-2,3.31-3.81,5.39-5.3c2.07-1.5,4.43-2.67,7.12-3.4c1.71-0.46,3.55-0.75,5.3-0.75
									c2.28,0,4.41,0.49,5.85,1.7c1.55,1.3,2.32,3.43,2.96,5.74s1.15,4.81,2.2,6.86c1.04,2.03,2.6,3.61,4.41,4.96
									c1.82,1.36,3.9,2.49,5.97,3.63c-4.88-5.65-4.57-16.9-0.94-26.32c0.29-0.74,0.6-1.47,0.94-2.17
									c2.71-5.73,6.75-10.17,11.39-13.34c4.65-3.16,9.92-5.04,15.08-5.62C169.51,25.13,181.06,30.89,192.57,37.26z"/>
								<path class="st0" d="M180.62,86.74l-2.53,2.54l-1.26-2.53l1.26-2.53L180.62,86.74z M178.38,85.51c0-0.11-0.09-0.2-0.2-0.2
									s-0.2,0.09-0.2,0.2s0.09,0.2,0.2,0.2C178.29,85.71,178.38,85.62,178.38,85.51z"/>
								<path class="st2" d="M178.18,85.31c0.11,0,0.2,0.09,0.2,0.2s-0.09,0.2-0.2,0.2s-0.2-0.09-0.2-0.2
									C177.98,85.4,178.07,85.31,178.18,85.31z"/>
								<path class="st2" d="M177.97,80.83c0.73,0,1.31,0.6,1.31,1.32c0,0.73-0.58,1.32-1.31,1.32h-0.01h-9h-18.21h-8.49h-8.48
									h-18.22h-9h-0.01c-0.72,0-1.32-0.59-1.32-1.32c0-0.72,0.6-1.32,1.32-1.32h1.87h33.84h33.76H177.97z"/>
								<path class="st2" d="M177.97,90.02c0.73,0,1.31,0.59,1.31,1.32s-0.58,1.32-1.31,1.32h-71.42c-0.72,0-1.32-0.59-1.32-1.32
									s0.6-1.32,1.32-1.32h8.9c0.04,0.01,0.07,0.01,0.11,0.01s0.08,0,0.11-0.01h18.11h8.48h8.37c0.03,0.01,0.07,0.01,0.11,0.01
									s0.08,0,0.11-0.01h17.75c0.12,0.03,0.24,0.04,0.36,0.04s0.24-0.01,0.36-0.04H177.97z"/>
								<path class="st2" d="M176.33,86.75l1.64,3.27h-8.65c0.73-0.16,1.28-0.81,1.28-1.6c0-0.91-0.74-1.64-1.64-1.64
									c0.91,0,1.64-0.73,1.64-1.64s-0.73-1.64-1.64-1.64v-0.03h9h0.01v0.01L176.33,86.75z"/>
								<path class="st2" d="M168.96,83.68c0.81,0,1.47,0.65,1.47,1.46s-0.66,1.46-1.47,1.46c-0.8,0-1.46-0.65-1.46-1.46
									S168.16,83.68,168.96,83.68z"/>
								<path class="st2" d="M168.96,86.95c0.8,0,1.46,0.66,1.46,1.47s-0.66,1.46-1.46,1.46c-0.81,0-1.46-0.65-1.46-1.46
									S168.15,86.95,168.96,86.95z"/>
								<path class="st2" d="M168.96,83.47v0.03c-0.9,0-1.64,0.73-1.64,1.64s0.74,1.64,1.64,1.64c-0.9,0-1.64,0.73-1.64,1.64
									c0,0.79,0.55,1.44,1.28,1.6h-17.75c0.86-0.05,1.53-0.76,1.53-1.63c0-0.9-0.72-1.63-1.63-1.64c0.9,0,1.64-0.73,1.64-1.63
									c0-0.91-0.74-1.64-1.64-1.64v-0.01H168.96z M165.42,86.77c0-1.15-0.93-2.08-2.08-2.08l-6.92-0.01
									c-1.15,0-2.08,0.93-2.08,2.08s0.92,2.08,2.08,2.08l6.92,0.01C164.49,88.85,165.42,87.92,165.42,86.77z"/>
								<path class="st0" d="M163.34,85.13c0.91,0,1.64,0.74,1.64,1.64c0,0.91-0.74,1.64-1.64,1.64l-6.92-0.01
									c-0.91,0-1.64-0.73-1.64-1.64c0-0.9,0.73-1.64,1.64-1.63H163.34z"/>
								<path class="st2" d="M150.75,83.65c0.8,0,1.46,0.66,1.46,1.47c0,0.8-0.66,1.45-1.46,1.45c-0.81,0-1.47-0.65-1.47-1.45
									C149.28,84.31,149.94,83.65,150.75,83.65z"/>
								<path class="st2" d="M150.74,86.93c0.81,0,1.47,0.66,1.47,1.46c0,0.81-0.66,1.47-1.47,1.47s-1.46-0.66-1.46-1.47
									C149.28,87.59,149.93,86.93,150.74,86.93z"/>
								<path class="st2" d="M150.75,83.47L150.75,83.47c-0.91,0.01-1.64,0.74-1.64,1.65c0,0.9,0.72,1.62,1.63,1.63
									c-0.91,0-1.64,0.74-1.64,1.64c0,0.87,0.67,1.58,1.53,1.63h-8.37l3.28-3.27l-3.28-3.28H150.75z"/>
								<path class="st0" d="M142.26,84.09l2.65,2.66l-2.65,2.65l-2.65-2.66L142.26,84.09z M141.57,85.76c0-0.11-0.09-0.2-0.2-0.2
									s-0.2,0.09-0.2,0.2s0.09,0.19,0.2,0.19S141.57,85.87,141.57,85.76z"/>
								<path class="st2" d="M142.26,83.47l-3.28,3.27l3.28,3.28h-8.48c0.91,0,1.64-0.73,1.64-1.64c0-0.9-0.73-1.64-1.64-1.64
									c0.91,0,1.64-0.73,1.64-1.64c0-0.9-0.73-1.63-1.64-1.63H142.26z"/>
								<path class="st2" d="M141.37,85.56c0.11,0,0.2,0.09,0.2,0.2s-0.09,0.19-0.2,0.19s-0.2-0.08-0.2-0.19
									C141.17,85.65,141.26,85.56,141.37,85.56z"/>
								<circle class="st2" cx="133.78" cy="85.1" r="1.46"/>
								<path class="st2" d="M133.78,86.92c0.81,0,1.46,0.66,1.46,1.46c0,0.81-0.65,1.47-1.46,1.47s-1.46-0.66-1.46-1.47
									C132.32,87.58,132.97,86.92,133.78,86.92z"/>
								<path class="st2" d="M115.56,83.47h18.22c-0.9,0-1.64,0.73-1.64,1.63c0,0.91,0.74,1.64,1.64,1.64
									c-0.9,0-1.64,0.74-1.64,1.64c0,0.91,0.74,1.64,1.64,1.64h-18.11c0.86-0.05,1.53-0.77,1.53-1.63c0-0.91-0.73-1.64-1.64-1.64
									c0.91,0,1.64-0.74,1.64-1.64C117.2,84.2,116.47,83.47,115.56,83.47z M130.19,86.74c0-1.14-0.93-2.08-2.08-2.08h-6.92
									c-1.15,0-2.09,0.94-2.09,2.08c0,1.16,0.94,2.09,2.09,2.09h6.92C129.26,88.83,130.19,87.9,130.19,86.74z"/>
								<path class="st0" d="M128.11,85.1c0.9,0,1.64,0.74,1.64,1.64c0,0.91-0.74,1.64-1.64,1.64h-6.92c-0.91,0-1.64-0.73-1.64-1.64
									c0-0.9,0.73-1.64,1.64-1.64H128.11z"/>
								<path class="st2" d="M130.03,47.6c-3.63,9.42-3.94,20.67,0.94,26.32c-2.07-1.14-4.15-2.27-5.97-3.63
									c-1.81-1.35-3.37-2.93-4.41-4.96c-1.05-2.05-1.56-4.55-2.2-6.86s-1.41-4.44-2.96-5.74c-1.44-1.21-3.57-1.7-5.85-1.7
									c-1.75,0-3.59,0.29-5.3,0.75c-2.69,0.73-5.05,1.9-7.12,3.4c-2.08,1.49-3.86,3.3-5.39,5.3c-2.41,3.16-4.17,6.79-5.95,10.41
									l-0.01,0.01c-0.37-0.41-0.81-0.78-1.29-1.09c3.69-13.76,8.48-21.92,16.59-27.03c1.95-1.23,4.11-2.28,6.28-3.06
									c2.18-0.77,4.38-1.26,6.43-1.35c0.24-0.01,0.48-0.02,0.72-0.02C119.94,38.35,124.38,41.18,130.03,47.6z"/>
								<path class="st2" d="M115.56,83.65c0.81,0,1.47,0.65,1.47,1.46s-0.66,1.46-1.47,1.46c-0.8,0-1.46-0.65-1.46-1.46
									S114.76,83.65,115.56,83.65z"/>
								<path class="st2" d="M115.56,86.92c0.81,0,1.47,0.66,1.47,1.47s-0.66,1.46-1.47,1.46c-0.8,0-1.46-0.65-1.46-1.46
									S114.76,86.92,115.56,86.92z"/>
								<path class="st2" d="M106.56,83.47h9c-0.9,0-1.63,0.73-1.63,1.64c0,0.9,0.73,1.64,1.63,1.64c-0.9,0-1.63,0.73-1.63,1.64
									c0,0.86,0.67,1.58,1.52,1.63h-8.9l1.64-3.27L106.56,83.47L106.56,83.47L106.56,83.47z"/>
								<path class="st0" d="M106.43,84.22l1.27,2.53l-1.27,2.53l-2.53-2.54L106.43,84.22z M105.69,85.94c0-0.11-0.09-0.2-0.2-0.2
									s-0.2,0.09-0.2,0.2s0.09,0.2,0.2,0.2S105.69,86.05,105.69,85.94z"/>
								<path class="st2" d="M105.49,85.74c0.11,0,0.2,0.09,0.2,0.2s-0.09,0.2-0.2,0.2s-0.2-0.09-0.2-0.2
									C105.29,85.83,105.38,85.74,105.49,85.74z"/>
								<path class="st2" d="M84.52,69.81c0.48,0.31,0.92,0.68,1.29,1.09c1.21,1.28,1.95,2.99,1.95,4.88c0,3.92-3.18,7.1-7.1,7.1
									c-0.56,0-1.1-0.06-1.62-0.19c0.16,0.01,0.33,0.02,0.49,0.02c0.37,0,0.73-0.03,1.09-0.11c0.87-0.17,1.72-0.56,2.42-1.11
									c0.66-0.52,1.19-1.18,1.67-1.88c0.39,0.17,0.97-0.14,1.29-0.71c0.33-0.56,0.27-1.15-0.12-1.32s-0.97,0.15-1.29,0.71
									c-0.23,0.37-0.28,0.87-0.12,1.12c-0.63,0.51-1.29,1.01-2.01,1.41c-0.77,0.43-1.62,0.76-2.47,0.86
									c-0.18,0.02-0.37,0.03-0.55,0.03c-1,0-1.99-0.28-3-0.59c0-0.15,0-0.3,0-0.44c0-0.71,0.03-1.42,0.22-2.08
									c0.21-0.74,0.6-1.42,1.01-2.1c0.45-0.75,0.9-1.48,1.36-2.21c0.48,0.3,1.15,0.11,1.51-0.41c0.36-0.52,0.27-1.18-0.21-1.48
									c-0.47-0.29-1.15-0.11-1.51,0.41c-0.27,0.38-0.29,0.93-0.04,1.25c-0.68,0.57-1.32,1.18-1.85,1.87
									c-0.46,0.61-0.83,1.29-1.16,2.01c-0.31,0.69-0.58,1.42-0.59,2.15c-0.45-0.52-0.79-1.14-1.14-1.77
									c-0.32-0.79-0.48-1.65-0.48-2.54c0-3.93,3.17-7.11,7.1-7.11C82.08,68.67,83.41,69.09,84.52,69.81z"/>
								<path class="st0" d="M85.88,77.58c0.39,0.17,0.45,0.76,0.12,1.32c-0.32,0.57-0.9,0.88-1.29,0.71
									c-0.48,0.7-1.01,1.36-1.67,1.88c-0.7,0.55-1.55,0.94-2.42,1.11c-0.36,0.08-0.72,0.11-1.09,0.11c-0.16,0-0.33-0.01-0.49-0.02
									c-2.31-0.54-4.18-2.2-5-4.37c0.35,0.63,0.69,1.25,1.14,1.77c0.01-0.73,0.28-1.46,0.59-2.15c0.33-0.72,0.7-1.4,1.16-2.01
									c0.53-0.69,1.17-1.3,1.85-1.87c-0.25-0.32-0.23-0.87,0.04-1.25c0.36-0.52,1.04-0.7,1.51-0.41c0.48,0.3,0.57,0.96,0.21,1.48
									c-0.36,0.52-1.03,0.71-1.51,0.41c-0.46,0.73-0.91,1.46-1.36,2.21c-0.41,0.68-0.8,1.36-1.01,2.1
									c-0.19,0.66-0.22,1.37-0.22,2.08c0,0.14,0,0.29,0,0.44c1.01,0.31,2,0.59,3,0.59c0.18,0,0.37-0.01,0.55-0.03
									c0.85-0.1,1.7-0.43,2.47-0.86c0.72-0.4,1.38-0.9,2.01-1.41c-0.16-0.25-0.11-0.75,0.12-1.12
									C84.91,77.73,85.49,77.41,85.88,77.58z"/>
							</g>
							<g>
								<polyline class="st5" points="106.55,90.02 115.45,90.02 115.67,90.02 133.78,90.02 142.26,90.02 150.63,90.02 
									150.85,90.02 168.6,90.02 169.32,90.02 177.97,90.02 								"/>
								<polyline class="st5" points="106.56,83.47 115.56,83.47 133.78,83.47 142.26,83.47 150.75,83.47 168.96,83.47 
									177.96,83.47 								"/>
								<polyline class="st5" points="106.55,80.83 108.42,80.83 142.26,80.83 176.02,80.83 177.97,80.83 								"/>
								<path class="st5" d="M106.55,80.83c-0.72,0-1.32,0.6-1.32,1.32c0,0.73,0.6,1.32,1.32,1.32"/>
								<path class="st5" d="M106.55,90.02c-0.72,0-1.32,0.59-1.32,1.32s0.6,1.32,1.32,1.32"/>
								<path class="st5" d="M177.97,83.47c0.73,0,1.31-0.59,1.31-1.32c0-0.72-0.58-1.32-1.31-1.32"/>
								<path class="st5" d="M177.97,92.66c0.73,0,1.31-0.59,1.31-1.32s-0.58-1.32-1.31-1.32"/>
								<line class="st5" x1="139.61" y1="86.74" x2="142.26" y2="84.09"/>
								<line class="st5" x1="142.26" y1="84.09" x2="144.91" y2="86.75"/>
								<line class="st5" x1="144.91" y1="86.75" x2="142.26" y2="89.4"/>
								<line class="st5" x1="142.26" y1="89.4" x2="139.61" y2="86.74"/>
								<line class="st5" x1="106.55" y1="83.47" x2="106.56" y2="83.47"/>
								<line class="st5" x1="106.22" y1="83.8" x2="106.55" y2="83.48"/>
								<line class="st5" x1="106.55" y1="90.02" x2="106.22" y2="89.7"/>
								<polyline class="st5" points="106.55,83.47 106.55,83.48 108.19,86.75 								"/>
								<polyline class="st5" points="106.22,83.8 106.43,84.22 107.7,86.75 								"/>
								<line class="st5" x1="108.19" y1="86.75" x2="106.55" y2="90.02"/>
								<polyline class="st5" points="107.7,86.75 106.43,89.28 106.22,89.7 								"/>
								<path class="st5" d="M115.56,86.75c0.91,0,1.64-0.74,1.64-1.64c0-0.91-0.73-1.64-1.64-1.64c-0.9,0-1.63,0.73-1.63,1.64
									C113.93,86.01,114.66,86.75,115.56,86.75z"/>
								<path class="st5" d="M117.03,85.11c0-0.81-0.66-1.46-1.47-1.46c-0.8,0-1.46,0.65-1.46,1.46s0.66,1.46,1.46,1.46
									C116.37,86.57,117.03,85.92,117.03,85.11z"/>
								<path class="st5" d="M115.67,90.02c0.86-0.05,1.53-0.77,1.53-1.63c0-0.91-0.73-1.64-1.64-1.64c-0.9,0-1.63,0.73-1.63,1.64
									c0,0.86,0.67,1.58,1.52,1.63c0.04,0.01,0.07,0.01,0.11,0.01S115.64,90.03,115.67,90.02z"/>
								<path class="st5" d="M117.03,88.39c0-0.81-0.66-1.47-1.47-1.47c-0.8,0-1.46,0.66-1.46,1.47s0.66,1.46,1.46,1.46
									C116.37,89.85,117.03,89.2,117.03,88.39z"/>
								<path class="st5" d="M133.78,86.74c0.91,0,1.64-0.73,1.64-1.64c0-0.9-0.73-1.63-1.64-1.63c-0.9,0-1.64,0.73-1.64,1.63
									C132.14,86.01,132.88,86.74,133.78,86.74z"/>
								<circle class="st5" cx="133.78" cy="85.1" r="1.46"/>
								<circle class="st5" cx="133.78" cy="88.38" r="1.64"/>
								<path class="st5" d="M135.24,88.38c0-0.8-0.65-1.46-1.46-1.46s-1.46,0.66-1.46,1.46c0,0.81,0.65,1.47,1.46,1.47
									S135.24,89.19,135.24,88.38z"/>
								<path class="st5" d="M121.19,85.1c-0.91,0-1.64,0.74-1.64,1.64c0,0.91,0.73,1.64,1.64,1.64"/>
								<path class="st5" d="M128.11,88.38c0.9,0,1.64-0.73,1.64-1.64c0-0.9-0.74-1.64-1.64-1.64"/>
								<line class="st5" x1="121.19" y1="85.1" x2="128.11" y2="85.1"/>
								<line class="st5" x1="128.11" y1="88.38" x2="121.19" y2="88.38"/>
								<path class="st5" d="M214.07,83.59c0.03-0.24,0.04-0.49,0.04-0.73c0-3.92-3.18-7.1-7.1-7.1c-2.35,0-4.44,1.14-5.72,2.91
									c-0.3,0.38-0.54,0.8-0.73,1.24c-0.42,0.9-0.65,1.9-0.65,2.95c0,3.93,3.18,7.11,7.1,7.11c1.2,0,2.32-0.29,3.31-0.82
									C212.37,88.06,213.83,86.01,214.07,83.59z"/>
								<path class="st5" d="M79.04,82.69c0.52,0.13,1.06,0.19,1.62,0.19c3.92,0,7.1-3.18,7.1-7.1c0-1.89-0.74-3.6-1.95-4.88
									c-0.37-0.41-0.81-0.78-1.29-1.09c-1.11-0.72-2.44-1.14-3.86-1.14c-3.93,0-7.1,3.18-7.1,7.11c0,0.89,0.16,1.75,0.48,2.54
									C74.86,80.49,76.73,82.15,79.04,82.69z"/>
								<path class="st5" d="M204.38,44.87c1.09-1.24,1.74-2.87,1.74-4.65c0-0.64-0.08-1.26-0.25-1.84
									c-0.8-3.03-3.56-5.26-6.85-5.26c-2.86,0-5.33,1.7-6.45,4.14c-0.2,0.43-0.36,0.88-0.46,1.36c-0.13,0.51-0.19,1.05-0.19,1.6
									c0,3.92,3.18,7.11,7.1,7.11C201.17,47.33,203.09,46.38,204.38,44.87z"/>
								<path class="st5" d="M192.57,37.26c-11.51-6.37-23.06-12.13-35.13-10.79c-5.16,0.58-10.43,2.46-15.08,5.62
									c-4.64,3.17-8.68,7.61-11.39,13.34c-0.34,0.7-0.65,1.43-0.94,2.17"/>
								<path class="st5" d="M130.03,47.6c-3.63,9.42-3.94,20.67,0.94,26.32"/>
								<path class="st5" d="M192.11,38.62c-8.6-0.98-16.93-1.36-23.17,3.01c-1.54,1.08-2.95,2.45-4.16,4.06
									c-1.2,1.61-2.2,3.47-2.9,5.54"/>
								<path class="st5" d="M161.88,51.23c-0.86,2.64-1.25,5.24-1.15,8.04c0.04,1.24,0.18,2.53,0.18,3.91
									c0,3.25-0.76,7.05-5.27,12.19"/>
								<path class="st5" d="M84.52,69.82v-0.01c3.69-13.76,8.48-21.92,16.59-27.03c1.95-1.23,4.11-2.28,6.28-3.06
									c2.18-0.77,4.38-1.26,6.43-1.35c0.24-0.01,0.48-0.02,0.72-0.02c5.4,0,9.84,2.83,15.49,9.25"/>
								<path class="st5" d="M201.28,78.66c-1.73-0.91-5.6-2.1-7.18-4.57c-0.99-1.55-1.09-3.59-1.11-5.79
									c-0.03-2.19,0.01-4.52-0.69-6.63c-2.38-7.08-13.24-11.69-22.66-11.69c-2.04,0-4.01,0.22-5.81,0.67
									c-0.55,0.13-1.08,0.29-1.95,0.58"/>
								<path class="st5" d="M200.55,79.91c-8.97-1.56-12-2.87-13.71-6.15c-0.42-0.81-0.76-1.74-1.25-2.68s-1.14-1.9-2.17-2.77
									c-0.72-0.6-1.62-1.16-2.53-1.58c-0.92-0.41-1.85-0.68-2.63-0.69c-0.02,0-0.04,0-0.06,0c-4.23,0-3.91,7.54-2.18,14.79"/>
								<path class="st5" d="M85.82,70.89c4.19-5.31,8.81-10.4,16.1-14.02c2.36-1.17,5.01-2.19,7.07-2.19c0.66,0,1.27,0.1,1.78,0.34
									c2.12,0.98,2.76,4.22,2.76,7.83c0,1.89-0.18,3.89-0.41,5.72c-0.3,2.43-0.7,4.56-1.42,6.55c-0.71,1.99-1.73,3.84-3.28,5.68"
									/>
								<path class="st5" d="M78.78,74.06c-0.68,0.57-1.32,1.18-1.85,1.87c-0.46,0.61-0.83,1.29-1.16,2.01
									c-0.31,0.69-0.58,1.42-0.59,2.15"/>
								<path class="st5" d="M79.03,74.29c-0.46,0.73-0.91,1.46-1.36,2.21c-0.41,0.68-0.8,1.36-1.01,2.1
									c-0.19,0.66-0.22,1.37-0.22,2.08c0,0.14,0,0.29,0,0.44"/>
								<path class="st5" d="M84.71,79.61c-0.48,0.7-1.01,1.36-1.67,1.88c-0.7,0.55-1.55,0.94-2.42,1.11
									c-0.36,0.08-0.72,0.11-1.09,0.11c-0.16,0-0.33-0.01-0.49-0.02"/>
								<path class="st5" d="M84.47,79.41c-0.63,0.51-1.29,1.01-2.01,1.41c-0.77,0.43-1.62,0.76-2.47,0.86
									c-0.18,0.02-0.37,0.03-0.55,0.03c-1,0-1.99-0.28-3-0.59"/>
								<path class="st5" d="M75.18,80.09c-0.45-0.52-0.79-1.14-1.14-1.77c-0.01-0.02-0.03-0.05-0.04-0.07"/>
								<path class="st5" d="M78.78,74.06c-0.25-0.32-0.23-0.87,0.04-1.25c0.36-0.52,1.04-0.7,1.51-0.41
									c0.48,0.3,0.57,0.96,0.21,1.48c-0.36,0.52-1.03,0.71-1.51,0.41"/>
								<path class="st5" d="M84.47,79.41c-0.16-0.25-0.11-0.75,0.12-1.12c0.32-0.56,0.9-0.88,1.29-0.71s0.45,0.76,0.12,1.32
									c-0.32,0.57-0.9,0.88-1.29,0.71"/>
								<path class="st5" d="M208.4,80.73c0.8,0.39,1.57,0.81,2.26,1.34c0.6,0.48,1.13,1.04,1.63,1.66
									c0.47,0.59,0.91,1.23,1.11,1.93"/>
								<path class="st5" d="M208.21,81.02c0.63,0.59,1.25,1.18,1.87,1.79c0.57,0.56,1.12,1.12,1.51,1.78
									c0.42,0.72,0.65,1.55,0.85,2.38"/>
								<path class="st5" d="M204.06,87.6c0.64,0.55,1.31,1.06,2.09,1.39c0.72,0.32,1.52,0.49,2.31,0.49c0.11,0,0.21,0,0.31-0.01
									c0.53-0.03,1.04-0.15,1.55-0.32"/>
								<path class="st5" d="M204.23,87.34c0.75,0.34,1.51,0.65,2.31,0.86c0.61,0.16,1.25,0.26,1.88,0.26
									c0.25,0,0.49-0.02,0.73-0.05c1.17-0.17,2.23-0.78,3.29-1.44"/>
								<path class="st5" d="M213.4,85.66c0.31-0.64,0.49-1.36,0.67-2.07"/>
								<path class="st5" d="M208.4,80.73c0.2-0.52-0.11-1.14-0.69-1.4c-0.58-0.25-1.21-0.04-1.41,0.48
									c-0.21,0.52,0.1,1.14,0.68,1.4c0.41,0.2,0.96,0.12,1.23-0.19"/>
								<path class="st5" d="M204.23,87.34c0.13-0.43-0.22-1.03-0.77-1.35s-1.1-0.23-1.22,0.2c-0.13,0.42,0.22,1.03,0.77,1.35
									c0.37,0.22,0.83,0.25,1.05,0.06"/>
								<path class="st5" d="M198.39,42.68c0.82,0.34,1.65,0.62,2.51,0.77c0.48,0.08,0.98,0.11,1.47,0.11
									c0.29,0,0.57-0.01,0.85-0.03c0.76-0.05,1.53-0.16,2.18-0.48"/>
								<path class="st5" d="M198.47,42.35c0.86,0.07,1.72,0.13,2.59,0.17c0.33,0.02,0.66,0.03,0.99,0.03c0.45,0,0.9-0.03,1.34-0.12
									c0.81-0.17,1.57-0.57,2.33-0.98"/>
								<path class="st5" d="M200.52,34.85c0.84,0.1,1.67,0.26,2.44,0.6c0.81,0.36,1.56,0.92,2.12,1.61
									c0.32,0.4,0.58,0.84,0.79,1.32c0.01,0.01,0.01,0.03,0.02,0.04"/>
								<path class="st5" d="M200.45,35.15c0.75,0.32,1.5,0.67,2.19,1.12c0.74,0.48,1.43,1.08,1.91,1.78
									c0.66,0.98,0.94,2.18,1.17,3.4"/>
								<path class="st5" d="M205.4,43.05c-0.25,0.63-0.64,1.23-1.02,1.82c-0.02,0.03-0.03,0.05-0.05,0.08"/>
								<path class="st5" d="M198.39,42.68c-0.17,0.38-0.67,0.62-1.13,0.55c-0.62-0.07-1.1-0.59-1.06-1.14
									c0.04-0.56,0.58-0.95,1.21-0.88c0.63,0.08,1.1,0.59,1.06,1.14"/>
								<path class="st5" d="M200.45,35.15c-0.14,0.27-0.61,0.45-1.05,0.42c-0.64-0.02-1.19-0.38-1.23-0.81
									c-0.03-0.43,0.47-0.75,1.12-0.73c0.64,0.03,1.2,0.39,1.23,0.82"/>
								<path class="st5" d="M85.82,70.89c1.78-3.62,3.54-7.25,5.95-10.41c1.53-2,3.31-3.81,5.39-5.3c2.07-1.5,4.43-2.67,7.12-3.4
									c1.71-0.46,3.55-0.75,5.3-0.75c2.28,0,4.41,0.49,5.85,1.7c1.55,1.3,2.32,3.43,2.96,5.74s1.15,4.81,2.2,6.86
									c1.04,2.03,2.6,3.61,4.41,4.96c1.82,1.36,3.9,2.49,5.97,3.63"/>
								<path class="st5" d="M142.26,80.83c2.21-3.45,4.42-6.9,6.51-10.45c1.22-2.07,2.4-4.17,3.41-6.35
									c1.01-2.18,1.84-4.44,2.36-6.82c0.5-2.28,0.71-4.67,1.08-6.98c0.36-2.3,0.87-4.51,1.97-6.44c1.18-2.07,3.03-3.8,5.2-5.16
									c2.17-1.35,4.67-2.33,7.15-2.88c1.81-0.4,3.61-0.58,5.4-0.58c5.64,0,11.21,1.73,16.77,3.45"/>
								<path class="st5" d="M155.64,75.37c3.22-1.49,6.43-2.98,9.13-5.21c1.33-1.11,2.55-2.4,3.8-3.63
									c1.25-1.23,2.55-2.39,4.07-3.24c1.78-1.01,3.86-1.57,5.97-1.57c0.63,0,1.26,0.05,1.89,0.15c1.56,0.25,3.08,0.84,4.4,1.7
									c1.32,0.86,2.44,2,3.16,3.36c0.7,1.3,1.03,2.8,1.37,4.26c0.35,1.46,0.69,2.87,1.4,3.99c0.87,1.39,2.31,2.33,4.02,3.04
									c1.72,0.72,3.71,1.2,5.7,1.69"/>
								<circle class="st5" cx="168.96" cy="85.14" r="1.64"/>
								<path class="st5" d="M170.43,85.14c0-0.81-0.66-1.46-1.47-1.46c-0.8,0-1.46,0.65-1.46,1.46s0.66,1.46,1.46,1.46
									C169.77,86.6,170.43,85.95,170.43,85.14z"/>
								<path class="st5" d="M169.32,90.02c0.73-0.16,1.28-0.81,1.28-1.6c0-0.91-0.74-1.64-1.64-1.64s-1.64,0.73-1.64,1.64
									c0,0.79,0.55,1.44,1.28,1.6c0.12,0.03,0.24,0.04,0.36,0.04S169.2,90.05,169.32,90.02z"/>
								<path class="st5" d="M170.42,88.42c0-0.81-0.66-1.47-1.46-1.47c-0.81,0-1.46,0.66-1.46,1.47s0.65,1.46,1.46,1.46
									C169.76,89.88,170.42,89.23,170.42,88.42z"/>
								<path class="st5" d="M150.75,86.75c0.9,0,1.64-0.73,1.64-1.63c0-0.91-0.74-1.64-1.64-1.64c-0.91,0-1.64,0.73-1.64,1.64
									C149.11,86.02,149.83,86.74,150.75,86.75"/>
								<path class="st5" d="M152.21,85.12c0-0.81-0.66-1.47-1.46-1.47c-0.81,0-1.47,0.66-1.47,1.47c0,0.8,0.66,1.45,1.47,1.45
									C151.55,86.57,152.21,85.92,152.21,85.12z"/>
								<path class="st5" d="M150.85,90.02c0.86-0.05,1.53-0.76,1.53-1.63c0-0.9-0.72-1.63-1.63-1.64h-0.01
									c-0.91,0-1.64,0.74-1.64,1.64c0,0.87,0.67,1.58,1.53,1.63c0.03,0.01,0.07,0.01,0.11,0.01S150.82,90.03,150.85,90.02z"/>
								<path class="st5" d="M152.21,88.39c0-0.8-0.66-1.46-1.47-1.46s-1.46,0.66-1.46,1.46c0,0.81,0.65,1.47,1.46,1.47
									C151.55,89.86,152.21,89.2,152.21,88.39z"/>
								<path class="st5" d="M163.34,88.41c0.9,0,1.64-0.73,1.64-1.64c0-0.9-0.73-1.64-1.64-1.64"/>
								<path class="st5" d="M156.42,85.13c-0.91-0.01-1.64,0.73-1.64,1.63c0,0.91,0.73,1.64,1.64,1.64"/>
								<line class="st5" x1="163.34" y1="85.13" x2="156.42" y2="85.13"/>
								<line class="st5" x1="156.42" y1="88.4" x2="163.34" y2="88.41"/>
								<line class="st5" x1="177.97" y1="83.47" x2="177.96" y2="83.47"/>
								<line class="st5" x1="178.3" y1="83.8" x2="177.97" y2="83.48"/>
								<line class="st5" x1="177.97" y1="90.02" x2="178.3" y2="89.7"/>
								<polyline class="st5" points="177.97,83.47 177.97,83.48 176.33,86.75 								"/>
								<polyline class="st5" points="178.3,83.8 178.09,84.22 176.83,86.75 								"/>
								<line class="st5" x1="176.33" y1="86.75" x2="177.97" y2="90.02"/>
								<polyline class="st5" points="176.83,86.75 178.09,89.28 178.3,89.7 								"/>
								<line class="st5" x1="106.55" y1="92.66" x2="177.97" y2="92.66"/>
							</g>
						</g>
					</g>
				</g>
			</g>
		</g>
	</g>
</g>
</svg>
