<?xml version="1.0" encoding="utf-8"?>
<!-- Generator: Adobe Illustrator 26.1.0, SVG Export Plug-In . SVG Version: 6.00 Build 0)  -->
<svg version="1.1" id="Lager_1" xmlns="http://www.w3.org/2000/svg" xmlns:xlink="http://www.w3.org/1999/xlink" x="0px" y="0px"
	 viewBox="0 0 283.46 283.46" style="enable-background:new 0 0 283.46 283.46;" xml:space="preserve">
<style type="text/css">
	.st0{fill:#1E2676;}
	.st1{fill:none;}
	.st2{fill:#1E2676;stroke:#FFFFFF;stroke-width:2;stroke-linecap:round;stroke-linejoin:round;}
	.st3{fill:none;stroke:#FFFFFF;stroke-width:2;stroke-linecap:round;stroke-linejoin:round;}
	.st4{fill:#FFFFFF;}
</style>
<g id="Priser_2024">
	<g id="Olivkvist">
		<g id="SPLINE_3555_">
			<path class="st0" d="M130.12,249.38c-0.19-2.53-0.38-5.05-1.1-7.44l0,0c-1-3.29-2.99-6.32-5.5-8.74l0,0
				c-2.45-2.37-5.4-4.14-8.5-5.5l0,0c-2.74-1.19-5.6-2.06-8.5-2.79l0,0c-2.41-0.61-4.86-1.13-7.3-1.65"/>
		</g>
		<g id="LINE_2308_">
			<line class="st1" x1="99.23" y1="223.26" x2="130.12" y2="249.38"/>
		</g>
		<g id="SPLINE_3556_">
			<path class="st0" d="M130.12,249.38c-2.52,0.23-5.04,0.47-7.53,0.16l0,0c-3.4-0.44-6.73-1.9-9.53-3.97l0,0
				c-2.74-2.03-4.98-4.63-6.83-7.47l0,0c-1.63-2.5-2.96-5.18-4.17-7.91l0,0c-1.01-2.29-1.92-4.6-2.84-6.92"/>
		</g>
		<g id="SPLINE_3557_">
			<path class="st0" d="M133.81,258.16c-2.14-1.36-4.27-2.72-6.62-3.57l0,0c-3.22-1.17-6.86-1.39-10.29-0.83l0,0
				c-3.37,0.55-6.55,1.85-9.49,3.52l0,0c-2.6,1.48-5.01,3.25-7.32,5.13l0,0c-1.94,1.57-3.81,3.22-5.69,4.86"/>
		</g>
		<g id="LINE_2309_">
			<line class="st1" x1="94.4" y1="267.27" x2="133.81" y2="258.16"/>
		</g>
		<g id="SPLINE_3558_">
			<path class="st0" d="M133.81,258.16c-1.32,2.15-2.64,4.32-4.38,6.11l0,0c-2.38,2.47-5.55,4.26-8.89,5.26l0,0
				c-3.27,0.98-6.69,1.21-10.07,1l0,0c-2.98-0.2-5.92-0.73-8.83-1.4l0,0c-2.43-0.57-4.84-1.22-7.24-1.87"/>
		</g>
		<g id="SPLINE_3559_">
			<path class="st0" d="M93.26,241.45c1.15-2.25,2.29-4.52,2.91-6.94l0,0c0.85-3.32,0.72-6.95-0.18-10.33l0,0
				c-0.87-3.29-2.47-6.33-4.43-9.09l0,0c-1.73-2.44-3.72-4.66-5.82-6.79l0,0c-1.75-1.78-3.57-3.48-5.39-5.19"/>
		</g>
		<g id="LINE_2310_">
			<line class="st1" x1="80.35" y1="203.12" x2="93.26" y2="241.45"/>
		</g>
		<g id="SPLINE_3560_">
			<path class="st0" d="M93.26,241.45c-2.28-1.11-4.56-2.21-6.52-3.76l0,0c-2.69-2.13-4.77-5.11-6.1-8.33l0,0
				c-1.3-3.15-1.86-6.54-1.98-9.92l0,0c-0.1-2.98,0.14-5.97,0.53-8.93l0,0c0.33-2.47,0.74-4.93,1.16-7.39"/>
		</g>
		<g id="SPLINE_3561_">
			<path class="st0" d="M106.98,249.85c-2.02-1.52-4.04-3.05-6.32-4.09l0,0c-3.12-1.42-6.73-1.93-10.2-1.64l0,0
				c-3.4,0.29-6.67,1.33-9.73,2.76l0,0c-2.71,1.27-5.25,2.85-7.71,4.54l0,0c-2.06,1.41-4.06,2.9-6.05,4.39"/>
		</g>
		<g id="LINE_2311_">
			<line class="st1" x1="66.97" y1="255.81" x2="106.98" y2="249.85"/>
		</g>
		<g id="SPLINE_3562_">
			<path class="st0" d="M106.98,249.85c-1.49,2.04-2.97,4.1-4.85,5.75l0,0c-2.57,2.27-5.87,3.8-9.28,4.54l0,0
				c-3.33,0.73-6.77,0.68-10.12,0.21l0,0c-2.96-0.43-5.85-1.2-8.7-2.1l0,0c-2.38-0.75-4.73-1.6-7.07-2.43"/>
		</g>
		<g id="SPLINE_3563_">
			<path class="st0" d="M67.07,227.46c1.76-1.81,3.53-3.62,4.86-5.75l0,0c1.81-2.91,2.77-6.43,2.93-9.9l0,0
				c0.16-3.41-0.46-6.79-1.49-10.01l0,0c-0.91-2.85-2.15-5.57-3.52-8.22l0,0c-1.14-2.22-2.36-4.39-3.59-6.57"/>
		</g>
		<g id="LINE_2312_">
			<line class="st1" x1="66.27" y1="187.01" x2="67.07" y2="227.46"/>
		</g>
		<g id="SPLINE_3564_">
			<path class="st0" d="M67.07,227.46c-1.84-1.75-3.68-3.48-5.08-5.55l0,0c-1.93-2.85-3.02-6.31-3.32-9.78l0,0
				c-0.29-3.4,0.19-6.8,1.09-10.06l0,0c0.79-2.88,1.93-5.65,3.18-8.36l0,0c1.05-2.26,2.19-4.48,3.32-6.7"/>
		</g>
		<g id="SPLINE_3565_">
			<path class="st0" d="M82.13,240.58c-1.54-2.01-3.07-4.02-4.99-5.63l0,0c-2.62-2.21-5.96-3.66-9.38-4.32l0,0
				c-3.35-0.64-6.78-0.51-10.12,0.05l0,0c-2.95,0.5-5.82,1.33-8.65,2.3l0,0c-2.36,0.81-4.69,1.71-7.01,2.62"/>
		</g>
		<g id="LINE_2313_">
			<line class="st1" x1="41.99" y1="235.59" x2="82.13" y2="240.58"/>
		</g>
		<g id="SPLINE_3566_">
			<path class="st0" d="M82.13,240.58c-1.98,1.58-3.96,3.14-6.21,4.23l0,0c-3.09,1.5-6.68,2.1-10.16,1.89l0,0
				c-3.4-0.2-6.7-1.16-9.8-2.51l0,0c-2.73-1.21-5.32-2.72-7.82-4.35l0,0c-2.09-1.37-4.12-2.81-6.16-4.25"/>
		</g>
		<g id="SPLINE_3567_">
			<path class="st0" d="M47.61,209.85c2.12-1.38,4.24-2.76,6-4.54l0,0c2.41-2.45,4.11-5.66,5.03-9.02l0,0
				c0.89-3.29,1.04-6.72,0.73-10.09l0,0c-0.27-2.97-0.88-5.9-1.63-8.79l0,0c-0.62-2.42-1.35-4.8-2.06-7.19"/>
		</g>
		<g id="LINE_2314_">
			<line class="st1" x1="55.67" y1="170.21" x2="47.61" y2="209.85"/>
		</g>
		<g id="SPLINE_3568_">
			<path class="st0" d="M47.61,209.85c-1.41-2.1-2.83-4.2-3.75-6.52l0,0c-1.26-3.19-1.57-6.82-1.1-10.27l0,0
				c0.46-3.38,1.67-6.59,3.27-9.58l0,0c1.41-2.64,3.12-5.09,4.93-7.46l0,0c1.52-1.98,3.11-3.9,4.71-5.82"/>
		</g>
		<g id="SPLINE_3569_">
			<path class="st0" d="M60.39,225.74c-1.12-2.27-2.24-4.54-3.81-6.48l0,0c-2.15-2.67-5.15-4.74-8.38-6.04l0,0
				c-3.16-1.27-6.56-1.81-9.93-1.9l0,0c-2.99-0.08-5.97,0.19-8.93,0.6l0,0c-2.47,0.34-4.93,0.77-7.38,1.21"/>
		</g>
		<g id="LINE_2315_">
			<line class="st1" x1="21.96" y1="213.12" x2="60.39" y2="225.74"/>
		</g>
		<g id="SPLINE_3570_">
			<path class="st0" d="M60.39,225.74c-2.25,1.17-4.5,2.33-6.91,2.97l0,0c-3.32,0.87-6.95,0.76-10.32-0.1l0,0
				c-3.3-0.85-6.35-2.43-9.13-4.36l0,0c-2.45-1.71-4.69-3.69-6.83-5.77l0,0c-1.79-1.75-3.51-3.55-5.23-5.35"/>
		</g>
		<g id="SPLINE_3571_">
			<path class="st0" d="M42.55,207.28c-0.64-2.45-1.29-4.9-2.44-7.12l0,0c-1.58-3.05-4.09-5.67-7-7.59l0,0
				c-2.85-1.88-6.06-3.08-9.36-3.85l0,0c-2.92-0.68-5.89-1.01-8.87-1.2l0,0c-2.49-0.16-4.98-0.22-7.47-0.29"/>
		</g>
		<g id="LINE_2316_">
			<line class="st1" x1="7.42" y1="187.23" x2="42.55" y2="207.28"/>
		</g>
		<g id="SPLINE_3572_">
			<path class="st0" d="M42.55,207.28c-2.43,0.69-4.87,1.38-7.37,1.52l0,0c-3.42,0.19-6.97-0.64-10.09-2.16l0,0
				c-3.07-1.49-5.74-3.65-8.08-6.1l0,0c-2.06-2.16-3.86-4.55-5.55-7.02l0,0c-1.41-2.06-2.73-4.18-4.05-6.29"/>
		</g>
		<g id="SPLINE_3573_">
			<path class="st0" d="M35.19,186.19c-0.36-2.5-0.72-5.01-1.61-7.35l0,0c-1.22-3.21-3.42-6.1-6.09-8.34l0,0
				c-2.61-2.19-5.67-3.76-8.85-4.9l0,0c-2.81-1-5.73-1.67-8.67-2.21l0,0c-2.45-0.44-4.92-0.79-7.39-1.14"/>
		</g>
		<g id="LINE_2317_">
			<line class="st1" x1="2.59" y1="162.25" x2="35.19" y2="186.19"/>
		</g>
		<g id="SPLINE_3574_">
			<path class="st0" d="M35.19,186.19c-2.5,0.41-5,0.81-7.49,0.67l0,0c-3.42-0.2-6.85-1.43-9.78-3.3l0,0
				c-2.88-1.84-5.29-4.28-7.32-6.98l0,0c-1.8-2.39-3.31-4.97-4.7-7.61l0,0c-1.17-2.21-2.23-4.46-3.31-6.71"/>
		</g>
		<g id="SPLINE_3575_">
			<path class="st0" d="M27.29,164.92c0.61-2.46,1.22-4.91,1.29-7.41l0,0c0.09-3.43-0.85-6.94-2.47-10.02l0,0
				c-1.59-3.02-3.83-5.63-6.35-7.88l0,0c-2.23-2-4.67-3.72-7.19-5.32l0,0c-2.1-1.34-4.26-2.6-6.41-3.86"/>
		</g>
		<g id="LINE_2318_">
			<line class="st1" x1="6.15" y1="130.42" x2="27.29" y2="164.92"/>
		</g>
		<g id="SPLINE_3576_">
			<path class="st0" d="M27.29,164.92c-2.47-0.57-4.93-1.14-7.19-2.22l0,0c-3.09-1.48-5.79-3.92-7.8-6.76l0,0
				c-1.97-2.79-3.27-5.96-4.14-9.23l0,0c-0.77-2.89-1.19-5.85-1.48-8.82l0,0c-0.23-2.48-0.38-4.97-0.52-7.46"/>
		</g>
		<g id="SPLINE_3577_">
			<path class="st0" d="M37.79,181.54c2.22-1.21,4.45-2.42,6.33-4.06l0,0c2.59-2.25,4.54-5.32,5.72-8.6l0,0
				c1.15-3.21,1.56-6.62,1.53-10l0,0c-0.03-2.99-0.42-5.96-0.94-8.9l0,0c-0.43-2.46-0.96-4.9-1.48-7.33"/>
		</g>
		<g id="LINE_2319_">
			<line class="st1" x1="48.94" y1="142.66" x2="37.79" y2="181.54"/>
		</g>
		<g id="SPLINE_3578_">
			<path class="st0" d="M37.79,181.54c-1.25-2.2-2.49-4.41-3.22-6.8l0,0c-1-3.28-1.03-6.92-0.29-10.32l0,0
				c0.73-3.33,2.19-6.44,4.01-9.29l0,0c1.61-2.52,3.52-4.83,5.51-7.05l0,0c1.67-1.85,3.41-3.64,5.15-5.42"/>
		</g>
		<g id="SPLINE_3579_">
			<path class="st0" d="M30.84,151.58c2.44-0.68,4.88-1.36,7.08-2.53l0,0c3.03-1.62,5.62-4.17,7.49-7.11l0,0
				c1.84-2.87,3.01-6.1,3.72-9.41l0,0c0.64-2.92,0.93-5.9,1.08-8.88l0,0c0.13-2.49,0.16-4.98,0.19-7.48"/>
		</g>
		<g id="LINE_2320_">
			<line class="st1" x1="50.41" y1="116.18" x2="30.84" y2="151.58"/>
		</g>
		<g id="SPLINE_3580_">
			<path class="st0" d="M30.84,151.58c-0.72-2.42-1.44-4.85-1.62-7.34l0,0c-0.24-3.42,0.55-6.98,2.02-10.13l0,0
				c1.45-3.09,3.57-5.79,5.99-8.16l0,0c2.14-2.09,4.5-3.93,6.94-5.64l0,0c2.04-1.44,4.14-2.79,6.24-4.14"/>
		</g>
		<g id="SPLINE_3581_">
			<path class="st0" d="M25.88,136.6c1.4-2.11,2.81-4.22,3.7-6.55l0,0c1.23-3.2,1.52-6.83,1.02-10.27l0,0
				c-0.49-3.38-1.72-6.58-3.34-9.55l0,0c-1.43-2.63-3.16-5.07-4.99-7.42l0,0c-1.54-1.97-3.14-3.87-4.75-5.78"/>
		</g>
		<g id="LINE_2321_">
			<line class="st1" x1="17.53" y1="97.02" x2="25.88" y2="136.6"/>
		</g>
		<g id="SPLINE_3582_">
			<path class="st0" d="M25.88,136.6c-2.13-1.36-4.26-2.73-6.03-4.5l0,0c-2.42-2.43-4.15-5.63-5.09-8.98l0,0
				c-0.92-3.28-1.09-6.72-0.81-10.08l0,0c0.25-2.98,0.84-5.91,1.57-8.81l0,0c0.61-2.42,1.3-4.81,2-7.21"/>
		</g>
		<g id="SPLINE_3583_">
			<path class="st0" d="M33.86,106.47c1.84-1.74,3.67-3.49,5.06-5.56l0,0c1.91-2.85,3-6.32,3.28-9.79l0,0
				c0.28-3.4-0.21-6.8-1.13-10.05l0,0c-0.81-2.88-1.95-5.65-3.22-8.35l0,0c-1.05-2.26-2.2-4.48-3.34-6.69"/>
		</g>
		<g id="LINE_2322_">
			<line class="st1" x1="34.52" y1="66.02" x2="33.86" y2="106.47"/>
		</g>
		<g id="SPLINE_3584_">
			<path class="st0" d="M33.86,106.47c-1.78-1.8-3.55-3.61-4.88-5.73l0,0c-1.82-2.91-2.79-6.41-2.96-9.89l0,0
				c-0.16-3.41,0.44-6.79,1.46-10.01l0,0c0.91-2.85,2.14-5.58,3.48-8.24l0,0c1.13-2.22,2.35-4.4,3.57-6.58"/>
		</g>
		<g id="SPLINE_3585_">
			<path class="st0" d="M37.47,116.84c2.53,0.04,5.06,0.08,7.51-0.42l0,0c3.36-0.69,6.57-2.4,9.21-4.68l0,0
				c2.58-2.23,4.62-5,6.24-7.96l0,0c1.44-2.62,2.56-5.39,3.56-8.21l0,0c0.83-2.35,1.57-4.74,2.3-7.12"/>
		</g>
		<g id="LINE_2323_">
			<line class="st1" x1="66.29" y1="88.46" x2="37.47" y2="116.84"/>
		</g>
		<g id="SPLINE_3586_">
			<path class="st0" d="M37.47,116.84c0-2.53-0.01-5.06,0.53-7.5l0,0c0.74-3.35,2.51-6.53,4.82-9.13l0,0
				c2.27-2.55,5.07-4.54,8.06-6.12l0,0c2.64-1.4,5.43-2.48,8.26-3.43l0,0c2.36-0.79,4.76-1.5,7.15-2.2"/>
		</g>
		<g id="SPLINE_3587_">
			<path class="st0" d="M45.42,90.54c2.52-0.25,5.04-0.49,7.42-1.27l0,0c3.26-1.07,6.25-3.14,8.61-5.7l0,0
				c2.31-2.51,4.02-5.49,5.3-8.62l0,0c1.13-2.77,1.93-5.65,2.6-8.56l0,0c0.55-2.43,1.02-4.88,1.48-7.33"/>
		</g>
		<g id="LINE_2324_">
			<line class="st1" x1="70.81" y1="59.05" x2="45.42" y2="90.54"/>
		</g>
		<g id="SPLINE_3588_">
			<path class="st0" d="M45.42,90.54c-0.29-2.52-0.59-5.03-0.33-7.52l0,0c0.35-3.41,1.75-6.77,3.74-9.62l0,0
				c1.97-2.79,4.52-5.09,7.31-7l0,0c2.46-1.69,5.11-3.09,7.81-4.35l0,0c2.26-1.06,4.56-2.03,6.86-3"/>
		</g>
		<g id="CIRCLE_234_">
			<path class="st0" d="M148.23,254.6c0-2.99-2.43-5.42-5.42-5.42s-5.42,2.43-5.42,5.42c0,2.99,2.43,5.42,5.42,5.42
				S148.23,257.59,148.23,254.6L148.23,254.6L148.23,254.6z"/>
		</g>
		<g id="SPLINE_3589_">
			<path class="st0" d="M155.49,249.38c0.19-2.53,0.38-5.05,1.1-7.44l0,0c0.99-3.29,3-6.32,5.49-8.74l0,0
				c2.46-2.37,5.4-4.14,8.5-5.5l0,0c2.73-1.19,5.6-2.06,8.5-2.79l0,0c2.41-0.61,4.86-1.13,7.3-1.65"/>
		</g>
		<g id="LINE_2325_">
			<line class="st1" x1="186.38" y1="223.26" x2="155.49" y2="249.38"/>
		</g>
		<g id="SPLINE_3590_">
			<path class="st0" d="M155.49,249.38c2.52,0.23,5.04,0.47,7.52,0.16l0,0c3.41-0.44,6.73-1.9,9.53-3.97l0,0
				c2.75-2.03,4.98-4.63,6.83-7.47l0,0c1.63-2.5,2.97-5.18,4.17-7.91l0,0c1-2.29,1.92-4.6,2.84-6.92"/>
		</g>
		<g id="SPLINE_3591_">
			<path class="st0" d="M151.79,258.16c2.14-1.36,4.27-2.72,6.62-3.57l0,0c3.22-1.17,6.86-1.39,10.29-0.83l0,0
				c3.37,0.55,6.55,1.85,9.49,3.52l0,0c2.6,1.48,5.01,3.25,7.32,5.13l0,0c1.94,1.57,3.82,3.22,5.69,4.86"/>
		</g>
		<g id="LINE_2326_">
			<line class="st1" x1="191.21" y1="267.27" x2="151.79" y2="258.16"/>
		</g>
		<g id="SPLINE_3592_">
			<path class="st0" d="M151.79,258.16c1.32,2.15,2.64,4.32,4.38,6.11l0,0c2.38,2.47,5.55,4.26,8.89,5.26l0,0
				c3.26,0.98,6.69,1.21,10.06,1l0,0c2.99-0.2,5.93-0.73,8.83-1.4l0,0c2.43-0.57,4.84-1.22,7.25-1.87"/>
		</g>
		<g id="SPLINE_3593_">
			<path class="st0" d="M192.35,241.45c-1.15-2.25-2.29-4.52-2.91-6.94l0,0c-0.85-3.32-0.72-6.95,0.18-10.33l0,0
				c0.88-3.29,2.48-6.33,4.43-9.09l0,0c1.73-2.44,3.73-4.66,5.83-6.79l0,0c1.75-1.78,3.57-3.48,5.39-5.19"/>
		</g>
		<g id="LINE_2327_">
			<line class="st1" x1="205.26" y1="203.12" x2="192.35" y2="241.45"/>
		</g>
		<g id="SPLINE_3594_">
			<path class="st0" d="M192.35,241.45c2.28-1.11,4.55-2.21,6.51-3.76l0,0c2.69-2.13,4.78-5.11,6.11-8.33l0,0
				c1.29-3.15,1.86-6.54,1.98-9.92l0,0c0.1-2.98-0.15-5.97-0.54-8.93l0,0c-0.32-2.47-0.74-4.93-1.15-7.39"/>
		</g>
		<g id="SPLINE_3595_">
			<path class="st0" d="M178.63,249.85c2.02-1.52,4.04-3.05,6.31-4.09l0,0c3.12-1.42,6.73-1.93,10.2-1.64l0,0
				c3.4,0.29,6.67,1.33,9.74,2.76l0,0c2.7,1.27,5.25,2.85,7.71,4.54l0,0c2.06,1.41,4.06,2.9,6.05,4.39"/>
		</g>
		<g id="LINE_2328_">
			<line class="st1" x1="218.64" y1="255.81" x2="178.63" y2="249.85"/>
		</g>
		<g id="SPLINE_3596_">
			<path class="st0" d="M178.63,249.85c1.49,2.04,2.98,4.1,4.85,5.75l0,0c2.57,2.27,5.87,3.8,9.28,4.54l0,0
				c3.33,0.73,6.76,0.68,10.11,0.21l0,0c2.96-0.43,5.85-1.2,8.7-2.1l0,0c2.38-0.75,4.73-1.6,7.08-2.43"/>
		</g>
		<g id="SPLINE_3597_">
			<path class="st0" d="M218.54,227.46c-1.77-1.81-3.54-3.62-4.86-5.75l0,0c-1.81-2.91-2.77-6.43-2.93-9.9l0,0
				c-0.16-3.41,0.46-6.79,1.49-10.01l0,0c0.91-2.85,2.15-5.57,3.52-8.22l0,0c1.14-2.22,2.36-4.39,3.59-6.57"/>
		</g>
		<g id="LINE_2329_">
			<line class="st1" x1="219.34" y1="187.01" x2="218.54" y2="227.46"/>
		</g>
		<g id="SPLINE_3598_">
			<path class="st0" d="M218.54,227.46c1.84-1.75,3.68-3.48,5.08-5.55l0,0c1.93-2.85,3.02-6.31,3.32-9.78l0,0
				c0.29-3.4-0.19-6.8-1.09-10.06l0,0c-0.8-2.88-1.93-5.65-3.18-8.36l0,0c-1.05-2.26-2.19-4.48-3.32-6.7"/>
		</g>
		<g id="SPLINE_3599_">
			<path class="st0" d="M203.47,240.58c1.54-2.01,3.08-4.02,4.99-5.63l0,0c2.62-2.21,5.96-3.66,9.38-4.32l0,0
				c3.35-0.64,6.78-0.51,10.12,0.05l0,0c2.95,0.5,5.82,1.33,8.65,2.3l0,0c2.36,0.81,4.68,1.71,7.01,2.62"/>
		</g>
		<g id="LINE_2330_">
			<line class="st1" x1="243.62" y1="235.59" x2="203.47" y2="240.58"/>
		</g>
		<g id="SPLINE_3600_">
			<path class="st0" d="M203.47,240.58c1.99,1.58,3.96,3.14,6.22,4.23l0,0c3.08,1.5,6.68,2.1,10.15,1.89l0,0
				c3.41-0.2,6.71-1.16,9.8-2.51l0,0c2.73-1.21,5.31-2.72,7.81-4.35l0,0c2.1-1.37,4.13-2.81,6.17-4.25"/>
		</g>
		<g id="SPLINE_3601_">
			<path class="st0" d="M238,209.85c-2.12-1.38-4.25-2.76-6-4.54l0,0c-2.4-2.45-4.1-5.66-5.02-9.02l0,0
				c-0.9-3.29-1.04-6.72-0.74-10.09l0,0c0.27-2.97,0.89-5.9,1.63-8.79l0,0c0.62-2.42,1.34-4.8,2.06-7.19"/>
		</g>
		<g id="LINE_2331_">
			<line class="st1" x1="229.94" y1="170.21" x2="238" y2="209.85"/>
		</g>
		<g id="SPLINE_3602_">
			<path class="st0" d="M238,209.85c1.41-2.1,2.83-4.2,3.74-6.52l0,0c1.26-3.19,1.57-6.82,1.1-10.27l0,0
				c-0.46-3.38-1.67-6.59-3.26-9.58l0,0c-1.41-2.64-3.12-5.09-4.93-7.46l0,0c-1.52-1.98-3.11-3.9-4.71-5.82"/>
		</g>
		<g id="SPLINE_3603_">
			<path class="st0" d="M225.22,225.74c1.12-2.27,2.24-4.54,3.81-6.48l0,0c2.16-2.67,5.15-4.74,8.38-6.04l0,0
				c3.16-1.27,6.56-1.81,9.93-1.9l0,0c2.99-0.08,5.97,0.19,8.92,0.6l0,0c2.47,0.34,4.93,0.77,7.38,1.21"/>
		</g>
		<g id="LINE_2332_">
			<line class="st1" x1="263.65" y1="213.12" x2="225.22" y2="225.74"/>
		</g>
		<g id="SPLINE_3604_">
			<path class="st0" d="M225.22,225.74c2.25,1.17,4.49,2.33,6.91,2.97l0,0c3.31,0.87,6.95,0.76,10.32-0.1l0,0
				c3.3-0.85,6.35-2.43,9.13-4.36l0,0c2.45-1.71,4.7-3.69,6.83-5.77l0,0c1.79-1.75,3.51-3.55,5.23-5.35"/>
		</g>
		<g id="SPLINE_3605_">
			<path class="st0" d="M243.06,207.28c0.64-2.45,1.29-4.9,2.43-7.12l0,0c1.58-3.05,4.1-5.67,7-7.59l0,0
				c2.84-1.88,6.06-3.08,9.36-3.85l0,0c2.91-0.68,5.88-1.01,8.87-1.2l0,0c2.49-0.16,4.98-0.22,7.47-0.29"/>
		</g>
		<g id="LINE_2333_">
			<line class="st1" x1="278.19" y1="187.23" x2="243.06" y2="207.28"/>
		</g>
		<g id="SPLINE_3606_">
			<path class="st0" d="M243.06,207.28c2.43,0.69,4.87,1.38,7.36,1.52l0,0c3.43,0.19,6.97-0.64,10.1-2.16l0,0
				c3.07-1.49,5.74-3.65,8.08-6.1l0,0c2.06-2.16,3.86-4.55,5.54-7.02l0,0c1.41-2.06,2.73-4.18,4.06-6.29"/>
		</g>
		<g id="SPLINE_3607_">
			<path class="st0" d="M250.41,186.19c0.36-2.5,0.72-5.01,1.61-7.35l0,0c1.22-3.21,3.42-6.1,6.09-8.34l0,0
				c2.61-2.19,5.66-3.76,8.85-4.9l0,0c2.81-1,5.73-1.67,8.67-2.21l0,0c2.45-0.44,4.93-0.79,7.39-1.14"/>
		</g>
		<g id="LINE_2334_">
			<line class="st1" x1="283.02" y1="162.25" x2="250.41" y2="186.19"/>
		</g>
		<g id="SPLINE_3608_">
			<path class="st0" d="M250.41,186.19c2.5,0.41,5,0.81,7.49,0.67l0,0c3.42-0.2,6.85-1.43,9.78-3.3l0,0
				c2.87-1.84,5.29-4.28,7.32-6.98l0,0c1.8-2.39,3.31-4.97,4.7-7.61l0,0c1.16-2.21,2.23-4.46,3.31-6.71"/>
		</g>
		<g id="SPLINE_3609_">
			<path class="st0" d="M258.32,164.92c-0.61-2.46-1.22-4.91-1.29-7.41l0,0c-0.09-3.43,0.85-6.94,2.47-10.02l0,0
				c1.59-3.02,3.82-5.63,6.34-7.88l0,0c2.23-2,4.67-3.72,7.19-5.32l0,0c2.1-1.34,4.26-2.6,6.41-3.86"/>
		</g>
		<g id="LINE_2335_">
			<line class="st1" x1="279.45" y1="130.42" x2="258.32" y2="164.92"/>
		</g>
		<g id="SPLINE_3610_">
			<path class="st0" d="M258.32,164.92c2.47-0.57,4.93-1.14,7.19-2.22l0,0c3.1-1.48,5.8-3.92,7.81-6.76l0,0
				c1.97-2.79,3.27-5.96,4.14-9.23l0,0c0.77-2.89,1.19-5.85,1.47-8.82l0,0c0.24-2.48,0.38-4.97,0.52-7.46"/>
		</g>
		<g id="SPLINE_3611_">
			<path class="st0" d="M247.82,181.54c-2.23-1.21-4.45-2.42-6.33-4.06l0,0c-2.59-2.25-4.54-5.32-5.72-8.6l0,0
				c-1.16-3.21-1.57-6.62-1.53-10l0,0c0.03-2.99,0.42-5.96,0.93-8.9l0,0c0.44-2.46,0.96-4.9,1.49-7.33"/>
		</g>
		<g id="LINE_2336_">
			<line class="st1" x1="236.66" y1="142.66" x2="247.82" y2="181.54"/>
		</g>
		<g id="SPLINE_3612_">
			<path class="st0" d="M247.82,181.54c1.25-2.2,2.49-4.41,3.22-6.8l0,0c1-3.28,1.03-6.92,0.29-10.32l0,0
				c-0.72-3.33-2.18-6.44-4.01-9.29l0,0c-1.61-2.52-3.51-4.83-5.51-7.05l0,0c-1.67-1.85-3.41-3.64-5.15-5.42"/>
		</g>
		<g id="SPLINE_3613_">
			<path class="st0" d="M254.76,151.58c-2.43-0.68-4.88-1.36-7.08-2.53l0,0c-3.03-1.62-5.62-4.17-7.5-7.11l0,0
				c-1.84-2.87-3-6.1-3.72-9.41l0,0c-0.63-2.92-0.92-5.9-1.07-8.88l0,0c-0.13-2.49-0.16-4.98-0.19-7.48"/>
		</g>
		<g id="LINE_2337_">
			<line class="st1" x1="235.2" y1="116.18" x2="254.76" y2="151.58"/>
		</g>
		<g id="SPLINE_3614_">
			<path class="st0" d="M254.76,151.58c0.73-2.42,1.44-4.85,1.63-7.34l0,0c0.24-3.42-0.55-6.98-2.03-10.13l0,0
				c-1.45-3.09-3.57-5.79-5.98-8.16l0,0c-2.14-2.09-4.5-3.93-6.95-5.64l0,0c-2.04-1.44-4.13-2.79-6.23-4.14"/>
		</g>
		<g id="SPLINE_3615_">
			<path class="st0" d="M259.72,136.6c-1.4-2.11-2.8-4.22-3.7-6.55l0,0c-1.23-3.2-1.52-6.83-1.02-10.27l0,0
				c0.48-3.38,1.72-6.58,3.33-9.55l0,0c1.43-2.63,3.16-5.07,4.99-7.42l0,0c1.54-1.97,3.14-3.87,4.75-5.78"/>
		</g>
		<g id="LINE_2338_">
			<line class="st1" x1="268.08" y1="97.02" x2="259.72" y2="136.6"/>
		</g>
		<g id="SPLINE_3616_">
			<path class="st0" d="M259.72,136.6c2.13-1.36,4.27-2.73,6.03-4.5l0,0c2.42-2.43,4.15-5.63,5.08-8.98l0,0
				c0.92-3.28,1.09-6.72,0.81-10.08l0,0c-0.25-2.98-0.84-5.91-1.57-8.81l0,0c-0.61-2.42-1.31-4.81-2-7.21"/>
		</g>
		<g id="SPLINE_3617_">
			<path class="st0" d="M251.75,106.47c-1.84-1.74-3.67-3.49-5.07-5.56l0,0c-1.91-2.85-3-6.32-3.29-9.79l0,0
				c-0.27-3.4,0.21-6.8,1.13-10.05l0,0c0.81-2.88,1.95-5.65,3.21-8.35l0,0c1.06-2.26,2.21-4.48,3.35-6.69"/>
		</g>
		<g id="LINE_2339_">
			<line class="st1" x1="251.08" y1="66.02" x2="251.75" y2="106.47"/>
		</g>
		<g id="SPLINE_3618_">
			<path class="st0" d="M251.75,106.47c1.78-1.8,3.55-3.61,4.88-5.73l0,0c1.82-2.91,2.79-6.41,2.96-9.89l0,0
				c0.17-3.41-0.43-6.79-1.45-10.01l0,0c-0.9-2.85-2.13-5.58-3.49-8.24l0,0c-1.13-2.22-2.34-4.4-3.56-6.58"/>
		</g>
		<g id="SPLINE_3619_">
			<path class="st0" d="M248.14,116.84c-2.53,0.04-5.06,0.08-7.51-0.42l0,0c-3.37-0.69-6.57-2.4-9.21-4.68l0,0
				c-2.58-2.23-4.62-5-6.24-7.96l0,0c-1.45-2.62-2.57-5.39-3.56-8.21l0,0c-0.83-2.35-1.57-4.74-2.3-7.12"/>
		</g>
		<g id="LINE_2340_">
			<line class="st1" x1="219.32" y1="88.46" x2="248.14" y2="116.84"/>
		</g>
		<g id="SPLINE_3620_">
			<path class="st0" d="M248.14,116.84c0.01-2.53,0.01-5.06-0.54-7.5l0,0c-0.74-3.35-2.5-6.53-4.82-9.13l0,0
				c-2.27-2.55-5.07-4.54-8.06-6.12l0,0c-2.64-1.4-5.43-2.48-8.26-3.43l0,0c-2.36-0.79-4.76-1.5-7.15-2.2"/>
		</g>
		<g id="SPLINE_3621_">
			<path class="st0" d="M240.19,90.54c-2.52-0.25-5.04-0.49-7.42-1.27l0,0c-3.26-1.07-6.25-3.14-8.61-5.7l0,0
				c-2.31-2.51-4.01-5.49-5.29-8.62l0,0c-1.13-2.77-1.93-5.65-2.6-8.56l0,0c-0.56-2.43-1.02-4.88-1.48-7.33"/>
		</g>
		<g id="LINE_2341_">
			<line class="st1" x1="214.8" y1="59.05" x2="240.19" y2="90.54"/>
		</g>
		<g id="SPLINE_3622_">
			<path class="st0" d="M240.19,90.54c0.29-2.52,0.59-5.03,0.33-7.52l0,0c-0.35-3.41-1.74-6.77-3.75-9.62l0,0
				c-1.96-2.79-4.52-5.09-7.3-7l0,0c-2.46-1.69-5.11-3.09-7.81-4.35l0,0c-2.26-1.06-4.56-2.03-6.86-3"/>
		</g>
	</g>
	<g id="Kategorier">
		<g id="Bästa_regi_och_skådespeleri_1_">
			<g id="Masker_2012">
				<g id="Vit_kontur_1_">
					<path class="st2" d="M247.35,115.46c0,0-0.51,7.55-0.89,8.77c-0.38,1.23-1.6,6.42-2.74,9.06c-1.13,2.64-4.62,7.08-4.91,7.64"/>
					<path class="st2" d="M232.16,117.25c15.41-1.74,12.2-1.43,15-2.17"/>
					<path class="st3" d="M66.81,79.49c-13.37-7.15-10.73-5.62-12.68-6.28c-0.81-0.27-1.25,2.67-1.57,10.98s0.41,13.95,1.05,17.26
						c0.64,3.3,2.61,10.98,2.61,10.98"/>
				</g>
				<g id="SPLINE_1477_">
					<g id="XMLID_17_">
						<g>
							<path class="st0" d="M246.51,116.28c-0.62,4.7-1.24,9.41-2.84,13.72c-1.65,4.44-4.38,8.47-7.04,12.55
								c-2.66,4.06-5.25,8.15-6.65,12.69c-0.75,2.53-1.14,5.2-1.44,7.75c-0.29,2.56-0.5,5.02-0.89,7.13
								c-0.59,3.2-1.61,5.66-2.98,7.88s-3.08,4.21-5.04,6.49c-1.76,2.01-3.71,4.29-6.12,6.75c-2.41,2.47-5.28,5.14-8.88,7.93
								c-3.93,3.05-8.71,6.28-13.72,8.86s-10.24,4.51-15.07,4.94c-0.71,0.06-1.41,0.1-2.1,0.1c-6.74,0-12.5-2.96-15.38-7.74
								c-1.96-3.24-2.62-7.28-3.01-11.46c-0.39-4.18-0.5-8.5-1.36-12.27c-0.94-4.08-2.75-7.55-4.42-10.98s-3.22-6.85-3.65-10.81
								c2.46-5.1,4.08-10.3,4.08-15.82c0-0.04,0-0.08,0-0.12c0-1.35-0.1-2.71-0.25-4.08v-0.01c1.45-2.66,2.99-5.27,4.15-8.04
								c1.13-2.76,1.86-5.66,2.39-8.61c0.54-2.95,0.91-5.95,1.33-8.93c0.45-3.19,0.96-6.36,1.64-9.47c0.69-3.12,1.54-6.18,2.68-9.15
								c0.98-2.59,2.17-5.09,3.37-7.6c4.31,4.5,8.63,8.99,13.36,13.13c3.43,3,7.08,5.81,10.93,8.24c3.87,2.42,7.94,4.48,12.23,5.96
								c6.78,2.35,14.02,3.27,21.24,3.27c0.48,0,0.96,0,1.45-0.01C231.94,118.42,239.22,117.36,246.51,116.28z M243,119.81
								c-0.16,0.03-0.31,0.06-0.51,0.08c-2.95,0.41-5.95,0.83-9,1.11c-3.51,0.36-7.08,0.57-10.7,0.57
								c-3.62-0.03-7.29-0.26-10.86-0.8c-3.67-0.52-7.23-1.35-10.7-2.54c-0.16-0.05-0.32-0.1-0.42-0.13
								c-2.37,5.84-4.8,11.74-7.13,17.6c-3.31,2.12-4.44,4.78-5.53,8.12c-0.54,1.73-1.04,3.65-1.76,5.21
								c-0.72,1.56-1.65,2.78-3.04,3.09c-1.19,0.26-2.7-0.05-4.01,0.32c-2.56,0.7-4.54,3.83-4.54,6.5c0,0.51,0.07,1,0.23,1.46
								c0.33,0.93,0.99,1.72,1.84,2.34c0.85,0.63,1.87,1.09,2.88,1.38c1.04,0.31,2.1,0.41,3.13,0.41c-0.77,2.17-1.5,4.4-2.24,6.62
								c-0.12-0.03-0.25-0.06-0.36-0.09c-0.02-0.01-0.05-0.02-0.07-0.02c-3.03-0.97-5.99-2.23-8.91-3.67
								c-3.92-1.94-7.76-4.19-11.6-6.46c2.07,6.16,4.11,12.31,4.88,19.44c0.29,2.67,0.38,5.46,0.86,8.01
								c0.47,2.55,1.3,4.83,3.05,6.46c1.04,0.98,2.41,1.73,3.9,2.2c-1.25,4.1-2.46,8.22-3.69,12.33c0.62,0.16,1.27,0.36,1.94,0.46
								c0.99,0.15,2.01,0.25,3.07,0.25c0.38,0,0.78-0.01,1.17-0.04c1.48-0.1,3.02-0.3,4.65-0.73c2.12-0.51,4.34-1.29,6.56-2.27
								c2.79-1.19,5.59-2.69,8.23-4.34c2.69-1.65,5.26-3.42,7.55-5.17c2.27-1.71,4.23-3.41,5.99-4.97c2.27-2.07,4.19-4.03,5.89-5.89
								c0.83-0.92,1.6-1.86,2.38-2.69c0.72-0.88,1.45-1.7,2.12-2.48c0.83-0.98,1.6-1.86,2.22-2.79c1.03-1.29,1.86-2.59,2.59-3.93
								c0.41-0.94,0.83-1.97,1.13-3.11c0.22-0.62,0.31-1.24,0.47-1.86c0.15-0.62,0.26-1.34,0.35-2.12c0.11-1.19,0.31-2.54,0.42-3.94
								c0.21-1.8,0.41-3.77,0.83-5.74c0.21-1.03,0.41-2.07,0.72-3.05c0.27-0.98,0.62-2.02,0.98-2.97c0.57-1.42,1.19-2.79,1.91-4.11
								c1.65-3.1,3.57-5.94,5.38-8.74c1.24-1.86,2.37-3.67,3.41-5.47c0.51-0.91,0.92-1.81,1.34-2.72c0.41-0.91,0.83-1.81,1.14-2.75
								c0.41-1.16,0.72-2.35,1.03-3.59C242.49,123.07,242.79,121.46,243,119.81z M178.79,147.42c-1.03-4.58-2.07-9.15-5.4-12.25
								c-2.1-1.95-5.07-3.32-7.81-3.32c-0.24,0-0.46,0.01-0.69,0.03c-1.62,0.16-3.11,0.83-4.55,1.75c-1.43,0.93-2.8,2.12-4.17,3.29
								c0.75-0.02,1.5-0.05,2.23-0.05c2.41,0,4.63,0.26,6.12,1.6c0.81,0.74,1.38,1.8,1.94,2.9c0.56,1.1,1.11,2.23,1.86,3.1
								C170.59,147.11,174.71,147.26,178.79,147.42z"/>
							<path class="st4" d="M242.49,119.89c0.21-0.02,0.35-0.05,0.51-0.08c-0.21,1.65-0.51,3.26-0.83,4.81
								c-0.31,1.24-0.62,2.43-1.03,3.59c-0.31,0.93-0.73,1.84-1.14,2.75s-0.83,1.8-1.34,2.72c-1.04,1.8-2.17,3.61-3.41,5.47
								c-1.81,2.79-3.73,5.64-5.38,8.74c-0.72,1.32-1.34,2.7-1.91,4.11c-0.36,0.96-0.72,1.99-0.98,2.97
								c-0.3,0.98-0.51,2.02-0.72,3.05c-0.41,1.97-0.62,3.94-0.83,5.74c-0.11,1.4-0.31,2.75-0.42,3.94c-0.1,0.78-0.21,1.5-0.35,2.12
								c-0.16,0.62-0.26,1.24-0.47,1.86c-0.31,1.14-0.72,2.17-1.13,3.11c-0.73,1.34-1.55,2.64-2.59,3.93
								c-0.62,0.93-1.4,1.81-2.22,2.79c-0.67,0.78-1.4,1.6-2.12,2.48c-0.78,0.83-1.55,1.76-2.38,2.69c-1.7,1.86-3.62,3.83-5.89,5.89
								c-1.76,1.55-3.72,3.26-5.99,4.97c-2.28,1.75-4.86,3.51-7.55,5.17c-2.64,1.65-5.43,3.15-8.23,4.34
								c-2.22,0.98-4.45,1.76-6.56,2.27c-1.63,0.42-3.18,0.63-4.65,0.73c-0.39,0.03-0.79,0.04-1.17,0.04c-1.06,0-2.08-0.1-3.07-0.25
								c-0.67-0.1-1.32-0.31-1.94-0.46c1.23-4.11,2.44-8.23,3.69-12.33c1.36,0.44,2.81,0.67,4.21,0.67c0.28,0,0.56-0.01,0.84-0.03
								c3.42-0.23,6.31-1.88,8.98-4.1c2.68-2.21,5.14-5,7.69-7.48c2.79-2.72,5.69-5.09,8.63-7.29s5.94-4.23,8.94-6.25
								c-9.67,0.77-19.33,1.6-28.33-0.62c-1.03-0.26-2.07-0.54-3.08-0.87c0.12,0.03,0.25,0.06,0.36,0.09
								c0.75-2.22,1.48-4.45,2.24-6.62c-1.03,0-2.09-0.1-3.13-0.41c-1.01-0.29-2.04-0.75-2.88-1.38c-0.85-0.62-1.51-1.41-1.84-2.34
								c-0.16-0.45-0.23-0.94-0.23-1.46c0-2.68,1.98-5.81,4.54-6.5c1.32-0.36,2.82-0.06,4.01-0.32c1.39-0.31,2.32-1.53,3.04-3.09
								c0.72-1.55,1.22-3.47,1.76-5.21c1.09-3.34,2.22-6,5.53-8.12c2.33-5.86,4.76-11.76,7.13-17.6c0.11,0.03,0.27,0.08,0.42,0.13
								c3.46,1.19,7.03,2.02,10.7,2.54c3.57,0.54,7.24,0.77,10.86,0.8c3.61,0,7.18-0.21,10.7-0.57
								C236.54,120.71,239.54,120.3,242.49,119.89z M222.11,158.33c-0.64-1.78-1.29-3.57-2.13-5.16c-0.83-1.59-1.85-2.98-3.25-3.99
								c-1.87-1.32-4.32-1.98-6.68-1.98c-0.33,0-0.65,0.01-0.97,0.04c-4.8,0.36-8.74,3.51-12.66,6.69c3.46,2.22,6.88,4.4,10.29,3.57
								c1.08-0.27,2.17-0.83,3.25-1.39c1.09-0.55,2.17-1.1,3.26-1.31c0.34-0.07,0.68-0.1,1.02-0.1
								C216.86,154.71,219.5,156.5,222.11,158.33z"/>
							<path class="st0" d="M219.99,153.17c0.84,1.58,1.49,3.38,2.13,5.16c-2.61-1.83-5.25-3.62-7.87-3.62
								c-0.34,0-0.68,0.03-1.02,0.1c-1.08,0.21-2.16,0.76-3.26,1.31c-1.08,0.56-2.17,1.12-3.25,1.39
								c-3.41,0.83-6.83-1.35-10.29-3.57c3.93-3.18,7.86-6.33,12.66-6.69c0.33-0.03,0.65-0.04,0.97-0.04c2.36,0,4.81,0.66,6.68,1.98
								C218.14,150.19,219.16,151.58,219.99,153.17z"/>
							<path class="st0" d="M172.38,197c-1.27-0.93-2.54-1.86-3.38-3.1c-1.17-1.76-1.51-4.03-1.71-6.21
								c-0.38-3.83-0.36-7.45-0.95-11.06c-0.62-3.83-1.89-7.55-3.16-11.33c2.67,1.14,5.35,2.27,8.1,3.21
								c2.91,0.98,5.91,1.74,8.92,2.53c0.02,0,0.05,0.01,0.07,0.02c1.01,0.33,2.05,0.61,3.08,0.87c8.99,2.22,18.66,1.39,28.33,0.62
								c-3,2.02-6,4.04-8.94,6.25c-2.94,2.2-5.83,4.58-8.63,7.29c-2.56,2.48-5.02,5.26-7.69,7.48c-2.68,2.22-5.56,3.88-8.98,4.1
								c-0.28,0.02-0.56,0.03-0.84,0.03c-1.4,0-2.85-0.23-4.21-0.67C172.38,197.02,172.38,197.01,172.38,197z"/>
							<path class="st4" d="M173.39,135.17c3.34,3.1,4.37,7.68,5.4,12.25c-4.08-0.16-8.2-0.3-10.47-2.94c-0.75-0.87-1.3-2-1.86-3.1
								s-1.13-2.16-1.94-2.9c-1.49-1.35-3.71-1.6-6.12-1.6c-0.73,0-1.49,0.03-2.23,0.05c1.37-1.17,2.75-2.35,4.17-3.29
								c1.44-0.93,2.92-1.59,4.55-1.75c0.23-0.02,0.45-0.03,0.69-0.03C168.32,131.85,171.29,133.22,173.39,135.17z"/>
							<path class="st4" d="M171.29,167.37c2.91,1.44,5.88,2.7,8.91,3.67c-3.01-0.79-6.01-1.54-8.92-2.53
								c-2.75-0.93-5.43-2.07-8.1-3.21c1.27,3.78,2.54,7.5,3.16,11.33c0.59,3.61,0.57,7.23,0.95,11.06
								c0.21,2.17,0.54,4.45,1.71,6.21c0.85,1.24,2.12,2.17,3.38,3.1c0,0.01,0,0.02-0.01,0.03c-1.49-0.47-2.85-1.22-3.9-2.2
								c-1.75-1.63-2.58-3.92-3.05-6.46c-0.47-2.55-0.57-5.34-0.86-8.01c-0.77-7.13-2.81-13.28-4.88-19.44
								C163.53,163.18,167.37,165.44,171.29,167.37z"/>
							<path class="st0" d="M149.77,139.77c0.15,1.38,0.25,2.74,0.25,4.08c0,0.04,0,0.08,0,0.12c0,5.52-1.62,10.73-4.08,15.82
								c-4.01,8.31-10.26,16.33-15.35,24.9c-2.33,3.91-4.41,7.9-6.8,11.45c-2.4,3.55-5.11,6.64-8.69,8.71s-8.02,3.11-12.45,3.11
								c-2.9,0-5.8-0.45-8.44-1.36c-4.23-1.5-7.82-4.21-10.95-7.51c-3.14-3.3-5.81-7.17-8.23-11c-2.23-3.57-4.26-7.09-6.19-10.66
								c-1.92-3.57-3.75-7.18-5.6-10.9c-4-8.06-8.1-16.67-8.1-25.37c0-0.29,0-0.58,0.01-0.87c0.11-2.96,0.69-5.93,1.3-8.91
								c0.61-2.97,1.23-5.95,1.42-8.92c0.03-0.6,0.05-1.2,0.05-1.79c0-10.18-4.7-20.34-4.78-30.49c-0.03-5.27,1.16-10.53,2.37-15.77
								c7.35,4,14.69,8.02,22.52,11.04c4.07,1.57,8.27,2.88,12.54,3.83c4.27,0.93,8.6,1.5,12.95,1.57c0.34,0.01,0.68,0.01,1.02,0.01
								c9.95,0,19.9-2.48,29.24-6.06c6.67-2.56,13.03-5.66,19.41-8.79c0.29,3.15,0.57,6.31,0.6,9.44c0,0.22,0,0.44,0,0.66
								c0,7-1.19,13.95-2.69,20.87c-1.36,6.27-2.93,12.49-2.93,18.8c0,0.46,0.01,0.92,0.03,1.39c0.12,2.78,0.57,5.61,0.99,8.4
								C149.41,136.99,149.61,138.38,149.77,139.77L149.77,139.77z M150.61,90.89c0.14-1.66,0.19-3.29,0.19-4.89
								c0-1.75-0.08-3.54-0.24-5.35c-4.08,2-8.25,3.94-12.56,5.72c-5.67,2.32-11.58,4.34-17.68,5.69c-3.05,0.67-6.13,1.19-9.26,1.5
								c-2.51,0.24-5.02,0.36-7.55,0.31c0.29,7.34,0.52,14.65,0.73,21.99c2.69,3.54,2.89,6.86,2.71,10.81
								c-0.08,1.54-0.22,3.16-0.22,4.69c0,2.6,0.39,4.92,2.14,6.05c1.13,0.76,2.84,0.98,4.13,1.89c1.76,1.24,2.72,3.72,2.72,6.09
								c0,1.54-0.4,3.04-1.27,4.09c-1.25,1.55-3.47,2.16-5.6,2.16c-0.3,0-0.57-0.01-0.86-0.03c-1.25-0.11-2.41-0.39-3.52-0.78
								c-0.05,2.63-0.1,5.21-0.18,7.88c-1.07-0.01-2.14-0.07-3.21-0.18c-8.09-0.83-15.97-4.45-23.86-8.04
								c2.17,6.18,4.35,12.28,6.85,18.89c1.44,3.83,2.99,7.81,5.06,11.21c2.08,3.4,4.66,6.22,8.19,7.71c1.7,0.72,3.65,1.13,5.6,1.19
								h0.01c-0.29,5.18-0.6,10.29-0.93,15.46c2.35,0.11,4.75-0.21,6.96-0.78c1.29-0.36,2.51-0.78,3.64-1.4
								c1.16-0.51,2.19-1.24,3.18-1.96c0.98-0.83,1.92-1.76,2.79-2.75c1.97-2.22,3.72-5.01,5.48-8.01c0.98-1.71,1.94-3.42,2.97-5.23
								c0.73-1.24,1.48-2.53,2.25-3.77s1.54-2.49,2.32-3.67c1.6-2.43,3.18-4.81,4.73-7.19c2.69-4.03,5.17-8.06,7.05-12
								c1.5-3.21,2.61-6.33,3.21-9.49c0.29-1.53,0.43-3.07,0.43-4.62c0-0.14,0-0.29,0-0.42c0-1.35-0.12-2.75-0.3-4.23
								c-0.21-1.63-0.46-3.34-0.73-5.07c-0.26-1.65-0.49-3.34-0.64-5.07c-0.11-1.29-0.16-2.59-0.16-3.88c0-1.27,0.08-2.56,0.18-3.8
								c0.24-2.51,0.65-4.99,1.11-7.39c0.54-2.77,1.17-5.48,1.76-8.15c0.57-2.66,1.08-5.32,1.5-7.96
								C150.12,95.72,150.43,93.29,150.61,90.89z M94.19,134.21c-1.76-7.06-3.54-14.12-8.4-15.59c-0.69-0.21-1.44-0.3-2.22-0.3
								c-2.87,0-6.3,1.26-9.15,2.85c-1.89,1.06-3.53,2.28-5.05,3.58c-1.52,1.31-2.92,2.69-4.34,4.05c2.4-0.61,4.8-1.21,6.97-1.21
								c1.43,0,2.75,0.26,3.92,0.94c1.08,0.63,2.03,1.64,2.97,2.68c0.94,1.02,1.88,2.09,2.95,2.8
								C85.11,136.2,89.63,135.22,94.19,134.21z"/>
							<path class="st4" d="M150.79,86c0,1.6-0.05,3.23-0.19,4.89c-0.18,2.4-0.48,4.83-0.88,7.26c-0.41,2.64-0.92,5.3-1.5,7.96
								c-0.59,2.67-1.22,5.37-1.76,8.15c-0.46,2.4-0.88,4.88-1.11,7.39c-0.1,1.24-0.18,2.53-0.18,3.8c0,1.29,0.05,2.59,0.16,3.88
								c0.15,1.73,0.38,3.41,0.64,5.07c0.27,1.73,0.52,3.43,0.73,5.07c0.19,1.48,0.3,2.88,0.3,4.23c0,0.14,0,0.29,0,0.42
								c0,1.55-0.15,3.1-0.43,4.62c-0.6,3.16-1.71,6.28-3.21,9.49c-1.89,3.94-4.37,7.96-7.05,12c-1.55,2.38-3.13,4.76-4.73,7.19
								c-0.78,1.18-1.55,2.43-2.32,3.67c-0.78,1.24-1.52,2.53-2.25,3.77c-1.03,1.81-1.99,3.51-2.97,5.23
								c-1.76,3-3.51,5.79-5.48,8.01c-0.88,0.98-1.81,1.92-2.79,2.75c-0.98,0.72-2.02,1.45-3.18,1.96c-1.13,0.62-2.35,1.03-3.64,1.4
								c-2.2,0.57-4.6,0.89-6.96,0.78c0.33-5.17,0.65-10.28,0.93-15.46c0.16,0.01,0.32,0.01,0.48,0.01c1.55,0,3.12-0.24,4.56-0.74
								c1.87-0.64,3.54-1.71,5.07-3.03c1.52-1.32,2.88-2.88,4.13-4.52c6.54-8.42,10.13-18.14,13.73-27.87
								c-8.74,2.66-17.48,5.36-26.04,5.36c-0.19,0-0.37,0-0.56-0.01c0.08-2.68,0.13-5.25,0.18-7.88c1.11,0.38,2.27,0.67,3.52,0.78
								c0.29,0.02,0.56,0.03,0.86,0.03c2.12,0,4.35-0.6,5.6-2.16c0.87-1.05,1.27-2.55,1.27-4.09c0-2.37-0.95-4.85-2.72-6.09
								c-1.29-0.91-3-1.13-4.13-1.89c-1.74-1.13-2.14-3.45-2.14-6.05c0-1.54,0.14-3.16,0.22-4.69c0.19-3.96-0.02-7.27-2.71-10.81
								c-0.21-7.34-0.44-14.65-0.73-21.99c2.53,0.05,5.04-0.08,7.55-0.31c3.13-0.31,6.21-0.83,9.26-1.5
								c6.1-1.35,12.01-3.37,17.68-5.69c4.31-1.78,8.47-3.72,12.56-5.72C150.72,82.46,150.79,84.25,150.79,86z M143.77,131.86
								c-1.02-1.58-2.06-3.18-3.23-4.67c-1.17-1.5-2.49-2.9-4.09-4.14c-2.8-2.15-6.46-3.77-9.55-3.77c-0.53,0-1.04,0.05-1.54,0.15
								c-5.07,1.06-7.45,7.91-9.82,14.73c4.42,1.46,8.84,2.9,12.33,0.96c1.12-0.62,2.15-1.61,3.18-2.56s2.07-1.87,3.21-2.33
								c0.72-0.29,1.48-0.42,2.26-0.42C138.76,129.81,141.26,130.83,143.77,131.86z"/>
							<path class="st0" d="M140.54,127.19c1.17,1.5,2.2,3.09,3.23,4.67c-2.51-1.03-5.01-2.06-7.25-2.06
								c-0.79,0-1.54,0.13-2.26,0.42c-1.14,0.46-2.17,1.38-3.21,2.33c-1.03,0.94-2.06,1.94-3.18,2.56
								c-3.49,1.94-7.91,0.49-12.33-0.96c2.37-6.82,4.75-13.67,9.82-14.73c0.49-0.1,1-0.15,1.54-0.15c3.09,0,6.75,1.62,9.55,3.77
								C138.05,124.29,139.37,125.69,140.54,127.19z"/>
							<path class="st0" d="M130.89,153.36c-3.59,9.72-7.18,19.44-13.73,27.87c-1.25,1.63-2.62,3.2-4.13,4.52
								c-1.52,1.32-3.2,2.39-5.07,3.03c-1.44,0.5-3,0.74-4.56,0.74c-0.16,0-0.32,0-0.48-0.01h-0.01c-1.63-0.36-3.25-0.73-4.64-1.5
								c-1.53-0.83-2.79-2.17-3.91-3.62c-2.46-3.1-4.26-6.51-5.89-10.03c-2.94-6.51-5.2-13.29-7.45-20.06
								c3.98,1.65,7.99,3.26,12.12,3.93c2.66,0.45,5.37,0.55,8.1,0.55c1.01,0,2.04-0.02,3.05-0.03c0-0.01,0-0.02,0-0.03
								c0.19,0.01,0.37,0.01,0.56,0.01C113.4,158.72,122.15,156.02,130.89,153.36z"/>
							<path class="st4" d="M104.29,158.71c0,0.01,0,0.02,0,0.03c-1.01,0.01-2.04,0.03-3.05,0.03c-2.73,0-5.44-0.1-8.1-0.55
								c-4.13-0.67-8.14-2.27-12.12-3.93c2.25,6.77,4.51,13.55,7.45,20.06c1.63,3.51,3.43,6.93,5.89,10.03
								c1.11,1.45,2.38,2.79,3.91,3.62c1.4,0.77,3.01,1.13,4.64,1.5c-1.95-0.06-3.9-0.47-5.6-1.19c-3.52-1.5-6.11-4.31-8.19-7.71
								c-2.07-3.4-3.62-7.38-5.06-11.21c-2.5-6.61-4.67-12.71-6.85-18.89c7.89,3.59,15.77,7.21,23.86,8.04
								C102.15,158.65,103.22,158.71,104.29,158.71z"/>
							<path class="st4" d="M85.78,118.63c4.86,1.47,6.64,8.52,8.4,15.59c-4.56,1-9.07,1.99-12.36-0.19
								c-1.07-0.72-2.01-1.78-2.95-2.8c-0.94-1.03-1.89-2.05-2.97-2.68c-1.17-0.69-2.49-0.94-3.92-0.94c-2.17,0-4.57,0.6-6.97,1.21
								c1.42-1.37,2.81-2.75,4.34-4.05c1.52-1.3,3.16-2.52,5.05-3.58c2.85-1.59,6.28-2.85,9.15-2.85
								C84.35,118.32,85.1,118.42,85.78,118.63z"/>
						</g>
					</g>
				</g>
			</g>
		</g>
	</g>
</g>
</svg>
