<?xml version="1.0" encoding="utf-8"?>
<!-- Generator: Adobe Illustrator 26.1.0, SVG Export Plug-In . SVG Version: 6.00 Build 0)  -->
<svg version="1.1" id="Lager_1" xmlns="http://www.w3.org/2000/svg" xmlns:xlink="http://www.w3.org/1999/xlink" x="0px" y="0px"
	 viewBox="0 0 283.46 283.46" style="enable-background:new 0 0 283.46 283.46;" xml:space="preserve">
<style type="text/css">
	.st0{fill:#1E2676;}
	.st1{fill:none;}
	.st2{fill:#FFFFFF;}
</style>
<g id="Priser_2024">
	<g id="Olivkvist">
		<g id="SPLINE_3555_">
			<path class="st0" d="M130.12,249.38c-0.19-2.53-0.38-5.05-1.1-7.44l0,0c-1-3.29-2.99-6.32-5.5-8.74l0,0
				c-2.45-2.37-5.4-4.14-8.5-5.5l0,0c-2.74-1.19-5.6-2.06-8.5-2.79l0,0c-2.41-0.61-4.86-1.13-7.3-1.65"/>
		</g>
		<g id="LINE_2308_">
			<line class="st1" x1="99.23" y1="223.26" x2="130.12" y2="249.38"/>
		</g>
		<g id="SPLINE_3556_">
			<path class="st0" d="M130.12,249.38c-2.52,0.23-5.04,0.47-7.53,0.16l0,0c-3.4-0.44-6.73-1.9-9.53-3.97l0,0
				c-2.74-2.03-4.98-4.63-6.83-7.47l0,0c-1.63-2.5-2.96-5.18-4.17-7.91l0,0c-1.01-2.29-1.92-4.6-2.84-6.92"/>
		</g>
		<g id="SPLINE_3557_">
			<path class="st0" d="M133.81,258.16c-2.14-1.36-4.27-2.72-6.62-3.57l0,0c-3.22-1.17-6.86-1.39-10.29-0.83l0,0
				c-3.37,0.55-6.55,1.85-9.49,3.52l0,0c-2.6,1.48-5.01,3.25-7.32,5.13l0,0c-1.94,1.57-3.81,3.22-5.69,4.86"/>
		</g>
		<g id="LINE_2309_">
			<line class="st1" x1="94.4" y1="267.27" x2="133.81" y2="258.16"/>
		</g>
		<g id="SPLINE_3558_">
			<path class="st0" d="M133.81,258.16c-1.32,2.15-2.64,4.32-4.38,6.11l0,0c-2.38,2.47-5.55,4.26-8.89,5.26l0,0
				c-3.27,0.98-6.69,1.21-10.07,1l0,0c-2.98-0.2-5.92-0.73-8.83-1.4l0,0c-2.43-0.57-4.84-1.22-7.24-1.87"/>
		</g>
		<g id="SPLINE_3559_">
			<path class="st0" d="M93.26,241.45c1.15-2.25,2.29-4.52,2.91-6.94l0,0c0.85-3.32,0.72-6.95-0.18-10.33l0,0
				c-0.87-3.29-2.47-6.33-4.43-9.09l0,0c-1.73-2.44-3.72-4.66-5.82-6.79l0,0c-1.75-1.78-3.57-3.48-5.39-5.19"/>
		</g>
		<g id="LINE_2310_">
			<line class="st1" x1="80.35" y1="203.12" x2="93.26" y2="241.45"/>
		</g>
		<g id="SPLINE_3560_">
			<path class="st0" d="M93.26,241.45c-2.28-1.11-4.56-2.21-6.52-3.76l0,0c-2.69-2.13-4.77-5.11-6.1-8.33l0,0
				c-1.3-3.15-1.86-6.54-1.98-9.92l0,0c-0.1-2.98,0.14-5.97,0.53-8.93l0,0c0.33-2.47,0.74-4.93,1.16-7.39"/>
		</g>
		<g id="SPLINE_3561_">
			<path class="st0" d="M106.98,249.85c-2.02-1.52-4.04-3.05-6.32-4.09l0,0c-3.12-1.42-6.73-1.93-10.2-1.64l0,0
				c-3.4,0.29-6.67,1.33-9.73,2.76l0,0c-2.71,1.27-5.25,2.85-7.71,4.54l0,0c-2.06,1.41-4.06,2.9-6.05,4.39"/>
		</g>
		<g id="LINE_2311_">
			<line class="st1" x1="66.97" y1="255.81" x2="106.98" y2="249.85"/>
		</g>
		<g id="SPLINE_3562_">
			<path class="st0" d="M106.98,249.85c-1.49,2.04-2.97,4.1-4.85,5.75l0,0c-2.57,2.27-5.87,3.8-9.28,4.54l0,0
				c-3.33,0.73-6.77,0.68-10.12,0.21l0,0c-2.96-0.43-5.85-1.2-8.7-2.1l0,0c-2.38-0.75-4.73-1.6-7.07-2.43"/>
		</g>
		<g id="SPLINE_3563_">
			<path class="st0" d="M67.07,227.46c1.76-1.81,3.53-3.62,4.86-5.75l0,0c1.81-2.91,2.77-6.43,2.93-9.9l0,0
				c0.16-3.41-0.46-6.79-1.49-10.01l0,0c-0.91-2.85-2.15-5.57-3.52-8.22l0,0c-1.14-2.22-2.36-4.39-3.59-6.57"/>
		</g>
		<g id="LINE_2312_">
			<line class="st1" x1="66.27" y1="187.01" x2="67.07" y2="227.46"/>
		</g>
		<g id="SPLINE_3564_">
			<path class="st0" d="M67.07,227.46c-1.84-1.75-3.68-3.48-5.08-5.55l0,0c-1.93-2.85-3.02-6.31-3.32-9.78l0,0
				c-0.29-3.4,0.19-6.8,1.09-10.06l0,0c0.79-2.88,1.93-5.65,3.18-8.36l0,0c1.05-2.26,2.19-4.48,3.32-6.7"/>
		</g>
		<g id="SPLINE_3565_">
			<path class="st0" d="M82.13,240.58c-1.54-2.01-3.07-4.02-4.99-5.63l0,0c-2.62-2.21-5.96-3.66-9.38-4.32l0,0
				c-3.35-0.64-6.78-0.51-10.12,0.05l0,0c-2.95,0.5-5.82,1.33-8.65,2.3l0,0c-2.36,0.81-4.69,1.71-7.01,2.62"/>
		</g>
		<g id="LINE_2313_">
			<line class="st1" x1="41.99" y1="235.59" x2="82.13" y2="240.58"/>
		</g>
		<g id="SPLINE_3566_">
			<path class="st0" d="M82.13,240.58c-1.98,1.58-3.96,3.14-6.21,4.23l0,0c-3.09,1.5-6.68,2.1-10.16,1.89l0,0
				c-3.4-0.2-6.7-1.16-9.8-2.51l0,0c-2.73-1.21-5.32-2.72-7.82-4.35l0,0c-2.09-1.37-4.12-2.81-6.16-4.25"/>
		</g>
		<g id="SPLINE_3567_">
			<path class="st0" d="M47.61,209.85c2.12-1.38,4.24-2.76,6-4.54l0,0c2.41-2.45,4.11-5.66,5.03-9.02l0,0
				c0.89-3.29,1.04-6.72,0.73-10.09l0,0c-0.27-2.97-0.88-5.9-1.63-8.79l0,0c-0.62-2.42-1.35-4.8-2.06-7.19"/>
		</g>
		<g id="LINE_2314_">
			<line class="st1" x1="55.67" y1="170.21" x2="47.61" y2="209.85"/>
		</g>
		<g id="SPLINE_3568_">
			<path class="st0" d="M47.61,209.85c-1.41-2.1-2.83-4.2-3.75-6.52l0,0c-1.26-3.19-1.57-6.82-1.1-10.27l0,0
				c0.46-3.38,1.67-6.59,3.27-9.58l0,0c1.41-2.64,3.12-5.09,4.93-7.46l0,0c1.52-1.98,3.11-3.9,4.71-5.82"/>
		</g>
		<g id="SPLINE_3569_">
			<path class="st0" d="M60.39,225.74c-1.12-2.27-2.24-4.54-3.81-6.48l0,0c-2.15-2.67-5.15-4.74-8.38-6.04l0,0
				c-3.16-1.27-6.56-1.81-9.93-1.9l0,0c-2.99-0.08-5.97,0.19-8.93,0.6l0,0c-2.47,0.34-4.93,0.77-7.38,1.21"/>
		</g>
		<g id="LINE_2315_">
			<line class="st1" x1="21.96" y1="213.12" x2="60.39" y2="225.74"/>
		</g>
		<g id="SPLINE_3570_">
			<path class="st0" d="M60.39,225.74c-2.25,1.17-4.5,2.33-6.91,2.97l0,0c-3.32,0.87-6.95,0.76-10.32-0.1l0,0
				c-3.3-0.85-6.35-2.43-9.13-4.36l0,0c-2.45-1.71-4.69-3.69-6.83-5.77l0,0c-1.79-1.75-3.51-3.55-5.23-5.35"/>
		</g>
		<g id="SPLINE_3571_">
			<path class="st0" d="M42.55,207.28c-0.64-2.45-1.29-4.9-2.44-7.12l0,0c-1.58-3.05-4.09-5.67-7-7.59l0,0
				c-2.85-1.88-6.06-3.08-9.36-3.85l0,0c-2.92-0.68-5.89-1.01-8.87-1.2l0,0c-2.49-0.16-4.98-0.22-7.47-0.29"/>
		</g>
		<g id="LINE_2316_">
			<line class="st1" x1="7.42" y1="187.23" x2="42.55" y2="207.28"/>
		</g>
		<g id="SPLINE_3572_">
			<path class="st0" d="M42.55,207.28c-2.43,0.69-4.87,1.38-7.37,1.52l0,0c-3.42,0.19-6.97-0.64-10.09-2.16l0,0
				c-3.07-1.49-5.74-3.65-8.08-6.1l0,0c-2.06-2.16-3.86-4.55-5.55-7.02l0,0c-1.41-2.06-2.73-4.18-4.05-6.29"/>
		</g>
		<g id="SPLINE_3573_">
			<path class="st0" d="M35.19,186.19c-0.36-2.5-0.72-5.01-1.61-7.35l0,0c-1.22-3.21-3.42-6.1-6.09-8.34l0,0
				c-2.61-2.19-5.67-3.76-8.85-4.9l0,0c-2.81-1-5.73-1.67-8.67-2.21l0,0c-2.45-0.44-4.92-0.79-7.39-1.14"/>
		</g>
		<g id="LINE_2317_">
			<line class="st1" x1="2.59" y1="162.25" x2="35.19" y2="186.19"/>
		</g>
		<g id="SPLINE_3574_">
			<path class="st0" d="M35.19,186.19c-2.5,0.41-5,0.81-7.49,0.67l0,0c-3.42-0.2-6.85-1.43-9.78-3.3l0,0
				c-2.88-1.84-5.29-4.28-7.32-6.98l0,0c-1.8-2.39-3.31-4.97-4.7-7.61l0,0c-1.17-2.21-2.23-4.46-3.31-6.71"/>
		</g>
		<g id="SPLINE_3575_">
			<path class="st0" d="M27.29,164.92c0.61-2.46,1.22-4.91,1.29-7.41l0,0c0.09-3.43-0.85-6.94-2.47-10.02l0,0
				c-1.59-3.02-3.83-5.63-6.35-7.88l0,0c-2.23-2-4.67-3.72-7.19-5.32l0,0c-2.1-1.34-4.26-2.6-6.41-3.86"/>
		</g>
		<g id="LINE_2318_">
			<line class="st1" x1="6.15" y1="130.42" x2="27.29" y2="164.92"/>
		</g>
		<g id="SPLINE_3576_">
			<path class="st0" d="M27.29,164.92c-2.47-0.57-4.93-1.14-7.19-2.22l0,0c-3.09-1.48-5.79-3.92-7.8-6.76l0,0
				c-1.97-2.79-3.27-5.96-4.14-9.23l0,0c-0.77-2.89-1.19-5.85-1.48-8.82l0,0c-0.23-2.48-0.38-4.97-0.52-7.46"/>
		</g>
		<g id="SPLINE_3577_">
			<path class="st0" d="M37.79,181.54c2.22-1.21,4.45-2.42,6.33-4.06l0,0c2.59-2.25,4.54-5.32,5.72-8.6l0,0
				c1.15-3.21,1.56-6.62,1.53-10l0,0c-0.03-2.99-0.42-5.96-0.94-8.9l0,0c-0.43-2.46-0.96-4.9-1.48-7.33"/>
		</g>
		<g id="LINE_2319_">
			<line class="st1" x1="48.94" y1="142.66" x2="37.79" y2="181.54"/>
		</g>
		<g id="SPLINE_3578_">
			<path class="st0" d="M37.79,181.54c-1.25-2.2-2.49-4.41-3.22-6.8l0,0c-1-3.28-1.03-6.92-0.29-10.32l0,0
				c0.73-3.33,2.19-6.44,4.01-9.29l0,0c1.61-2.52,3.52-4.83,5.51-7.05l0,0c1.67-1.85,3.41-3.64,5.15-5.42"/>
		</g>
		<g id="SPLINE_3579_">
			<path class="st0" d="M30.84,151.58c2.44-0.68,4.88-1.36,7.08-2.53l0,0c3.03-1.62,5.62-4.17,7.49-7.11l0,0
				c1.84-2.87,3.01-6.1,3.72-9.41l0,0c0.64-2.92,0.93-5.9,1.08-8.88l0,0c0.13-2.49,0.16-4.98,0.19-7.48"/>
		</g>
		<g id="LINE_2320_">
			<line class="st1" x1="50.41" y1="116.18" x2="30.84" y2="151.58"/>
		</g>
		<g id="SPLINE_3580_">
			<path class="st0" d="M30.84,151.58c-0.72-2.42-1.44-4.85-1.62-7.34l0,0c-0.24-3.42,0.55-6.98,2.02-10.13l0,0
				c1.45-3.09,3.57-5.79,5.99-8.16l0,0c2.14-2.09,4.5-3.93,6.94-5.64l0,0c2.04-1.44,4.14-2.79,6.24-4.14"/>
		</g>
		<g id="SPLINE_3581_">
			<path class="st0" d="M25.88,136.6c1.4-2.11,2.81-4.22,3.7-6.55l0,0c1.23-3.2,1.52-6.83,1.02-10.27l0,0
				c-0.49-3.38-1.72-6.58-3.34-9.55l0,0c-1.43-2.63-3.16-5.07-4.99-7.42l0,0c-1.54-1.97-3.14-3.87-4.75-5.78"/>
		</g>
		<g id="LINE_2321_">
			<line class="st1" x1="17.53" y1="97.02" x2="25.88" y2="136.6"/>
		</g>
		<g id="SPLINE_3582_">
			<path class="st0" d="M25.88,136.6c-2.13-1.36-4.26-2.73-6.03-4.5l0,0c-2.42-2.43-4.15-5.63-5.09-8.98l0,0
				c-0.92-3.28-1.09-6.72-0.81-10.08l0,0c0.25-2.98,0.84-5.91,1.57-8.81l0,0c0.61-2.42,1.3-4.81,2-7.21"/>
		</g>
		<g id="SPLINE_3583_">
			<path class="st0" d="M33.86,106.47c1.84-1.74,3.67-3.49,5.06-5.56l0,0c1.91-2.85,3-6.32,3.28-9.79l0,0
				c0.28-3.4-0.21-6.8-1.13-10.05l0,0c-0.81-2.88-1.95-5.65-3.22-8.35l0,0c-1.05-2.26-2.2-4.48-3.34-6.69"/>
		</g>
		<g id="LINE_2322_">
			<line class="st1" x1="34.52" y1="66.02" x2="33.86" y2="106.47"/>
		</g>
		<g id="SPLINE_3584_">
			<path class="st0" d="M33.86,106.47c-1.78-1.8-3.55-3.61-4.88-5.73l0,0c-1.82-2.91-2.79-6.41-2.96-9.89l0,0
				c-0.16-3.41,0.44-6.79,1.46-10.01l0,0c0.91-2.85,2.14-5.58,3.48-8.24l0,0c1.13-2.22,2.35-4.4,3.57-6.58"/>
		</g>
		<g id="SPLINE_3585_">
			<path class="st0" d="M37.47,116.84c2.53,0.04,5.06,0.08,7.51-0.42l0,0c3.36-0.69,6.57-2.4,9.21-4.68l0,0
				c2.58-2.23,4.62-5,6.24-7.96l0,0c1.44-2.62,2.56-5.39,3.56-8.21l0,0c0.83-2.35,1.57-4.74,2.3-7.12"/>
		</g>
		<g id="LINE_2323_">
			<line class="st1" x1="66.29" y1="88.46" x2="37.47" y2="116.84"/>
		</g>
		<g id="SPLINE_3586_">
			<path class="st0" d="M37.47,116.84c0-2.53-0.01-5.06,0.53-7.5l0,0c0.74-3.35,2.51-6.53,4.82-9.13l0,0
				c2.27-2.55,5.07-4.54,8.06-6.12l0,0c2.64-1.4,5.43-2.48,8.26-3.43l0,0c2.36-0.79,4.76-1.5,7.15-2.2"/>
		</g>
		<g id="SPLINE_3587_">
			<path class="st0" d="M45.42,90.54c2.52-0.25,5.04-0.49,7.42-1.27l0,0c3.26-1.07,6.25-3.14,8.61-5.7l0,0
				c2.31-2.51,4.02-5.49,5.3-8.62l0,0c1.13-2.77,1.93-5.65,2.6-8.56l0,0c0.55-2.43,1.02-4.88,1.48-7.33"/>
		</g>
		<g id="LINE_2324_">
			<line class="st1" x1="70.81" y1="59.05" x2="45.42" y2="90.54"/>
		</g>
		<g id="SPLINE_3588_">
			<path class="st0" d="M45.42,90.54c-0.29-2.52-0.59-5.03-0.33-7.52l0,0c0.35-3.41,1.75-6.77,3.74-9.62l0,0
				c1.97-2.79,4.52-5.09,7.31-7l0,0c2.46-1.69,5.11-3.09,7.81-4.35l0,0c2.26-1.06,4.56-2.03,6.86-3"/>
		</g>
		<g id="CIRCLE_234_">
			<path class="st0" d="M148.23,254.6c0-2.99-2.43-5.42-5.42-5.42s-5.42,2.43-5.42,5.42c0,2.99,2.43,5.42,5.42,5.42
				S148.23,257.59,148.23,254.6L148.23,254.6L148.23,254.6z"/>
		</g>
		<g id="SPLINE_3589_">
			<path class="st0" d="M155.49,249.38c0.19-2.53,0.38-5.05,1.1-7.44l0,0c0.99-3.29,3-6.32,5.49-8.74l0,0
				c2.46-2.37,5.4-4.14,8.5-5.5l0,0c2.73-1.19,5.6-2.06,8.5-2.79l0,0c2.41-0.61,4.86-1.13,7.3-1.65"/>
		</g>
		<g id="LINE_2325_">
			<line class="st1" x1="186.38" y1="223.26" x2="155.49" y2="249.38"/>
		</g>
		<g id="SPLINE_3590_">
			<path class="st0" d="M155.49,249.38c2.52,0.23,5.04,0.47,7.52,0.16l0,0c3.41-0.44,6.73-1.9,9.53-3.97l0,0
				c2.75-2.03,4.98-4.63,6.83-7.47l0,0c1.63-2.5,2.97-5.18,4.17-7.91l0,0c1-2.29,1.92-4.6,2.84-6.92"/>
		</g>
		<g id="SPLINE_3591_">
			<path class="st0" d="M151.79,258.16c2.14-1.36,4.27-2.72,6.62-3.57l0,0c3.22-1.17,6.86-1.39,10.29-0.83l0,0
				c3.37,0.55,6.55,1.85,9.49,3.52l0,0c2.6,1.48,5.01,3.25,7.32,5.13l0,0c1.94,1.57,3.82,3.22,5.69,4.86"/>
		</g>
		<g id="LINE_2326_">
			<line class="st1" x1="191.21" y1="267.27" x2="151.79" y2="258.16"/>
		</g>
		<g id="SPLINE_3592_">
			<path class="st0" d="M151.79,258.16c1.32,2.15,2.64,4.32,4.38,6.11l0,0c2.38,2.47,5.55,4.26,8.89,5.26l0,0
				c3.26,0.98,6.69,1.21,10.06,1l0,0c2.99-0.2,5.93-0.73,8.83-1.4l0,0c2.43-0.57,4.84-1.22,7.25-1.87"/>
		</g>
		<g id="SPLINE_3593_">
			<path class="st0" d="M192.35,241.45c-1.15-2.25-2.29-4.52-2.91-6.94l0,0c-0.85-3.32-0.72-6.95,0.18-10.33l0,0
				c0.88-3.29,2.48-6.33,4.43-9.09l0,0c1.73-2.44,3.73-4.66,5.83-6.79l0,0c1.75-1.78,3.57-3.48,5.39-5.19"/>
		</g>
		<g id="LINE_2327_">
			<line class="st1" x1="205.26" y1="203.12" x2="192.35" y2="241.45"/>
		</g>
		<g id="SPLINE_3594_">
			<path class="st0" d="M192.35,241.45c2.28-1.11,4.55-2.21,6.51-3.76l0,0c2.69-2.13,4.78-5.11,6.11-8.33l0,0
				c1.29-3.15,1.86-6.54,1.98-9.92l0,0c0.1-2.98-0.15-5.97-0.54-8.93l0,0c-0.32-2.47-0.74-4.93-1.15-7.39"/>
		</g>
		<g id="SPLINE_3595_">
			<path class="st0" d="M178.63,249.85c2.02-1.52,4.04-3.05,6.31-4.09l0,0c3.12-1.42,6.73-1.93,10.2-1.64l0,0
				c3.4,0.29,6.67,1.33,9.74,2.76l0,0c2.7,1.27,5.25,2.85,7.71,4.54l0,0c2.06,1.41,4.06,2.9,6.05,4.39"/>
		</g>
		<g id="LINE_2328_">
			<line class="st1" x1="218.64" y1="255.81" x2="178.63" y2="249.85"/>
		</g>
		<g id="SPLINE_3596_">
			<path class="st0" d="M178.63,249.85c1.49,2.04,2.98,4.1,4.85,5.75l0,0c2.57,2.27,5.87,3.8,9.28,4.54l0,0
				c3.33,0.73,6.76,0.68,10.11,0.21l0,0c2.96-0.43,5.85-1.2,8.7-2.1l0,0c2.38-0.75,4.73-1.6,7.08-2.43"/>
		</g>
		<g id="SPLINE_3597_">
			<path class="st0" d="M218.54,227.46c-1.77-1.81-3.54-3.62-4.86-5.75l0,0c-1.81-2.91-2.77-6.43-2.93-9.9l0,0
				c-0.16-3.41,0.46-6.79,1.49-10.01l0,0c0.91-2.85,2.15-5.57,3.52-8.22l0,0c1.14-2.22,2.36-4.39,3.59-6.57"/>
		</g>
		<g id="LINE_2329_">
			<line class="st1" x1="219.34" y1="187.01" x2="218.54" y2="227.46"/>
		</g>
		<g id="SPLINE_3598_">
			<path class="st0" d="M218.54,227.46c1.84-1.75,3.68-3.48,5.08-5.55l0,0c1.93-2.85,3.02-6.31,3.32-9.78l0,0
				c0.29-3.4-0.19-6.8-1.09-10.06l0,0c-0.8-2.88-1.93-5.65-3.18-8.36l0,0c-1.05-2.26-2.19-4.48-3.32-6.7"/>
		</g>
		<g id="SPLINE_3599_">
			<path class="st0" d="M203.47,240.58c1.54-2.01,3.08-4.02,4.99-5.63l0,0c2.62-2.21,5.96-3.66,9.38-4.32l0,0
				c3.35-0.64,6.78-0.51,10.12,0.05l0,0c2.95,0.5,5.82,1.33,8.65,2.3l0,0c2.36,0.81,4.68,1.71,7.01,2.62"/>
		</g>
		<g id="LINE_2330_">
			<line class="st1" x1="243.62" y1="235.59" x2="203.47" y2="240.58"/>
		</g>
		<g id="SPLINE_3600_">
			<path class="st0" d="M203.47,240.58c1.99,1.58,3.96,3.14,6.22,4.23l0,0c3.08,1.5,6.68,2.1,10.15,1.89l0,0
				c3.41-0.2,6.71-1.16,9.8-2.51l0,0c2.73-1.21,5.31-2.72,7.81-4.35l0,0c2.1-1.37,4.13-2.81,6.17-4.25"/>
		</g>
		<g id="SPLINE_3601_">
			<path class="st0" d="M238,209.85c-2.12-1.38-4.25-2.76-6-4.54l0,0c-2.4-2.45-4.1-5.66-5.02-9.02l0,0
				c-0.9-3.29-1.04-6.72-0.74-10.09l0,0c0.27-2.97,0.89-5.9,1.63-8.79l0,0c0.62-2.42,1.34-4.8,2.06-7.19"/>
		</g>
		<g id="LINE_2331_">
			<line class="st1" x1="229.94" y1="170.21" x2="238" y2="209.85"/>
		</g>
		<g id="SPLINE_3602_">
			<path class="st0" d="M238,209.85c1.41-2.1,2.83-4.2,3.74-6.52l0,0c1.26-3.19,1.57-6.82,1.1-10.27l0,0
				c-0.46-3.38-1.67-6.59-3.26-9.58l0,0c-1.41-2.64-3.12-5.09-4.93-7.46l0,0c-1.52-1.98-3.11-3.9-4.71-5.82"/>
		</g>
		<g id="SPLINE_3603_">
			<path class="st0" d="M225.22,225.74c1.12-2.27,2.24-4.54,3.81-6.48l0,0c2.16-2.67,5.15-4.74,8.38-6.04l0,0
				c3.16-1.27,6.56-1.81,9.93-1.9l0,0c2.99-0.08,5.97,0.19,8.92,0.6l0,0c2.47,0.34,4.93,0.77,7.38,1.21"/>
		</g>
		<g id="LINE_2332_">
			<line class="st1" x1="263.65" y1="213.12" x2="225.22" y2="225.74"/>
		</g>
		<g id="SPLINE_3604_">
			<path class="st0" d="M225.22,225.74c2.25,1.17,4.49,2.33,6.91,2.97l0,0c3.31,0.87,6.95,0.76,10.32-0.1l0,0
				c3.3-0.85,6.35-2.43,9.13-4.36l0,0c2.45-1.71,4.7-3.69,6.83-5.77l0,0c1.79-1.75,3.51-3.55,5.23-5.35"/>
		</g>
		<g id="SPLINE_3605_">
			<path class="st0" d="M243.06,207.28c0.64-2.45,1.29-4.9,2.43-7.12l0,0c1.58-3.05,4.1-5.67,7-7.59l0,0
				c2.84-1.88,6.06-3.08,9.36-3.85l0,0c2.91-0.68,5.88-1.01,8.87-1.2l0,0c2.49-0.16,4.98-0.22,7.47-0.29"/>
		</g>
		<g id="LINE_2333_">
			<line class="st1" x1="278.19" y1="187.23" x2="243.06" y2="207.28"/>
		</g>
		<g id="SPLINE_3606_">
			<path class="st0" d="M243.06,207.28c2.43,0.69,4.87,1.38,7.36,1.52l0,0c3.43,0.19,6.97-0.64,10.1-2.16l0,0
				c3.07-1.49,5.74-3.65,8.08-6.1l0,0c2.06-2.16,3.86-4.55,5.54-7.02l0,0c1.41-2.06,2.73-4.18,4.06-6.29"/>
		</g>
		<g id="SPLINE_3607_">
			<path class="st0" d="M250.41,186.19c0.36-2.5,0.72-5.01,1.61-7.35l0,0c1.22-3.21,3.42-6.1,6.09-8.34l0,0
				c2.61-2.19,5.66-3.76,8.85-4.9l0,0c2.81-1,5.73-1.67,8.67-2.21l0,0c2.45-0.44,4.93-0.79,7.39-1.14"/>
		</g>
		<g id="LINE_2334_">
			<line class="st1" x1="283.02" y1="162.25" x2="250.41" y2="186.19"/>
		</g>
		<g id="SPLINE_3608_">
			<path class="st0" d="M250.41,186.19c2.5,0.41,5,0.81,7.49,0.67l0,0c3.42-0.2,6.85-1.43,9.78-3.3l0,0
				c2.87-1.84,5.29-4.28,7.32-6.98l0,0c1.8-2.39,3.31-4.97,4.7-7.61l0,0c1.16-2.21,2.23-4.46,3.31-6.71"/>
		</g>
		<g id="SPLINE_3609_">
			<path class="st0" d="M258.32,164.92c-0.61-2.46-1.22-4.91-1.29-7.41l0,0c-0.09-3.43,0.85-6.94,2.47-10.02l0,0
				c1.59-3.02,3.82-5.63,6.34-7.88l0,0c2.23-2,4.67-3.72,7.19-5.32l0,0c2.1-1.34,4.26-2.6,6.41-3.86"/>
		</g>
		<g id="LINE_2335_">
			<line class="st1" x1="279.45" y1="130.42" x2="258.32" y2="164.92"/>
		</g>
		<g id="SPLINE_3610_">
			<path class="st0" d="M258.32,164.92c2.47-0.57,4.93-1.14,7.19-2.22l0,0c3.1-1.48,5.8-3.92,7.81-6.76l0,0
				c1.97-2.79,3.27-5.96,4.14-9.23l0,0c0.77-2.89,1.19-5.85,1.47-8.82l0,0c0.24-2.48,0.38-4.97,0.52-7.46"/>
		</g>
		<g id="SPLINE_3611_">
			<path class="st0" d="M247.82,181.54c-2.23-1.21-4.45-2.42-6.33-4.06l0,0c-2.59-2.25-4.54-5.32-5.72-8.6l0,0
				c-1.16-3.21-1.57-6.62-1.53-10l0,0c0.03-2.99,0.42-5.96,0.93-8.9l0,0c0.44-2.46,0.96-4.9,1.49-7.33"/>
		</g>
		<g id="LINE_2336_">
			<line class="st1" x1="236.66" y1="142.66" x2="247.82" y2="181.54"/>
		</g>
		<g id="SPLINE_3612_">
			<path class="st0" d="M247.82,181.54c1.25-2.2,2.49-4.41,3.22-6.8l0,0c1-3.28,1.03-6.92,0.29-10.32l0,0
				c-0.72-3.33-2.18-6.44-4.01-9.29l0,0c-1.61-2.52-3.51-4.83-5.51-7.05l0,0c-1.67-1.85-3.41-3.64-5.15-5.42"/>
		</g>
		<g id="SPLINE_3613_">
			<path class="st0" d="M254.76,151.58c-2.43-0.68-4.88-1.36-7.08-2.53l0,0c-3.03-1.62-5.62-4.17-7.5-7.11l0,0
				c-1.84-2.87-3-6.1-3.72-9.41l0,0c-0.63-2.92-0.92-5.9-1.07-8.88l0,0c-0.13-2.49-0.16-4.98-0.19-7.48"/>
		</g>
		<g id="LINE_2337_">
			<line class="st1" x1="235.2" y1="116.18" x2="254.76" y2="151.58"/>
		</g>
		<g id="SPLINE_3614_">
			<path class="st0" d="M254.76,151.58c0.73-2.42,1.44-4.85,1.63-7.34l0,0c0.24-3.42-0.55-6.98-2.03-10.13l0,0
				c-1.45-3.09-3.57-5.79-5.98-8.16l0,0c-2.14-2.09-4.5-3.93-6.95-5.64l0,0c-2.04-1.44-4.13-2.79-6.23-4.14"/>
		</g>
		<g id="SPLINE_3615_">
			<path class="st0" d="M259.72,136.6c-1.4-2.11-2.8-4.22-3.7-6.55l0,0c-1.23-3.2-1.52-6.83-1.02-10.27l0,0
				c0.48-3.38,1.72-6.58,3.33-9.55l0,0c1.43-2.63,3.16-5.07,4.99-7.42l0,0c1.54-1.97,3.14-3.87,4.75-5.78"/>
		</g>
		<g id="LINE_2338_">
			<line class="st1" x1="268.08" y1="97.02" x2="259.72" y2="136.6"/>
		</g>
		<g id="SPLINE_3616_">
			<path class="st0" d="M259.72,136.6c2.13-1.36,4.27-2.73,6.03-4.5l0,0c2.42-2.43,4.15-5.63,5.08-8.98l0,0
				c0.92-3.28,1.09-6.72,0.81-10.08l0,0c-0.25-2.98-0.84-5.91-1.57-8.81l0,0c-0.61-2.42-1.31-4.81-2-7.21"/>
		</g>
		<g id="SPLINE_3617_">
			<path class="st0" d="M251.75,106.47c-1.84-1.74-3.67-3.49-5.07-5.56l0,0c-1.91-2.85-3-6.32-3.29-9.79l0,0
				c-0.27-3.4,0.21-6.8,1.13-10.05l0,0c0.81-2.88,1.95-5.65,3.21-8.35l0,0c1.06-2.26,2.21-4.48,3.35-6.69"/>
		</g>
		<g id="LINE_2339_">
			<line class="st1" x1="251.08" y1="66.02" x2="251.75" y2="106.47"/>
		</g>
		<g id="SPLINE_3618_">
			<path class="st0" d="M251.75,106.47c1.78-1.8,3.55-3.61,4.88-5.73l0,0c1.82-2.91,2.79-6.41,2.96-9.89l0,0
				c0.17-3.41-0.43-6.79-1.45-10.01l0,0c-0.9-2.85-2.13-5.58-3.49-8.24l0,0c-1.13-2.22-2.34-4.4-3.56-6.58"/>
		</g>
		<g id="SPLINE_3619_">
			<path class="st0" d="M248.14,116.84c-2.53,0.04-5.06,0.08-7.51-0.42l0,0c-3.37-0.69-6.57-2.4-9.21-4.68l0,0
				c-2.58-2.23-4.62-5-6.24-7.96l0,0c-1.45-2.62-2.57-5.39-3.56-8.21l0,0c-0.83-2.35-1.57-4.74-2.3-7.12"/>
		</g>
		<g id="LINE_2340_">
			<line class="st1" x1="219.32" y1="88.46" x2="248.14" y2="116.84"/>
		</g>
		<g id="SPLINE_3620_">
			<path class="st0" d="M248.14,116.84c0.01-2.53,0.01-5.06-0.54-7.5l0,0c-0.74-3.35-2.5-6.53-4.82-9.13l0,0
				c-2.27-2.55-5.07-4.54-8.06-6.12l0,0c-2.64-1.4-5.43-2.48-8.26-3.43l0,0c-2.36-0.79-4.76-1.5-7.15-2.2"/>
		</g>
		<g id="SPLINE_3621_">
			<path class="st0" d="M240.19,90.54c-2.52-0.25-5.04-0.49-7.42-1.27l0,0c-3.26-1.07-6.25-3.14-8.61-5.7l0,0
				c-2.31-2.51-4.01-5.49-5.29-8.62l0,0c-1.13-2.77-1.93-5.65-2.6-8.56l0,0c-0.56-2.43-1.02-4.88-1.48-7.33"/>
		</g>
		<g id="LINE_2341_">
			<line class="st1" x1="214.8" y1="59.05" x2="240.19" y2="90.54"/>
		</g>
		<g id="SPLINE_3622_">
			<path class="st0" d="M240.19,90.54c0.29-2.52,0.59-5.03,0.33-7.52l0,0c-0.35-3.41-1.74-6.77-3.75-9.62l0,0
				c-1.96-2.79-4.52-5.09-7.3-7l0,0c-2.46-1.69-5.11-3.09-7.81-4.35l0,0c-2.26-1.06-4.56-2.03-6.86-3"/>
		</g>
	</g>
	<g id="Kategorier">
		<g id="Bästa_scenografi">
			<g id="Pelare_2012">
				<g id="XMLID_19_">
					<g>
						<path class="st0" d="M195.63,66.22c0,0.75-0.05,1.51-0.13,2.26c-0.27,2.45-0.96,4.88-2.22,6.98
							c-1.46,2.48-3.72,4.55-6.34,5.83c-1.7,0.85-3.58,1.37-5.46,1.54c-0.45,0.04-0.91,0.06-1.36,0.06c-1.46,0-2.93-0.21-4.34-0.62
							c-1.55-0.44-3.04-1.14-4.4-2.04V133h-1.17V79.36c-0.1-0.09-0.21-0.16-0.31-0.24c-0.94-0.79-1.81-1.69-2.54-2.68
							c-0.37,0.38-0.75,0.91-1.13,1.43v55.11h-1.17V77.87c-0.33-0.47-0.66-0.94-0.99-1.28c-0.33-0.36-0.67-0.59-0.98-0.59
							c-0.67,0-1.33,0.94-1.99,1.87v55.11h-1.58V77.87c-0.42-0.47-0.83-0.94-1.24-1.28c-0.41-0.36-0.82-0.59-1.24-0.59
							c-0.83,0-1.66,0.94-2.49,1.87v55.11h-1.98V77.87c-0.5-0.47-0.99-0.94-1.48-1.28c-0.5-0.36-0.99-0.59-1.49-0.59
							c-0.98,0-1.98,0.94-2.97,1.87v55.11h-1.98V77.87c-0.5-0.47-0.98-0.94-1.48-1.28c-0.5-0.36-0.99-0.59-1.49-0.59
							c-0.98,0-1.98,0.94-2.96,1.87v55.11h-1.99V77.87c-0.98-0.94-2-1.87-2.98-1.87c-0.5,0-0.99,0.23-1.49,0.59
							c-0.5,0.35-0.98,0.81-1.48,1.28v55.11h-1.98V77.87c-0.82-0.94-1.66-1.87-2.47-1.87c-0.41,0-0.82,0.23-1.24,0.59
							c-0.41,0.35-0.82,0.81-1.24,1.28v55.11h-1.59V77.87c-0.67-0.94-1.31-1.87-1.98-1.87c-0.33,0-0.67,0.23-0.98,0.59
							c-0.34,0.35-0.66,0.81-0.99,1.28v55.11h-1.2V77.87c-0.37-0.52-0.75-1.06-1.12-1.43c-0.71,0.99-1.58,1.89-2.54,2.68
							c-0.08,0.08-0.19,0.15-0.29,0.24v53.62h-1.19V80.21c-1.35,0.9-2.84,1.6-4.38,2.04c-1.4,0.41-2.88,0.62-4.34,0.62
							c-0.46,0-0.91-0.02-1.36-0.06c-1.9-0.17-3.76-0.68-5.48-1.54c-2.59-1.27-4.86-3.34-6.34-5.83c-1.26-2.1-1.95-4.52-2.22-6.98
							c-0.08-0.74-0.12-1.48-0.12-2.22c0-1.56,0.19-3.13,0.58-4.64c0.62-2.34,1.74-4.53,3.18-6.55c1.36-1.93,3-3.67,4.99-4.84
							c1.83-1.1,3.98-1.7,6.11-1.99c0.62-0.08,1.23-0.13,1.85-0.17L104,46.49l-3.05-1.57l-0.37-4.66H98.6v-1.98h86.18v1.98h-1.98
							l-0.4,4.66l-3.07,1.57l-0.41,1.58c0.62,0.04,1.23,0.08,1.85,0.17c2.15,0.28,4.3,0.89,6.14,1.99c1.99,1.17,3.62,2.91,4.98,4.84
							c1.43,2.01,2.52,4.21,3.14,6.55C195.43,63.12,195.63,64.66,195.63,66.22z M193.65,66.33c0-0.31-0.01-0.62-0.03-0.93
							c-0.04-0.97-0.18-1.93-0.37-2.85c-0.21-0.92-0.55-1.83-0.89-2.7c-0.58-1.29-1.29-2.56-2.18-3.73
							c-0.48-0.74-1.06-1.43-1.64-2.05c-0.48-0.48-0.96-0.92-1.43-1.31c-0.48-0.39-1.02-0.73-1.56-1.02
							c-1.1-0.62-2.39-1.04-3.72-1.32c-1.33-0.27-2.74-0.38-4.17-0.42c-0.73,0-1.46,0-2.21,0c-0.75,0.02-1.52,0.04-2.29,0.04
							c-0.6,0-1.2,0-1.78,0h-59.39h-0.01c-0.59,0-1.16,0-1.78,0c-0.77,0-1.54-0.02-2.29-0.04c-0.73,0-1.48,0-2.2,0
							c-1.43,0.04-2.83,0.15-4.18,0.42c-1.33,0.28-2.6,0.7-3.73,1.32c-0.53,0.29-1.05,0.63-1.54,1.02c-0.5,0.39-0.97,0.83-1.42,1.31
							c-0.59,0.62-1.15,1.31-1.69,2.05c-0.85,1.17-1.56,2.44-2.13,3.73c-0.39,0.87-0.68,1.78-0.91,2.7
							c-0.21,0.92-0.34,1.87-0.39,2.85c-0.01,0.25-0.02,0.51-0.02,0.77c0,0.96,0.07,1.92,0.21,2.89c0.19,1.21,0.5,2.39,0.93,3.48
							c0.44,1.1,0.98,2.1,1.69,3.03c0.7,0.94,1.54,1.79,2.47,2.5c0.83,0.67,1.75,1.23,2.73,1.66c0.96,0.44,1.98,0.75,3.02,0.96
							c0.82,0.15,1.66,0.23,2.5,0.23s1.7-0.08,2.52-0.23c1.36-0.26,2.7-0.74,3.93-1.41c0.84-0.44,1.62-0.96,2.37-1.58
							c0.74-0.58,1.4-1.23,1.97-1.93c0.39-0.48,0.73-0.96,1.02-1.5c0.25-0.44,0.46-0.9,0.64-1.41c0.18-0.5,0.32-1,0.44-1.55
							c0.15-0.68,0.23-1.4,0.29-2.13c0.03-0.41,0.05-0.81,0.05-1.22c0-0.51-0.03-0.99-0.08-1.48c-0.07-0.65-0.19-1.28-0.38-1.87
							c-0.15-0.46-0.34-0.91-0.56-1.35c-0.22-0.43-0.5-0.85-0.81-1.26c-0.59-0.81-1.34-1.56-2.18-2.18
							c-0.82-0.61-1.73-1.09-2.66-1.4c-0.77-0.25-1.54-0.41-2.35-0.45c-0.18-0.01-0.36-0.02-0.53-0.02c-0.66,0-1.35,0.07-2.04,0.18
							c-0.54,0.1-1.12,0.22-1.66,0.37c-0.52,0.13-1.04,0.32-1.5,0.52c-0.36,0.18-0.67,0.35-0.96,0.55c-0.22,0.15-0.4,0.3-0.61,0.49
							c-0.19,0.18-0.38,0.37-0.55,0.6c-0.34,0.43-0.67,0.94-0.96,1.5c-0.22,0.41-0.4,0.84-0.57,1.25c-0.18,0.43-0.31,0.85-0.43,1.28
							c-0.15,0.58-0.23,1.16-0.27,1.73c0,0.08,0,0.15,0,0.23c0,0.5,0.05,1.01,0.14,1.52c0.17,0.81,0.44,1.59,0.83,2.32
							c0.29,0.56,0.65,1.08,1.04,1.52c0.39,0.42,0.82,0.81,1.26,1.06c0.23,0.15,0.49,0.27,0.75,0.38c0.27,0.1,0.56,0.17,0.86,0.23
							c0.5,0.1,1.05,0.14,1.61,0.14c0.49-0.02,1.02-0.07,1.5-0.15c0.23-0.06,0.48-0.1,0.7-0.18c0.69-0.27,1.38-0.54,1.92-1.02
							c0.66-0.6,1.08-1.48,1.23-2.37c0.05-0.33,0.07-0.66,0.07-0.98c0-0.35-0.02-0.69-0.05-1.05c-0.02,0.21-0.03,0.41-0.08,0.62
							c-0.17,0.73-0.6,1.4-1.16,1.89c-0.75,0.66-1.78,0.99-2.78,0.99c-0.07,0-0.13,0-0.2,0c-0.91-0.04-1.81-0.38-2.49-0.96
							c-0.73-0.62-1.23-1.51-1.47-2.44c-0.11-0.43-0.17-0.87-0.17-1.3c0-0.57,0.09-1.13,0.31-1.67c0.38-0.94,1.09-1.73,1.96-2.25
							c0.8-0.45,1.69-0.67,2.59-0.67c0.15,0,0.31,0.01,0.46,0.02c0.91,0.08,1.77,0.36,2.47,0.87c1.04,0.75,1.69,2,2.08,3.27
							c0.26,0.87,0.4,1.76,0.4,2.64c0,0.81-0.12,1.6-0.38,2.36c-0.36,1.04-0.97,2.02-1.81,2.74c-1.18,0.99-2.74,1.43-4.35,1.56
							c-0.29,0.02-0.58,0.03-0.87,0.03c-1.37,0-2.7-0.24-3.86-0.86c-1.27-0.69-2.33-1.84-3.1-3.15c-0.89-1.54-1.39-3.3-1.39-5.02
							c0-0.16,0-0.32,0.01-0.48c0.07-1.55,0.52-3.05,1.19-4.45c0.67-1.43,1.54-2.74,2.76-3.68c1.28-0.97,2.93-1.54,4.61-1.86
							c0.98-0.2,1.97-0.31,2.94-0.31c0.81,0,1.63,0.08,2.43,0.26c1.62,0.36,3.19,1.12,4.53,2.16c0.39,0.31,0.77,0.63,1.11,0.99
							c0.05-0.24,0.1-0.47,0.17-0.68c0.14-0.43,0.31-0.82,0.52-1.2c0.23-0.44,0.51-0.85,0.85-1.23c0.23-0.25,0.49-0.5,0.78-0.71
							c0.22-0.19,0.48-0.37,0.74-0.48c0.23-0.14,0.5-0.26,0.73-0.37c0.43-0.17,0.85-0.27,1.25-0.38c0.33-0.08,0.63-0.13,0.96-0.2
							c0.31-0.06,0.61-0.1,0.94-0.16c0.62-0.1,1.23-0.17,1.85-0.22c1.12-0.1,2.25-0.16,3.34-0.18h0.03h14.55h14.56h0.03
							c1.1,0.02,2.2,0.07,3.33,0.18c0.62,0.05,1.25,0.11,1.86,0.22c0.3,0.06,0.63,0.1,0.94,0.16c0.31,0.07,0.61,0.11,0.96,0.2
							c0.39,0.1,0.8,0.21,1.25,0.38c0.23,0.1,0.48,0.22,0.73,0.37c0.23,0.11,0.5,0.29,0.73,0.48c0.29,0.22,0.55,0.46,0.79,0.71
							c0.33,0.38,0.62,0.79,0.85,1.23c0.21,0.37,0.37,0.77,0.5,1.2c0.07,0.22,0.13,0.44,0.17,0.68c0.36-0.37,0.73-0.68,1.12-0.99
							c1.35-1.04,2.9-1.81,4.54-2.16c0.8-0.18,1.6-0.26,2.42-0.26c0.97,0,1.96,0.11,2.95,0.31c1.64,0.33,3.34,0.89,4.61,1.86
							c1.23,0.94,2.08,2.25,2.76,3.68c0.65,1.4,1.12,2.9,1.19,4.45c0.01,0.16,0.01,0.32,0.01,0.48c0,1.72-0.5,3.48-1.4,5.02
							c-0.75,1.31-1.81,2.45-3.07,3.15c-1.18,0.62-2.5,0.86-3.87,0.86c-0.29,0-0.58-0.01-0.87-0.03c-1.6-0.13-3.19-0.57-4.35-1.56
							c-0.84-0.72-1.47-1.7-1.83-2.74c-0.25-0.75-0.37-1.53-0.37-2.32c0-0.89,0.15-1.79,0.41-2.68c0.37-1.27,1.02-2.52,2.06-3.27
							c0.69-0.52,1.58-0.79,2.47-0.87c0.16-0.01,0.31-0.02,0.47-0.02c0.92,0,1.81,0.22,2.6,0.67c0.88,0.52,1.56,1.31,1.98,2.25
							c0.2,0.54,0.29,1.11,0.29,1.69c0,0.43-0.06,0.86-0.16,1.28c-0.27,0.94-0.75,1.83-1.5,2.44c-0.68,0.58-1.56,0.92-2.49,0.96
							c-0.07,0-0.13,0-0.2,0c-1,0-2.01-0.34-2.77-0.99c-0.57-0.5-0.98-1.16-1.15-1.89c-0.06-0.21-0.08-0.41-0.08-0.62
							c-0.03,0.37-0.06,0.74-0.06,1.11c0,0.31,0.02,0.62,0.07,0.93c0.16,0.89,0.56,1.77,1.23,2.37c0.53,0.48,1.24,0.75,1.93,1.02
							c0.22,0.07,0.45,0.12,0.68,0.18c0.5,0.08,1,0.13,1.52,0.15c0.58,0,1.1-0.04,1.6-0.14c0.27-0.07,0.58-0.13,0.85-0.23
							c0.27-0.1,0.52-0.23,0.79-0.38c0.41-0.25,0.85-0.64,1.23-1.06c0.41-0.44,0.75-0.96,1.06-1.52c0.38-0.73,0.65-1.52,0.82-2.32
							c0.08-0.48,0.15-0.96,0.15-1.43c0-0.1,0-0.21-0.01-0.31c-0.04-0.57-0.1-1.15-0.27-1.73c-0.1-0.43-0.24-0.85-0.41-1.28
							c-0.17-0.4-0.38-0.83-0.58-1.25c-0.27-0.56-0.61-1.07-0.96-1.5c-0.21-0.23-0.38-0.42-0.54-0.6c-0.21-0.19-0.41-0.34-0.62-0.49
							c-0.27-0.21-0.61-0.37-0.95-0.55c-0.49-0.21-0.96-0.39-1.51-0.52c-0.54-0.16-1.09-0.27-1.67-0.37
							c-0.69-0.11-1.37-0.18-2.02-0.18c-0.18,0-0.36,0.01-0.53,0.02c-0.82,0.04-1.59,0.2-2.36,0.45c-0.94,0.31-1.84,0.79-2.67,1.4
							c-0.82,0.62-1.57,1.37-2.19,2.18c-0.29,0.41-0.56,0.83-0.78,1.26c-0.24,0.44-0.43,0.89-0.56,1.35
							c-0.19,0.59-0.31,1.23-0.39,1.87c-0.05,0.5-0.07,1.01-0.07,1.53c0,0.38,0.01,0.78,0.03,1.17c0.06,0.73,0.15,1.44,0.29,2.13
							c0.12,0.55,0.27,1.06,0.44,1.55c0.19,0.52,0.39,0.97,0.66,1.41c0.29,0.53,0.63,1.02,1.02,1.5c0.56,0.7,1.23,1.35,1.95,1.93
							c0.75,0.62,1.54,1.14,2.38,1.58c1.25,0.67,2.58,1.14,3.94,1.41c0.83,0.15,1.67,0.23,2.51,0.23c0.83,0,1.67-0.08,2.48-0.23
							c1.06-0.21,2.05-0.52,3.04-0.96c0.95-0.43,1.87-0.99,2.73-1.66c0.92-0.71,1.74-1.56,2.45-2.5c0.72-0.93,1.26-1.93,1.67-3.03
							c0.48-1.09,0.76-2.27,0.96-3.48C193.58,68.15,193.65,67.24,193.65,66.33z M180.52,43.66l0.28-3.4h-78.25l0.29,3.4H180.52z
							 M176.88,48.05l0.77-2.91H105.7l0.76,2.91H176.88z M166.2,62.26c0.23-0.79,0.38-1.56,0.25-2.37c-0.17-1.11-0.8-2.24-1.71-2.87
							c-0.67-0.48-1.46-0.68-2.27-0.85c-1.04-0.23-2.06-0.38-3.11-0.46c0.38,0.83,0.74,1.69,0.95,2.59
							c0.11,0.54,0.18,1.11,0.18,1.67c0,0.9-0.16,1.79-0.51,2.58c-0.36,0.82-0.92,1.52-1.57,2.15c-0.66,0.65-1.42,1.22-2.17,1.8
							h8.73c0.1-0.98,0.29-1.96,0.63-2.89C165.75,63.15,165.95,62.7,166.2,62.26z M117.63,73.3h48.08
							c-0.44-1.35-0.68-2.78-0.77-4.22c-0.02-0.19-0.04-0.37-0.04-0.58h-46.47c0,0.21,0,0.39-0.02,0.58
							C118.34,70.52,118.09,71.95,117.63,73.3z M158.73,59.96c0-0.55-0.04-1.11-0.11-1.65c-0.13-0.93-0.36-1.81-0.58-2.7
							c-0.59-0.02-1.21-0.04-1.8-0.05h-6c0.39,0.88,0.8,1.79,1,2.74c0.12,0.54,0.18,1.11,0.18,1.66c0,0.9-0.16,1.79-0.51,2.59
							c-0.36,0.82-0.91,1.52-1.57,2.15c-0.66,0.65-1.42,1.22-2.17,1.8h7.78c1.37-1.19,2.73-2.38,3.36-3.95
							C158.62,61.76,158.73,60.87,158.73,59.96z M149.67,59.94c0-0.54-0.05-1.1-0.12-1.63c-0.14-0.95-0.37-1.85-0.6-2.74h-7.27
							h-7.28c-0.23,0.9-0.44,1.8-0.58,2.74c-0.07,0.53-0.12,1.09-0.12,1.63c0,0.91,0.13,1.81,0.45,2.61
							c0.61,1.57,1.98,2.76,3.34,3.95h8.38c1.36-1.19,2.73-2.38,3.35-3.95C149.54,61.75,149.67,60.86,149.67,59.94z M128.43,66.51
							h7.78c-0.76-0.58-1.52-1.15-2.18-1.8c-0.67-0.64-1.23-1.33-1.58-2.15c-0.35-0.8-0.51-1.7-0.51-2.59
							c0-0.55,0.06-1.11,0.18-1.65c0.22-0.96,0.61-1.86,1.02-2.74h-6c-0.61,0.01-1.21,0.03-1.81,0.05c-0.22,0.89-0.44,1.77-0.58,2.7
							c-0.07,0.53-0.12,1.09-0.12,1.63c0,0.92,0.13,1.81,0.45,2.61C125.7,64.13,127.07,65.32,128.43,66.51z M118.38,66.51h8.75
							c-0.76-0.58-1.52-1.15-2.17-1.8c-0.67-0.64-1.22-1.33-1.57-2.15c-0.35-0.8-0.52-1.69-0.52-2.59c0-0.55,0.07-1.11,0.19-1.65
							c0.19-0.91,0.56-1.76,0.94-2.59c-1.04,0.08-2.08,0.23-3.1,0.46c-0.81,0.17-1.6,0.37-2.27,0.85c-0.91,0.63-1.56,1.76-1.71,2.87
							c-0.12,0.81,0.01,1.58,0.25,2.37c0.23,0.44,0.42,0.89,0.6,1.35C118.11,64.55,118.3,65.52,118.38,66.51z"/>
						<path class="st2" d="M193.62,65.4c0.02,0.31,0.03,0.62,0.03,0.93c0,0.91-0.08,1.82-0.21,2.73c-0.2,1.21-0.48,2.39-0.96,3.48
							c-0.4,1.1-0.95,2.1-1.67,3.03c-0.71,0.94-1.54,1.79-2.45,2.5c-0.85,0.67-1.78,1.23-2.73,1.66c-0.99,0.44-1.99,0.75-3.04,0.96
							c-0.81,0.15-1.65,0.23-2.48,0.23c-0.84,0-1.68-0.08-2.51-0.23c-1.37-0.26-2.7-0.74-3.94-1.41c-0.83-0.44-1.63-0.96-2.38-1.58
							c-0.72-0.58-1.39-1.23-1.95-1.93c-0.39-0.48-0.73-0.96-1.02-1.5c-0.26-0.44-0.47-0.9-0.66-1.41c-0.17-0.5-0.32-1-0.44-1.55
							c-0.14-0.68-0.23-1.4-0.29-2.13c-0.02-0.39-0.03-0.79-0.03-1.17c0-0.52,0.02-1.03,0.07-1.53c0.09-0.65,0.21-1.28,0.39-1.87
							c0.13-0.46,0.32-0.91,0.56-1.35c0.21-0.43,0.49-0.85,0.78-1.26c0.62-0.81,1.37-1.56,2.19-2.18c0.83-0.61,1.73-1.09,2.67-1.4
							c0.77-0.25,1.54-0.41,2.36-0.45c0.18-0.01,0.36-0.02,0.53-0.02c0.66,0,1.33,0.07,2.02,0.18c0.58,0.1,1.12,0.22,1.67,0.37
							c0.55,0.13,1.02,0.32,1.51,0.52c0.34,0.18,0.67,0.35,0.95,0.55c0.21,0.15,0.41,0.3,0.62,0.49c0.17,0.18,0.34,0.37,0.54,0.6
							c0.35,0.43,0.68,0.94,0.96,1.5c0.21,0.41,0.41,0.84,0.58,1.25c0.17,0.43,0.31,0.85,0.41,1.28c0.17,0.58,0.23,1.16,0.27,1.73
							c0.01,0.1,0.01,0.21,0.01,0.31c0,0.47-0.07,0.96-0.15,1.43c-0.17,0.81-0.44,1.59-0.82,2.32c-0.31,0.56-0.65,1.08-1.06,1.52
							c-0.38,0.42-0.82,0.81-1.23,1.06c-0.27,0.15-0.52,0.27-0.79,0.38c-0.27,0.1-0.58,0.17-0.85,0.23c-0.51,0.1-1.02,0.14-1.6,0.14
							c-0.52-0.02-1.02-0.07-1.52-0.15c-0.23-0.06-0.46-0.1-0.68-0.18c-0.69-0.27-1.4-0.54-1.93-1.02c-0.66-0.6-1.07-1.48-1.23-2.37
							c-0.05-0.31-0.07-0.62-0.07-0.93c0-0.37,0.03-0.73,0.06-1.11c0,0.21,0.03,0.41,0.08,0.62c0.17,0.73,0.58,1.4,1.15,1.89
							c0.76,0.66,1.77,0.99,2.77,0.99c0.07,0,0.13,0,0.2,0c0.93-0.04,1.81-0.38,2.49-0.96c0.75-0.62,1.23-1.51,1.5-2.44
							c0.1-0.42,0.16-0.85,0.16-1.28c0-0.57-0.09-1.14-0.29-1.69c-0.41-0.94-1.1-1.73-1.98-2.25c-0.8-0.45-1.69-0.67-2.6-0.67
							c-0.16,0-0.31,0.01-0.47,0.02c-0.89,0.08-1.78,0.36-2.47,0.87c-1.04,0.75-1.7,2-2.06,3.27c-0.26,0.89-0.41,1.79-0.41,2.68
							c0,0.8,0.12,1.57,0.37,2.32c0.36,1.04,0.98,2.02,1.83,2.74c1.15,0.99,2.74,1.43,4.35,1.56c0.29,0.02,0.58,0.03,0.87,0.03
							c1.37,0,2.69-0.24,3.87-0.86c1.26-0.69,2.32-1.84,3.07-3.15c0.91-1.54,1.4-3.3,1.4-5.02c0-0.16,0-0.32-0.01-0.48
							c-0.07-1.55-0.54-3.05-1.19-4.45c-0.68-1.43-1.54-2.74-2.76-3.68c-1.26-0.97-2.97-1.54-4.61-1.86
							c-0.99-0.2-1.98-0.31-2.95-0.31c-0.82,0-1.62,0.08-2.42,0.26c-1.64,0.36-3.19,1.12-4.54,2.16c-0.39,0.31-0.77,0.63-1.12,0.99
							c-0.04-0.24-0.1-0.47-0.17-0.68c-0.12-0.43-0.29-0.82-0.5-1.2c-0.23-0.44-0.53-0.85-0.85-1.23c-0.23-0.25-0.5-0.5-0.79-0.71
							c-0.23-0.19-0.5-0.37-0.73-0.48c-0.25-0.14-0.5-0.26-0.73-0.37c-0.45-0.17-0.85-0.27-1.25-0.38c-0.35-0.08-0.65-0.13-0.96-0.2
							c-0.31-0.06-0.64-0.1-0.94-0.16c-0.62-0.1-1.25-0.17-1.86-0.22c-1.12-0.1-2.23-0.16-3.33-0.18h-0.03h-14.56h-14.55h-0.03
							c-1.1,0.02-2.22,0.07-3.34,0.18c-0.62,0.05-1.23,0.11-1.85,0.22c-0.33,0.06-0.63,0.1-0.94,0.16c-0.33,0.07-0.63,0.11-0.96,0.2
							c-0.39,0.1-0.82,0.21-1.25,0.38c-0.23,0.1-0.5,0.22-0.73,0.37c-0.26,0.11-0.52,0.29-0.74,0.48c-0.29,0.22-0.54,0.46-0.78,0.71
							c-0.35,0.38-0.62,0.79-0.85,1.23c-0.21,0.37-0.38,0.77-0.52,1.2c-0.07,0.22-0.12,0.44-0.17,0.68
							c-0.35-0.37-0.72-0.68-1.11-0.99c-1.34-1.04-2.91-1.81-4.53-2.16c-0.8-0.18-1.61-0.26-2.43-0.26c-0.97,0-1.96,0.11-2.94,0.31
							c-1.68,0.33-3.33,0.89-4.61,1.86c-1.23,0.94-2.1,2.25-2.76,3.68c-0.66,1.4-1.12,2.9-1.19,4.45c-0.01,0.16-0.01,0.32-0.01,0.48
							c0,1.72,0.5,3.48,1.39,5.02c0.77,1.31,1.83,2.45,3.1,3.15c1.16,0.62,2.49,0.86,3.86,0.86c0.29,0,0.58-0.01,0.87-0.03
							c1.6-0.13,3.17-0.57,4.35-1.56c0.83-0.72,1.45-1.7,1.81-2.74c0.26-0.76,0.38-1.55,0.38-2.36c0-0.88-0.14-1.77-0.4-2.64
							c-0.39-1.27-1.04-2.52-2.08-3.27c-0.7-0.52-1.56-0.79-2.47-0.87c-0.15-0.01-0.31-0.02-0.46-0.02c-0.91,0-1.8,0.22-2.59,0.67
							c-0.87,0.52-1.58,1.31-1.96,2.25c-0.22,0.53-0.31,1.1-0.31,1.67c0,0.43,0.06,0.87,0.17,1.3c0.24,0.94,0.74,1.83,1.47,2.44
							c0.68,0.58,1.58,0.92,2.49,0.96c0.07,0,0.13,0,0.2,0c1,0,2.03-0.34,2.78-0.99c0.56-0.5,0.99-1.16,1.16-1.89
							c0.06-0.21,0.07-0.41,0.08-0.62c0.03,0.36,0.05,0.7,0.05,1.05c0,0.33-0.02,0.66-0.07,0.98c-0.15,0.89-0.57,1.77-1.23,2.37
							c-0.54,0.48-1.23,0.75-1.92,1.02c-0.22,0.07-0.47,0.12-0.7,0.18c-0.48,0.08-1.01,0.13-1.5,0.15c-0.56,0-1.11-0.04-1.61-0.14
							c-0.3-0.07-0.59-0.13-0.86-0.23c-0.26-0.1-0.52-0.23-0.75-0.38c-0.45-0.25-0.87-0.64-1.26-1.06
							c-0.39-0.44-0.75-0.96-1.04-1.52c-0.39-0.73-0.67-1.52-0.83-2.32c-0.09-0.51-0.14-1.02-0.14-1.52c0-0.08,0-0.15,0-0.23
							c0.04-0.57,0.12-1.15,0.27-1.73c0.12-0.43,0.25-0.85,0.43-1.28c0.17-0.4,0.36-0.83,0.57-1.25c0.29-0.56,0.62-1.07,0.96-1.5
							c0.18-0.23,0.37-0.42,0.55-0.6c0.21-0.19,0.39-0.34,0.61-0.49c0.29-0.21,0.6-0.37,0.96-0.55c0.46-0.21,0.97-0.39,1.5-0.52
							c0.53-0.16,1.11-0.27,1.66-0.37c0.69-0.11,1.39-0.18,2.04-0.18c0.18,0,0.36,0.01,0.53,0.02c0.81,0.04,1.58,0.2,2.35,0.45
							c0.93,0.31,1.85,0.79,2.66,1.4c0.84,0.62,1.59,1.37,2.18,2.18c0.31,0.41,0.58,0.83,0.81,1.26c0.23,0.44,0.41,0.89,0.56,1.35
							c0.19,0.59,0.31,1.23,0.38,1.87c0.06,0.49,0.08,0.97,0.08,1.48c0,0.4-0.02,0.81-0.05,1.22c-0.06,0.73-0.14,1.44-0.29,2.13
							c-0.12,0.55-0.26,1.06-0.44,1.55c-0.18,0.52-0.38,0.97-0.64,1.41c-0.29,0.53-0.63,1.02-1.02,1.5
							c-0.56,0.7-1.23,1.35-1.97,1.93c-0.75,0.62-1.53,1.14-2.37,1.58c-1.24,0.67-2.58,1.14-3.93,1.41
							c-0.82,0.15-1.68,0.23-2.52,0.23s-1.68-0.08-2.5-0.23c-1.04-0.21-2.06-0.52-3.02-0.96c-0.97-0.43-1.89-0.99-2.73-1.66
							c-0.94-0.71-1.77-1.56-2.47-2.5c-0.7-0.93-1.25-1.93-1.69-3.03c-0.43-1.09-0.74-2.27-0.93-3.48
							c-0.13-0.96-0.21-1.93-0.21-2.89c0-0.26,0.01-0.52,0.02-0.77c0.06-0.97,0.19-1.93,0.39-2.85c0.22-0.92,0.52-1.83,0.91-2.7
							c0.56-1.29,1.27-2.56,2.13-3.73c0.53-0.74,1.1-1.43,1.69-2.05c0.45-0.48,0.93-0.92,1.42-1.31c0.49-0.39,1-0.73,1.54-1.02
							c1.12-0.62,2.4-1.04,3.73-1.32c1.35-0.27,2.74-0.38,4.18-0.42c0.72,0,1.47,0,2.2,0c0.75,0.02,1.52,0.04,2.29,0.04
							c0.62,0,1.19,0,1.78,0h0.01h59.39c0.58,0,1.18,0,1.78,0c0.77,0,1.54-0.02,2.29-0.04c0.75,0,1.48,0,2.21,0
							c1.43,0.04,2.84,0.15,4.17,0.42c1.33,0.28,2.62,0.7,3.72,1.32c0.54,0.29,1.09,0.63,1.56,1.02c0.48,0.39,0.96,0.83,1.43,1.31
							c0.58,0.62,1.16,1.31,1.64,2.05c0.89,1.17,1.6,2.44,2.18,3.73c0.34,0.87,0.68,1.78,0.89,2.7
							C193.45,63.47,193.59,64.43,193.62,65.4z"/>
						<path class="st0" d="M171.37,196.04h-59.38l-0.85,7.23h61.09L171.37,196.04z M184.78,218.01v1.98H98.6v-1.98h1.98l0.37-4.65
							l3.05-1.6l2.24-8.49h2.89l0.85-7.23l1.99-1.99v-57.1h1.19v55.13c0.34,0.48,0.66,0.97,0.99,1.35c0.32,0.38,0.66,0.63,0.98,0.63
							c0.67,0,1.33-1.02,1.98-1.98v-55.13h1.2v55.13c0.34,0.46,0.66,0.92,0.99,1.26c0.32,0.35,0.66,0.58,0.98,0.58
							c0.67,0,1.31-0.93,1.98-1.84v-55.13h1.59v55.13c0.41,0.46,0.82,0.92,1.24,1.26c0.41,0.35,0.82,0.58,1.24,0.58
							c0.82,0,1.65-0.93,2.47-1.84v-55.13h1.98v55.13c0.5,0.46,0.98,0.92,1.48,1.26s0.99,0.58,1.49,0.58c0.98,0,2-0.93,2.98-1.84
							v-55.13h1.99v55.13c0.98,0.92,1.98,1.84,2.96,1.84c0.5,0,0.99-0.23,1.49-0.58s0.98-0.81,1.48-1.26v-55.13h1.98v55.13
							c0.99,0.92,1.99,1.84,2.97,1.84c0.5,0,0.99-0.23,1.49-0.58c0.49-0.35,0.98-0.81,1.48-1.26v-55.13h1.98v55.13
							c0.83,0.92,1.66,1.84,2.49,1.84c0.41,0,0.82-0.23,1.24-0.58c0.4-0.35,0.81-0.81,1.24-1.26v-55.13h1.58v55.13
							c0.66,0.92,1.32,1.84,1.99,1.84c0.32,0,0.66-0.23,0.98-0.58c0.33-0.35,0.66-0.81,0.99-1.26v-55.13h1.17v55.13
							c0.67,0.96,1.33,1.98,1.99,1.98c0.34,0,0.66-0.25,0.99-0.63c0.34-0.38,0.67-0.87,1-1.35v-55.13h1.17v57.1l1.99,1.99l0.86,7.23
							h2.88l2.22,8.49l3.07,1.6l0.4,4.65H184.78z M180.8,218.01l-0.28-3.41h-77.68l-0.29,3.41H180.8z M177.65,213.13l-2.06-7.88
							h-67.81l-2.08,7.88H177.65z"/>
						<polygon class="st2" points="180.8,40.26 180.52,43.66 102.84,43.66 102.55,40.26 						"/>
						<polygon class="st2" points="180.52,214.6 180.8,218.01 102.55,218.01 102.84,214.6 						"/>
						<polygon class="st2" points="177.65,45.14 176.88,48.05 106.46,48.05 105.7,45.14 						"/>
						<polygon class="st2" points="175.59,205.25 177.65,213.13 105.7,213.13 107.78,205.25 						"/>
						<polygon class="st2" points="171.37,196.04 172.23,203.27 111.13,203.27 111.99,196.04 						"/>
						<polygon class="st0" points="171.38,132.98 169.4,134.98 171.38,136.95 170.2,136.95 166.22,136.95 165.05,136.95 
							161.09,136.95 159.51,136.95 154.54,136.95 152.57,136.95 146.63,136.95 144.65,136.95 138.72,136.95 136.73,136.95 
							130.79,136.95 128.81,136.95 123.86,136.95 122.27,136.95 118.32,136.95 117.12,136.95 113.17,136.95 111.98,136.95 
							113.97,134.98 111.98,132.98 113.17,132.98 117.12,132.98 118.32,132.98 122.27,132.98 123.86,132.98 128.81,132.98 
							130.79,132.98 136.73,132.98 138.72,132.98 144.65,132.98 146.63,132.98 152.57,132.98 154.54,132.98 159.51,132.98 
							161.09,132.98 165.05,132.98 166.22,132.98 170.2,132.98 						"/>
						<path class="st2" d="M170.2,136.95v55.13c-0.33,0.48-0.67,0.97-1,1.35s-0.66,0.63-0.99,0.63c-0.66,0-1.31-1.02-1.99-1.98
							v-55.13L170.2,136.95L170.2,136.95z"/>
						<path class="st2" d="M170.2,79.36v53.62h-3.98V77.87c0.38-0.52,0.76-1.06,1.13-1.43c0.73,0.99,1.6,1.89,2.54,2.68
							C170,79.2,170.1,79.27,170.2,79.36z"/>
						<path class="st2" d="M166.45,59.89c0.12,0.81-0.02,1.58-0.25,2.37c-0.24,0.44-0.44,0.89-0.6,1.35
							c-0.34,0.94-0.52,1.91-0.63,2.89h-8.73c0.75-0.58,1.52-1.15,2.17-1.8c0.66-0.64,1.22-1.33,1.57-2.15
							c0.35-0.79,0.51-1.68,0.51-2.58c0-0.56-0.07-1.12-0.18-1.67c-0.21-0.91-0.56-1.76-0.95-2.59c1.05,0.08,2.07,0.23,3.11,0.46
							c0.81,0.17,1.6,0.37,2.27,0.85C165.65,57.66,166.28,58.79,166.45,59.89z"/>
						<path class="st2" d="M165.72,73.3h-48.08c0.46-1.35,0.7-2.78,0.79-4.22c0.02-0.19,0.02-0.37,0.02-0.58h46.47
							c0,0.21,0.02,0.39,0.04,0.58C165.03,70.52,165.28,71.95,165.72,73.3z"/>
						<path class="st2" d="M165.05,136.95v55.13c-0.33,0.46-0.66,0.92-0.99,1.26c-0.33,0.35-0.67,0.58-0.98,0.58
							c-0.67,0-1.33-0.93-1.99-1.84v-55.13H165.05z"/>
						<path class="st2" d="M165.05,77.87v55.11h-3.96V77.87c0.66-0.94,1.32-1.87,1.99-1.87c0.32,0,0.66,0.23,0.98,0.59
							C164.39,76.93,164.72,77.4,165.05,77.87z"/>
						<path class="st2" d="M159.51,136.95v55.13c-0.42,0.46-0.83,0.92-1.24,1.26c-0.41,0.35-0.82,0.58-1.24,0.58
							c-0.83,0-1.66-0.93-2.49-1.84v-55.13H159.51z"/>
						<path class="st2" d="M159.51,77.87v55.11h-4.96V77.87c0.83-0.94,1.66-1.87,2.49-1.87c0.41,0,0.82,0.23,1.24,0.59
							C158.67,76.93,159.09,77.4,159.51,77.87z"/>
						<path class="st2" d="M158.62,58.31c0.07,0.54,0.11,1.1,0.11,1.65c0,0.91-0.11,1.8-0.43,2.59c-0.64,1.57-2,2.76-3.36,3.95
							h-7.78c0.76-0.58,1.52-1.15,2.17-1.8c0.66-0.64,1.22-1.33,1.57-2.15c0.35-0.8,0.51-1.69,0.51-2.59c0-0.55-0.06-1.11-0.18-1.66
							c-0.21-0.96-0.61-1.86-1-2.74h6c0.59,0.01,1.21,0.03,1.8,0.05C158.26,56.5,158.49,57.38,158.62,58.31z"/>
						<path class="st2" d="M152.57,136.95v55.13c-0.5,0.46-0.99,0.92-1.48,1.26c-0.5,0.35-0.99,0.58-1.49,0.58
							c-0.98,0-1.98-0.93-2.97-1.84v-55.13H152.57z"/>
						<path class="st2" d="M152.57,77.87v55.11h-5.94V77.87c0.99-0.94,1.99-1.87,2.97-1.87c0.5,0,0.99,0.23,1.49,0.59
							C151.57,76.93,152.07,77.4,152.57,77.87z"/>
						<path class="st2" d="M149.55,58.31c0.08,0.53,0.12,1.09,0.12,1.63c0,0.92-0.13,1.81-0.45,2.61c-0.63,1.57-2,2.76-3.35,3.95
							h-8.38c-1.36-1.19-2.73-2.38-3.34-3.95c-0.32-0.81-0.45-1.7-0.45-2.61c0-0.54,0.05-1.1,0.12-1.63
							c0.14-0.95,0.36-1.85,0.58-2.74h7.28h7.27C149.18,56.47,149.41,57.37,149.55,58.31z"/>
						<path class="st2" d="M144.65,136.95v55.13c-0.5,0.46-0.98,0.92-1.48,1.26c-0.5,0.35-0.99,0.58-1.49,0.58
							c-0.98,0-1.98-0.93-2.96-1.84v-55.13H144.65z"/>
						<path class="st2" d="M144.65,77.87v55.11h-5.93V77.87c0.98-0.94,1.98-1.87,2.96-1.87c0.5,0,0.99,0.23,1.49,0.59
							C143.67,76.93,144.15,77.4,144.65,77.87z"/>
						<path class="st2" d="M136.73,136.95v55.13c-0.98,0.92-2,1.84-2.98,1.84c-0.5,0-0.99-0.23-1.49-0.58s-0.98-0.81-1.48-1.26
							v-55.13H136.73z"/>
						<path class="st2" d="M136.73,77.87v55.11h-5.95V77.87c0.5-0.47,0.98-0.94,1.48-1.28c0.5-0.36,0.99-0.59,1.49-0.59
							C134.74,76,135.75,76.93,136.73,77.87z"/>
						<path class="st2" d="M136.21,66.51h-7.78c-1.37-1.19-2.74-2.38-3.36-3.95c-0.32-0.81-0.45-1.7-0.45-2.61
							c0-0.54,0.05-1.1,0.12-1.63c0.14-0.93,0.37-1.81,0.58-2.7c0.6-0.02,1.2-0.04,1.81-0.05h6c-0.41,0.88-0.8,1.79-1.02,2.74
							c-0.12,0.53-0.18,1.1-0.18,1.65c0,0.9,0.16,1.8,0.51,2.59c0.36,0.82,0.92,1.52,1.58,2.15
							C134.69,65.36,135.45,65.93,136.21,66.51z"/>
						<path class="st2" d="M128.81,136.95v55.13c-0.82,0.92-1.66,1.84-2.47,1.84c-0.41,0-0.82-0.23-1.24-0.58
							c-0.41-0.35-0.82-0.81-1.24-1.26v-55.13H128.81z"/>
						<path class="st2" d="M128.81,77.87v55.11h-4.95V77.87c0.41-0.47,0.82-0.94,1.24-1.28c0.41-0.36,0.82-0.59,1.24-0.59
							C127.15,76,127.98,76.93,128.81,77.87z"/>
						<path class="st2" d="M127.13,66.51h-8.75c-0.08-0.98-0.27-1.96-0.61-2.89c-0.18-0.46-0.37-0.91-0.6-1.35
							c-0.24-0.79-0.37-1.56-0.25-2.37c0.15-1.11,0.8-2.24,1.71-2.87c0.67-0.48,1.46-0.68,2.27-0.85c1.02-0.23,2.06-0.38,3.1-0.46
							c-0.38,0.83-0.75,1.69-0.94,2.59c-0.12,0.54-0.19,1.1-0.19,1.65c0,0.91,0.17,1.8,0.52,2.59c0.36,0.82,0.91,1.52,1.57,2.15
							C125.62,65.36,126.37,65.93,127.13,66.51z"/>
						<path class="st2" d="M122.27,136.95v55.13c-0.67,0.92-1.31,1.84-1.98,1.84c-0.33,0-0.67-0.23-0.98-0.58
							c-0.34-0.35-0.66-0.81-0.99-1.26v-55.13H122.27z"/>
						<path class="st2" d="M122.27,77.87v55.11h-3.95V77.87c0.34-0.47,0.66-0.94,0.99-1.28c0.32-0.36,0.66-0.59,0.98-0.59
							C120.96,76,121.61,76.93,122.27,77.87z"/>
						<path class="st2" d="M117.12,136.95v55.13c-0.65,0.96-1.31,1.98-1.98,1.98c-0.33,0-0.67-0.25-0.98-0.63
							c-0.34-0.38-0.66-0.87-0.99-1.35v-55.13L117.12,136.95L117.12,136.95z"/>
						<path class="st2" d="M117.12,77.87v55.11h-3.95V79.36c0.1-0.09,0.21-0.16,0.29-0.24c0.96-0.79,1.83-1.69,2.54-2.68
							C116.37,76.81,116.74,77.35,117.12,77.87z"/>
					</g>
				</g>
			</g>
			<g id="Växtkvist_2">
				<g>
					<g id="XMLID_00000014612414832325561710000006845191169654397598_">
						<g>
							<polygon class="st2" points="145.12,89.4 145.33,89.46 145.53,89.56 145.71,89.68 145.88,89.84 146.02,90.01 146.13,90.2 
								146.2,90.41 146.26,90.62 146.27,90.85 146.26,91.07 146.2,91.28 146.13,91.5 146.02,91.69 145.88,91.86 145.71,92.01 
								145.53,92.14 145.33,92.24 145.12,92.3 144.9,92.34 144.67,92.34 144.45,92.3 144.24,92.24 144.04,92.14 143.86,92.01 
								143.69,91.86 143.55,91.69 143.44,91.5 143.37,91.28 143.31,91.07 143.3,90.85 143.31,90.62 143.37,90.41 143.44,90.2 
								143.55,90.01 143.69,89.84 143.86,89.68 144.04,89.56 144.24,89.46 144.45,89.4 144.67,89.36 144.9,89.36 							"/>
							<polygon class="st2" points="142.29,91.45 142.4,91.51 142.5,91.58 142.59,91.65 142.66,91.75 142.72,91.85 142.72,91.86 
								142.83,92.04 142.96,92.24 143.11,92.41 143.27,92.56 143.45,92.7 143.63,92.83 143.65,92.84 143.75,92.9 143.83,92.98 
								143.91,93.08 143.97,93.19 144.01,93.31 144.04,93.42 144.04,93.55 144.03,93.67 143.68,95.47 143.65,95.57 143.61,95.67 
								143.55,95.76 143.49,95.85 143.41,95.92 143.32,95.97 143.32,95.99 142.76,96.3 142.45,96.44 142.15,96.54 141.84,96.62 
								141.53,96.68 141.2,96.72 140.87,96.7 140.71,96.68 140.57,96.62 140.45,96.55 140.33,96.44 140.25,96.33 140.18,96.19 
								140.15,96.04 140.14,95.89 140.16,95.15 139.42,95.12 139.27,95.1 139.13,95.05 139,94.98 138.89,94.88 138.79,94.75 
								138.72,94.63 138.68,94.49 138.66,94.33 138.68,94.01 138.73,93.69 138.82,93.38 138.93,93.07 139.05,92.77 139.21,92.48 
								139.56,91.94 139.57,91.94 139.64,91.86 139.73,91.79 139.81,91.73 139.91,91.68 140.01,91.65 140.11,91.62 141.92,91.41 
								142.05,91.41 142.17,91.42 							"/>
							<polygon class="st2" points="142.24,86.26 142.33,86.31 142.41,86.37 142.5,86.45 142.55,86.54 142.61,86.62 142.61,86.64 
								143.38,88.29 143.42,88.42 143.45,88.53 143.45,88.66 143.44,88.77 143.41,88.9 143.35,89.01 143.3,89.11 143.21,89.19 
								143.2,89.19 143.04,89.36 142.9,89.54 142.79,89.74 142.68,89.94 142.61,90.15 142.55,90.37 142.51,90.48 142.47,90.6 
								142.4,90.69 142.31,90.78 142.22,90.86 142.1,90.92 141.99,90.96 141.88,90.99 140.07,91.21 140.05,91.21 139.95,91.21 
								139.86,91.2 139.74,91.19 139.64,91.14 139.55,91.1 139.46,91.03 138.97,90.6 138.76,90.36 138.58,90.09 138.39,89.82 
								138.24,89.54 138.1,89.25 138,88.93 138.02,88.93 137.99,88.78 138,88.63 138.03,88.49 138.1,88.35 138.18,88.22 
								138.3,88.13 138.42,88.04 138.56,87.98 139.28,87.77 139.07,87.06 139.04,86.92 139.04,86.76 139.07,86.62 139.14,86.48 
								139.21,86.36 139.32,86.24 139.45,86.16 139.59,86.1 139.59,86.09 139.9,86 140.22,85.96 140.54,85.95 140.87,85.96 
								141.19,85.98 141.51,86.03 142.15,86.22 							"/>
							<polygon class="st2" points="145.87,88.83 145.66,88.73 145.45,88.66 145.22,88.6 145,88.57 144.77,88.56 144.56,88.57 
								144.55,88.57 144.43,88.57 144.32,88.56 144.2,88.52 144.08,88.48 143.99,88.41 143.9,88.32 143.82,88.22 143.76,88.13 
								143.76,88.11 142.99,86.45 142.96,86.36 142.93,86.24 142.92,86.15 142.92,86.03 142.95,85.93 142.97,85.82 143.23,85.25 
								143.4,84.97 143.59,84.7 143.79,84.45 144.01,84.21 144.25,83.98 144.52,83.8 144.66,83.74 144.8,83.7 144.95,83.69 
								145.11,83.7 145.25,83.76 145.38,83.83 145.5,83.93 145.6,84.04 146.01,84.66 146.63,84.24 146.63,84.25 146.75,84.17 
								146.89,84.12 147.05,84.11 147.2,84.12 147.34,84.17 147.48,84.24 147.59,84.32 147.69,84.43 147.71,84.43 147.88,84.7 
								148.02,84.99 148.14,85.29 148.23,85.61 148.31,85.92 148.35,86.24 148.38,86.89 148.37,86.9 148.35,87 148.34,87.11 
								148.3,87.21 148.25,87.3 148.18,87.39 148.11,87.47 148.12,87.48 146.78,88.71 146.78,88.7 146.68,88.77 146.58,88.84 
								146.47,88.88 146.34,88.91 146.23,88.91 146.11,88.9 145.99,88.87 145.88,88.81 							"/>
							<polygon class="st2" points="146.88,89.92 146.89,89.92 146.85,89.81 146.82,89.68 146.82,89.56 146.84,89.44 146.88,89.32 
								146.92,89.22 146.99,89.11 147.08,89.02 148.41,87.77 148.49,87.7 148.58,87.65 148.68,87.61 148.77,87.58 148.89,87.56 
								149,87.56 149.65,87.63 149.95,87.7 150.26,87.8 150.57,87.91 150.87,88.05 151.15,88.21 151.41,88.4 151.4,88.41 
								151.51,88.52 151.6,88.64 151.65,88.78 151.68,88.93 151.68,89.08 151.65,89.23 151.6,89.37 151.51,89.5 151.06,90.09 
								151.64,90.54 151.64,90.55 151.75,90.65 151.84,90.78 151.91,90.92 151.93,91.06 151.95,91.21 151.92,91.37 151.88,91.51 
								151.79,91.64 151.6,91.89 151.36,92.11 151.11,92.31 150.84,92.49 150.56,92.67 150.28,92.82 149.66,93.04 149.66,93.03 
								149.55,93.05 149.45,93.07 149.34,93.07 149.24,93.04 149.14,93.01 149.04,92.97 147.44,92.08 147.34,92.01 147.24,91.93 
								147.17,91.85 147.1,91.73 147.06,91.62 147.03,91.5 147.03,91.38 147.05,91.26 147.03,91.26 147.08,91.03 147.08,90.81 
								147.06,90.57 147.02,90.34 146.96,90.13 							"/>
							<polygon class="st2" points="145.35,97.31 145.09,97.11 144.84,96.9 144.62,96.66 144.21,96.16 144.21,96.14 144.15,96.06 
								144.11,95.96 144.08,95.86 144.07,95.75 144.07,95.65 144.08,95.54 144.43,93.74 144.46,93.63 144.52,93.52 144.59,93.42 
								144.67,93.32 144.76,93.25 144.87,93.19 144.98,93.14 145.09,93.12 145.09,93.11 145.32,93.07 145.54,93.01 145.75,92.93 
								145.95,92.82 146.13,92.69 146.32,92.55 146.33,92.55 146.41,92.48 146.53,92.42 146.64,92.38 146.77,92.35 146.88,92.35 
								147,92.37 147.12,92.39 147.23,92.45 147.24,92.45 148.83,93.33 148.93,93.39 149,93.46 149.07,93.55 149.14,93.63 
								149.18,93.73 149.21,93.83 149.22,93.83 149.35,94.47 149.38,94.8 149.38,95.12 149.36,95.44 149.32,95.76 149.27,96.09 
								149.15,96.38 149.08,96.52 148.99,96.63 148.87,96.73 148.75,96.8 148.59,96.86 148.45,96.87 148.3,96.86 148.16,96.83 
								148.14,96.83 148.02,96.78 148,96.78 147.45,96.58 147.2,97.27 147.2,97.28 147.13,97.41 147.05,97.52 146.93,97.63 
								146.81,97.7 146.65,97.76 146.51,97.79 146.36,97.79 146.22,97.74 146.2,97.76 145.91,97.63 145.61,97.49 							"/>
							<polygon class="st2" points="157.45,159.55 158.02,160.12 158.62,160.65 159.27,161.12 159.97,161.51 160.69,161.85 
								161.44,162.13 162.23,162.4 165.42,163.32 166.19,163.58 166.96,163.88 167.69,164.22 168.4,164.63 169.06,165.09 
								169.69,165.6 170.28,166.16 170.83,166.78 171.35,167.42 171.82,168.11 172.27,168.83 172.68,169.59 173.05,170.36 
								173.38,171.16 173.68,171.97 173.93,172.8 174.16,173.64 174.34,174.5 174.48,175.34 174.58,176.2 174.63,175.34 
								174.65,174.53 175.01,174.81 175.34,175.12 175.62,175.47 175.85,175.85 175.43,176.89 175.08,177.94 174.8,179.01 
								174.56,180.1 174.38,181.35 174.13,182.59 173.82,183.81 173.42,185 172.98,186.18 172.48,187.35 171.43,189.65 
								171.43,183.46 171.43,180.59 171.43,176.92 171.16,175.67 170.84,174.43 170.63,173.83 170.39,173.24 170.12,172.65 
								169.82,172.09 169.48,171.54 169.11,171 168.72,170.48 168.31,169.99 167.86,169.52 167.41,169.05 166.92,168.63 
								166.43,168.22 165.39,167.47 164.3,166.81 163.14,166.22 161.98,165.7 160.78,165.25 159.56,164.84 157.1,164.11 
								156.58,164.88 156.11,165.68 155.7,166.54 155.35,167.41 155.08,168.31 154.9,169.23 154.8,170.16 154.74,171.09 
								154.38,171.14 154,171.16 153.24,171.12 152.88,171.05 152.51,170.95 152.17,170.81 151.84,170.64 151.84,169.78 
								148.33,170.34 146.54,170.61 144.7,170.85 143.76,170.96 142.82,171.05 142.36,171.05 141.91,171.02 141.47,170.95 
								141.05,170.84 140.64,170.65 140.26,170.43 139.9,170.15 139.57,169.82 139.27,169.46 139,169.09 138.54,168.31 
								138.1,167.52 137.85,167.16 137.58,166.79 136.98,166.13 136.32,165.51 134.88,164.35 134.14,163.8 133.37,163.34 
								132.96,163.14 132.54,162.99 132.1,162.86 131.65,162.77 129.8,162.56 129.35,162.49 128.91,162.4 128.51,162.24 
								128.11,162.04 127.76,161.79 127.43,161.5 126.79,160.82 125.81,160.64 125.33,160.61 124.84,160.64 124.35,160.71 
								123.87,160.84 122.92,161.12 121.98,161.45 121.06,161.82 119.25,162.58 119.04,162.28 118.91,161.95 118.87,161.76 
								118.87,161.58 118.94,161.23 119.74,160.54 120.56,159.9 121.39,159.31 121.82,159.04 122.26,158.8 122.72,158.58 
								123.18,158.39 123.66,158.25 124.15,158.13 125.16,157.94 126.19,157.82 126.06,156.95 125.91,156.09 125.71,155.25 
								125.42,154.45 125.05,153.68 124.62,152.92 123.66,151.46 122.68,150 122.17,149.28 121.62,148.61 121.03,147.99 
								120.37,147.44 119.67,146.95 118.93,146.49 118.8,146.22 118.72,145.97 118.7,145.84 118.72,145.71 118.83,145.46 
								119,145.22 119.18,145.03 119.57,144.66 121.71,145.84 121.53,144.91 121.46,144.45 121.41,143.99 121.41,143.51 
								121.46,143.05 121.51,142.58 121.61,142.12 121.86,141.19 122.19,140.29 122.51,139.41 122.79,138.52 122.89,138.07 
								122.97,137.61 123.01,137.15 123.03,136.68 122.96,134.79 122.92,133.85 122.86,132.91 122.79,132.44 122.71,131.99 
								122.58,131.54 122.42,131.11 122.05,130.24 121.61,129.4 120.65,127.75 120.14,126.97 119.6,126.21 119.03,125.48 
								118.41,124.76 117.76,124.09 117.07,123.43 116.37,122.81 115.64,122.22 114.12,121.1 112.58,120.03 112,119.38 
								111.69,119.07 111.37,118.79 111.03,118.57 110.65,118.37 110.26,118.23 109.84,118.12 108.98,117.97 108.13,117.84 
								106.44,117.59 106.23,117.43 106.06,117.25 105.95,117.04 105.91,116.79 105.95,116.52 106.05,116.28 106.33,115.86 
								107.44,115.8 108.55,115.79 109.1,115.8 109.64,115.86 110.74,116.04 110.28,115.63 110.04,115.45 109.77,115.28 
								109.62,114.44 109.54,113.58 109.54,113.16 109.57,112.74 109.63,112.32 109.73,111.9 109.87,111.51 110.02,111.11 
								110.36,110.33 110.5,109.93 110.6,109.53 110.64,109.1 110.64,108.68 111.36,107.98 111.69,107.59 111.88,107.43 
								112.1,107.32 112.1,111.08 112.21,112.39 112.3,113.04 112.41,113.67 112.58,114.3 112.79,114.9 113.06,115.49 
								113.38,116.07 113.74,116.62 114.15,117.14 114.59,117.63 115.05,118.09 115.54,118.51 116.05,118.91 117.12,119.64 
								119.31,121.04 120.37,121.8 120.88,122.21 121.36,122.64 121.83,123.09 122.27,123.58 122.68,124.07 123.06,124.61 
								123.41,125.16 123.72,125.72 124.32,126.87 125.28,125.59 125.8,124.99 126.37,124.44 126.98,123.93 127.62,123.46 
								128.97,122.59 130.35,121.74 131.69,120.86 134.29,119.02 133.61,117.74 133.31,117.08 133.06,116.41 132.62,115.03 
								132.26,113.63 131.86,112.22 131.37,110.86 130.82,109.53 130.22,108.21 129.28,105.8 129.78,105.41 130.07,105.27 
								130.36,105.14 130.54,105.61 130.54,105.12 130.57,104.62 130.73,103.67 131.27,103.63 131.84,103.66 132.1,103.71 
								132.36,103.8 132.59,103.94 132.83,104.08 132.66,104.71 132.54,105.33 132.48,105.97 132.48,106.3 132.51,106.62 
								132.57,106.94 132.65,107.25 132.78,107.55 132.95,107.81 133.16,108.05 133.38,108.28 133.89,108.7 135.92,107.53 
								136.98,106.98 137.51,106.76 138.07,106.59 139.21,106.37 139.79,106.24 140.35,106.09 140.89,105.89 141.44,105.66 
								142.51,105.16 142.75,104.68 142.96,104.2 143.11,103.74 143.2,103.25 143.17,102.76 143.09,102.27 142.81,101.27 
								142.68,100.76 142.59,100.27 142.57,99.78 142.59,99.27 142.68,98.8 142.79,98.31 142.95,97.81 143.14,97.33 143.14,97.32 
								143.27,97.27 143.56,97.1 143.7,97.27 143.63,98.31 143.63,98.83 143.68,99.33 143.75,99.85 143.86,100.36 144.14,101.37 
								144.8,103.38 144.94,103.88 145.02,104.39 145.07,104.91 145.07,105.43 146.06,105.54 147.05,105.71 147.52,105.83 
								148,105.99 148.92,106.38 148.93,106.79 148.9,106.98 148.83,107.17 148.72,107.35 148.59,107.5 148.28,107.76 147.4,107.39 
								146.95,107.24 146.5,107.12 146.06,107.07 145.61,107.07 145.16,107.14 144.72,107.24 143.82,107.52 142.9,107.78 
								141.06,108.12 140.61,108.22 140.18,108.36 139.34,108.73 138.49,109.12 137.62,109.46 136.74,109.76 136.3,109.93 
								135.89,110.14 135.52,110.4 135.14,110.68 134.42,111.28 134.48,112.11 134.56,112.94 134.73,113.75 134.97,114.54 
								135.28,115.31 135.64,116.07 136.47,117.5 137.45,117.07 138.45,116.67 139.48,116.34 140.5,116.01 140.88,116.21 
								141.05,116.32 141.18,116.48 141.26,116.65 141.3,116.84 141.34,117.26 141.15,117.47 141.7,117.47 142.34,117.46 
								142.66,117.46 142.97,117.5 143.25,117.56 143.49,117.68 143.68,117.85 143.79,118.09 143.87,118.37 144,118.6 
								144.21,118.75 144.48,118.88 145.08,119.02 144.65,119.14 144.21,119.2 143.99,119.19 143.77,119.14 143.35,118.99 
								142.93,118.82 142.71,118.75 142.5,118.72 142.27,118.72 142.06,118.75 141.61,118.85 140.81,119.14 140.01,119.47 
								138.45,120.2 136.92,120.97 136.18,121.38 135.43,121.83 136.22,122.14 137.03,122.36 137.05,122.53 137.02,122.71 
								136.95,122.89 136.85,123.03 136.7,123.15 136.54,123.19 136.18,123.18 135.74,122.94 135.52,122.84 135.29,122.77 
								134.8,122.68 134.31,122.64 132.47,123.67 131.55,124.2 130.67,124.78 129.81,125.38 129,126.04 128.21,126.76 
								127.48,127.53 127.14,127.95 126.82,128.38 126.55,128.83 126.3,129.3 126.1,129.78 125.95,130.27 125.84,130.77 
								125.77,131.29 125.7,132.36 125.7,133.43 125.71,135.53 126.33,135.8 126.61,135.95 126.88,136.15 127.1,136.37 
								127.3,136.64 127.62,137.23 126.68,138.35 126.26,138.94 125.92,139.58 125.64,140.24 125.43,140.92 125.28,141.64 
								125.15,142.37 125.08,143.12 125.02,143.86 124.98,145.33 125.01,148.24 126.41,150.98 127.17,152.34 127.97,153.68 
								128.73,155.04 129.07,155.73 129.36,156.44 129.6,157.17 129.8,157.92 130.11,159.43 131.08,159.73 132.03,160.06 
								132.97,160.44 133.9,160.88 135.7,161.81 137.5,162.76 137.71,161.99 137.89,161.23 138,160.46 138.03,159.67 138.38,159.47 
								138.76,159.33 139.17,159.28 139.56,159.32 139.53,160.22 140.09,160.15 140.66,160.11 141.2,160.15 141.47,160.21 
								141.74,160.3 141.71,160.68 141.32,160.77 140.94,160.87 140.16,161.15 139.94,161.96 139.79,162.77 139.74,163.2 
								139.74,163.62 139.77,164.04 139.86,164.46 139.97,164.87 140.12,165.26 140.32,165.64 140.56,165.98 140.82,166.3 
								141.13,166.58 141.77,167.14 143.84,167.2 144.87,167.18 145.88,167.14 146.89,167.03 147.89,166.88 148.9,166.69 
								149.94,166.5 150.99,166.26 151.49,166.1 151.92,165.86 152.12,165.72 152.29,165.56 152.6,165.18 152.83,164.73 
								153.06,164.25 153.49,163.25 153.73,162.79 154.03,162.35 154.35,161.96 154.73,161.61 155.52,160.94 155.07,160.49 
								154.67,159.99 154.34,159.46 154.01,158.9 153.54,157.82 153.26,157.3 152.95,156.81 152.6,156.33 152.22,155.87 
								151.43,154.98 152.02,155.23 152.6,155.5 153.13,155.82 153.61,156.2 154.06,156.64 154.46,157.12 155.22,158.15 
								155.19,157.4 155.22,157.02 155.29,156.64 155.5,155.91 155.77,155.18 156.12,155.15 156.29,155.16 156.44,155.22 
								156.57,155.3 156.68,155.43 156.91,155.73 156.91,158.93 							"/>
							<path class="st0" d="M142.4,91.51l-0.11-0.06l-0.12-0.03l-0.12-0.01h-0.13l-1.81,0.21l-0.1,0.03l-0.1,0.03l-0.1,0.05
								l-0.08,0.06l-0.09,0.07l-0.07,0.08h-0.01l-0.35,0.54l-0.16,0.29l-0.12,0.3l-0.11,0.31l-0.09,0.31l-0.05,0.32l-0.02,0.32
								l0.02,0.16l0.04,0.14l0.07,0.12l0.1,0.13l0.11,0.1l0.13,0.07l0.14,0.05l0.15,0.02l0.74,0.03l-0.02,0.74l0.01,0.15l0.03,0.15
								l0.07,0.14l0.08,0.11l0.12,0.11l0.12,0.07l0.14,0.06l0.16,0.02l0.33,0.02l0.33-0.04l0.31-0.06l0.31-0.08l0.3-0.1l0.31-0.14
								l0.56-0.31v-0.02l0.09-0.05l0.08-0.07l0.06-0.09l0.06-0.09l0.04-0.1l0.03-0.1l0.35-1.8l0.01-0.12v-0.13l-0.03-0.11
								l-0.04-0.12l-0.06-0.11l-0.08-0.1l-0.08-0.08l-0.1-0.06l-0.02-0.01l-0.18-0.13l-0.18-0.14l-0.16-0.15l-0.15-0.17l-0.13-0.2
								l-0.11-0.18v-0.01l-0.06-0.1l-0.07-0.1l-0.09-0.07L142.4,91.51z M142.41,86.37l-0.08-0.06l-0.09-0.05l-0.09-0.04l-0.64-0.19
								l-0.32-0.05l-0.32-0.02l-0.33-0.01l-0.32,0.01L139.9,86l-0.31,0.09v0.01l-0.14,0.06l-0.13,0.08l-0.11,0.12l-0.07,0.12
								l-0.07,0.14l-0.03,0.14v0.16l0.03,0.14l0.21,0.71l-0.72,0.21l-0.14,0.06l-0.12,0.09l-0.12,0.09l-0.08,0.13l-0.07,0.14
								L138,88.63l-0.01,0.15l0.03,0.15H138l0.1,0.32l0.14,0.29l0.15,0.28l0.19,0.27l0.18,0.27l0.21,0.24l0.49,0.43l0.09,0.07
								l0.09,0.04l0.1,0.05l0.12,0.01l0.09,0.01h0.1h0.02l1.81-0.22l0.11-0.03l0.11-0.04l0.12-0.06l0.09-0.08l0.09-0.09l0.07-0.09
								l0.04-0.12l0.04-0.11l0.06-0.22l0.07-0.21l0.11-0.2l0.11-0.2l0.14-0.18l0.16-0.17h0.01l0.09-0.08l0.05-0.1l0.06-0.11
								l0.03-0.13l0.01-0.11v-0.13l-0.03-0.11l-0.04-0.13l-0.77-1.65v-0.02l-0.06-0.08l-0.05-0.09L142.41,86.37z M146.88,89.32
								l-0.04,0.12l-0.02,0.12v0.12l0.03,0.13l0.04,0.11h-0.01l0.08,0.21l0.06,0.21l0.04,0.23l0.02,0.24v0.22l-0.05,0.23h0.02
								l-0.02,0.12v0.12l0.03,0.12l0.04,0.11l0.07,0.12l0.07,0.08l0.1,0.08l0.1,0.07l1.6,0.89l0.1,0.04l0.1,0.03l0.1,0.03h0.11
								l0.1-0.02l0.11-0.02v0.01l0.62-0.22l0.28-0.15l0.28-0.18l0.27-0.18l0.25-0.2l0.24-0.22l0.19-0.25l0.09-0.13l0.04-0.14
								l0.03-0.16l-0.02-0.15l-0.02-0.14l-0.07-0.14l-0.09-0.13l-0.11-0.1v-0.01l-0.58-0.45l0.45-0.59l0.09-0.13l0.05-0.14
								l0.03-0.15v-0.15l-0.03-0.15l-0.05-0.14l-0.09-0.12l-0.11-0.11l0.01-0.01l-0.26-0.19l-0.28-0.16l-0.3-0.14l-0.31-0.11
								l-0.31-0.1l-0.3-0.07L149,87.56h-0.11l-0.12,0.02l-0.09,0.03l-0.1,0.04l-0.09,0.05l-0.08,0.07l-1.33,1.25l-0.09,0.09
								l-0.07,0.11L146.88,89.32z M145,88.57l0.22,0.03l0.23,0.06l0.21,0.07l0.21,0.1l0.01-0.02l0.11,0.06l0.12,0.03l0.12,0.01h0.11
								l0.13-0.03l0.11-0.04l0.1-0.07l0.1-0.07v0.01l1.34-1.23l-0.01-0.01l0.07-0.08l0.07-0.09l0.05-0.09l0.04-0.1l0.01-0.11
								l0.02-0.1l0.01-0.01l-0.03-0.65l-0.04-0.32l-0.08-0.31l-0.09-0.32l-0.12-0.3l-0.14-0.29l-0.17-0.27h-0.02l-0.1-0.11
								l-0.11-0.08l-0.14-0.07l-0.14-0.05l-0.15-0.01l-0.16,0.01l-0.14,0.05l-0.12,0.08v-0.01l-0.62,0.42l-0.41-0.62l-0.1-0.11
								l-0.12-0.1l-0.13-0.07l-0.14-0.06l-0.16-0.01l-0.15,0.01l-0.14,0.04l-0.14,0.06l-0.27,0.18l-0.24,0.23l-0.22,0.24l-0.2,0.25
								l-0.19,0.27l-0.17,0.28l-0.26,0.57l-0.02,0.11l-0.03,0.1v0.12l0.01,0.09l0.03,0.12l0.03,0.09l0.77,1.66v0.02l0.06,0.09
								l0.08,0.1l0.09,0.09l0.09,0.07l0.12,0.04l0.12,0.04l0.11,0.01h0.12h0.01l0.21-0.01L145,88.57z M145.32,93.07l-0.23,0.04v0.01
								l-0.11,0.02l-0.11,0.05l-0.11,0.06l-0.09,0.07l-0.08,0.1l-0.07,0.1l-0.06,0.11l-0.03,0.11l-0.35,1.8l-0.01,0.11v0.1
								l0.01,0.11l0.03,0.1l0.04,0.1l0.06,0.08v0.02l0.41,0.5l0.22,0.24l0.25,0.21l0.26,0.2l0.26,0.18l0.3,0.14l0.29,0.13l0.02-0.02
								l0.14,0.05h0.15l0.14-0.03l0.16-0.06l0.12-0.07l0.12-0.11l0.08-0.11l0.07-0.13v-0.01l0.25-0.69l0.55,0.2h0.02l0.12,0.05h0.02
								l0.14,0.03l0.15,0.01l0.14-0.01l0.16-0.06l0.12-0.07l0.12-0.1l0.09-0.11l0.07-0.14l0.12-0.29l0.05-0.33l0.04-0.32l0.02-0.32
								V94.8l-0.03-0.33l-0.13-0.64h-0.01l-0.03-0.1l-0.04-0.1l-0.07-0.08L149,93.46l-0.07-0.07l-0.1-0.06l-1.59-0.88h-0.01
								l-0.11-0.06L147,92.37l-0.12-0.02h-0.11l-0.13,0.03l-0.11,0.04l-0.12,0.06l-0.08,0.07h-0.01l-0.19,0.14l-0.18,0.13l-0.2,0.11
								l-0.21,0.08L145.32,93.07z M145.33,89.46l-0.21-0.06l-0.22-0.04h-0.23l-0.22,0.04l-0.21,0.06l-0.2,0.1l-0.18,0.12l-0.17,0.16
								l-0.14,0.17l-0.11,0.19l-0.07,0.21l-0.06,0.21l-0.01,0.23l0.01,0.22l0.06,0.21l0.07,0.22l0.11,0.19l0.14,0.17l0.17,0.15
								l0.18,0.13l0.2,0.1l0.21,0.06l0.22,0.04h0.23l0.22-0.04l0.21-0.06l0.2-0.1l0.18-0.13l0.17-0.15l0.14-0.17l0.11-0.19
								l0.07-0.22l0.06-0.21l0.01-0.22l-0.01-0.23l-0.06-0.21l-0.07-0.21l-0.11-0.19l-0.14-0.17l-0.17-0.16l-0.18-0.12L145.33,89.46
								z M144.97,82.61l0.21,0.01l0.21,0.04l0.21,0.06l0.2,0.1l0.18,0.1l0.17,0.12l0.14,0.15l0.2-0.06l0.19-0.06l0.21-0.03
								l0.23-0.01l0.21,0.01l0.21,0.04l0.2,0.07l0.19,0.09l0.18,0.11l0.17,0.14l0.16,0.14l0.14,0.17l0.01-0.01l0.1,0.15l0.11,0.18
								l0.1,0.19l0.07,0.14l0.07,0.15l0.09,0.2l0.05,0.19l0.06,0.17l0.07,0.27l0.04,0.17l0.04,0.19l0.04,0.38l0.02,0.17l0.01,0.09
								v0.08l0.07,0.01h0.09l0.18,0.03l0.37,0.09l0.36,0.11l0.25,0.08l0.17,0.06l0.18,0.08l0.2,0.1l0.16,0.07l0.14,0.09l0.16,0.11
								l0.17,0.13l0.14,0.11l0.16,0.15l0.12,0.16l0.13,0.18l0.1,0.18l0.07,0.21l0.06,0.2l0.02,0.21v0.21l-0.02,0.22l-0.05,0.2
								l-0.07,0.21l-0.08,0.18v0.02l0.14,0.17l0.11,0.18l0.1,0.2l0.07,0.19l0.04,0.21l0.03,0.21v0.21L153,91.5l-0.04,0.21
								l-0.08,0.19l-0.09,0.2l-0.12,0.17l0.01,0.01l-0.11,0.14l-0.14,0.17l-0.14,0.14l-0.12,0.11l-0.12,0.12l-0.17,0.14l-0.17,0.12
								l-0.14,0.09l-0.22,0.15l-0.16,0.1l-0.17,0.1l-0.35,0.17l-0.31,0.12l0.06,0.33l0.04,0.37l0.01,0.22v0.16l-0.01,0.28v0.17
								l-0.01,0.21l-0.05,0.21l-0.02,0.16l-0.03,0.17l-0.06,0.19l-0.05,0.2l-0.07,0.18l-0.02-0.01l-0.08,0.2l-0.12,0.18l-0.14,0.15
								l-0.14,0.16l-0.16,0.14l-0.19,0.11l-0.19,0.08l-0.2,0.07l-0.21,0.05l-0.21,0.02h-0.21l-0.21-0.02l-0.13,0.18l-0.13,0.15
								l-0.15,0.16l-0.17,0.12l-0.18,0.12l-0.2,0.08l-0.21,0.07l-0.2,0.04l-0.21,0.02l-0.22-0.02l-0.21-0.02l-0.2-0.06l-0.01,0.03
								l-0.17-0.07l-0.2-0.09l-0.18-0.08l-0.14-0.07l-0.16-0.09l-0.18-0.11l-0.12-0.08l-0.05-0.04l-0.12-0.1l-0.21-0.19l-0.14-0.11
								l-0.16-0.12l-0.27-0.29l-0.07-0.09l-0.14-0.17l-0.29,0.17l-0.13,0.05v0.01l-0.22,0.09l-0.35,0.13l-0.27,0.07l-0.17,0.05
								l-0.2,0.05l-0.09,0.02l-0.12,0.02h-0.02l-0.14,0.01l-0.16,0.02l-0.2,0.01h-0.22h-0.18v-0.01l-0.23-0.03l-0.19-0.06l-0.2-0.07
								l-0.2-0.1l-0.18-0.11l-0.16-0.14l-0.15-0.15l-0.13-0.17l-0.09-0.2l-0.1-0.18l-0.06-0.21l-0.04-0.21l-0.2-0.06l-0.19-0.07
								l-0.2-0.1l-0.17-0.12l-0.17-0.14L138,95.51l-0.12-0.17l-0.1-0.19l-0.09-0.2l-0.07-0.2l-0.03-0.21l-0.01-0.21v-0.19l0.01-0.22
								l0.03-0.19l0.03-0.16l0.03-0.17l0.05-0.21L137.8,93l0.06-0.16l0.1-0.25l0.06-0.17l0.08-0.18l0.18-0.34l0.15-0.24l0.04-0.04
								l-0.24-0.24l-0.27-0.28l-0.13-0.17l-0.1-0.14l-0.15-0.22l-0.1-0.14l-0.1-0.17l-0.09-0.2l-0.09-0.15l-0.06-0.14l-0.07-0.18
								L137,89.37l-0.05-0.18h0.01l-0.04-0.21l-0.01-0.21l0.01-0.22l0.03-0.21l0.05-0.2l0.09-0.21l0.11-0.18l0.11-0.17l0.16-0.17
								l0.15-0.14l0.18-0.13l0.17-0.09l-0.01-0.19l0.01-0.21l0.03-0.21l0.06-0.21l0.08-0.2l0.11-0.18l0.13-0.18l0.14-0.16l0.17-0.14
								l0.17-0.12l0.19-0.1l0.2-0.09l0.18-0.05l0.21-0.06l0.2-0.03L140,84.9l0.16-0.02l0.22-0.01h0.21h0.16l0.27,0.01l0.38,0.03
								l0.38,0.07l0.33,0.09l0.04-0.08l0.02-0.07l0.09-0.15l0.18-0.34l0.22-0.31l0.17-0.21l0.1-0.14l0.14-0.15l0.14-0.16l0.13-0.11
								l0.13-0.11l0.15-0.13l0.17-0.12l0.15-0.12l0.02,0.02l0.18-0.1l0.2-0.09l0.21-0.05l0.21-0.03L144.97,82.61z"/>
							<polygon class="st0" points="142.3,97.62 142.57,97.55 142.92,97.42 143.14,97.33 142.95,97.81 142.79,98.31 142.68,98.8 
								142.59,99.27 142.57,99.78 142.59,100.27 142.68,100.76 142.81,101.27 143.09,102.27 143.17,102.76 143.2,103.25 
								143.11,103.74 142.96,104.2 142.75,104.68 142.51,105.16 141.44,105.66 140.89,105.89 140.35,106.09 139.79,106.24 
								139.21,106.37 138.07,106.59 137.51,106.76 136.98,106.98 135.92,107.53 133.89,108.7 133.38,108.28 133.16,108.05 
								132.95,107.81 132.78,107.55 132.65,107.25 132.57,106.94 132.51,106.62 132.48,106.3 132.48,105.97 132.54,105.33 
								132.66,104.71 132.83,104.08 132.59,103.94 132.36,103.8 132.1,103.71 131.84,103.66 131.27,103.63 130.73,103.67 
								130.57,104.62 130.54,105.12 130.54,105.61 130.36,105.14 130.07,105.27 129.78,105.41 129.28,105.8 130.22,108.21 
								130.82,109.53 131.37,110.86 131.86,112.22 132.26,113.63 132.62,115.03 133.06,116.41 133.31,117.08 133.61,117.74 
								134.29,119.02 131.69,120.86 130.35,121.74 128.97,122.59 127.62,123.46 126.98,123.93 126.37,124.44 125.8,124.99 
								125.28,125.59 124.32,126.87 123.72,125.72 123.41,125.16 123.06,124.61 122.68,124.07 122.27,123.58 121.83,123.09 
								121.36,122.64 120.88,122.21 120.37,121.8 119.31,121.04 117.12,119.64 116.05,118.91 115.54,118.51 115.05,118.09 
								114.59,117.63 114.15,117.14 113.74,116.62 113.38,116.07 113.06,115.49 112.79,114.9 112.58,114.3 112.41,113.67 
								112.3,113.04 112.21,112.39 112.1,111.08 112.1,107.32 112.1,106.72 112.19,107.14 112.24,107.5 112.31,107.84 
								112.35,108.14 112.4,108.39 112.44,108.61 112.48,108.81 112.51,108.96 112.55,109.22 112.58,109.37 112.59,109.46 
								112.59,109.5 112.61,109.54 112.61,109.6 112.63,109.71 112.66,109.95 112.73,110.38 112.8,110.8 112.87,111.17 
								112.93,111.48 112.97,111.7 112.99,111.77 113,111.83 113.01,111.86 113.06,112.07 113.15,112.47 113.39,113.29 
								113.55,113.75 113.7,114.24 113.9,114.72 114.12,115.18 114.39,115.63 114.69,116.07 115.02,116.49 115.39,116.88 
								115.77,117.26 116.16,117.61 117.05,118.27 118,118.91 119,119.54 120.04,120.21 121.06,120.96 121.57,121.36 122.06,121.8 
								122.52,122.25 122.97,122.73 123.39,123.22 123.79,123.75 124.15,124.3 124.48,124.85 124.94,124.33 125.43,123.82 
								125.95,123.36 126.48,122.94 127.59,122.16 128.7,121.48 129.78,120.82 130.84,120.13 132.87,118.7 132.55,118.06 
								132.27,117.4 132.02,116.73 131.79,116.06 131.43,114.74 131.08,113.46 130.71,112.24 130.28,111.04 129.77,109.86 
								129.24,108.66 128.75,107.42 128.51,106.82 128.39,106.52 128.34,106.37 128.3,106.28 128.28,106.23 128.23,106.1 
								128.18,105.99 128.13,105.85 128.07,105.68 127.97,105.47 128.13,105.33 128.27,105.21 128.48,105.05 128.62,104.92 
								128.73,104.84 128.87,104.72 129.01,104.62 129.52,104.33 129.57,103.91 129.6,103.8 129.63,103.63 129.69,103.4 
								129.7,103.33 129.73,103.23 129.74,103.15 129.77,103.04 129.8,102.9 129.84,102.7 130.07,102.66 130.23,102.64 
								130.36,102.63 130.46,102.62 130.59,102.6 130.67,102.59 130.82,102.57 130.94,102.56 131.29,102.55 131.62,102.55 
								132,102.57 132.38,102.66 132.78,102.8 133.16,103 133.27,103.07 133.39,103.15 133.49,103.23 133.62,103.33 133.8,103.47 
								134.05,103.68 134,103.88 133.97,104.04 133.94,104.15 133.91,104.22 133.87,104.39 133.8,104.64 133.76,104.79 
								133.73,104.92 133.63,105.38 133.58,105.8 133.56,106.21 133.61,106.59 133.69,106.91 133.8,107.14 133.9,107.25 
								134.01,107.38 134.91,106.87 135.84,106.34 136.33,106.09 136.86,105.85 137.44,105.64 138.02,105.48 138.56,105.37 
								139.07,105.28 139.52,105.19 139.95,105.07 140.38,104.92 140.81,104.75 141.71,104.33 141.88,103.98 142,103.66 
								142.07,103.38 142.1,103.15 142.09,102.88 142.03,102.56 141.95,102.2 141.82,101.77 141.7,101.32 141.58,100.82 
								141.5,100.29 141.48,99.75 141.51,99.22 141.54,98.97 141.58,98.71 141.58,98.7 141.7,98.22 141.84,97.74 141.93,97.72 
								142.13,97.67 							"/>
							<polygon class="st0" points="157.1,164.11 159.56,164.84 160.78,165.25 161.98,165.7 163.14,166.22 164.3,166.81 
								165.39,167.47 166.43,168.22 166.92,168.63 167.41,169.05 167.86,169.52 168.31,169.99 168.72,170.48 169.11,171 
								169.48,171.54 169.82,172.09 170.12,172.65 170.39,173.24 170.63,173.83 170.84,174.43 171.16,175.67 171.43,176.92 
								171.43,180.59 171.43,183.46 171.32,182.81 171.22,182.22 171.12,181.69 171.04,181.21 170.97,180.79 170.9,180.43 
								170.84,180.09 170.8,179.79 170.76,179.54 170.71,179.32 170.64,178.95 170.6,178.66 170.56,178.42 170.49,178.01 
								170.43,177.65 170.38,177.34 170.32,177.06 170.28,176.83 170.25,176.63 170.22,176.47 170.19,176.33 170.15,176.12 
								170.11,175.95 169.83,174.84 169.66,174.3 169.45,173.8 169.23,173.28 168.96,172.79 168.68,172.3 168.35,171.82 
								168.03,171.35 167.67,170.92 166.89,170.08 166.04,169.3 165.12,168.6 164.15,167.98 163.14,167.42 162.09,166.93 
								160.99,166.48 159.87,166.09 158.73,165.72 157.57,165.37 157.17,166 156.82,166.68 156.53,167.37 156.29,168.07 
								156.09,168.77 155.97,169.5 155.92,169.87 155.88,170.29 155.87,170.54 155.85,170.86 155.85,171.07 155.84,171.33 
								155.83,171.64 155.81,172 155.61,172.04 155.49,172.07 155.42,172.09 155.39,172.09 155.36,172.09 155.32,172.1 
								155.22,172.11 155.05,172.14 154.8,172.18 154.6,172.21 154.46,172.23 154,172.24 153.14,172.2 152.71,172.13 152.23,172 
								151.77,171.82 151.63,171.76 151.47,171.68 151.36,171.62 151.2,171.55 151.01,171.44 150.74,171.31 150.74,171.16 
								150.74,171.06 149.08,171.33 147.4,171.58 145.67,171.82 143.89,172.04 142.93,172.13 142.44,172.14 141.92,172.11 
								141.4,172.04 140.88,171.92 140.36,171.73 139.86,171.47 139.41,171.14 139,170.79 138.63,170.4 138.31,169.99 
								138.03,169.57 137.78,169.16 137.57,168.79 137.36,168.42 137.16,168.1 136.96,167.79 136.53,167.24 135.99,166.69 
								135.39,166.16 134.08,165.09 133.44,164.64 132.8,164.26 132.5,164.12 132.17,164.01 131.86,163.93 131.5,163.86 
								131.12,163.8 130.7,163.76 129.8,163.66 129.32,163.59 128.83,163.49 128.32,163.34 127.82,163.13 127.34,162.85 
								126.92,162.51 126.55,162.16 126.22,161.82 125.82,161.74 125.47,161.71 125.15,161.71 124.8,161.74 124.43,161.82 
								124.03,161.92 123.21,162.17 122.38,162.47 121.55,162.79 121.12,162.97 120.64,163.17 120.37,163.28 120.07,163.42 
								119.9,163.49 119.69,163.59 119.45,163.69 119.17,163.81 118.98,163.7 118.86,163.62 118.77,163.56 118.72,163.52 
								118.53,163.36 118.41,163.25 118.32,163.15 118.25,163.07 118.1,162.83 117.97,162.56 117.97,162.55 117.96,162.54 
								117.87,162.28 117.8,161.97 117.79,161.65 117.8,161.33 117.85,161.16 117.87,161.02 117.9,160.92 117.93,160.79 
								118.07,160.65 118.2,160.51 118.41,160.32 118.58,160.15 118.7,160.02 118.94,159.81 119.14,159.63 119.85,159.07 
								120.6,158.52 121.39,158.03 122.24,157.61 122.69,157.42 123.14,157.27 124.05,157.05 124.95,156.88 124.81,156.16 
								124.64,155.5 124.42,154.87 124.14,154.25 123.77,153.63 123.38,153 122.49,151.68 122.06,151.02 121.62,150.39 
								121.19,149.79 120.74,149.25 120.28,148.76 119.76,148.33 119.43,148.1 119.07,147.83 118.87,147.68 118.63,147.51 
								118.35,147.3 118.18,147.17 117.99,147.02 117.96,146.96 117.93,146.93 117.93,146.92 117.92,146.91 117.92,146.89 
								117.89,146.85 117.86,146.78 117.78,146.6 117.69,146.37 117.64,146.09 117.62,145.77 117.66,145.43 117.76,145.15 
								117.87,144.93 118.11,144.59 118.35,144.32 118.48,144.2 118.63,144.06 118.73,143.97 118.89,143.86 118.97,143.79 
								119.1,143.71 119.25,143.59 119.42,143.47 119.64,143.58 119.83,143.65 119.95,143.71 120.04,143.75 120.32,143.89 
								120.33,143.37 120.37,142.88 120.44,142.37 120.54,141.89 120.81,140.95 121.1,140.08 121.41,139.25 121.67,138.5 
								121.85,137.77 121.92,137.06 121.93,136.28 121.89,135.43 121.85,134.54 121.82,133.68 121.76,132.89 121.62,132.18 
								121.4,131.47 121.09,130.74 120.71,130.01 120.3,129.28 119.4,127.84 118.94,127.16 118.45,126.5 117.94,125.87 
								117.38,125.27 116.81,124.68 116.2,124.1 115.57,123.57 114.92,123.03 113.56,122.04 113.21,121.78 112.82,121.52 
								112.38,121.21 112.13,121.04 111.86,120.86 111.71,120.68 111.57,120.54 111.47,120.41 111.38,120.31 111.24,120.16 
								111.12,120.03 110.88,119.8 110.65,119.62 110.43,119.48 110.19,119.37 109.91,119.27 109.59,119.19 108.84,119.05 
								108.04,118.92 107.26,118.81 107.06,118.78 106.83,118.74 106.69,118.72 106.51,118.68 106.3,118.65 106.05,118.6 
								105.98,118.56 105.92,118.54 105.88,118.51 105.82,118.47 105.72,118.41 105.58,118.3 105.42,118.16 105.25,117.98 
								105.08,117.75 104.94,117.46 104.85,117.16 104.83,116.88 104.84,116.62 104.87,116.36 104.94,116.13 105.02,115.9 
								105.23,115.54 105.29,115.44 105.37,115.33 105.5,115.16 105.58,115.03 105.7,114.89 105.94,114.86 106.13,114.83 
								106.44,114.79 106.67,114.76 106.85,114.75 107.17,114.72 107.45,114.71 108.56,114.69 108.46,113.85 108.46,112.97 
								108.51,112.52 108.58,112.07 108.69,111.62 108.83,111.18 108.98,110.78 109.14,110.41 109.29,110.07 109.4,109.78 
								109.49,109.51 109.54,109.27 109.56,109.06 109.56,108.91 109.54,108.84 109.54,108.74 109.53,108.6 109.52,108.54 
								109.52,108.46 109.49,108.29 109.47,108.16 109.46,108.01 109.69,107.9 109.85,107.81 109.98,107.74 110.06,107.69 
								110.19,107.6 110.28,107.53 110.56,107.25 110.68,107.1 110.78,106.98 110.91,106.84 111.06,106.7 111.26,106.53 
								111.48,106.41 111.54,106.38 111.64,106.34 111.75,106.28 111.86,106.23 111.96,106.18 112.1,106.11 112.1,106.72 
								112.1,107.32 111.88,107.43 111.69,107.59 111.36,107.98 110.64,108.68 110.64,109.1 110.6,109.53 110.5,109.93 
								110.36,110.33 110.02,111.11 109.87,111.51 109.73,111.9 109.63,112.32 109.57,112.74 109.54,113.16 109.54,113.58 
								109.62,114.44 109.77,115.28 110.04,115.45 110.28,115.63 110.74,116.04 109.64,115.86 109.1,115.8 108.55,115.79 
								107.44,115.8 106.33,115.86 106.05,116.28 105.95,116.52 105.91,116.79 105.95,117.04 106.06,117.25 106.23,117.43 
								106.44,117.59 108.13,117.84 108.98,117.97 109.84,118.12 110.26,118.23 110.65,118.37 111.03,118.57 111.37,118.79 
								111.69,119.07 112,119.38 112.58,120.03 114.12,121.1 115.64,122.22 116.37,122.81 117.07,123.43 117.76,124.09 
								118.41,124.76 119.03,125.48 119.6,126.21 120.14,126.97 120.65,127.75 121.61,129.4 122.05,130.24 122.42,131.11 
								122.58,131.54 122.71,131.99 122.79,132.44 122.86,132.91 122.92,133.85 122.96,134.79 123.03,136.68 123.01,137.15 
								122.97,137.61 122.89,138.07 122.79,138.52 122.51,139.41 122.19,140.29 121.86,141.19 121.61,142.12 121.51,142.58 
								121.46,143.05 121.41,143.51 121.41,143.99 121.46,144.45 121.53,144.91 121.71,145.84 119.57,144.66 119.18,145.03 
								119,145.22 118.83,145.46 118.72,145.71 118.7,145.84 118.72,145.97 118.8,146.22 118.93,146.49 119.67,146.95 
								120.37,147.44 121.03,147.99 121.62,148.61 122.17,149.28 122.68,150 123.66,151.46 124.62,152.92 125.05,153.68 
								125.42,154.45 125.71,155.25 125.91,156.09 126.06,156.95 126.19,157.82 125.16,157.94 124.15,158.13 123.66,158.25 
								123.18,158.39 122.72,158.58 122.26,158.8 121.82,159.04 121.39,159.31 120.56,159.9 119.74,160.54 118.94,161.23 
								118.87,161.58 118.87,161.76 118.91,161.95 119.04,162.28 119.25,162.58 121.06,161.82 121.98,161.45 122.92,161.12 
								123.87,160.84 124.35,160.71 124.84,160.64 125.33,160.61 125.81,160.64 126.79,160.82 127.43,161.5 127.76,161.79 
								128.11,162.04 128.51,162.24 128.91,162.4 129.35,162.49 129.8,162.56 131.65,162.77 132.1,162.86 132.54,162.99 
								132.96,163.14 133.37,163.34 134.14,163.8 134.88,164.35 136.32,165.51 136.98,166.13 137.58,166.79 137.85,167.16 
								138.1,167.52 138.54,168.31 139,169.09 139.27,169.46 139.57,169.82 139.9,170.15 140.26,170.43 140.64,170.65 
								141.05,170.84 141.47,170.95 141.91,171.02 142.36,171.05 142.82,171.05 143.76,170.96 144.7,170.85 146.54,170.61 
								148.33,170.34 151.84,169.78 151.84,170.64 152.17,170.81 152.51,170.95 152.88,171.05 153.24,171.12 154,171.16 
								154.38,171.14 154.74,171.09 154.8,170.16 154.9,169.23 155.08,168.31 155.35,167.41 155.7,166.54 156.11,165.68 
								156.58,164.88 							"/>
							<polygon class="st0" points="158,156.01 158,156.43 157.99,157.17 157.99,157.86 157.99,158.52 158.47,159.04 158.94,159.5 
								159.44,159.9 159.94,160.25 160.49,160.56 161.08,160.82 161.71,161.08 162.39,161.3 163.79,161.71 165.26,162.13 
								166.01,162.37 166.75,162.62 167.5,162.93 168.23,163.28 168.94,163.69 169.62,164.15 170.25,164.66 170.85,165.2 
								171.42,165.79 171.94,166.41 172.44,167.07 172.89,167.76 173.31,168.46 173.71,169.21 174.06,169.95 174.38,170.72 
								174.65,171.48 174.87,172.21 175.03,172.9 175.12,173.53 175.57,173.85 176.04,174.26 176.26,174.51 176.46,174.77 
								176.56,174.92 176.67,175.09 176.74,175.2 176.82,175.36 176.94,175.55 177.09,175.81 176.98,176.03 176.89,176.21 
								176.84,176.37 176.78,176.49 176.68,176.7 176.61,176.86 176.52,177.13 176.42,177.36 176.11,178.31 175.85,179.29 
								175.74,179.81 175.63,180.27 175.56,180.89 175.46,181.54 175.19,182.84 174.86,184.12 174.45,185.37 173.99,186.59 
								173.48,187.78 173.21,188.37 173.09,188.67 172.93,189.01 172.75,189.39 172.65,189.62 172.53,189.89 172.4,190.19 
								172.32,190.35 172.22,190.58 172.09,190.86 171.92,191.24 171.82,191.46 171.7,191.72 171.57,192 171.43,192.32 
								171.43,189.65 172.48,187.35 172.98,186.18 173.42,185 173.82,183.81 174.13,182.59 174.38,181.35 174.56,180.1 
								174.8,179.01 175.08,177.94 175.43,176.89 175.85,175.85 175.62,175.47 175.34,175.12 175.01,174.81 174.65,174.53 
								174.63,175.34 174.58,176.2 174.48,175.34 174.34,174.5 174.16,173.64 173.93,172.8 173.68,171.97 173.38,171.16 
								173.05,170.36 172.68,169.59 172.27,168.83 171.82,168.11 171.35,167.42 170.83,166.78 170.28,166.16 169.69,165.6 
								169.06,165.09 168.4,164.63 167.69,164.22 166.96,163.88 166.19,163.58 165.42,163.32 162.23,162.4 161.44,162.13 
								160.69,161.85 159.97,161.51 159.27,161.12 158.62,160.65 158.02,160.12 157.45,159.55 156.91,158.93 156.91,155.73 
								156.68,155.43 156.57,155.3 156.44,155.22 156.29,155.16 156.12,155.15 155.77,155.18 155.5,155.91 155.29,156.64 
								155.22,157.02 155.19,157.4 155.22,158.15 154.46,157.12 154.06,156.64 153.61,156.2 153.13,155.82 152.6,155.5 
								152.02,155.23 151.43,154.98 152.22,155.87 152.6,156.33 152.95,156.81 153.26,157.3 153.54,157.82 154.01,158.9 
								154.34,159.46 154.67,159.99 155.07,160.49 155.52,160.94 154.73,161.61 154.35,161.96 154.03,162.35 153.73,162.79 
								153.49,163.25 153.06,164.25 152.83,164.73 152.6,165.18 152.29,165.56 152.12,165.72 151.92,165.86 151.49,166.1 
								150.99,166.26 149.94,166.5 148.9,166.69 147.89,166.88 146.89,167.03 145.88,167.14 144.87,167.18 143.84,167.2 
								141.77,167.14 141.13,166.58 140.82,166.3 140.56,165.98 140.32,165.64 140.12,165.26 139.97,164.87 139.86,164.46 
								139.77,164.04 139.74,163.62 139.74,163.2 139.79,162.77 139.94,161.96 140.16,161.15 140.94,160.87 141.32,160.77 
								141.71,160.68 141.74,160.3 141.47,160.21 141.2,160.15 140.66,160.11 140.09,160.15 139.53,160.22 139.56,159.32 
								139.17,159.28 138.76,159.33 138.38,159.47 138.03,159.67 138,160.46 137.89,161.23 137.71,161.99 137.5,162.76 
								135.7,161.81 133.9,160.88 132.97,160.44 132.03,160.06 131.08,159.73 130.11,159.43 129.8,157.92 129.6,157.17 
								129.36,156.44 129.07,155.73 128.73,155.04 127.97,153.68 127.17,152.34 126.41,150.98 125.01,148.24 124.98,145.33 
								125.02,143.86 125.08,143.12 125.15,142.37 125.28,141.64 125.43,140.92 125.64,140.24 125.92,139.58 126.26,138.94 
								126.68,138.35 127.62,137.23 127.3,136.64 127.1,136.37 126.88,136.15 126.61,135.95 126.33,135.8 125.71,135.53 
								125.7,133.43 125.7,132.36 125.77,131.29 125.84,130.77 125.95,130.27 126.1,129.78 126.3,129.3 126.55,128.83 
								126.82,128.38 127.14,127.95 127.48,127.53 128.21,126.76 129,126.04 129.81,125.38 130.67,124.78 131.55,124.2 
								132.47,123.67 134.31,122.64 134.8,122.68 135.29,122.77 135.52,122.84 135.74,122.94 136.18,123.18 136.54,123.19 
								136.7,123.15 136.85,123.03 136.95,122.89 137.02,122.71 137.05,122.53 137.03,122.36 136.22,122.14 135.43,121.83 
								136.18,121.38 136.92,120.97 138.45,120.2 140.01,119.47 140.81,119.14 141.61,118.85 142.06,118.75 142.27,118.72 
								142.5,118.72 142.71,118.75 142.93,118.82 143.35,118.99 143.77,119.14 143.99,119.19 144.21,119.2 144.65,119.14 
								145.08,119.02 144.48,118.88 144.21,118.75 144,118.6 143.87,118.37 143.79,118.09 143.68,117.85 143.49,117.68 
								143.25,117.56 142.97,117.5 142.66,117.46 142.34,117.46 141.7,117.47 141.15,117.47 141.34,117.26 141.3,116.84 
								141.26,116.65 141.18,116.48 141.05,116.32 140.88,116.21 140.5,116.01 139.48,116.34 138.45,116.67 137.45,117.07 
								136.47,117.5 135.64,116.07 135.28,115.31 134.97,114.54 134.73,113.75 134.56,112.94 134.48,112.11 134.42,111.28 
								135.14,110.68 135.52,110.4 135.89,110.14 136.3,109.93 136.74,109.76 137.62,109.46 138.49,109.12 139.34,108.73 
								140.18,108.36 140.61,108.22 141.06,108.12 142.9,107.78 143.82,107.52 144.72,107.24 145.16,107.14 145.61,107.07 
								146.06,107.07 146.5,107.12 146.95,107.24 147.4,107.39 148.28,107.76 148.59,107.5 148.72,107.35 148.83,107.17 
								148.9,106.98 148.93,106.79 148.92,106.38 148,105.99 147.52,105.83 147.05,105.71 146.06,105.54 145.07,105.43 
								145.07,104.91 145.02,104.39 144.94,103.88 144.8,103.38 144.14,101.37 143.86,100.36 143.75,99.85 143.68,99.33 
								143.63,98.83 143.63,98.31 143.7,97.27 143.77,97.36 144.04,97.65 144.2,97.77 144.34,97.88 144.55,98.07 144.67,98.17 
								144.72,98.21 144.73,98.91 144.81,99.6 144.97,100.31 145.18,101.06 145.43,101.82 145.71,102.63 145.97,103.5 
								146.06,103.96 146.13,104.46 146.93,104.57 147.75,104.77 148.55,105.03 148.94,105.2 149.06,105.26 149.21,105.33 
								149.41,105.41 149.46,105.45 149.56,105.5 149.7,105.57 149.93,105.68 149.95,105.89 149.97,106.06 149.98,106.2 150,106.31 
								150.01,106.46 150.02,106.59 150.01,106.97 149.93,107.35 149.79,107.69 149.6,107.98 149.39,108.25 149.17,108.44 
								149.01,108.56 148.9,108.66 148.82,108.73 148.7,108.81 148.62,108.88 148.51,108.96 148.28,108.89 148.11,108.82 
								147.99,108.78 147.89,108.74 147.75,108.7 147.65,108.66 147.47,108.58 147.34,108.53 147.13,108.44 146.93,108.37 
								146.58,108.26 146.26,108.19 145.98,108.15 145.7,108.15 145.39,108.21 145.04,108.28 144.65,108.4 144.22,108.53 
								143.77,108.68 143.28,108.81 142.79,108.92 142.33,109.01 141.88,109.08 141.47,109.15 141.08,109.23 140.73,109.33 
								140.39,109.44 140.04,109.6 139.66,109.76 139.25,109.96 138.82,110.16 138.35,110.35 137.9,110.51 137.48,110.65 
								137.09,110.79 136.75,110.93 136.46,111.08 136.16,111.27 135.85,111.49 135.54,111.74 135.59,112.35 135.67,112.91 
								135.78,113.46 135.94,113.99 136.13,114.54 136.36,115.06 136.63,115.59 136.92,116.13 137.66,115.82 138.42,115.54 
								139.21,115.28 139.43,115.2 139.73,115.11 140.08,115.02 140.31,114.95 140.54,114.88 140.74,114.96 140.89,115.02 
								141.02,115.07 141.12,115.11 141.25,115.17 141.36,115.23 141.72,115.48 141.91,115.66 142.09,115.89 142.22,116.14 
								142.31,116.36 142.61,116.38 142.93,116.39 143.27,116.45 143.63,116.55 144.03,116.73 144.22,116.87 144.41,117.04 
								144.57,117.24 144.7,117.47 144.8,117.68 144.84,117.85 144.93,117.87 145.02,117.9 145.19,117.95 145.45,118.02 
								145.75,118.12 145.98,118.18 146.13,118.22 146.33,118.27 146.57,118.34 146.88,118.43 147.26,118.54 147.71,118.67 
								147.31,118.92 146.96,119.14 146.65,119.33 146.4,119.48 146.18,119.61 145.99,119.71 145.84,119.8 145.7,119.88 
								145.47,119.97 145.29,120.06 144.98,120.17 144.73,120.24 144.55,120.27 144.2,120.28 143.83,120.25 143.48,120.18 
								143.18,120.09 142.95,120 142.75,119.92 142.59,119.85 142.48,119.82 142.41,119.8 142.36,119.8 142.26,119.82 
								142.12,119.85 141.92,119.89 140.92,120.25 139.97,120.68 138,121.63 138.04,121.84 138.09,122.02 138.11,122.29 
								138.13,122.47 138.13,122.6 138.11,122.81 138.07,123.02 137.9,123.41 137.79,123.6 137.65,123.76 137.48,123.93 
								137.27,124.07 137.03,124.19 136.79,124.26 136.58,124.28 136.39,124.28 136.15,124.27 136.01,124.24 135.84,124.21 
								135.68,124.14 135.57,124.07 135.42,124 135.28,123.92 135.09,123.84 134.86,123.78 134.55,123.75 132.85,124.71 
								132.03,125.2 131.23,125.7 130.47,126.25 129.74,126.83 129.05,127.44 128.42,128.1 127.86,128.79 127.62,129.16 
								127.41,129.52 127.24,129.87 127.1,130.25 126.99,130.63 126.91,131.02 126.85,131.45 126.81,131.9 126.78,132.82 
								126.79,134.82 127.07,134.97 127.37,135.15 127.65,135.38 127.9,135.64 128.13,135.93 128.3,136.19 128.38,136.35 
								128.48,136.54 128.55,136.66 128.63,136.84 128.77,137.09 128.86,137.26 128.96,137.44 128.65,137.77 128.39,138.03 
								128.17,138.27 127.99,138.48 127.83,138.65 127.71,138.82 127.5,139.09 127.16,139.58 126.88,140.08 126.67,140.62 
								126.48,141.21 126.34,141.82 126.25,142.47 126.17,143.13 126.12,143.82 126.08,145.21 126.09,147.97 127.38,150.49 
								128.07,151.71 128.8,152.96 129.53,154.25 129.88,154.93 130.21,155.63 130.49,156.36 130.73,157.1 130.91,157.85 
								131.05,158.59 131.81,158.83 132.57,159.11 133.31,159.4 134.04,159.74 135.45,160.44 136.79,161.16 136.91,160.47 
								136.93,160.15 136.93,159.99 136.95,159.77 136.96,159.64 136.96,159.47 136.98,159.28 137,159.04 137.24,158.89 
								137.41,158.77 137.55,158.69 137.65,158.63 137.96,158.46 138.24,158.35 138.54,158.27 138.84,158.21 139.14,158.2 
								139.28,158.2 139.48,158.21 139.62,158.23 139.79,158.25 139.98,158.28 140.09,158.31 140.14,158.32 140.22,158.34 
								140.36,158.38 140.57,158.44 140.6,158.6 140.61,158.73 140.63,158.89 140.64,159.03 140.95,159.04 141.29,159.07 
								141.47,159.1 141.68,159.15 141.82,159.18 142,159.24 142.13,159.28 142.29,159.33 142.48,159.39 142.73,159.47 
								142.75,159.64 142.76,159.76 142.78,159.81 142.78,159.84 142.78,159.87 142.79,159.91 142.79,160.01 142.81,160.19 
								142.79,160.53 142.78,160.7 142.76,160.91 142.73,161.06 142.71,161.23 142.66,161.44 142.62,161.71 142.29,161.74 
								142.02,161.76 141.84,161.79 141.71,161.81 141.54,161.83 141.43,161.86 141.06,161.97 140.92,162.61 140.84,163.2 
								140.84,163.74 140.94,164.29 141.11,164.8 141.22,165.02 141.36,165.23 141.51,165.43 141.71,165.64 141.93,165.85 
								142.19,166.06 144.03,166.12 144.93,166.1 145.81,166.06 146.67,165.96 147.54,165.84 148.44,165.68 149.38,165.5 
								150.31,165.32 150.73,165.2 151.05,165.11 151.19,165.04 151.3,164.98 151.46,164.85 151.63,164.67 151.79,164.39 
								151.96,164.04 152.15,163.62 152.34,163.15 152.57,162.66 152.85,162.16 153.19,161.67 153.56,161.23 153.94,160.84 
								153.69,160.49 153.47,160.12 153.24,159.76 153.02,159.32 152.79,158.8 152.57,158.31 152.33,157.86 152.06,157.44 
								151.75,157.02 151.4,156.6 151.22,156.37 151.11,156.23 150.95,156.05 150.76,155.81 150.63,155.66 150.49,155.47 
								150.4,155.36 150.29,155.23 150.18,155.07 150.01,154.84 149.81,154.57 149.56,154.22 149.42,154.01 149.25,153.79 
								149.08,153.53 148.89,153.25 149.28,153.35 149.63,153.45 149.94,153.52 150.22,153.59 150.46,153.65 150.66,153.7 
								150.99,153.79 151.23,153.86 151.42,153.91 151.71,154 151.95,154.07 152.15,154.12 152.31,154.18 152.45,154.24 
								152.67,154.34 152.85,154.42 153.19,154.59 153.54,154.78 153.87,155.01 154.18,155.26 154.48,155.53 154.55,155.33 
								154.63,155.08 154.74,154.76 154.81,154.55 154.88,154.32 155.19,154.24 155.43,154.17 155.61,154.12 155.76,154.1 
								155.98,154.07 156.18,154.05 156.36,154.07 156.56,154.11 156.77,154.17 156.98,154.27 157.15,154.38 157.29,154.49 
								157.51,154.71 157.67,154.91 157.76,155.08 157.85,155.21 157.9,155.3 157.95,155.39 158.02,155.5 							"/>
							<polygon class="st0" points="140.46,99.43 139.39,99.82 138.86,99.99 138.34,100.1 137.83,100.19 137.34,100.22 
								136.86,100.17 136.39,100.08 135.94,99.91 135.5,99.67 135.09,99.39 134.69,99.05 134.29,98.67 133.93,98.25 133.58,97.79 
								133.25,97.31 132.64,96.31 132.09,95.27 131.62,94.26 131.2,93.26 130.84,92.27 130.18,90.32 132.16,90.43 133.17,90.51 
								134.21,90.64 135.26,90.81 136.36,91.03 137.45,91.33 138.43,91.66 138.28,91.9 138.1,92.24 138.02,92.42 137.96,92.59 
								137.86,92.84 137.8,93 137.73,93.19 137.68,93.4 137.65,93.57 137.62,93.73 137.59,93.92 137.58,94.14 137.58,94.33 
								137.59,94.54 137.62,94.75 137.69,94.95 137.78,95.15 137.88,95.34 138,95.51 138.14,95.67 138.31,95.81 138.48,95.93 
								138.68,96.03 138.87,96.1 139.07,96.16 139.11,96.37 139.17,96.58 139.27,96.76 139.36,96.96 139.49,97.13 139.64,97.28 
								139.8,97.42 139.98,97.53 140.18,97.63 140.38,97.7 140.57,97.76 140.8,97.79 140.8,97.8 140.98,97.8 141.2,97.8 
								141.4,97.79 141.56,97.77 141.7,97.76 141.67,98.04 141.58,98.7 141.58,98.71 141.54,98.97 							"/>
							<polygon class="st0" points="151.68,114.61 152.17,114.54 152.68,114.52 153.21,114.57 153.75,114.65 154.28,114.78 
								154.84,114.93 155.39,115.11 156.47,115.56 157.53,116.08 158.49,116.63 159.42,117.19 160.31,117.78 161.99,118.96 
								160.03,120.23 158.99,120.83 157.89,121.42 156.71,121.97 155.47,122.46 154.84,122.66 154.22,122.81 153.59,122.94 
								152.99,123.01 152.98,123.01 152.9,122.53 152.78,122.04 152.6,121.57 152.36,121.15 152.06,120.77 151.72,120.44 
								151.33,120.14 150.9,119.86 150.42,119.62 149.91,119.41 148.83,119.02 147.71,118.67 148.31,117.66 148.94,116.7 
								149.28,116.27 149.62,115.86 149.98,115.51 150.38,115.18 150.78,114.93 151.22,114.74 							"/>
							<polygon class="st0" points="146.84,119.47 147.71,118.67 148.83,119.02 149.91,119.41 150.42,119.62 150.9,119.86 
								151.33,120.14 151.72,120.44 152.06,120.77 152.36,121.15 152.6,121.57 152.78,122.04 152.9,122.53 152.98,123.01 
								152.99,123.05 153.04,123.58 153.04,124.14 153.02,124.72 152.97,125.3 152.79,126.46 152.54,127.6 152.23,128.68 
								151.89,129.7 151.54,130.7 150.78,132.61 149.29,131.19 148.55,130.45 147.82,129.65 147.09,128.79 146.39,127.87 
								145.73,126.9 145.43,126.39 145.16,125.89 144.94,125.37 144.76,124.86 144.62,124.35 144.53,123.85 144.5,123.36 
								144.55,122.88 144.65,122.42 144.81,121.95 145.05,121.52 145.33,121.1 145.66,120.68 146.02,120.27 							"/>
							<polygon class="st0" points="106.27,110.09 106.37,110.56 106.41,111.06 106.4,111.56 106.36,112.1 106.27,112.64 
								106.01,113.75 105.7,114.89 104.56,115.2 103.45,115.45 102.9,115.54 102.38,115.59 101.86,115.61 101.37,115.56 
								100.89,115.47 100.44,115.3 100.02,115.07 99.63,114.78 99.25,114.44 98.9,114.05 98.56,113.61 98.25,113.15 97.97,112.66 
								97.7,112.14 97.23,111.06 96.83,109.96 96.51,108.89 96.23,107.84 96,106.82 95.61,104.79 97.63,105.19 98.66,105.41 
								99.71,105.69 100.78,106.02 101.88,106.42 102.96,106.89 103.46,107.15 103.97,107.45 104.43,107.76 104.85,108.08 
								105.25,108.43 105.6,108.81 105.88,109.22 106.1,109.64 							"/>
							<polygon class="st0" points="117.65,163.24 117.12,163.32 116.01,163.55 115.47,163.69 114.97,163.86 114.49,164.05 
								114.05,164.29 113.66,164.57 113.32,164.91 113.03,165.29 112.78,165.72 112.58,166.19 112.41,166.68 112.28,167.2 
								111.71,167.13 111.1,167.02 110.51,166.88 109.92,166.71 108.76,166.3 107.66,165.85 106.62,165.37 105.64,164.88 
								103.74,163.84 105.35,162.54 106.19,161.89 107.06,161.27 108,160.65 109.01,160.06 110.06,159.55 110.6,159.32 
								111.13,159.12 111.67,158.96 112.2,158.84 112.72,158.77 113.22,158.74 113.72,158.77 114.19,158.87 114.64,159.04 
								115.06,159.26 115.47,159.55 115.87,159.88 116.24,160.26 116.6,160.67 117.3,161.58 117.96,162.54 117.97,162.55 
								117.97,162.56 							"/>
							<polygon class="st0" points="118.28,163.14 119.03,164.05 119.71,164.98 120.02,165.43 120.28,165.89 120.5,166.37 
								120.65,166.83 120.75,167.31 120.8,167.79 120.75,168.27 120.65,168.74 120.49,169.23 120.28,169.71 120.02,170.19 
								119.71,170.65 119.39,171.12 119.03,171.57 118.23,172.44 117.38,173.25 116.54,173.98 115.7,174.67 114.85,175.29 
								113.17,176.48 112.71,174.47 112.49,173.43 112.33,172.37 112.19,171.26 112.1,170.09 112.1,168.91 112.13,168.34 
								112.19,167.76 112.28,167.21 112.28,167.2 112.41,166.68 112.58,166.19 112.78,165.72 113.03,165.29 113.32,164.91 
								113.66,164.57 114.05,164.29 114.49,164.05 114.97,163.86 115.47,163.69 116.01,163.55 117.12,163.32 117.65,163.24 							
								"/>
							<polygon class="st0" points="162.37,154.91 161.92,155.11 161.46,155.22 160.98,155.28 160.47,155.26 159.97,155.21 
								159.45,155.09 158.92,154.95 157.83,154.59 156.74,154.15 156.54,153 156.4,151.86 156.37,151.32 156.37,150.78 
								156.42,150.26 156.51,149.79 156.67,149.32 156.87,148.89 157.15,148.49 157.47,148.13 157.85,147.79 158.27,147.47 
								158.73,147.19 159.22,146.93 159.76,146.7 160.29,146.49 161.42,146.12 162.54,145.84 163.65,145.63 164.72,145.46 
								165.76,145.33 167.82,145.15 167.22,147.12 166.88,148.13 166.5,149.14 166.07,150.16 165.56,151.22 164.97,152.24 
								164.66,152.73 164.32,153.2 163.97,153.62 163.59,154.01 163.2,154.36 162.79,154.67 							"/>
						</g>
					</g>
				</g>
			</g>
		</g>
	</g>
</g>
</svg>
