<?xml version="1.0" encoding="utf-8"?>
<!-- Generator: Adobe Illustrator 26.1.0, SVG Export Plug-In . SVG Version: 6.00 Build 0)  -->
<svg version="1.1" id="Lager_1" xmlns="http://www.w3.org/2000/svg" xmlns:xlink="http://www.w3.org/1999/xlink" x="0px" y="0px"
	 viewBox="0 0 283.46 283.46" style="enable-background:new 0 0 283.46 283.46;" xml:space="preserve">
<style type="text/css">
	.st0{fill:#1E2676;}
	.st1{fill:none;}
	.st2{fill:#FFFFFF;}
</style>
<g id="Priser_2024">
	<g id="Olivkvist">
		<g id="SPLINE_3555_">
			<path class="st0" d="M130.12,249.38c-0.19-2.53-0.38-5.05-1.1-7.44l0,0c-1-3.29-2.99-6.32-5.5-8.74l0,0
				c-2.45-2.37-5.4-4.14-8.5-5.5l0,0c-2.74-1.19-5.6-2.06-8.5-2.79l0,0c-2.41-0.61-4.86-1.13-7.3-1.65"/>
		</g>
		<g id="LINE_2308_">
			<line class="st1" x1="99.23" y1="223.26" x2="130.12" y2="249.38"/>
		</g>
		<g id="SPLINE_3556_">
			<path class="st0" d="M130.12,249.38c-2.52,0.23-5.04,0.47-7.53,0.16l0,0c-3.4-0.44-6.73-1.9-9.53-3.97l0,0
				c-2.74-2.03-4.98-4.63-6.83-7.47l0,0c-1.63-2.5-2.96-5.18-4.17-7.91l0,0c-1.01-2.29-1.92-4.6-2.84-6.92"/>
		</g>
		<g id="SPLINE_3557_">
			<path class="st0" d="M133.81,258.16c-2.14-1.36-4.27-2.72-6.62-3.57l0,0c-3.22-1.17-6.86-1.39-10.29-0.83l0,0
				c-3.37,0.55-6.55,1.85-9.49,3.52l0,0c-2.6,1.48-5.01,3.25-7.32,5.13l0,0c-1.94,1.57-3.81,3.22-5.69,4.86"/>
		</g>
		<g id="LINE_2309_">
			<line class="st1" x1="94.4" y1="267.27" x2="133.81" y2="258.16"/>
		</g>
		<g id="SPLINE_3558_">
			<path class="st0" d="M133.81,258.16c-1.32,2.15-2.64,4.32-4.38,6.11l0,0c-2.38,2.47-5.55,4.26-8.89,5.26l0,0
				c-3.27,0.98-6.69,1.21-10.07,1l0,0c-2.98-0.2-5.92-0.73-8.83-1.4l0,0c-2.43-0.57-4.84-1.22-7.24-1.87"/>
		</g>
		<g id="SPLINE_3559_">
			<path class="st0" d="M93.26,241.45c1.15-2.25,2.29-4.52,2.91-6.94l0,0c0.85-3.32,0.72-6.95-0.18-10.33l0,0
				c-0.87-3.29-2.47-6.33-4.43-9.09l0,0c-1.73-2.44-3.72-4.66-5.82-6.79l0,0c-1.75-1.78-3.57-3.48-5.39-5.19"/>
		</g>
		<g id="LINE_2310_">
			<line class="st1" x1="80.35" y1="203.12" x2="93.26" y2="241.45"/>
		</g>
		<g id="SPLINE_3560_">
			<path class="st0" d="M93.26,241.45c-2.28-1.11-4.56-2.21-6.52-3.76l0,0c-2.69-2.13-4.77-5.11-6.1-8.33l0,0
				c-1.3-3.15-1.86-6.54-1.98-9.92l0,0c-0.1-2.98,0.14-5.97,0.53-8.93l0,0c0.33-2.47,0.74-4.93,1.16-7.39"/>
		</g>
		<g id="SPLINE_3561_">
			<path class="st0" d="M106.98,249.85c-2.02-1.52-4.04-3.05-6.32-4.09l0,0c-3.12-1.42-6.73-1.93-10.2-1.64l0,0
				c-3.4,0.29-6.67,1.33-9.73,2.76l0,0c-2.71,1.27-5.25,2.85-7.71,4.54l0,0c-2.06,1.41-4.06,2.9-6.05,4.39"/>
		</g>
		<g id="LINE_2311_">
			<line class="st1" x1="66.97" y1="255.81" x2="106.98" y2="249.85"/>
		</g>
		<g id="SPLINE_3562_">
			<path class="st0" d="M106.98,249.85c-1.49,2.04-2.97,4.1-4.85,5.75l0,0c-2.57,2.27-5.87,3.8-9.28,4.54l0,0
				c-3.33,0.73-6.77,0.68-10.12,0.21l0,0c-2.96-0.43-5.85-1.2-8.7-2.1l0,0c-2.38-0.75-4.73-1.6-7.07-2.43"/>
		</g>
		<g id="SPLINE_3563_">
			<path class="st0" d="M67.07,227.46c1.76-1.81,3.53-3.62,4.86-5.75l0,0c1.81-2.91,2.77-6.43,2.93-9.9l0,0
				c0.16-3.41-0.46-6.79-1.49-10.01l0,0c-0.91-2.85-2.15-5.57-3.52-8.22l0,0c-1.14-2.22-2.36-4.39-3.59-6.57"/>
		</g>
		<g id="LINE_2312_">
			<line class="st1" x1="66.27" y1="187.01" x2="67.07" y2="227.46"/>
		</g>
		<g id="SPLINE_3564_">
			<path class="st0" d="M67.07,227.46c-1.84-1.75-3.68-3.48-5.08-5.55l0,0c-1.93-2.85-3.02-6.31-3.32-9.78l0,0
				c-0.29-3.4,0.19-6.8,1.09-10.06l0,0c0.79-2.88,1.93-5.65,3.18-8.36l0,0c1.05-2.26,2.19-4.48,3.32-6.7"/>
		</g>
		<g id="SPLINE_3565_">
			<path class="st0" d="M82.13,240.58c-1.54-2.01-3.07-4.02-4.99-5.63l0,0c-2.62-2.21-5.96-3.66-9.38-4.32l0,0
				c-3.35-0.64-6.78-0.51-10.12,0.05l0,0c-2.95,0.5-5.82,1.33-8.65,2.3l0,0c-2.36,0.81-4.69,1.71-7.01,2.62"/>
		</g>
		<g id="LINE_2313_">
			<line class="st1" x1="41.99" y1="235.59" x2="82.13" y2="240.58"/>
		</g>
		<g id="SPLINE_3566_">
			<path class="st0" d="M82.13,240.58c-1.98,1.58-3.96,3.14-6.21,4.23l0,0c-3.09,1.5-6.68,2.1-10.16,1.89l0,0
				c-3.4-0.2-6.7-1.16-9.8-2.51l0,0c-2.73-1.21-5.32-2.72-7.82-4.35l0,0c-2.09-1.37-4.12-2.81-6.16-4.25"/>
		</g>
		<g id="SPLINE_3567_">
			<path class="st0" d="M47.61,209.85c2.12-1.38,4.24-2.76,6-4.54l0,0c2.41-2.45,4.11-5.66,5.03-9.02l0,0
				c0.89-3.29,1.04-6.72,0.73-10.09l0,0c-0.27-2.97-0.88-5.9-1.63-8.79l0,0c-0.62-2.42-1.35-4.8-2.06-7.19"/>
		</g>
		<g id="LINE_2314_">
			<line class="st1" x1="55.67" y1="170.21" x2="47.61" y2="209.85"/>
		</g>
		<g id="SPLINE_3568_">
			<path class="st0" d="M47.61,209.85c-1.41-2.1-2.83-4.2-3.75-6.52l0,0c-1.26-3.19-1.57-6.82-1.1-10.27l0,0
				c0.46-3.38,1.67-6.59,3.27-9.58l0,0c1.41-2.64,3.12-5.09,4.93-7.46l0,0c1.52-1.98,3.11-3.9,4.71-5.82"/>
		</g>
		<g id="SPLINE_3569_">
			<path class="st0" d="M60.39,225.74c-1.12-2.27-2.24-4.54-3.81-6.48l0,0c-2.15-2.67-5.15-4.74-8.38-6.04l0,0
				c-3.16-1.27-6.56-1.81-9.93-1.9l0,0c-2.99-0.08-5.97,0.19-8.93,0.6l0,0c-2.47,0.34-4.93,0.77-7.38,1.21"/>
		</g>
		<g id="LINE_2315_">
			<line class="st1" x1="21.96" y1="213.12" x2="60.39" y2="225.74"/>
		</g>
		<g id="SPLINE_3570_">
			<path class="st0" d="M60.39,225.74c-2.25,1.17-4.5,2.33-6.91,2.97l0,0c-3.32,0.87-6.95,0.76-10.32-0.1l0,0
				c-3.3-0.85-6.35-2.43-9.13-4.36l0,0c-2.45-1.71-4.69-3.69-6.83-5.77l0,0c-1.79-1.75-3.51-3.55-5.23-5.35"/>
		</g>
		<g id="SPLINE_3571_">
			<path class="st0" d="M42.55,207.28c-0.64-2.45-1.29-4.9-2.44-7.12l0,0c-1.58-3.05-4.09-5.67-7-7.59l0,0
				c-2.85-1.88-6.06-3.08-9.36-3.85l0,0c-2.92-0.68-5.89-1.01-8.87-1.2l0,0c-2.49-0.16-4.98-0.22-7.47-0.29"/>
		</g>
		<g id="LINE_2316_">
			<line class="st1" x1="7.42" y1="187.23" x2="42.55" y2="207.28"/>
		</g>
		<g id="SPLINE_3572_">
			<path class="st0" d="M42.55,207.28c-2.43,0.69-4.87,1.38-7.37,1.52l0,0c-3.42,0.19-6.97-0.64-10.09-2.16l0,0
				c-3.07-1.49-5.74-3.65-8.08-6.1l0,0c-2.06-2.16-3.86-4.55-5.55-7.02l0,0c-1.41-2.06-2.73-4.18-4.05-6.29"/>
		</g>
		<g id="SPLINE_3573_">
			<path class="st0" d="M35.19,186.19c-0.36-2.5-0.72-5.01-1.61-7.35l0,0c-1.22-3.21-3.42-6.1-6.09-8.34l0,0
				c-2.61-2.19-5.67-3.76-8.85-4.9l0,0c-2.81-1-5.73-1.67-8.67-2.21l0,0c-2.45-0.44-4.92-0.79-7.39-1.14"/>
		</g>
		<g id="LINE_2317_">
			<line class="st1" x1="2.59" y1="162.25" x2="35.19" y2="186.19"/>
		</g>
		<g id="SPLINE_3574_">
			<path class="st0" d="M35.19,186.19c-2.5,0.41-5,0.81-7.49,0.67l0,0c-3.42-0.2-6.85-1.43-9.78-3.3l0,0
				c-2.88-1.84-5.29-4.28-7.32-6.98l0,0c-1.8-2.39-3.31-4.97-4.7-7.61l0,0c-1.17-2.21-2.23-4.46-3.31-6.71"/>
		</g>
		<g id="SPLINE_3575_">
			<path class="st0" d="M27.29,164.92c0.61-2.46,1.22-4.91,1.29-7.41l0,0c0.09-3.43-0.85-6.94-2.47-10.02l0,0
				c-1.59-3.02-3.83-5.63-6.35-7.88l0,0c-2.23-2-4.67-3.72-7.19-5.32l0,0c-2.1-1.34-4.26-2.6-6.41-3.86"/>
		</g>
		<g id="LINE_2318_">
			<line class="st1" x1="6.15" y1="130.42" x2="27.29" y2="164.92"/>
		</g>
		<g id="SPLINE_3576_">
			<path class="st0" d="M27.29,164.92c-2.47-0.57-4.93-1.14-7.19-2.22l0,0c-3.09-1.48-5.79-3.92-7.8-6.76l0,0
				c-1.97-2.79-3.27-5.96-4.14-9.23l0,0c-0.77-2.89-1.19-5.85-1.48-8.82l0,0c-0.23-2.48-0.38-4.97-0.52-7.46"/>
		</g>
		<g id="SPLINE_3577_">
			<path class="st0" d="M37.79,181.54c2.22-1.21,4.45-2.42,6.33-4.06l0,0c2.59-2.25,4.54-5.32,5.72-8.6l0,0
				c1.15-3.21,1.56-6.62,1.53-10l0,0c-0.03-2.99-0.42-5.96-0.94-8.9l0,0c-0.43-2.46-0.96-4.9-1.48-7.33"/>
		</g>
		<g id="LINE_2319_">
			<line class="st1" x1="48.94" y1="142.66" x2="37.79" y2="181.54"/>
		</g>
		<g id="SPLINE_3578_">
			<path class="st0" d="M37.79,181.54c-1.25-2.2-2.49-4.41-3.22-6.8l0,0c-1-3.28-1.03-6.92-0.29-10.32l0,0
				c0.73-3.33,2.19-6.44,4.01-9.29l0,0c1.61-2.52,3.52-4.83,5.51-7.05l0,0c1.67-1.85,3.41-3.64,5.15-5.42"/>
		</g>
		<g id="SPLINE_3579_">
			<path class="st0" d="M30.84,151.58c2.44-0.68,4.88-1.36,7.08-2.53l0,0c3.03-1.62,5.62-4.17,7.49-7.11l0,0
				c1.84-2.87,3.01-6.1,3.72-9.41l0,0c0.64-2.92,0.93-5.9,1.08-8.88l0,0c0.13-2.49,0.16-4.98,0.19-7.48"/>
		</g>
		<g id="LINE_2320_">
			<line class="st1" x1="50.41" y1="116.18" x2="30.84" y2="151.58"/>
		</g>
		<g id="SPLINE_3580_">
			<path class="st0" d="M30.84,151.58c-0.72-2.42-1.44-4.85-1.62-7.34l0,0c-0.24-3.42,0.55-6.98,2.02-10.13l0,0
				c1.45-3.09,3.57-5.79,5.99-8.16l0,0c2.14-2.09,4.5-3.93,6.94-5.64l0,0c2.04-1.44,4.14-2.79,6.24-4.14"/>
		</g>
		<g id="SPLINE_3581_">
			<path class="st0" d="M25.88,136.6c1.4-2.11,2.81-4.22,3.7-6.55l0,0c1.23-3.2,1.52-6.83,1.02-10.27l0,0
				c-0.49-3.38-1.72-6.58-3.34-9.55l0,0c-1.43-2.63-3.16-5.07-4.99-7.42l0,0c-1.54-1.97-3.14-3.87-4.75-5.78"/>
		</g>
		<g id="LINE_2321_">
			<line class="st1" x1="17.53" y1="97.02" x2="25.88" y2="136.6"/>
		</g>
		<g id="SPLINE_3582_">
			<path class="st0" d="M25.88,136.6c-2.13-1.36-4.26-2.73-6.03-4.5l0,0c-2.42-2.43-4.15-5.63-5.09-8.98l0,0
				c-0.92-3.28-1.09-6.72-0.81-10.08l0,0c0.25-2.98,0.84-5.91,1.57-8.81l0,0c0.61-2.42,1.3-4.81,2-7.21"/>
		</g>
		<g id="SPLINE_3583_">
			<path class="st0" d="M33.86,106.47c1.84-1.74,3.67-3.49,5.06-5.56l0,0c1.91-2.85,3-6.32,3.28-9.79l0,0
				c0.28-3.4-0.21-6.8-1.13-10.05l0,0c-0.81-2.88-1.95-5.65-3.22-8.35l0,0c-1.05-2.26-2.2-4.48-3.34-6.69"/>
		</g>
		<g id="LINE_2322_">
			<line class="st1" x1="34.52" y1="66.02" x2="33.86" y2="106.47"/>
		</g>
		<g id="SPLINE_3584_">
			<path class="st0" d="M33.86,106.47c-1.78-1.8-3.55-3.61-4.88-5.73l0,0c-1.82-2.91-2.79-6.41-2.96-9.89l0,0
				c-0.16-3.41,0.44-6.79,1.46-10.01l0,0c0.91-2.85,2.14-5.58,3.48-8.24l0,0c1.13-2.22,2.35-4.4,3.57-6.58"/>
		</g>
		<g id="SPLINE_3585_">
			<path class="st0" d="M37.47,116.84c2.53,0.04,5.06,0.08,7.51-0.42l0,0c3.36-0.69,6.57-2.4,9.21-4.68l0,0
				c2.58-2.23,4.62-5,6.24-7.96l0,0c1.44-2.62,2.56-5.39,3.56-8.21l0,0c0.83-2.35,1.57-4.74,2.3-7.12"/>
		</g>
		<g id="LINE_2323_">
			<line class="st1" x1="66.29" y1="88.46" x2="37.47" y2="116.84"/>
		</g>
		<g id="SPLINE_3586_">
			<path class="st0" d="M37.47,116.84c0-2.53-0.01-5.06,0.53-7.5l0,0c0.74-3.35,2.51-6.53,4.82-9.13l0,0
				c2.27-2.55,5.07-4.54,8.06-6.12l0,0c2.64-1.4,5.43-2.48,8.26-3.43l0,0c2.36-0.79,4.76-1.5,7.15-2.2"/>
		</g>
		<g id="SPLINE_3587_">
			<path class="st0" d="M45.42,90.54c2.52-0.25,5.04-0.49,7.42-1.27l0,0c3.26-1.07,6.25-3.14,8.61-5.7l0,0
				c2.31-2.51,4.02-5.49,5.3-8.62l0,0c1.13-2.77,1.93-5.65,2.6-8.56l0,0c0.55-2.43,1.02-4.88,1.48-7.33"/>
		</g>
		<g id="LINE_2324_">
			<line class="st1" x1="70.81" y1="59.05" x2="45.42" y2="90.54"/>
		</g>
		<g id="SPLINE_3588_">
			<path class="st0" d="M45.42,90.54c-0.29-2.52-0.59-5.03-0.33-7.52l0,0c0.35-3.41,1.75-6.77,3.74-9.62l0,0
				c1.97-2.79,4.52-5.09,7.31-7l0,0c2.46-1.69,5.11-3.09,7.81-4.35l0,0c2.26-1.06,4.56-2.03,6.86-3"/>
		</g>
		<g id="CIRCLE_234_">
			<path class="st0" d="M148.23,254.6c0-2.99-2.43-5.42-5.42-5.42s-5.42,2.43-5.42,5.42c0,2.99,2.43,5.42,5.42,5.42
				S148.23,257.59,148.23,254.6L148.23,254.6L148.23,254.6z"/>
		</g>
		<g id="SPLINE_3589_">
			<path class="st0" d="M155.49,249.38c0.19-2.53,0.38-5.05,1.1-7.44l0,0c0.99-3.29,3-6.32,5.49-8.74l0,0
				c2.46-2.37,5.4-4.14,8.5-5.5l0,0c2.73-1.19,5.6-2.06,8.5-2.79l0,0c2.41-0.61,4.86-1.13,7.3-1.65"/>
		</g>
		<g id="LINE_2325_">
			<line class="st1" x1="186.38" y1="223.26" x2="155.49" y2="249.38"/>
		</g>
		<g id="SPLINE_3590_">
			<path class="st0" d="M155.49,249.38c2.52,0.23,5.04,0.47,7.52,0.16l0,0c3.41-0.44,6.73-1.9,9.53-3.97l0,0
				c2.75-2.03,4.98-4.63,6.83-7.47l0,0c1.63-2.5,2.97-5.18,4.17-7.91l0,0c1-2.29,1.92-4.6,2.84-6.92"/>
		</g>
		<g id="SPLINE_3591_">
			<path class="st0" d="M151.79,258.16c2.14-1.36,4.27-2.72,6.62-3.57l0,0c3.22-1.17,6.86-1.39,10.29-0.83l0,0
				c3.37,0.55,6.55,1.85,9.49,3.52l0,0c2.6,1.48,5.01,3.25,7.32,5.13l0,0c1.94,1.57,3.82,3.22,5.69,4.86"/>
		</g>
		<g id="LINE_2326_">
			<line class="st1" x1="191.21" y1="267.27" x2="151.79" y2="258.16"/>
		</g>
		<g id="SPLINE_3592_">
			<path class="st0" d="M151.79,258.16c1.32,2.15,2.64,4.32,4.38,6.11l0,0c2.38,2.47,5.55,4.26,8.89,5.26l0,0
				c3.26,0.98,6.69,1.21,10.06,1l0,0c2.99-0.2,5.93-0.73,8.83-1.4l0,0c2.43-0.57,4.84-1.22,7.25-1.87"/>
		</g>
		<g id="SPLINE_3593_">
			<path class="st0" d="M192.35,241.45c-1.15-2.25-2.29-4.52-2.91-6.94l0,0c-0.85-3.32-0.72-6.95,0.18-10.33l0,0
				c0.88-3.29,2.48-6.33,4.43-9.09l0,0c1.73-2.44,3.73-4.66,5.83-6.79l0,0c1.75-1.78,3.57-3.48,5.39-5.19"/>
		</g>
		<g id="LINE_2327_">
			<line class="st1" x1="205.26" y1="203.12" x2="192.35" y2="241.45"/>
		</g>
		<g id="SPLINE_3594_">
			<path class="st0" d="M192.35,241.45c2.28-1.11,4.55-2.21,6.51-3.76l0,0c2.69-2.13,4.78-5.11,6.11-8.33l0,0
				c1.29-3.15,1.86-6.54,1.98-9.92l0,0c0.1-2.98-0.15-5.97-0.54-8.93l0,0c-0.32-2.47-0.74-4.93-1.15-7.39"/>
		</g>
		<g id="SPLINE_3595_">
			<path class="st0" d="M178.63,249.85c2.02-1.52,4.04-3.05,6.31-4.09l0,0c3.12-1.42,6.73-1.93,10.2-1.64l0,0
				c3.4,0.29,6.67,1.33,9.74,2.76l0,0c2.7,1.27,5.25,2.85,7.71,4.54l0,0c2.06,1.41,4.06,2.9,6.05,4.39"/>
		</g>
		<g id="LINE_2328_">
			<line class="st1" x1="218.64" y1="255.81" x2="178.63" y2="249.85"/>
		</g>
		<g id="SPLINE_3596_">
			<path class="st0" d="M178.63,249.85c1.49,2.04,2.98,4.1,4.85,5.75l0,0c2.57,2.27,5.87,3.8,9.28,4.54l0,0
				c3.33,0.73,6.76,0.68,10.11,0.21l0,0c2.96-0.43,5.85-1.2,8.7-2.1l0,0c2.38-0.75,4.73-1.6,7.08-2.43"/>
		</g>
		<g id="SPLINE_3597_">
			<path class="st0" d="M218.54,227.46c-1.77-1.81-3.54-3.62-4.86-5.75l0,0c-1.81-2.91-2.77-6.43-2.93-9.9l0,0
				c-0.16-3.41,0.46-6.79,1.49-10.01l0,0c0.91-2.85,2.15-5.57,3.52-8.22l0,0c1.14-2.22,2.36-4.39,3.59-6.57"/>
		</g>
		<g id="LINE_2329_">
			<line class="st1" x1="219.34" y1="187.01" x2="218.54" y2="227.46"/>
		</g>
		<g id="SPLINE_3598_">
			<path class="st0" d="M218.54,227.46c1.84-1.75,3.68-3.48,5.08-5.55l0,0c1.93-2.85,3.02-6.31,3.32-9.78l0,0
				c0.29-3.4-0.19-6.8-1.09-10.06l0,0c-0.8-2.88-1.93-5.65-3.18-8.36l0,0c-1.05-2.26-2.19-4.48-3.32-6.7"/>
		</g>
		<g id="SPLINE_3599_">
			<path class="st0" d="M203.47,240.58c1.54-2.01,3.08-4.02,4.99-5.63l0,0c2.62-2.21,5.96-3.66,9.38-4.32l0,0
				c3.35-0.64,6.78-0.51,10.12,0.05l0,0c2.95,0.5,5.82,1.33,8.65,2.3l0,0c2.36,0.81,4.68,1.71,7.01,2.62"/>
		</g>
		<g id="LINE_2330_">
			<line class="st1" x1="243.62" y1="235.59" x2="203.47" y2="240.58"/>
		</g>
		<g id="SPLINE_3600_">
			<path class="st0" d="M203.47,240.58c1.99,1.58,3.96,3.14,6.22,4.23l0,0c3.08,1.5,6.68,2.1,10.15,1.89l0,0
				c3.41-0.2,6.71-1.16,9.8-2.51l0,0c2.73-1.21,5.31-2.72,7.81-4.35l0,0c2.1-1.37,4.13-2.81,6.17-4.25"/>
		</g>
		<g id="SPLINE_3601_">
			<path class="st0" d="M238,209.85c-2.12-1.38-4.25-2.76-6-4.54l0,0c-2.4-2.45-4.1-5.66-5.02-9.02l0,0
				c-0.9-3.29-1.04-6.72-0.74-10.09l0,0c0.27-2.97,0.89-5.9,1.63-8.79l0,0c0.62-2.42,1.34-4.8,2.06-7.19"/>
		</g>
		<g id="LINE_2331_">
			<line class="st1" x1="229.94" y1="170.21" x2="238" y2="209.85"/>
		</g>
		<g id="SPLINE_3602_">
			<path class="st0" d="M238,209.85c1.41-2.1,2.83-4.2,3.74-6.52l0,0c1.26-3.19,1.57-6.82,1.1-10.27l0,0
				c-0.46-3.38-1.67-6.59-3.26-9.58l0,0c-1.41-2.64-3.12-5.09-4.93-7.46l0,0c-1.52-1.98-3.11-3.9-4.71-5.82"/>
		</g>
		<g id="SPLINE_3603_">
			<path class="st0" d="M225.22,225.74c1.12-2.27,2.24-4.54,3.81-6.48l0,0c2.16-2.67,5.15-4.74,8.38-6.04l0,0
				c3.16-1.27,6.56-1.81,9.93-1.9l0,0c2.99-0.08,5.97,0.19,8.92,0.6l0,0c2.47,0.34,4.93,0.77,7.38,1.21"/>
		</g>
		<g id="LINE_2332_">
			<line class="st1" x1="263.65" y1="213.12" x2="225.22" y2="225.74"/>
		</g>
		<g id="SPLINE_3604_">
			<path class="st0" d="M225.22,225.74c2.25,1.17,4.49,2.33,6.91,2.97l0,0c3.31,0.87,6.95,0.76,10.32-0.1l0,0
				c3.3-0.85,6.35-2.43,9.13-4.36l0,0c2.45-1.71,4.7-3.69,6.83-5.77l0,0c1.79-1.75,3.51-3.55,5.23-5.35"/>
		</g>
		<g id="SPLINE_3605_">
			<path class="st0" d="M243.06,207.28c0.64-2.45,1.29-4.9,2.43-7.12l0,0c1.58-3.05,4.1-5.67,7-7.59l0,0
				c2.84-1.88,6.06-3.08,9.36-3.85l0,0c2.91-0.68,5.88-1.01,8.87-1.2l0,0c2.49-0.16,4.98-0.22,7.47-0.29"/>
		</g>
		<g id="LINE_2333_">
			<line class="st1" x1="278.19" y1="187.23" x2="243.06" y2="207.28"/>
		</g>
		<g id="SPLINE_3606_">
			<path class="st0" d="M243.06,207.28c2.43,0.69,4.87,1.38,7.36,1.52l0,0c3.43,0.19,6.97-0.64,10.1-2.16l0,0
				c3.07-1.49,5.74-3.65,8.08-6.1l0,0c2.06-2.16,3.86-4.55,5.54-7.02l0,0c1.41-2.06,2.73-4.18,4.06-6.29"/>
		</g>
		<g id="SPLINE_3607_">
			<path class="st0" d="M250.41,186.19c0.36-2.5,0.72-5.01,1.61-7.35l0,0c1.22-3.21,3.42-6.1,6.09-8.34l0,0
				c2.61-2.19,5.66-3.76,8.85-4.9l0,0c2.81-1,5.73-1.67,8.67-2.21l0,0c2.45-0.44,4.93-0.79,7.39-1.14"/>
		</g>
		<g id="LINE_2334_">
			<line class="st1" x1="283.02" y1="162.25" x2="250.41" y2="186.19"/>
		</g>
		<g id="SPLINE_3608_">
			<path class="st0" d="M250.41,186.19c2.5,0.41,5,0.81,7.49,0.67l0,0c3.42-0.2,6.85-1.43,9.78-3.3l0,0
				c2.87-1.84,5.29-4.28,7.32-6.98l0,0c1.8-2.39,3.31-4.97,4.7-7.61l0,0c1.16-2.21,2.23-4.46,3.31-6.71"/>
		</g>
		<g id="SPLINE_3609_">
			<path class="st0" d="M258.32,164.92c-0.61-2.46-1.22-4.91-1.29-7.41l0,0c-0.09-3.43,0.85-6.94,2.47-10.02l0,0
				c1.59-3.02,3.82-5.63,6.34-7.88l0,0c2.23-2,4.67-3.72,7.19-5.32l0,0c2.1-1.34,4.26-2.6,6.41-3.86"/>
		</g>
		<g id="LINE_2335_">
			<line class="st1" x1="279.45" y1="130.42" x2="258.32" y2="164.92"/>
		</g>
		<g id="SPLINE_3610_">
			<path class="st0" d="M258.32,164.92c2.47-0.57,4.93-1.14,7.19-2.22l0,0c3.1-1.48,5.8-3.92,7.81-6.76l0,0
				c1.97-2.79,3.27-5.96,4.14-9.23l0,0c0.77-2.89,1.19-5.85,1.47-8.82l0,0c0.24-2.48,0.38-4.97,0.52-7.46"/>
		</g>
		<g id="SPLINE_3611_">
			<path class="st0" d="M247.82,181.54c-2.23-1.21-4.45-2.42-6.33-4.06l0,0c-2.59-2.25-4.54-5.32-5.72-8.6l0,0
				c-1.16-3.21-1.57-6.62-1.53-10l0,0c0.03-2.99,0.42-5.96,0.93-8.9l0,0c0.44-2.46,0.96-4.9,1.49-7.33"/>
		</g>
		<g id="LINE_2336_">
			<line class="st1" x1="236.66" y1="142.66" x2="247.82" y2="181.54"/>
		</g>
		<g id="SPLINE_3612_">
			<path class="st0" d="M247.82,181.54c1.25-2.2,2.49-4.41,3.22-6.8l0,0c1-3.28,1.03-6.92,0.29-10.32l0,0
				c-0.72-3.33-2.18-6.44-4.01-9.29l0,0c-1.61-2.52-3.51-4.83-5.51-7.05l0,0c-1.67-1.85-3.41-3.64-5.15-5.42"/>
		</g>
		<g id="SPLINE_3613_">
			<path class="st0" d="M254.76,151.58c-2.43-0.68-4.88-1.36-7.08-2.53l0,0c-3.03-1.62-5.62-4.17-7.5-7.11l0,0
				c-1.84-2.87-3-6.1-3.72-9.41l0,0c-0.63-2.92-0.92-5.9-1.07-8.88l0,0c-0.13-2.49-0.16-4.98-0.19-7.48"/>
		</g>
		<g id="LINE_2337_">
			<line class="st1" x1="235.2" y1="116.18" x2="254.76" y2="151.58"/>
		</g>
		<g id="SPLINE_3614_">
			<path class="st0" d="M254.76,151.58c0.73-2.42,1.44-4.85,1.63-7.34l0,0c0.24-3.42-0.55-6.98-2.03-10.13l0,0
				c-1.45-3.09-3.57-5.79-5.98-8.16l0,0c-2.14-2.09-4.5-3.93-6.95-5.64l0,0c-2.04-1.44-4.13-2.79-6.23-4.14"/>
		</g>
		<g id="SPLINE_3615_">
			<path class="st0" d="M259.72,136.6c-1.4-2.11-2.8-4.22-3.7-6.55l0,0c-1.23-3.2-1.52-6.83-1.02-10.27l0,0
				c0.48-3.38,1.72-6.58,3.33-9.55l0,0c1.43-2.63,3.16-5.07,4.99-7.42l0,0c1.54-1.97,3.14-3.87,4.75-5.78"/>
		</g>
		<g id="LINE_2338_">
			<line class="st1" x1="268.08" y1="97.02" x2="259.72" y2="136.6"/>
		</g>
		<g id="SPLINE_3616_">
			<path class="st0" d="M259.72,136.6c2.13-1.36,4.27-2.73,6.03-4.5l0,0c2.42-2.43,4.15-5.63,5.08-8.98l0,0
				c0.92-3.28,1.09-6.72,0.81-10.08l0,0c-0.25-2.98-0.84-5.91-1.57-8.81l0,0c-0.61-2.42-1.31-4.81-2-7.21"/>
		</g>
		<g id="SPLINE_3617_">
			<path class="st0" d="M251.75,106.47c-1.84-1.74-3.67-3.49-5.07-5.56l0,0c-1.91-2.85-3-6.32-3.29-9.79l0,0
				c-0.27-3.4,0.21-6.8,1.13-10.05l0,0c0.81-2.88,1.95-5.65,3.21-8.35l0,0c1.06-2.26,2.21-4.48,3.35-6.69"/>
		</g>
		<g id="LINE_2339_">
			<line class="st1" x1="251.08" y1="66.02" x2="251.75" y2="106.47"/>
		</g>
		<g id="SPLINE_3618_">
			<path class="st0" d="M251.75,106.47c1.78-1.8,3.55-3.61,4.88-5.73l0,0c1.82-2.91,2.79-6.41,2.96-9.89l0,0
				c0.17-3.41-0.43-6.79-1.45-10.01l0,0c-0.9-2.85-2.13-5.58-3.49-8.24l0,0c-1.13-2.22-2.34-4.4-3.56-6.58"/>
		</g>
		<g id="SPLINE_3619_">
			<path class="st0" d="M248.14,116.84c-2.53,0.04-5.06,0.08-7.51-0.42l0,0c-3.37-0.69-6.57-2.4-9.21-4.68l0,0
				c-2.58-2.23-4.62-5-6.24-7.96l0,0c-1.45-2.62-2.57-5.39-3.56-8.21l0,0c-0.83-2.35-1.57-4.74-2.3-7.12"/>
		</g>
		<g id="LINE_2340_">
			<line class="st1" x1="219.32" y1="88.46" x2="248.14" y2="116.84"/>
		</g>
		<g id="SPLINE_3620_">
			<path class="st0" d="M248.14,116.84c0.01-2.53,0.01-5.06-0.54-7.5l0,0c-0.74-3.35-2.5-6.53-4.82-9.13l0,0
				c-2.27-2.55-5.07-4.54-8.06-6.12l0,0c-2.64-1.4-5.43-2.48-8.26-3.43l0,0c-2.36-0.79-4.76-1.5-7.15-2.2"/>
		</g>
		<g id="SPLINE_3621_">
			<path class="st0" d="M240.19,90.54c-2.52-0.25-5.04-0.49-7.42-1.27l0,0c-3.26-1.07-6.25-3.14-8.61-5.7l0,0
				c-2.31-2.51-4.01-5.49-5.29-8.62l0,0c-1.13-2.77-1.93-5.65-2.6-8.56l0,0c-0.56-2.43-1.02-4.88-1.48-7.33"/>
		</g>
		<g id="LINE_2341_">
			<line class="st1" x1="214.8" y1="59.05" x2="240.19" y2="90.54"/>
		</g>
		<g id="SPLINE_3622_">
			<path class="st0" d="M240.19,90.54c0.29-2.52,0.59-5.03,0.33-7.52l0,0c-0.35-3.41-1.74-6.77-3.75-9.62l0,0
				c-1.96-2.79-4.52-5.09-7.3-7l0,0c-2.46-1.69-5.11-3.09-7.81-4.35l0,0c-2.26-1.06-4.56-2.03-6.86-3"/>
		</g>
	</g>
	<g id="Kategorier">
		<g id="Bästa_musikaliska_vision">
			<g id="Notpapper_2017">
				<g id="SPLINE_4723_">
					<g id="XMLID_6_">
						<g>
							<path class="st2" d="M134.04,201.98c-0.05,0.02-0.1,0.04-0.15,0.06c-0.18,0.08-0.36,0.15-0.55,0.2
								c-0.18,0.05-0.37,0.08-0.55,0.11h-0.01c-0.33-2.28-0.68-4.55-1.29-6.75c-0.62-2.2-1.49-4.33-2.4-6.45
								c0.18-0.07,0.36-0.14,0.54-0.19c0.19-0.05,0.38-0.09,0.57-0.11c0.05-0.01,0.11-0.02,0.16-0.03c0.89,2.12,1.78,4.23,2.39,6.43
								C133.36,197.44,133.7,199.71,134.04,201.98z"/>
							<path class="st2" d="M169.05,190.42c-0.13,0.01-0.32,0.02-0.54,0.07c-0.21,0.04-0.4,0.11-0.58,0.18
								c-0.03,0.02-0.06,0.03-0.09,0.05c-0.21-1.71-0.45-3.4-0.91-5.03c-0.45-1.63-1.12-3.19-1.83-4.74
								c0.04-0.02,0.08-0.04,0.1-0.04c0.19-0.03,0.39-0.07,0.59-0.15c0.21-0.07,0.38-0.16,0.5-0.22c0.73,1.57,1.45,3.15,1.91,4.79
								C168.65,186.98,168.87,188.7,169.05,190.42z"/>
							<path class="st0" d="M218.47,133.05c0.28,0.11,0.41,0.43,0.3,0.7c-0.11,0.28-0.43,0.41-0.71,0.3
								c-9.26-3.74-18.53-7.49-27.29-6.36l0.1-1.19C199.73,125.39,209.1,129.22,218.47,133.05z"/>
							<path class="st0" d="M218.03,113.68c0.29,0.1,0.44,0.42,0.34,0.71c-0.1,0.28-0.42,0.43-0.7,0.33c-8-2.79-16-5.58-23.56-5.58
								c-1.92,0-3.81,0.18-5.67,0.58c-3.89,0.85-7.63,2.69-11.4,4.64c-3.78,1.96-7.6,4.04-11.65,5.36
								c-2.73,0.89-5.55,1.44-8.38,1.44c-1.06,0-2.12-0.07-3.18-0.24c-3.72-0.59-7.38-2.28-11-2.23l-0.05-1.17
								c3.64-0.07,7.31,1.64,11.05,2.23c1.06,0.17,2.12,0.24,3.18,0.24c2.83,0,5.65-0.55,8.38-1.44c4.05-1.33,7.87-3.4,11.65-5.35
								c3.78-1.96,7.52-3.8,11.4-4.65c1.87-0.41,3.78-0.59,5.72-0.59C201.83,107.96,209.93,110.82,218.03,113.68z"/>
							<path class="st0" d="M214.44,92.84c0.31,0.06,0.51,0.36,0.45,0.67c-0.07,0.31-0.37,0.51-0.68,0.45
								c-6.64-1.34-13.29-2.67-19.64-2.67c-2.44,0-4.83,0.19-7.17,0.66c-4.4,0.87-8.59,2.71-12.77,4.88
								c-4.18,2.17-8.35,4.67-12.69,6.88c-1.33,0.67-2.68,1.32-4.04,1.8s-2.74,0.79-4.14,0.79c-1.32,0-2.65-0.28-3.98-0.56
								c-1.34-0.29-2.67-0.59-3.99-0.64c-0.12,0-0.24-0.01-0.36-0.01c-7.44,0-14.44,7.73-21.34,7.8c-0.04,0-0.07,0-0.11,0
								c-5.16,0-10.27-4.26-15.75-6.46c-4.92-1.98-10.14-2.3-15.33-1.57c0.02-0.39,0.03-0.78,0.02-1.17
								c5.18-0.73,10.4-0.41,15.31,1.57c5.48,2.2,10.59,6.46,15.75,6.46c0.04,0,0.07,0,0.11,0c6.9-0.07,13.9-7.8,21.34-7.8
								c0.12,0,0.24,0.01,0.36,0.01c1.32,0.05,2.65,0.35,3.99,0.64c1.33,0.29,2.66,0.56,3.98,0.56c1.4,0,2.78-0.31,4.14-0.79
								s2.71-1.12,4.04-1.8c4.34-2.2,8.51-4.7,12.69-6.87s8.37-4.01,12.77-4.89c2.34-0.47,4.74-0.67,7.19-0.67
								C201.01,90.11,207.72,91.48,214.44,92.84z"/>
							<path class="st0" d="M213.2,150.86c0.27,0.12,0.4,0.43,0.28,0.71c-0.11,0.27-0.43,0.4-0.7,0.28
								c-6.78-2.87-13.56-5.74-20.2-5.74c-0.7,0-1.4,0.03-2.1,0.1c-0.43,0.05-0.87,0.1-1.3,0.17l0.1-1.18
								c0.4-0.06,0.8-0.12,1.2-0.16c0.71-0.07,1.43-0.1,2.14-0.1C199.38,144.94,206.29,147.89,213.2,150.86z"/>
							<path class="st0" d="M209.98,173.65c0.09,0.3,0.02,0.64-0.2,0.9c-0.35,0.41-0.97,0.45-1.38,0.1c-0.81,0.63-1.41,1.09-2,1.55
								c-0.9,0.72-1.79,1.46-2.65,2.22c-1.31,1.16-2.58,2.37-3.85,3.58c-0.63,0.61-1.26,1.22-2.02,1.95
								c-1.19-0.23-2.21-0.42-3.22-0.56c-0.67-0.09-1.34-0.16-2.01-0.18c-0.21-0.01-0.41-0.01-0.62-0.01
								c-0.46,0-0.92,0.02-1.38,0.06c-0.98,0.09-1.97,0.26-2.96,0.47c-0.31,0.06-0.63,0.13-0.99,0.21c0.02,0.33,0.04,0.66,0.06,0.99
								c-1.88,0.03-3.75,0.06-5.55,0.44c-2.37,0.52-4.6,1.65-6.78,2.81c-1.79,0.96-3.55,1.93-5.31,2.89
								c-0.02-0.22-0.04-0.43-0.07-0.65c-0.18-1.72-0.4-3.44-0.85-5.09c-0.46-1.64-1.18-3.22-1.91-4.79
								c-0.09-0.2-0.19-0.39-0.28-0.59c2-0.09,4.01-0.17,6.04-0.29c2.46-0.14,4.96-0.32,7.25-1.11c1.74-0.6,3.36-1.55,4.98-2.51
								c0.15,0.3,0.3,0.59,0.46,0.89c0.35-0.12,0.65-0.23,0.96-0.34c0.95-0.34,1.88-0.7,2.77-1.13c0.6-0.29,1.18-0.62,1.73-0.99
								c0.56-0.37,1.1-0.78,1.63-1.2c0.79-0.65,1.56-1.34,2.46-2.15c1.03,0.23,1.88,0.42,2.74,0.62c1.71,0.38,3.43,0.75,5.14,1.06
								c1.14,0.2,2.28,0.38,3.42,0.52c0.75,0.09,1.5,0.18,2.52,0.29c0.03-0.1,0.12-0.26,0.2-0.34c0.14-0.16,0.32-0.27,0.52-0.31
								v-0.01c0.29-0.06,0.61,0.01,0.85,0.22c0.06,0.05,0.1,0.1,0.15,0.16C209.88,173.43,209.93,173.54,209.98,173.65L209.98,173.65
								L209.98,173.65z M205.97,175.71c0.4-0.32,0.8-0.63,1.2-0.94l-9.87,2.77c0.13,0.88-0.42,1.86-1.24,2.2
								c-1.08,0.49-2.35,0.01-2.84-1.07c-0.49-1.07-0.01-2.34,1.07-2.83c1.07-0.49,2.34-0.01,2.83,1.06l9.87-2.76
								c-0.5-0.05-1-0.11-1.5-0.17c-1.15-0.15-2.3-0.32-3.43-0.53c-1.74-0.31-3.46-0.68-5.18-1.06c-0.85-0.2-1.71-0.39-2.4-0.55
								c-0.69,0.62-1.51,1.36-2.36,2.05c-0.53,0.41-1.06,0.81-1.62,1.18s-1.15,0.7-1.75,0.99c-0.91,0.45-1.87,0.82-2.83,1.16
								c-0.3,0.11-0.59,0.21-0.89,0.31c0.45,0.91,0.85,1.83,1.12,2.79c0.27,0.96,0.4,1.96,0.49,2.97c0.28-0.06,0.6-0.13,0.92-0.2
								c1-0.2,2.01-0.38,3.03-0.47c0.49-0.05,1-0.07,1.5-0.07c0.17,0,0.33,0,0.5,0.01c0.67,0.02,1.34,0.08,2,0.17
								c1.09,0.14,2.17,0.35,3.08,0.52c0.51-0.49,1.14-1.1,1.78-1.71c1.26-1.22,2.54-2.43,3.86-3.6
								C204.18,177.17,205.07,176.42,205.97,175.71z"/>
							<path class="st0" d="M209.83,173.33c-0.05-0.06-0.09-0.11-0.15-0.16c-0.24-0.21-0.56-0.28-0.85-0.22
								c-0.61-1.15-1.23-2.28-2.12-3.16c-0.68-0.67-1.51-1.18-2.35-1.69c-4.6-1.72-9.22-3.42-13.81-3.42c-0.07,0-0.13,0-0.2,0
								c-0.92,0.01-1.83,0.09-2.75,0.22c0.01-0.08,0.02-0.14,0.02-0.22v-0.01l0.09-0.95c0.88-0.12,1.76-0.2,2.64-0.21
								c0.08,0,0.15,0,0.23,0c4.72,0,9.44,1.78,14.16,3.56c0.83,0.58,1.66,1.15,2.35,1.85C208.3,170.13,209.08,171.72,209.83,173.33
								z"/>
							<path class="st2" d="M207.17,174.77c-0.4,0.31-0.8,0.62-1.2,0.94c-0.9,0.71-1.79,1.46-2.66,2.22
								c-1.32,1.17-2.6,2.38-3.86,3.6c-0.64,0.61-1.27,1.22-1.78,1.71c-0.91-0.17-1.99-0.38-3.08-0.52c-0.66-0.09-1.33-0.15-2-0.17
								c-0.17-0.01-0.33-0.01-0.5-0.01c-0.5,0-1.01,0.02-1.5,0.07c-1.02,0.09-2.03,0.27-3.03,0.47c-0.32,0.07-0.64,0.14-0.92,0.2
								c-0.09-1.01-0.22-2.01-0.49-2.97s-0.67-1.88-1.12-2.79c0.3-0.1,0.59-0.2,0.89-0.31c0.96-0.34,1.92-0.71,2.83-1.16
								c0.6-0.29,1.19-0.62,1.75-0.99c0.56-0.37,1.09-0.77,1.62-1.18c0.85-0.69,1.67-1.43,2.36-2.05c0.69,0.16,1.55,0.35,2.4,0.55
								c1.72,0.38,3.44,0.75,5.18,1.06c1.13,0.21,2.28,0.38,3.43,0.53c0.5,0.06,1,0.12,1.5,0.17l-9.87,2.76
								c-0.49-1.07-1.76-1.55-2.83-1.06c-1.08,0.49-1.56,1.76-1.07,2.83c0.49,1.08,1.76,1.56,2.84,1.07
								c0.82-0.34,1.37-1.32,1.24-2.2L207.17,174.77z"/>
							<path class="st0" d="M189.76,125.65l-3.3,38.93c-0.02,1.35-1.28,3.23-2.83,4.21c-2.7,1.84-6.13,1.94-7.68,0.21
								c-1.54-1.73-0.6-4.63,2.09-6.48c2.7-1.85,6.14-1.94,7.69-0.21l2.25-26.57l-16.67-5.78l-1.74,20.52
								c-0.02,1.35-1.28,3.23-2.83,4.2c-2.7,1.85-6.14,1.94-7.68,0.21s-0.61-4.63,2.09-6.48c2.7-1.84,6.14-1.94,7.68-0.2l2.46-28.97
								L189.76,125.65z"/>
							<path class="st0" d="M185.94,145.93l-0.1,1.19c-2.23,0.62-4.46,1.46-6.71,2.3s-4.53,1.69-6.85,2.32
								c-0.65,0.18-1.3,0.34-1.96,0.48c0.13-0.3,0.23-0.61,0.3-0.92c0.02-0.11,0.05-0.22,0.06-0.33c0.54-0.12,1.07-0.25,1.6-0.4
								c2.34-0.63,4.63-1.49,6.9-2.33C181.45,147.39,183.7,146.55,185.94,145.93z"/>
							<path class="st0" d="M174.65,132.36l1.49,0.51c-1.34,0.6-2.68,1.18-4.05,1.71l0.1-1.2
								C173.02,133.05,173.84,132.71,174.65,132.36z"/>
							<path class="st0" d="M174.04,167.07c0.01,0.34,0.05,0.67,0.13,0.99c-2.43,0.42-4.88,0.63-7.34,0.63
								c-5.12,0-10.23-0.91-15.09-2.71c-6.52-2.43-12.58-6.44-19.36-6.44c-0.12,0-0.23,0-0.35,0c-3.11,0.06-6.37,0.99-9.39,0.99
								c-0.73,0-1.44-0.06-2.14-0.19c-2.2-0.42-4.2-1.62-6.19-3.01c-1.99-1.39-3.95-2.96-6.08-4.11c-3.67-1.99-7.81-2.73-11.98-2.77
								c0.23-0.37,0.43-0.76,0.61-1.15c3.97,0.09,7.88,0.86,11.37,2.75c2.13,1.15,4.09,2.72,6.08,4.11
								c1.99,1.38,3.99,2.59,6.19,3.01c0.7,0.13,1.41,0.19,2.14,0.19c3.02,0,6.28-0.93,9.39-0.99c0.12,0,0.23,0,0.34,0
								c6.78,0,12.85,4.02,19.37,6.44c4.86,1.8,9.96,2.71,15.08,2.71c2.41,0,4.83-0.2,7.22-0.61
								C174.04,166.96,174.04,167.02,174.04,167.07z"/>
							<path class="st0" d="M169.05,190.42c0.03,0.22,0.05,0.43,0.07,0.65c-0.16,0.02-0.31,0.03-0.46,0.06
								c-0.13,0.02-0.25,0.06-0.37,0.11c-0.13,0.04-0.25,0.1-0.37,0.16c-0.03-0.22-0.06-0.45-0.08-0.68
								c0.03-0.02,0.06-0.03,0.09-0.05c0.18-0.07,0.37-0.14,0.58-0.18C168.73,190.44,168.92,190.43,169.05,190.42z"/>
							<path class="st0" d="M168.82,134.57l-0.1,1.2c-2.97,0.9-6.04,1.44-9.1,1.44c-1.85,0-3.69-0.2-5.5-0.63
								c-3.62-0.87-7.1-2.68-10.6-3.64l-0.06-1.19c3.53,0.96,7.03,2.78,10.66,3.66c1.81,0.43,3.65,0.63,5.5,0.63
								C162.71,136.04,165.82,135.49,168.82,134.57z"/>
							<path class="st0" d="M165.1,180.95c0.71,1.55,1.38,3.11,1.83,4.74c0.46,1.63,0.7,3.32,0.91,5.03
								c0.02,0.23,0.05,0.46,0.08,0.68c0.01,0.13,0.02,0.26,0.04,0.39c-2.23,1.08-4.47,2.16-6.76,3.11
								c-5.33,2.21-10.96,3.69-16.63,4.76c-3.32,0.62-6.64,1.09-9.97,1.57c-0.03-0.2-0.06-0.4-0.09-0.6
								c-0.2-1.29-0.42-2.57-0.7-3.85c-0.21-0.95-0.46-1.88-0.76-2.81c-0.29-0.92-0.62-1.82-0.98-2.72
								c-0.28-0.72-0.57-1.43-0.84-2.08c3.1-1.31,6.18-2.63,9.34-3.82c5.4-2.04,10.98-3.69,16.68-4.57c2.45-0.37,4.92-0.61,7.4-0.84
								c0.05,0.12,0.11,0.23,0.16,0.35C164.91,180.51,165.01,180.73,165.1,180.95z"/>
							<path class="st0" d="M166.01,179.95c0.09,0.2,0.19,0.39,0.28,0.59c-0.12,0.06-0.29,0.15-0.5,0.22
								c-0.2,0.08-0.4,0.12-0.59,0.15c-0.02,0-0.06,0.02-0.1,0.04c-0.09-0.22-0.19-0.44-0.29-0.66c0.14-0.01,0.27-0.03,0.41-0.05
								c0.12-0.02,0.25-0.05,0.36-0.1C165.73,180.09,165.87,180.02,166.01,179.95z"/>
							<path class="st0" d="M157.37,151.43c-0.11,0.37-0.18,0.75-0.21,1.13c-1.01-0.18-2.01-0.42-3.01-0.71
								c-6.25-1.86-12.04-5.92-18.34-5.92c-0.11,0-0.23,0-0.34,0c-4.12,0.1-8.45,1.97-12.48,1.97c-0.42,0-0.84-0.02-1.26-0.07
								c-2.78-0.31-5.37-1.73-7.98-3.27c0.31-0.19,0.6-0.42,0.87-0.66c2.32,1.33,4.64,2.48,7.11,2.76c0.42,0.05,0.84,0.07,1.26,0.07
								c4.03,0,8.36-1.87,12.48-1.97c0.11,0,0.23,0,0.34,0c6.3,0,12.09,4.06,18.34,5.92C155.21,150.99,156.29,151.24,157.37,151.43z
								"/>
							<path class="st0" d="M148.9,107.55c1.48,1.28,1.02,3.81-1.03,5.66c-2.06,1.86-4.93,2.32-6.42,1.04l1.18,24.57l-0.78,0.03
								l-1.27-26.42c-0.14-1.14,0.71-2.86,1.9-3.85C144.53,106.73,147.41,106.27,148.9,107.55z"/>
							<path class="st0" d="M148.07,202.21c0.35,1.25-0.69,2.65-2.33,3.11s-3.26-0.18-3.61-1.44c-1.05,0.24-2.1,0.48-3.1,0.84
								c-1.88,0.68-3.59,1.8-5.31,2.87c-3.05,1.89-6.15,3.65-9.44,4.99c-2.44,1-4.99,1.76-7.57,2.3c-1.02,0.21-2.05,0.39-3.07,0.52
								c-1.36,0.17-2.71,0.27-4.07,0.27c-2.49,0-4.98-0.32-7.51-1.04c-1.62-0.46-3.25-1.09-4.18-2.36
								c-0.22-0.29-0.39-0.62-0.57-0.94v-0.01c0.91-0.17,1.82-0.34,2.73-0.52c1.27-0.24,2.54-0.49,3.81-0.74v0.01
								c0.77,0.43,1.55,0.86,2.37,1.19c1.56,0.62,3.27,0.87,4.99,0.87c0.77,0,1.55-0.05,2.31-0.14c2.47-0.3,4.82-1.01,7.13-1.82
								c2.64-0.93,5.22-2,7.79-3.12c1.55-0.68,3.1-1.38,4.68-2.01c3.1-1.22,6.3-2.16,9.5-3.1c0.35-0.48,1.19-1.01,1.84-1.16
								C146.1,200.31,147.72,200.95,148.07,202.21z"/>
							<path class="st0" d="M140.31,131.18l0.06,1.18c-0.36-0.03-0.72-0.05-1.08-0.05c-0.13,0-0.26,0-0.39,0.01
								c-5.2,0.19-10.59,3.87-15.62,3.87c-0.08,0-0.16,0-0.24,0c-1.67-0.04-3.31-0.51-4.93-1.19l0.32-1.04
								c1.52,0.61,3.05,1.02,4.61,1.06c0.09,0,0.17,0,0.26,0c5.02,0,10.41-3.68,15.6-3.87c0.13-0.01,0.27-0.01,0.4-0.01
								C139.64,131.14,139.97,131.16,140.31,131.18z"/>
							<path class="st0" d="M139.68,118.02l0.05,1.15c-5.51,1.53-10.92,6.24-16.08,6.24c-0.03,0-0.05,0-0.08,0
								c-0.82-0.01-1.63-0.14-2.44-0.36l0.33-1.09c0.7,0.17,1.4,0.27,2.11,0.28c0.03,0,0.05,0,0.08,0
								C128.79,124.24,134.19,119.56,139.68,118.02z"/>
							<path class="st0" d="M131.23,189.17c0.27,0.65,0.56,1.36,0.84,2.08c0.36,0.9,0.69,1.8,0.98,2.72
								c0.3,0.93,0.55,1.86,0.76,2.81c0.28,1.28,0.5,2.56,0.7,3.85c0.03,0.2,0.06,0.4,0.09,0.6c0.06,0.43,0.12,0.83,0.16,1.13
								c-0.4,0.2-0.81,0.4-1.24,0.51c-0.21,0.06-0.43,0.1-0.64,0.13c-0.03-0.22-0.06-0.44-0.1-0.65h0.01
								c0.18-0.03,0.37-0.06,0.55-0.11c0.19-0.05,0.37-0.12,0.55-0.2c0.05-0.02,0.1-0.04,0.15-0.06c-0.34-2.27-0.68-4.54-1.29-6.73
								c-0.61-2.2-1.5-4.31-2.39-6.43c-0.05,0.01-0.11,0.02-0.16,0.03c-0.19,0.02-0.38,0.06-0.57,0.11
								c-0.18,0.05-0.36,0.12-0.54,0.19c-0.08-0.2-0.16-0.4-0.25-0.6c0.2-0.08,0.41-0.16,0.61-0.22c0.43-0.12,0.88-0.16,1.33-0.2
								C130.92,188.46,131.07,188.8,131.23,189.17z"/>
							<path class="st0" d="M132.78,202.35c0.04,0.21,0.07,0.43,0.1,0.65c-4.34,1.26-8.68,2.51-13.05,3.61
								c-5.29,1.33-10.63,2.42-15.98,3.45c-1.27,0.25-2.54,0.5-3.81,0.74c-0.91,0.18-1.82,0.35-2.73,0.52
								c-0.64,0.13-1.27,0.25-1.91,0.37c-1.37,0.39-3.18-1.79-4.04-4.87c-0.86-3.07-0.44-5.87,0.93-6.26
								c1.47-0.54,2.95-1.09,4.42-1.64c6.32-2.35,12.66-4.69,19.1-6.68c4.31-1.33,8.67-2.51,13.03-3.69c0.09,0.2,0.17,0.4,0.25,0.6
								c0.91,2.12,1.78,4.25,2.4,6.45C132.1,197.8,132.45,200.07,132.78,202.35z"/>
							<path class="st0" d="M121.95,118.35l-7,23.02c-0.22,1.01-1.48,2.22-2.79,2.71c-2.33,0.95-4.93,0.47-5.82-1.08
								c-0.88-1.55,0.29-3.58,2.62-4.54c2.32-0.95,4.93-0.47,5.81,1.08l6.5-21.39L121.95,118.35z"/>
							<path class="st0" d="M118.6,122.92l-0.32,1.02c-1.64-0.8-3.27-1.85-4.94-2.9c-1.66-1.04-3.36-2.1-5.11-2.91
								c-5.88-2.75-12.39-2.86-18.63-1.64c0.19-0.34,0.36-0.69,0.52-1.05c0.04-0.08,0.07-0.16,0.11-0.24
								c6.05-1.09,12.31-0.9,18,1.76c1.81,0.84,3.55,1.93,5.27,3.01C115.22,121.06,116.91,122.12,118.6,122.92z"/>
							<path class="st0" d="M115.64,132.64l-0.3,1c-2.33-1.25-4.67-2.72-7.11-3.81c-4.06-1.82-8.4-2.58-12.74-2.58
								c-2.96,0-5.92,0.36-8.79,0.97c-0.41,0.09-0.82,0.18-1.22,0.28l-0.23-1.12c0.48-0.12,0.96-0.23,1.45-0.33
								c2.87-0.61,5.83-0.96,8.8-0.96c4.33,0,8.67,0.75,12.73,2.57C110.78,129.79,113.21,131.35,115.64,132.64z"/>
							<path class="st0" d="M105.78,139.41c-0.09,0.11-0.17,0.22-0.24,0.34c-0.13,0.2-0.25,0.42-0.34,0.65
								c-2.39-0.72-4.87-1.07-7.37-1.15c-0.04-0.14-0.08-0.29-0.12-0.44c-0.08-0.24-0.17-0.47-0.26-0.69
								c-0.01-0.01-0.02-0.03-0.02-0.05C100.27,138.13,103.08,138.53,105.78,139.41z"/>
							<path class="st0" d="M96.95,141.64c0.03,0.58,0.06,1.16,0.06,1.73c0,0.7-0.04,1.39-0.15,2.08c-0.15,0.95-0.43,1.89-0.81,2.79
								c-0.39,0.93-0.87,1.83-1.5,2.59c-0.7,0.84-1.58,1.51-2.47,2.18c-1.15,0.86-2.3,1.71-3.61,2.24
								c-1.03,0.43-2.16,0.66-3.29,0.76c-0.49,0.05-0.99,0.07-1.48,0.07c-0.44,0-0.87-0.02-1.3-0.05c-1.33-0.1-2.64-0.35-3.92-0.74
								c-1.16-0.34-2.29-0.79-3.34-1.39c-1.12-0.63-2.16-1.43-3.05-2.35c-0.73-0.74-1.36-1.56-1.96-2.41
								c-0.74-1.03-1.44-2.1-1.97-3.25c-0.59-1.27-0.98-2.64-1.23-4.03c-0.2-1.16-0.31-2.33-0.31-3.51c0-0.06,0-0.11,0-0.17
								c0-1.29,0.11-2.58,0.4-3.85c0.29-1.3,0.77-2.55,1.35-3.76c0.72-1.53,1.59-2.98,2.55-4.37c0.86-1.24,1.79-2.42,2.77-3.56
								c1.04-1.21,2.14-2.36,3.26-3.49c1.22-1.22,2.47-2.41,3.72-3.58c1.23-1.15,2.47-2.27,3.67-3.47c1.01-1,2-2.05,2.67-3.28
								c0.41-0.77,0.7-1.61,1.05-2.44c0.43-1.01,0.95-1.99,1.14-3.03c0.07-0.38,0.09-0.76,0.09-1.15c0-0.69-0.08-1.39-0.14-2.11
								c-0.08-0.86-0.13-1.74-0.49-2.46c-0.22-0.46-0.55-0.86-0.93-1.26c-0.51-0.53-1.1-1.06-1.73-1.14
								c-0.06-0.01-0.12-0.01-0.17-0.01c-0.86,0-1.78,0.81-2.35,1.65c-0.71,1.04-0.92,2.15-1.27,3.24
								c-0.33,1.02-0.79,2.04-1.07,3.09c-0.25,0.94-0.36,1.91-0.39,2.88c-0.01,0.24-0.01,0.47-0.01,0.71c0,0.52,0.01,1.05,0.02,1.57
								c0.01,0.61,0.01,1.22,0.04,1.84c0.03,0.61,0.11,1.22,0.18,1.84l-1.92,1.7c-0.14-1.16-0.23-1.94-0.32-2.72
								c-0.18-1.62-0.34-3.25-0.41-4.88c-0.02-0.46-0.03-0.93-0.03-1.39c0-1.42,0.09-2.84,0.31-4.25c0.27-1.68,0.72-3.34,1.44-4.83
								c0.64-1.33,1.49-2.53,2.49-3.72c0.61-0.73,1.27-1.45,2.15-1.68c0.22-0.06,0.45-0.09,0.68-0.09c0.37,0,0.74,0.07,1.07,0.21
								c1.18,0.49,1.82,1.78,2.49,2.96c0.72,1.27,1.47,2.4,1.93,3.68c0.42,1.16,0.59,2.45,0.72,3.73c0.1,1.03,0.17,2.05,0.17,3.06
								c0,0.48-0.01,0.96-0.05,1.44c-0.15,1.95-0.64,3.86-1.21,5.76c-0.67,2.22-1.46,4.42-2.75,6.27c-1.05,1.52-2.43,2.81-3.8,4.08
								c-1.81,1.7-3.6,3.37-5.36,5.09c-1.49,1.47-2.97,2.97-4.21,4.64c-1.06,1.45-1.95,3.04-2.71,4.69
								c-0.59,1.28-1.11,2.61-1.34,3.98c-0.11,0.66-0.15,1.34-0.15,2.01c0,0.48,0.02,0.96,0.05,1.43c0.11,1.32,0.32,2.64,0.82,3.86
								c0.52,1.31,1.36,2.49,2.37,3.5c0.99,1,2.15,1.81,3.39,2.49c1.11,0.6,2.29,1.09,3.52,1.34c0.69,0.13,1.39,0.19,2.09,0.19
								c0.35,0,0.71-0.01,1.06-0.04c2.34-0.17,4.66-0.87,6.6-2.23c1.39-0.98,2.58-2.29,3.2-3.84c0.35-0.88,0.52-1.85,0.52-2.8
								c0-0.03,0-0.05,0-0.08c0-1.41-0.37-2.8-0.96-4.09c-0.43-0.95-0.99-1.85-1.72-2.57c-0.82-0.79-1.85-1.36-2.95-1.7
								c-0.75-0.23-1.52-0.35-2.29-0.35c-0.3,0-0.6,0.01-0.89,0.05c-0.94,0.11-1.88,0.42-2.69,0.91c-0.92,0.57-1.69,1.38-2.29,2.29
								c-0.45,0.69-0.81,1.43-1.01,2.23c-0.13,0.48-0.2,0.99-0.2,1.49c0,0.4,0.04,0.79,0.14,1.16c0.24,0.89,0.77,1.7,1.36,2.43
								c0.41,0.51,0.84,0.98,1.36,1.34c0.33,0.23,0.71,0.42,1.09,0.61c0.11,0.06,0.23,0.12,0.31,0.22c0.08,0.1,0.13,0.25,0.13,0.38
								c0,0.08-0.01,0.15-0.04,0.21c-0.1,0.22-0.39,0.32-0.66,0.34c-0.02,0-0.04,0-0.06,0c-0.46,0-0.84-0.24-1.22-0.48
								c-0.64-0.4-1.33-0.78-1.89-1.23c-0.59-0.48-1.05-1.04-1.48-1.65c-0.58-0.82-1.1-1.72-1.42-2.7
								c-0.32-0.95-0.45-1.97-0.45-3.01c0-0.03,0-0.07,0-0.11c0.02-1.25,0.22-2.5,0.67-3.65c0.42-1.11,1.06-2.14,1.83-3.05
								c0.76-0.9,1.64-1.69,2.65-2.28c0.51-0.3,1.07-0.55,1.64-0.74l-0.97-4.73l1.82-1.86l1.24,6.2c0.76-0.05,1.52-0.01,2.29,0.04
								c1.16,0.07,2.34,0.19,3.38,0.63c1.17,0.49,2.16,1.39,3.02,2.36c0.8,0.91,1.48,1.89,2.11,2.92c0.38,0.63,0.74,1.28,0.96,1.97
								C96.84,139.97,96.9,140.81,96.95,141.64z"/>
							<path class="st0" d="M91.82,167.06c0,0.55-0.03,1.11-0.1,1.66c-0.13,1.07-0.39,2.14-0.88,3.09
								c-0.51,0.98-1.27,1.85-2.17,2.53c-1.01,0.77-2.2,1.3-3.42,1.55c-0.87,0.18-1.76,0.22-2.67,0.24
								c-0.29,0.01-0.58,0.02-0.87,0.02c-0.6,0-1.19-0.04-1.76-0.18c-1.04-0.24-1.99-0.81-2.87-1.44c-0.78-0.56-1.5-1.18-2.11-1.9
								c-0.69-0.83-1.25-1.81-1.5-2.86c-0.11-0.44-0.16-0.9-0.16-1.37c0-0.62,0.1-1.26,0.27-1.87c0.26-0.93,0.7-1.8,1.35-2.48
								c0.61-0.64,1.4-1.11,2.27-1.35c0.43-0.12,0.88-0.19,1.33-0.19c0.65,0,1.3,0.13,1.87,0.4c0.83,0.39,1.5,1.08,2.02,1.86
								c0.44,0.68,0.76,1.42,0.87,2.2c0.03,0.21,0.05,0.42,0.05,0.63c0,0.48-0.08,0.96-0.22,1.43c-0.23,0.75-0.65,1.45-1.22,1.97
								c-0.48,0.44-1.09,0.75-1.71,0.92c-0.46,0.13-0.94,0.18-1.41,0.19c-0.15,0-0.29,0-0.44,0c0.01,0.38,0.06,0.74,0.24,1.04
								c0.18,0.31,0.51,0.55,0.86,0.73c0.77,0.4,1.62,0.52,2.46,0.52c1.02,0,2.02-0.17,3-0.48c1.14-0.36,2.25-0.91,3.02-1.76
								c0.84-0.92,1.27-2.2,1.5-3.46c0.14-0.79,0.2-1.58,0.2-2.37c0-0.41-0.02-0.83-0.05-1.24c-0.06-0.76-0.17-1.52-0.31-2.27
								c-0.26-1.29-0.65-2.55-0.93-3.84c-0.1-0.44-0.18-0.88-0.27-1.32l2-0.53c0.13,0.67,0.25,1.34,0.39,2.01
								c0.27,1.31,0.61,2.61,0.89,3.92c0.15,0.71,0.28,1.43,0.37,2.16C91.78,165.83,91.82,166.44,91.82,167.06z"/>
							<path class="st0" d="M90.73,149.61c0.19-0.02,0.39-0.04,0.58-0.06c-0.17,0.22-0.36,0.45-0.56,0.66
								c-0.24,0.24-0.5,0.48-0.76,0.7l-0.24-1.17C90.08,149.69,90.4,149.65,90.73,149.61z"/>
							<path class="st0" d="M89.92,139.46c0.12,0.09,0.23,0.19,0.33,0.29c-0.81,0.12-1.62,0.26-2.42,0.42l-0.23-1.12
								c0.44-0.09,0.87-0.17,1.31-0.25c0.03,0.02,0.07,0.04,0.1,0.06C89.34,139.03,89.64,139.23,89.92,139.46z"/>
							<polygon class="st0" points="86.56,139.8 88.82,151.05 86.82,151.57 84.41,139.8 							"/>
							<path class="st0" d="M87.47,104.81c-0.04,0.11-0.09,0.22-0.14,0.33c-0.1,0.22-0.2,0.44-0.3,0.68
								c-0.05,0.1-0.09,0.21-0.14,0.32c-1.67,0.48-3.33,1.04-4.97,1.67c0-0.17,0-0.33,0-0.48c-0.01-0.24-0.01-0.46-0.01-0.69
								C83.74,105.94,85.59,105.32,87.47,104.81z"/>
							<path class="st0" d="M85.41,150.5l0.23,1.13c-1.95,0.41-3.86,0.9-5.76,1.46c-0.4-0.11-0.8-0.26-1.19-0.42
								c-0.18-0.07-0.36-0.15-0.54-0.24c1.07-0.33,2.13-0.64,3.21-0.94c0.21,0.09,0.47,0.18,0.75,0.21
								c0.09,0.01,0.19,0.02,0.29,0.02c0.07,0,0.14-0.01,0.21-0.01c0.17-0.01,0.34-0.05,0.53-0.11c0.18-0.06,0.38-0.14,0.58-0.3
								c0.09-0.07,0.19-0.16,0.28-0.27c0.06-0.07,0.12-0.16,0.16-0.25C84.58,150.68,84.99,150.59,85.41,150.5z"/>
							<path class="st0" d="M83.3,140.08l0.2,1.11c-0.99,0.27-2.19,0.62-3.16,0.91c0.09-0.24,0.19-0.53,0.27-0.69
								c0.09-0.17,0.25-0.45,0.39-0.68C81.69,140.52,82.61,140.26,83.3,140.08z"/>
							<path class="st0" d="M80.94,128.64l0.22,1.1c-2.06,0.69-4.09,1.49-6.08,2.38c0.02-0.03,0.05-0.06,0.07-0.09
								c0.42-0.59,0.87-1.15,1.35-1.71C77.96,129.71,79.44,129.14,80.94,128.64z"/>
							<path class="st0" d="M77.32,108.6c0.03,0.38,0.07,0.75,0.11,1.12c-0.19,0.09-0.38,0.18-0.57,0.27
								c-6.5,3.1-12.27,6.93-18.04,10.77c-0.22,0.15-0.53,0.09-0.67-0.13c-0.15-0.23-0.09-0.53,0.13-0.68
								c5.94-3.97,11.87-7.94,18.58-11.13C77.02,108.75,77.17,108.67,77.32,108.6z"/>
							<path class="st0" d="M74.86,142.83c0.04,0.37,0.1,0.75,0.19,1.11c-1.13,0.43-2.24,0.87-3.35,1.33
								c-0.08-0.36-0.15-0.73-0.2-1.1C72.62,143.71,73.74,143.26,74.86,142.83z"/>
							<path class="st0" d="M73.24,154.08c0.39,0.27,0.78,0.53,1.19,0.76c-2.31,0.8-4.6,1.65-6.89,2.5
								c-0.28,0.11-0.6-0.03-0.71-0.32c-0.1-0.28,0.04-0.6,0.33-0.7C69.18,155.56,71.21,154.8,73.24,154.08z"/>
							<path class="st0" d="M73.31,121.3c-0.52,0.58-1.02,1.17-1.5,1.77c-0.11,0.13-0.21,0.26-0.31,0.39
								c-4.71,2.6-9.21,5.59-13.71,8.57c-0.22,0.15-0.52,0.09-0.67-0.13c-0.15-0.22-0.09-0.52,0.13-0.67
								C62.5,127.72,67.74,124.21,73.31,121.3z"/>
							<path class="st0" d="M66.98,146.11c0.14,0.33,0.3,0.65,0.47,0.97c-1.69,0.74-3.36,1.49-5.04,2.25c-0.27,0.12-0.58,0-0.7-0.27
								c-0.13-0.26-0.01-0.58,0.26-0.7C63.64,147.6,65.3,146.85,66.98,146.11z"/>
							<path class="st0" d="M65.58,135.84c-0.05,0.41-0.09,0.83-0.11,1.24c-2.37,1.36-4.73,2.78-7.08,4.19
								c-0.24,0.14-0.55,0.07-0.69-0.17s-0.07-0.54,0.17-0.69C60.43,138.86,62.99,137.31,65.58,135.84z"/>
						</g>
					</g>
				</g>
			</g>
		</g>
	</g>
</g>
</svg>
