<?xml version="1.0" encoding="utf-8"?>
<!-- Generator: Adobe Illustrator 26.1.0, SVG Export Plug-In . SVG Version: 6.00 Build 0)  -->
<svg version="1.1" id="Lager_1" xmlns="http://www.w3.org/2000/svg" xmlns:xlink="http://www.w3.org/1999/xlink" x="0px" y="0px"
	 viewBox="0 0 283.46 283.46" style="enable-background:new 0 0 283.46 283.46;" xml:space="preserve">
<style type="text/css">
	.st0{fill:#1E2676;}
	.st1{fill:none;}
	.st2{fill:none;stroke:#FFFFFF;stroke-width:2;stroke-linecap:round;stroke-linejoin:round;}
	.st3{fill:#FFFFFF;}
</style>
<g id="Priser_2024">
	<g id="Olivkvist">
		<g id="SPLINE_3555_">
			<path class="st0" d="M130.12,249.38c-0.19-2.53-0.38-5.05-1.1-7.44l0,0c-1-3.29-2.99-6.32-5.5-8.74l0,0
				c-2.45-2.37-5.4-4.14-8.5-5.5l0,0c-2.74-1.19-5.6-2.06-8.5-2.79l0,0c-2.41-0.61-4.86-1.13-7.3-1.65"/>
		</g>
		<g id="LINE_2308_">
			<line class="st1" x1="99.23" y1="223.26" x2="130.12" y2="249.38"/>
		</g>
		<g id="SPLINE_3556_">
			<path class="st0" d="M130.12,249.38c-2.52,0.23-5.04,0.47-7.53,0.16l0,0c-3.4-0.44-6.73-1.9-9.53-3.97l0,0
				c-2.74-2.03-4.98-4.63-6.83-7.47l0,0c-1.63-2.5-2.96-5.18-4.17-7.91l0,0c-1.01-2.29-1.92-4.6-2.84-6.92"/>
		</g>
		<g id="SPLINE_3557_">
			<path class="st0" d="M133.81,258.16c-2.14-1.36-4.27-2.72-6.62-3.57l0,0c-3.22-1.17-6.86-1.39-10.29-0.83l0,0
				c-3.37,0.55-6.55,1.85-9.49,3.52l0,0c-2.6,1.48-5.01,3.25-7.32,5.13l0,0c-1.94,1.57-3.81,3.22-5.69,4.86"/>
		</g>
		<g id="LINE_2309_">
			<line class="st1" x1="94.4" y1="267.27" x2="133.81" y2="258.16"/>
		</g>
		<g id="SPLINE_3558_">
			<path class="st0" d="M133.81,258.16c-1.32,2.15-2.64,4.32-4.38,6.11l0,0c-2.38,2.47-5.55,4.26-8.89,5.26l0,0
				c-3.27,0.98-6.69,1.21-10.07,1l0,0c-2.98-0.2-5.92-0.73-8.83-1.4l0,0c-2.43-0.57-4.84-1.22-7.24-1.87"/>
		</g>
		<g id="SPLINE_3559_">
			<path class="st0" d="M93.26,241.45c1.15-2.25,2.29-4.52,2.91-6.94l0,0c0.85-3.32,0.72-6.95-0.18-10.33l0,0
				c-0.87-3.29-2.47-6.33-4.43-9.09l0,0c-1.73-2.44-3.72-4.66-5.82-6.79l0,0c-1.75-1.78-3.57-3.48-5.39-5.19"/>
		</g>
		<g id="LINE_2310_">
			<line class="st1" x1="80.35" y1="203.12" x2="93.26" y2="241.45"/>
		</g>
		<g id="SPLINE_3560_">
			<path class="st0" d="M93.26,241.45c-2.28-1.11-4.56-2.21-6.52-3.76l0,0c-2.69-2.13-4.77-5.11-6.1-8.33l0,0
				c-1.3-3.15-1.86-6.54-1.98-9.92l0,0c-0.1-2.98,0.14-5.97,0.53-8.93l0,0c0.33-2.47,0.74-4.93,1.16-7.39"/>
		</g>
		<g id="SPLINE_3561_">
			<path class="st0" d="M106.98,249.85c-2.02-1.52-4.04-3.05-6.32-4.09l0,0c-3.12-1.42-6.73-1.93-10.2-1.64l0,0
				c-3.4,0.29-6.67,1.33-9.73,2.76l0,0c-2.71,1.27-5.25,2.85-7.71,4.54l0,0c-2.06,1.41-4.06,2.9-6.05,4.39"/>
		</g>
		<g id="LINE_2311_">
			<line class="st1" x1="66.97" y1="255.81" x2="106.98" y2="249.85"/>
		</g>
		<g id="SPLINE_3562_">
			<path class="st0" d="M106.98,249.85c-1.49,2.04-2.97,4.1-4.85,5.75l0,0c-2.57,2.27-5.87,3.8-9.28,4.54l0,0
				c-3.33,0.73-6.77,0.68-10.12,0.21l0,0c-2.96-0.43-5.85-1.2-8.7-2.1l0,0c-2.38-0.75-4.73-1.6-7.07-2.43"/>
		</g>
		<g id="SPLINE_3563_">
			<path class="st0" d="M67.07,227.46c1.76-1.81,3.53-3.62,4.86-5.75l0,0c1.81-2.91,2.77-6.43,2.93-9.9l0,0
				c0.16-3.41-0.46-6.79-1.49-10.01l0,0c-0.91-2.85-2.15-5.57-3.52-8.22l0,0c-1.14-2.22-2.36-4.39-3.59-6.57"/>
		</g>
		<g id="LINE_2312_">
			<line class="st1" x1="66.27" y1="187.01" x2="67.07" y2="227.46"/>
		</g>
		<g id="SPLINE_3564_">
			<path class="st0" d="M67.07,227.46c-1.84-1.75-3.68-3.48-5.08-5.55l0,0c-1.93-2.85-3.02-6.31-3.32-9.78l0,0
				c-0.29-3.4,0.19-6.8,1.09-10.06l0,0c0.79-2.88,1.93-5.65,3.18-8.36l0,0c1.05-2.26,2.19-4.48,3.32-6.7"/>
		</g>
		<g id="SPLINE_3565_">
			<path class="st0" d="M82.13,240.58c-1.54-2.01-3.07-4.02-4.99-5.63l0,0c-2.62-2.21-5.96-3.66-9.38-4.32l0,0
				c-3.35-0.64-6.78-0.51-10.12,0.05l0,0c-2.95,0.5-5.82,1.33-8.65,2.3l0,0c-2.36,0.81-4.69,1.71-7.01,2.62"/>
		</g>
		<g id="LINE_2313_">
			<line class="st1" x1="41.99" y1="235.59" x2="82.13" y2="240.58"/>
		</g>
		<g id="SPLINE_3566_">
			<path class="st0" d="M82.13,240.58c-1.98,1.58-3.96,3.14-6.21,4.23l0,0c-3.09,1.5-6.68,2.1-10.16,1.89l0,0
				c-3.4-0.2-6.7-1.16-9.8-2.51l0,0c-2.73-1.21-5.32-2.72-7.82-4.35l0,0c-2.09-1.37-4.12-2.81-6.16-4.25"/>
		</g>
		<g id="SPLINE_3567_">
			<path class="st0" d="M47.61,209.85c2.12-1.38,4.24-2.76,6-4.54l0,0c2.41-2.45,4.11-5.66,5.03-9.02l0,0
				c0.89-3.29,1.04-6.72,0.73-10.09l0,0c-0.27-2.97-0.88-5.9-1.63-8.79l0,0c-0.62-2.42-1.35-4.8-2.06-7.19"/>
		</g>
		<g id="LINE_2314_">
			<line class="st1" x1="55.67" y1="170.21" x2="47.61" y2="209.85"/>
		</g>
		<g id="SPLINE_3568_">
			<path class="st0" d="M47.61,209.85c-1.41-2.1-2.83-4.2-3.75-6.52l0,0c-1.26-3.19-1.57-6.82-1.1-10.27l0,0
				c0.46-3.38,1.67-6.59,3.27-9.58l0,0c1.41-2.64,3.12-5.09,4.93-7.46l0,0c1.52-1.98,3.11-3.9,4.71-5.82"/>
		</g>
		<g id="SPLINE_3569_">
			<path class="st0" d="M60.39,225.74c-1.12-2.27-2.24-4.54-3.81-6.48l0,0c-2.15-2.67-5.15-4.74-8.38-6.04l0,0
				c-3.16-1.27-6.56-1.81-9.93-1.9l0,0c-2.99-0.08-5.97,0.19-8.93,0.6l0,0c-2.47,0.34-4.93,0.77-7.38,1.21"/>
		</g>
		<g id="LINE_2315_">
			<line class="st1" x1="21.96" y1="213.12" x2="60.39" y2="225.74"/>
		</g>
		<g id="SPLINE_3570_">
			<path class="st0" d="M60.39,225.74c-2.25,1.17-4.5,2.33-6.91,2.97l0,0c-3.32,0.87-6.95,0.76-10.32-0.1l0,0
				c-3.3-0.85-6.35-2.43-9.13-4.36l0,0c-2.45-1.71-4.69-3.69-6.83-5.77l0,0c-1.79-1.75-3.51-3.55-5.23-5.35"/>
		</g>
		<g id="SPLINE_3571_">
			<path class="st0" d="M42.55,207.28c-0.64-2.45-1.29-4.9-2.44-7.12l0,0c-1.58-3.05-4.09-5.67-7-7.59l0,0
				c-2.85-1.88-6.06-3.08-9.36-3.85l0,0c-2.92-0.68-5.89-1.01-8.87-1.2l0,0c-2.49-0.16-4.98-0.22-7.47-0.29"/>
		</g>
		<g id="LINE_2316_">
			<line class="st1" x1="7.42" y1="187.23" x2="42.55" y2="207.28"/>
		</g>
		<g id="SPLINE_3572_">
			<path class="st0" d="M42.55,207.28c-2.43,0.69-4.87,1.38-7.37,1.52l0,0c-3.42,0.19-6.97-0.64-10.09-2.16l0,0
				c-3.07-1.49-5.74-3.65-8.08-6.1l0,0c-2.06-2.16-3.86-4.55-5.55-7.02l0,0c-1.41-2.06-2.73-4.18-4.05-6.29"/>
		</g>
		<g id="SPLINE_3573_">
			<path class="st0" d="M35.19,186.19c-0.36-2.5-0.72-5.01-1.61-7.35l0,0c-1.22-3.21-3.42-6.1-6.09-8.34l0,0
				c-2.61-2.19-5.67-3.76-8.85-4.9l0,0c-2.81-1-5.73-1.67-8.67-2.21l0,0c-2.45-0.44-4.92-0.79-7.39-1.14"/>
		</g>
		<g id="LINE_2317_">
			<line class="st1" x1="2.59" y1="162.25" x2="35.19" y2="186.19"/>
		</g>
		<g id="SPLINE_3574_">
			<path class="st0" d="M35.19,186.19c-2.5,0.41-5,0.81-7.49,0.67l0,0c-3.42-0.2-6.85-1.43-9.78-3.3l0,0
				c-2.88-1.84-5.29-4.28-7.32-6.98l0,0c-1.8-2.39-3.31-4.97-4.7-7.61l0,0c-1.17-2.21-2.23-4.46-3.31-6.71"/>
		</g>
		<g id="SPLINE_3575_">
			<path class="st0" d="M27.29,164.92c0.61-2.46,1.22-4.91,1.29-7.41l0,0c0.09-3.43-0.85-6.94-2.47-10.02l0,0
				c-1.59-3.02-3.83-5.63-6.35-7.88l0,0c-2.23-2-4.67-3.72-7.19-5.32l0,0c-2.1-1.34-4.26-2.6-6.41-3.86"/>
		</g>
		<g id="LINE_2318_">
			<line class="st1" x1="6.15" y1="130.42" x2="27.29" y2="164.92"/>
		</g>
		<g id="SPLINE_3576_">
			<path class="st0" d="M27.29,164.92c-2.47-0.57-4.93-1.14-7.19-2.22l0,0c-3.09-1.48-5.79-3.92-7.8-6.76l0,0
				c-1.97-2.79-3.27-5.96-4.14-9.23l0,0c-0.77-2.89-1.19-5.85-1.48-8.82l0,0c-0.23-2.48-0.38-4.97-0.52-7.46"/>
		</g>
		<g id="SPLINE_3577_">
			<path class="st0" d="M37.79,181.54c2.22-1.21,4.45-2.42,6.33-4.06l0,0c2.59-2.25,4.54-5.32,5.72-8.6l0,0
				c1.15-3.21,1.56-6.62,1.53-10l0,0c-0.03-2.99-0.42-5.96-0.94-8.9l0,0c-0.43-2.46-0.96-4.9-1.48-7.33"/>
		</g>
		<g id="LINE_2319_">
			<line class="st1" x1="48.94" y1="142.66" x2="37.79" y2="181.54"/>
		</g>
		<g id="SPLINE_3578_">
			<path class="st0" d="M37.79,181.54c-1.25-2.2-2.49-4.41-3.22-6.8l0,0c-1-3.28-1.03-6.92-0.29-10.32l0,0
				c0.73-3.33,2.19-6.44,4.01-9.29l0,0c1.61-2.52,3.52-4.83,5.51-7.05l0,0c1.67-1.85,3.41-3.64,5.15-5.42"/>
		</g>
		<g id="SPLINE_3579_">
			<path class="st0" d="M30.84,151.58c2.44-0.68,4.88-1.36,7.08-2.53l0,0c3.03-1.62,5.62-4.17,7.49-7.11l0,0
				c1.84-2.87,3.01-6.1,3.72-9.41l0,0c0.64-2.92,0.93-5.9,1.08-8.88l0,0c0.13-2.49,0.16-4.98,0.19-7.48"/>
		</g>
		<g id="LINE_2320_">
			<line class="st1" x1="50.41" y1="116.18" x2="30.84" y2="151.58"/>
		</g>
		<g id="SPLINE_3580_">
			<path class="st0" d="M30.84,151.58c-0.72-2.42-1.44-4.85-1.62-7.34l0,0c-0.24-3.42,0.55-6.98,2.02-10.13l0,0
				c1.45-3.09,3.57-5.79,5.99-8.16l0,0c2.14-2.09,4.5-3.93,6.94-5.64l0,0c2.04-1.44,4.14-2.79,6.24-4.14"/>
		</g>
		<g id="SPLINE_3581_">
			<path class="st0" d="M25.88,136.6c1.4-2.11,2.81-4.22,3.7-6.55l0,0c1.23-3.2,1.52-6.83,1.02-10.27l0,0
				c-0.49-3.38-1.72-6.58-3.34-9.55l0,0c-1.43-2.63-3.16-5.07-4.99-7.42l0,0c-1.54-1.97-3.14-3.87-4.75-5.78"/>
		</g>
		<g id="LINE_2321_">
			<line class="st1" x1="17.53" y1="97.02" x2="25.88" y2="136.6"/>
		</g>
		<g id="SPLINE_3582_">
			<path class="st0" d="M25.88,136.6c-2.13-1.36-4.26-2.73-6.03-4.5l0,0c-2.42-2.43-4.15-5.63-5.09-8.98l0,0
				c-0.92-3.28-1.09-6.72-0.81-10.08l0,0c0.25-2.98,0.84-5.91,1.57-8.81l0,0c0.61-2.42,1.3-4.81,2-7.21"/>
		</g>
		<g id="SPLINE_3583_">
			<path class="st0" d="M33.86,106.47c1.84-1.74,3.67-3.49,5.06-5.56l0,0c1.91-2.85,3-6.32,3.28-9.79l0,0
				c0.28-3.4-0.21-6.8-1.13-10.05l0,0c-0.81-2.88-1.95-5.65-3.22-8.35l0,0c-1.05-2.26-2.2-4.48-3.34-6.69"/>
		</g>
		<g id="LINE_2322_">
			<line class="st1" x1="34.52" y1="66.02" x2="33.86" y2="106.47"/>
		</g>
		<g id="SPLINE_3584_">
			<path class="st0" d="M33.86,106.47c-1.78-1.8-3.55-3.61-4.88-5.73l0,0c-1.82-2.91-2.79-6.41-2.96-9.89l0,0
				c-0.16-3.41,0.44-6.79,1.46-10.01l0,0c0.91-2.85,2.14-5.58,3.48-8.24l0,0c1.13-2.22,2.35-4.4,3.57-6.58"/>
		</g>
		<g id="SPLINE_3585_">
			<path class="st0" d="M37.47,116.84c2.53,0.04,5.06,0.08,7.51-0.42l0,0c3.36-0.69,6.57-2.4,9.21-4.68l0,0
				c2.58-2.23,4.62-5,6.24-7.96l0,0c1.44-2.62,2.56-5.39,3.56-8.21l0,0c0.83-2.35,1.57-4.74,2.3-7.12"/>
		</g>
		<g id="LINE_2323_">
			<line class="st1" x1="66.29" y1="88.46" x2="37.47" y2="116.84"/>
		</g>
		<g id="SPLINE_3586_">
			<path class="st0" d="M37.47,116.84c0-2.53-0.01-5.06,0.53-7.5l0,0c0.74-3.35,2.51-6.53,4.82-9.13l0,0
				c2.27-2.55,5.07-4.54,8.06-6.12l0,0c2.64-1.4,5.43-2.48,8.26-3.43l0,0c2.36-0.79,4.76-1.5,7.15-2.2"/>
		</g>
		<g id="SPLINE_3587_">
			<path class="st0" d="M45.42,90.54c2.52-0.25,5.04-0.49,7.42-1.27l0,0c3.26-1.07,6.25-3.14,8.61-5.7l0,0
				c2.31-2.51,4.02-5.49,5.3-8.62l0,0c1.13-2.77,1.93-5.65,2.6-8.56l0,0c0.55-2.43,1.02-4.88,1.48-7.33"/>
		</g>
		<g id="LINE_2324_">
			<line class="st1" x1="70.81" y1="59.05" x2="45.42" y2="90.54"/>
		</g>
		<g id="SPLINE_3588_">
			<path class="st0" d="M45.42,90.54c-0.29-2.52-0.59-5.03-0.33-7.52l0,0c0.35-3.41,1.75-6.77,3.74-9.62l0,0
				c1.97-2.79,4.52-5.09,7.31-7l0,0c2.46-1.69,5.11-3.09,7.81-4.35l0,0c2.26-1.06,4.56-2.03,6.86-3"/>
		</g>
		<g id="CIRCLE_234_">
			<path class="st0" d="M148.23,254.6c0-2.99-2.43-5.42-5.42-5.42s-5.42,2.43-5.42,5.42c0,2.99,2.43,5.42,5.42,5.42
				S148.23,257.59,148.23,254.6L148.23,254.6L148.23,254.6z"/>
		</g>
		<g id="SPLINE_3589_">
			<path class="st0" d="M155.49,249.38c0.19-2.53,0.38-5.05,1.1-7.44l0,0c0.99-3.29,3-6.32,5.49-8.74l0,0
				c2.46-2.37,5.4-4.14,8.5-5.5l0,0c2.73-1.19,5.6-2.06,8.5-2.79l0,0c2.41-0.61,4.86-1.13,7.3-1.65"/>
		</g>
		<g id="LINE_2325_">
			<line class="st1" x1="186.38" y1="223.26" x2="155.49" y2="249.38"/>
		</g>
		<g id="SPLINE_3590_">
			<path class="st0" d="M155.49,249.38c2.52,0.23,5.04,0.47,7.52,0.16l0,0c3.41-0.44,6.73-1.9,9.53-3.97l0,0
				c2.75-2.03,4.98-4.63,6.83-7.47l0,0c1.63-2.5,2.97-5.18,4.17-7.91l0,0c1-2.29,1.92-4.6,2.84-6.92"/>
		</g>
		<g id="SPLINE_3591_">
			<path class="st0" d="M151.79,258.16c2.14-1.36,4.27-2.72,6.62-3.57l0,0c3.22-1.17,6.86-1.39,10.29-0.83l0,0
				c3.37,0.55,6.55,1.85,9.49,3.52l0,0c2.6,1.48,5.01,3.25,7.32,5.13l0,0c1.94,1.57,3.82,3.22,5.69,4.86"/>
		</g>
		<g id="LINE_2326_">
			<line class="st1" x1="191.21" y1="267.27" x2="151.79" y2="258.16"/>
		</g>
		<g id="SPLINE_3592_">
			<path class="st0" d="M151.79,258.16c1.32,2.15,2.64,4.32,4.38,6.11l0,0c2.38,2.47,5.55,4.26,8.89,5.26l0,0
				c3.26,0.98,6.69,1.21,10.06,1l0,0c2.99-0.2,5.93-0.73,8.83-1.4l0,0c2.43-0.57,4.84-1.22,7.25-1.87"/>
		</g>
		<g id="SPLINE_3593_">
			<path class="st0" d="M192.35,241.45c-1.15-2.25-2.29-4.52-2.91-6.94l0,0c-0.85-3.32-0.72-6.95,0.18-10.33l0,0
				c0.88-3.29,2.48-6.33,4.43-9.09l0,0c1.73-2.44,3.73-4.66,5.83-6.79l0,0c1.75-1.78,3.57-3.48,5.39-5.19"/>
		</g>
		<g id="LINE_2327_">
			<line class="st1" x1="205.26" y1="203.12" x2="192.35" y2="241.45"/>
		</g>
		<g id="SPLINE_3594_">
			<path class="st0" d="M192.35,241.45c2.28-1.11,4.55-2.21,6.51-3.76l0,0c2.69-2.13,4.78-5.11,6.11-8.33l0,0
				c1.29-3.15,1.86-6.54,1.98-9.92l0,0c0.1-2.98-0.15-5.97-0.54-8.93l0,0c-0.32-2.47-0.74-4.93-1.15-7.39"/>
		</g>
		<g id="SPLINE_3595_">
			<path class="st0" d="M178.63,249.85c2.02-1.52,4.04-3.05,6.31-4.09l0,0c3.12-1.42,6.73-1.93,10.2-1.64l0,0
				c3.4,0.29,6.67,1.33,9.74,2.76l0,0c2.7,1.27,5.25,2.85,7.71,4.54l0,0c2.06,1.41,4.06,2.9,6.05,4.39"/>
		</g>
		<g id="LINE_2328_">
			<line class="st1" x1="218.64" y1="255.81" x2="178.63" y2="249.85"/>
		</g>
		<g id="SPLINE_3596_">
			<path class="st0" d="M178.63,249.85c1.49,2.04,2.98,4.1,4.85,5.75l0,0c2.57,2.27,5.87,3.8,9.28,4.54l0,0
				c3.33,0.73,6.76,0.68,10.11,0.21l0,0c2.96-0.43,5.85-1.2,8.7-2.1l0,0c2.38-0.75,4.73-1.6,7.08-2.43"/>
		</g>
		<g id="SPLINE_3597_">
			<path class="st0" d="M218.54,227.46c-1.77-1.81-3.54-3.62-4.86-5.75l0,0c-1.81-2.91-2.77-6.43-2.93-9.9l0,0
				c-0.16-3.41,0.46-6.79,1.49-10.01l0,0c0.91-2.85,2.15-5.57,3.52-8.22l0,0c1.14-2.22,2.36-4.39,3.59-6.57"/>
		</g>
		<g id="LINE_2329_">
			<line class="st1" x1="219.34" y1="187.01" x2="218.54" y2="227.46"/>
		</g>
		<g id="SPLINE_3598_">
			<path class="st0" d="M218.54,227.46c1.84-1.75,3.68-3.48,5.08-5.55l0,0c1.93-2.85,3.02-6.31,3.32-9.78l0,0
				c0.29-3.4-0.19-6.8-1.09-10.06l0,0c-0.8-2.88-1.93-5.65-3.18-8.36l0,0c-1.05-2.26-2.19-4.48-3.32-6.7"/>
		</g>
		<g id="SPLINE_3599_">
			<path class="st0" d="M203.47,240.58c1.54-2.01,3.08-4.02,4.99-5.63l0,0c2.62-2.21,5.96-3.66,9.38-4.32l0,0
				c3.35-0.64,6.78-0.51,10.12,0.05l0,0c2.95,0.5,5.82,1.33,8.65,2.3l0,0c2.36,0.81,4.68,1.71,7.01,2.62"/>
		</g>
		<g id="LINE_2330_">
			<line class="st1" x1="243.62" y1="235.59" x2="203.47" y2="240.58"/>
		</g>
		<g id="SPLINE_3600_">
			<path class="st0" d="M203.47,240.58c1.99,1.58,3.96,3.14,6.22,4.23l0,0c3.08,1.5,6.68,2.1,10.15,1.89l0,0
				c3.41-0.2,6.71-1.16,9.8-2.51l0,0c2.73-1.21,5.31-2.72,7.81-4.35l0,0c2.1-1.37,4.13-2.81,6.17-4.25"/>
		</g>
		<g id="SPLINE_3601_">
			<path class="st0" d="M238,209.85c-2.12-1.38-4.25-2.76-6-4.54l0,0c-2.4-2.45-4.1-5.66-5.02-9.02l0,0
				c-0.9-3.29-1.04-6.72-0.74-10.09l0,0c0.27-2.97,0.89-5.9,1.63-8.79l0,0c0.62-2.42,1.34-4.8,2.06-7.19"/>
		</g>
		<g id="LINE_2331_">
			<line class="st1" x1="229.94" y1="170.21" x2="238" y2="209.85"/>
		</g>
		<g id="SPLINE_3602_">
			<path class="st0" d="M238,209.85c1.41-2.1,2.83-4.2,3.74-6.52l0,0c1.26-3.19,1.57-6.82,1.1-10.27l0,0
				c-0.46-3.38-1.67-6.59-3.26-9.58l0,0c-1.41-2.64-3.12-5.09-4.93-7.46l0,0c-1.52-1.98-3.11-3.9-4.71-5.82"/>
		</g>
		<g id="SPLINE_3603_">
			<path class="st0" d="M225.22,225.74c1.12-2.27,2.24-4.54,3.81-6.48l0,0c2.16-2.67,5.15-4.74,8.38-6.04l0,0
				c3.16-1.27,6.56-1.81,9.93-1.9l0,0c2.99-0.08,5.97,0.19,8.92,0.6l0,0c2.47,0.34,4.93,0.77,7.38,1.21"/>
		</g>
		<g id="LINE_2332_">
			<line class="st1" x1="263.65" y1="213.12" x2="225.22" y2="225.74"/>
		</g>
		<g id="SPLINE_3604_">
			<path class="st0" d="M225.22,225.74c2.25,1.17,4.49,2.33,6.91,2.97l0,0c3.31,0.87,6.95,0.76,10.32-0.1l0,0
				c3.3-0.85,6.35-2.43,9.13-4.36l0,0c2.45-1.71,4.7-3.69,6.83-5.77l0,0c1.79-1.75,3.51-3.55,5.23-5.35"/>
		</g>
		<g id="SPLINE_3605_">
			<path class="st0" d="M243.06,207.28c0.64-2.45,1.29-4.9,2.43-7.12l0,0c1.58-3.05,4.1-5.67,7-7.59l0,0
				c2.84-1.88,6.06-3.08,9.36-3.85l0,0c2.91-0.68,5.88-1.01,8.87-1.2l0,0c2.49-0.16,4.98-0.22,7.47-0.29"/>
		</g>
		<g id="LINE_2333_">
			<line class="st1" x1="278.19" y1="187.23" x2="243.06" y2="207.28"/>
		</g>
		<g id="SPLINE_3606_">
			<path class="st0" d="M243.06,207.28c2.43,0.69,4.87,1.38,7.36,1.52l0,0c3.43,0.19,6.97-0.64,10.1-2.16l0,0
				c3.07-1.49,5.74-3.65,8.08-6.1l0,0c2.06-2.16,3.86-4.55,5.54-7.02l0,0c1.41-2.06,2.73-4.18,4.06-6.29"/>
		</g>
		<g id="SPLINE_3607_">
			<path class="st0" d="M250.41,186.19c0.36-2.5,0.72-5.01,1.61-7.35l0,0c1.22-3.21,3.42-6.1,6.09-8.34l0,0
				c2.61-2.19,5.66-3.76,8.85-4.9l0,0c2.81-1,5.73-1.67,8.67-2.21l0,0c2.45-0.44,4.93-0.79,7.39-1.14"/>
		</g>
		<g id="LINE_2334_">
			<line class="st1" x1="283.02" y1="162.25" x2="250.41" y2="186.19"/>
		</g>
		<g id="SPLINE_3608_">
			<path class="st0" d="M250.41,186.19c2.5,0.41,5,0.81,7.49,0.67l0,0c3.42-0.2,6.85-1.43,9.78-3.3l0,0
				c2.87-1.84,5.29-4.28,7.32-6.98l0,0c1.8-2.39,3.31-4.97,4.7-7.61l0,0c1.16-2.21,2.23-4.46,3.31-6.71"/>
		</g>
		<g id="SPLINE_3609_">
			<path class="st0" d="M258.32,164.92c-0.61-2.46-1.22-4.91-1.29-7.41l0,0c-0.09-3.43,0.85-6.94,2.47-10.02l0,0
				c1.59-3.02,3.82-5.63,6.34-7.88l0,0c2.23-2,4.67-3.72,7.19-5.32l0,0c2.1-1.34,4.26-2.6,6.41-3.86"/>
		</g>
		<g id="LINE_2335_">
			<line class="st1" x1="279.45" y1="130.42" x2="258.32" y2="164.92"/>
		</g>
		<g id="SPLINE_3610_">
			<path class="st0" d="M258.32,164.92c2.47-0.57,4.93-1.14,7.19-2.22l0,0c3.1-1.48,5.8-3.92,7.81-6.76l0,0
				c1.97-2.79,3.27-5.96,4.14-9.23l0,0c0.77-2.89,1.19-5.85,1.47-8.82l0,0c0.24-2.48,0.38-4.97,0.52-7.46"/>
		</g>
		<g id="SPLINE_3611_">
			<path class="st0" d="M247.82,181.54c-2.23-1.21-4.45-2.42-6.33-4.06l0,0c-2.59-2.25-4.54-5.32-5.72-8.6l0,0
				c-1.16-3.21-1.57-6.62-1.53-10l0,0c0.03-2.99,0.42-5.96,0.93-8.9l0,0c0.44-2.46,0.96-4.9,1.49-7.33"/>
		</g>
		<g id="LINE_2336_">
			<line class="st1" x1="236.66" y1="142.66" x2="247.82" y2="181.54"/>
		</g>
		<g id="SPLINE_3612_">
			<path class="st0" d="M247.82,181.54c1.25-2.2,2.49-4.41,3.22-6.8l0,0c1-3.28,1.03-6.92,0.29-10.32l0,0
				c-0.72-3.33-2.18-6.44-4.01-9.29l0,0c-1.61-2.52-3.51-4.83-5.51-7.05l0,0c-1.67-1.85-3.41-3.64-5.15-5.42"/>
		</g>
		<g id="SPLINE_3613_">
			<path class="st0" d="M254.76,151.58c-2.43-0.68-4.88-1.36-7.08-2.53l0,0c-3.03-1.62-5.62-4.17-7.5-7.11l0,0
				c-1.84-2.87-3-6.1-3.72-9.41l0,0c-0.63-2.92-0.92-5.9-1.07-8.88l0,0c-0.13-2.49-0.16-4.98-0.19-7.48"/>
		</g>
		<g id="LINE_2337_">
			<line class="st1" x1="235.2" y1="116.18" x2="254.76" y2="151.58"/>
		</g>
		<g id="SPLINE_3614_">
			<path class="st0" d="M254.76,151.58c0.73-2.42,1.44-4.85,1.63-7.34l0,0c0.24-3.42-0.55-6.98-2.03-10.13l0,0
				c-1.45-3.09-3.57-5.79-5.98-8.16l0,0c-2.14-2.09-4.5-3.93-6.95-5.64l0,0c-2.04-1.44-4.13-2.79-6.23-4.14"/>
		</g>
		<g id="SPLINE_3615_">
			<path class="st0" d="M259.72,136.6c-1.4-2.11-2.8-4.22-3.7-6.55l0,0c-1.23-3.2-1.52-6.83-1.02-10.27l0,0
				c0.48-3.38,1.72-6.58,3.33-9.55l0,0c1.43-2.63,3.16-5.07,4.99-7.42l0,0c1.54-1.97,3.14-3.87,4.75-5.78"/>
		</g>
		<g id="LINE_2338_">
			<line class="st1" x1="268.08" y1="97.02" x2="259.72" y2="136.6"/>
		</g>
		<g id="SPLINE_3616_">
			<path class="st0" d="M259.72,136.6c2.13-1.36,4.27-2.73,6.03-4.5l0,0c2.42-2.43,4.15-5.63,5.08-8.98l0,0
				c0.92-3.28,1.09-6.72,0.81-10.08l0,0c-0.25-2.98-0.84-5.91-1.57-8.81l0,0c-0.61-2.42-1.31-4.81-2-7.21"/>
		</g>
		<g id="SPLINE_3617_">
			<path class="st0" d="M251.75,106.47c-1.84-1.74-3.67-3.49-5.07-5.56l0,0c-1.91-2.85-3-6.32-3.29-9.79l0,0
				c-0.27-3.4,0.21-6.8,1.13-10.05l0,0c0.81-2.88,1.95-5.65,3.21-8.35l0,0c1.06-2.26,2.21-4.48,3.35-6.69"/>
		</g>
		<g id="LINE_2339_">
			<line class="st1" x1="251.08" y1="66.02" x2="251.75" y2="106.47"/>
		</g>
		<g id="SPLINE_3618_">
			<path class="st0" d="M251.75,106.47c1.78-1.8,3.55-3.61,4.88-5.73l0,0c1.82-2.91,2.79-6.41,2.96-9.89l0,0
				c0.17-3.41-0.43-6.79-1.45-10.01l0,0c-0.9-2.85-2.13-5.58-3.49-8.24l0,0c-1.13-2.22-2.34-4.4-3.56-6.58"/>
		</g>
		<g id="SPLINE_3619_">
			<path class="st0" d="M248.14,116.84c-2.53,0.04-5.06,0.08-7.51-0.42l0,0c-3.37-0.69-6.57-2.4-9.21-4.68l0,0
				c-2.58-2.23-4.62-5-6.24-7.96l0,0c-1.45-2.62-2.57-5.39-3.56-8.21l0,0c-0.83-2.35-1.57-4.74-2.3-7.12"/>
		</g>
		<g id="LINE_2340_">
			<line class="st1" x1="219.32" y1="88.46" x2="248.14" y2="116.84"/>
		</g>
		<g id="SPLINE_3620_">
			<path class="st0" d="M248.14,116.84c0.01-2.53,0.01-5.06-0.54-7.5l0,0c-0.74-3.35-2.5-6.53-4.82-9.13l0,0
				c-2.27-2.55-5.07-4.54-8.06-6.12l0,0c-2.64-1.4-5.43-2.48-8.26-3.43l0,0c-2.36-0.79-4.76-1.5-7.15-2.2"/>
		</g>
		<g id="SPLINE_3621_">
			<path class="st0" d="M240.19,90.54c-2.52-0.25-5.04-0.49-7.42-1.27l0,0c-3.26-1.07-6.25-3.14-8.61-5.7l0,0
				c-2.31-2.51-4.01-5.49-5.29-8.62l0,0c-1.13-2.77-1.93-5.65-2.6-8.56l0,0c-0.56-2.43-1.02-4.88-1.48-7.33"/>
		</g>
		<g id="LINE_2341_">
			<line class="st1" x1="214.8" y1="59.05" x2="240.19" y2="90.54"/>
		</g>
		<g id="SPLINE_3622_">
			<path class="st0" d="M240.19,90.54c0.29-2.52,0.59-5.03,0.33-7.52l0,0c-0.35-3.41-1.74-6.77-3.75-9.62l0,0
				c-1.96-2.79-4.52-5.09-7.3-7l0,0c-2.46-1.69-5.11-3.09-7.81-4.35l0,0c-2.26-1.06-4.56-2.03-6.86-3"/>
		</g>
	</g>
	<g id="Kategorier">
		<g id="Bästa_manus_1_">
			<g id="Manus_2017">
				<g id="Vit_kontur_2_">
					<line class="st2" x1="84.08" y1="201.39" x2="86.6" y2="230.28"/>
					<line class="st2" x1="118.99" y1="227.87" x2="86.6" y2="230.28"/>
				</g>
				<g id="Manus">
					<g id="XMLID_18_">
						<g>
							<path class="st0" d="M155.2,83.04c-0.01-0.01-0.02-0.01-0.03-0.01c-0.63-0.09-1.44-0.14-2.3-0.17c-0.26,0-0.53-0.01-0.8,0.01
								c-0.33,0-0.66,0-1,0c-0.02,0-0.03,0-0.05,0L78.5,88.96L90.02,226.4l92.06-7.72l-7.55-90c-0.31-1.66-0.64-3.32-0.97-4.94
								c-0.64-3.01-1.34-5.97-2.32-8.95c-0.49-1.48-1.02-2.96-1.66-4.45c-0.3-0.75-0.63-1.51-1-2.25c-0.35-0.74-0.74-1.48-1.1-2.13
								c-0.34-0.55-0.66-1.06-1.02-1.46c-0.31-0.41-0.63-0.72-0.92-0.91c-0.28-0.2-0.49-0.28-0.8-0.37
								c-0.32-0.06-0.75-0.1-1.28-0.08c-0.17,0-0.36,0.01-0.56,0.03c-0.53,0.04-1.14,0.15-1.78,0.27c-0.54,0.12-1.13,0.24-6.67,2.44
								c0.82-2.73,1.22-4.12,1.44-4.83c0.21-0.72,0.23-0.76,0.23-0.81c0.48-2.31,0.97-4.59,1.33-6.7c0.37-2.13,0.59-4.06,0.58-5.67
								c0.01-0.41-0.01-0.81-0.04-1.17c-0.02-0.28-0.05-0.54-0.09-0.77c-0.08-0.57-0.21-1.02-0.36-1.37
								c-0.15-0.35-0.32-0.58-0.48-0.76c-0.11-0.11-0.24-0.22-0.37-0.3c-0.15-0.09-0.31-0.17-0.57-0.24
								C155.89,83.16,155.58,83.1,155.2,83.04z M213.1,70.34l-20.94,132.69l0.09,12.06l-7.67,0.01l0.51,6.13l-97.64,8.19l-11.99-143
								l17.85-1.5l-0.12-12.61l20.46-0.15l2.69-17.12L213.1,70.34z M192.03,185.9l17.89-113.25l-91.26-14.4l-2.19,13.9l74.71-0.57
								L192.03,185.9z M189.44,212.28L188.4,74.39l-92.38,0.7l0.07,9.6l54.98-4.61c1.59,0.03,3.19,0.04,4.71,0.22
								c0.02,0,0.03,0.01,0.04,0.01c0.99,0.12,1.94,0.3,2.85,0.6c3.15,1.05,5.63,3.48,7.64,6.55c2,3.07,3.54,6.78,4.79,10.39
								c1.84,5.33,3.08,10.43,4.02,15.45c0.93,5.01,1.57,9.94,2.19,14.86l7.06,84.2L189.44,212.28z M170.59,105.82
								c-0.46-1.77-0.99-3.58-1.59-5.42c-0.67-2.06-1.44-4.2-2.3-6.2c-0.87-2.02-1.85-3.92-2.95-5.51
								c-0.96-1.44-2.03-2.66-3.15-3.55c0.75,4.01-0.54,9.98-1.83,15.93c2.73-0.59,5.45-1.18,7.54-0.25
								c0.92,0.42,1.71,1.13,2.42,2.02C169.43,103.71,170.04,104.76,170.59,105.82z"/>
							<polygon class="st3" points="209.92,72.65 192.03,185.9 191.18,71.57 116.47,72.15 118.66,58.25 							"/>
							<path class="st3" d="M188.39,74.39l1.04,137.89l-5.08,0.08l-7.06-84.2c-0.62-4.93-1.26-9.85-2.19-14.86
								c-0.93-5.02-2.17-10.13-4.02-15.45c-1.25-3.61-2.78-7.32-4.79-10.39c-2-3.06-4.49-5.5-7.64-6.55
								c-0.91-0.31-1.86-0.49-2.85-0.6c-0.01,0-0.02-0.01-0.04-0.01c-1.41-0.23-3.06-0.22-4.71-0.22l-54.98,4.61L96,75.09
								L188.39,74.39z"/>
							<path class="st3" d="M174.54,128.68l7.55,90l-92.06,7.72L78.5,88.96l72.51-6.08c0.02,0,0.03,0,0.05,0
								c0.34-0.01,0.67-0.01,1,0c0.34,0.01,0.68,0.02,1.03,0.02c0.72,0.05,1.42,0.07,2.08,0.14c0.01,0,0.02,0,0.03,0.01
								c0.39,0.06,0.69,0.12,0.93,0.2c0.27,0.08,0.42,0.15,0.57,0.24c0.13,0.08,0.26,0.19,0.37,0.3c0.16,0.19,0.33,0.41,0.48,0.76
								s0.28,0.8,0.36,1.37c0.04,0.24,0.07,0.5,0.09,0.77c0.03,0.36,0.04,0.76,0.04,1.17c0.01,1.61-0.21,3.54-0.58,5.67
								c-0.36,2.11-0.85,4.39-1.33,6.7c-0.01,0.05-0.02,0.09-0.23,0.81c-0.22,0.71-0.63,2.1-1.44,4.83c5.54-2.2,6.13-2.32,6.67-2.44
								c0.64-0.12,1.26-0.23,1.78-0.27c0.2-0.02,0.39-0.02,0.56-0.03c0.53-0.01,0.96,0.02,1.28,0.08c0.32,0.09,0.53,0.18,0.8,0.37
								c0.29,0.19,0.6,0.5,0.92,0.91c0.36,0.4,0.68,0.91,1.02,1.46c0.36,0.64,0.75,1.38,1.1,2.13c0.37,0.74,0.7,1.51,1,2.25
								c0.64,1.49,1.17,2.97,1.66,4.45c0.97,2.98,1.67,5.94,2.32,8.95C173.9,125.36,174.22,127.02,174.54,128.68z"/>
							<path class="st3" d="M169,100.41c0.6,1.84,1.13,3.65,1.59,5.42c-0.55-1.07-1.16-2.11-1.86-2.99c-0.71-0.88-1.5-1.6-2.42-2.02
								c-2.08-0.93-4.81-0.34-7.54,0.25c1.29-5.95,2.57-11.92,1.83-15.93c1.12,0.89,2.18,2.11,3.15,3.55
								c1.1,1.59,2.08,3.49,2.95,5.51C167.57,96.21,168.33,98.34,169,100.41z"/>
						</g>
					</g>
				</g>
				<g id="Text">
					<path class="st0" d="M110.27,146.54l-6.18-10.93l0.76,9.03c0.07,0.83,0.2,1.34,0.4,1.53c0.27,0.26,0.67,0.37,1.2,0.32
						l0.48-0.04l0.03,0.37l-4.7,0.39l-0.03-0.37l0.48-0.04c0.57-0.05,0.96-0.25,1.17-0.62c0.13-0.23,0.16-0.72,0.1-1.47l-0.74-8.83
						c-0.05-0.6-0.15-1.02-0.31-1.28c-0.11-0.18-0.29-0.33-0.55-0.44s-0.67-0.14-1.22-0.09l-0.03-0.37l3.83-0.32l5.79,10.16
						l3.94-10.98l3.83-0.32l0.03,0.37l-0.47,0.04c-0.58,0.05-0.97,0.26-1.18,0.62c-0.13,0.23-0.16,0.72-0.1,1.47l0.74,8.83
						c0.07,0.83,0.21,1.34,0.41,1.53c0.27,0.26,0.67,0.37,1.2,0.32l0.47-0.04l0.03,0.37l-5.74,0.48l-0.03-0.37l0.48-0.04
						c0.58-0.05,0.97-0.26,1.17-0.62c0.13-0.23,0.16-0.72,0.1-1.47l-0.76-9.03l-4.26,11.81L110.27,146.54z"/>
					<path class="st0" d="M125.77,143.92c-0.88,0.8-1.43,1.27-1.66,1.4c-0.35,0.2-0.72,0.31-1.13,0.35
						c-0.63,0.05-1.17-0.12-1.61-0.52c-0.45-0.4-0.7-0.95-0.76-1.65c-0.04-0.45,0.03-0.84,0.2-1.18c0.23-0.47,0.67-0.94,1.31-1.39
						c0.64-0.46,1.72-1.03,3.24-1.74l-0.03-0.36c-0.08-0.91-0.27-1.52-0.59-1.84c-0.32-0.31-0.75-0.45-1.3-0.4
						c-0.42,0.04-0.74,0.18-0.97,0.42c-0.23,0.25-0.34,0.52-0.31,0.81l0.07,0.58c0.03,0.31-0.03,0.55-0.17,0.73s-0.34,0.28-0.59,0.3
						s-0.45-0.05-0.63-0.21c-0.17-0.16-0.27-0.39-0.29-0.69c-0.05-0.57,0.2-1.12,0.75-1.65c0.54-0.53,1.35-0.84,2.4-0.92
						c0.81-0.07,1.49,0.01,2.03,0.24c0.41,0.17,0.73,0.47,0.95,0.89c0.14,0.28,0.25,0.85,0.33,1.74l0.26,3.1
						c0.07,0.87,0.13,1.4,0.18,1.6c0.05,0.19,0.12,0.32,0.2,0.38c0.08,0.06,0.17,0.09,0.27,0.08c0.11-0.01,0.2-0.04,0.27-0.09
						c0.13-0.1,0.38-0.36,0.75-0.79l0.05,0.56c-0.66,1.06-1.33,1.62-2.01,1.67c-0.33,0.03-0.59-0.06-0.81-0.27
						C125.96,144.84,125.82,144.46,125.77,143.92z M125.72,143.27l-0.29-3.48c-0.97,0.48-1.59,0.82-1.87,1.01
						c-0.5,0.34-0.85,0.67-1.05,1.01c-0.2,0.34-0.28,0.7-0.25,1.07c0.04,0.48,0.22,0.86,0.53,1.16c0.31,0.29,0.65,0.42,1.03,0.39
						C124.31,144.39,124.95,144.01,125.72,143.27z"/>
					<path class="st0" d="M131.8,137.22c0.96-1.38,1.93-2.11,2.9-2.19c0.5-0.04,0.94,0.05,1.32,0.27s0.7,0.61,0.96,1.16
						c0.18,0.39,0.3,0.99,0.37,1.82l0.33,3.9c0.05,0.58,0.13,0.97,0.24,1.16c0.09,0.16,0.22,0.28,0.39,0.36s0.48,0.1,0.91,0.06
						l0.03,0.36l-4.51,0.38l-0.03-0.36l0.19-0.02c0.43-0.04,0.72-0.12,0.88-0.27c0.16-0.14,0.26-0.34,0.31-0.6
						c0.02-0.1,0-0.42-0.04-0.94l-0.31-3.74c-0.07-0.83-0.23-1.42-0.48-1.78s-0.63-0.51-1.14-0.47c-0.79,0.07-1.54,0.56-2.25,1.49
						l0.4,4.81c0.05,0.62,0.12,1,0.21,1.14c0.11,0.19,0.25,0.32,0.42,0.39c0.17,0.08,0.5,0.09,1,0.05l0.03,0.36l-4.51,0.38
						l-0.03-0.36l0.2-0.02c0.47-0.04,0.77-0.18,0.91-0.43s0.19-0.71,0.13-1.37l-0.28-3.39c-0.09-1.1-0.17-1.76-0.24-2
						c-0.07-0.23-0.16-0.39-0.27-0.47s-0.25-0.11-0.42-0.09c-0.19,0.02-0.4,0.08-0.66,0.21l-0.18-0.35l2.66-1.35l0.43-0.04
						L131.8,137.22z"/>
					<path class="st0" d="M147.21,134.25l0.46,5.53c0.09,1.06,0.17,1.7,0.24,1.93s0.16,0.39,0.28,0.47s0.25,0.12,0.4,0.11
						c0.21-0.02,0.43-0.09,0.68-0.23l0.17,0.34l-2.64,1.35l-0.45,0.04l-0.16-1.93c-0.71,0.92-1.27,1.5-1.66,1.75
						s-0.82,0.4-1.28,0.44c-0.51,0.04-0.97-0.07-1.37-0.33s-0.69-0.62-0.88-1.08c-0.19-0.45-0.31-1.1-0.38-1.96l-0.34-4.08
						c-0.04-0.43-0.11-0.73-0.21-0.89c-0.11-0.16-0.26-0.27-0.45-0.35c-0.19-0.07-0.52-0.09-1-0.04l-0.03-0.37l3.2-0.27l0.51,6.11
						c0.07,0.85,0.27,1.4,0.58,1.64c0.32,0.24,0.69,0.34,1.1,0.31c0.29-0.02,0.6-0.14,0.95-0.35c0.35-0.21,0.75-0.59,1.2-1.13
						l-0.43-5.17c-0.04-0.52-0.17-0.86-0.37-1.03c-0.21-0.17-0.61-0.23-1.21-0.2l-0.03-0.37L147.21,134.25z"/>
					<path class="st0" d="M155.29,133.3l0.26,3.11l-0.33,0.03c-0.33-0.96-0.71-1.59-1.14-1.91s-0.94-0.45-1.55-0.4
						c-0.46,0.04-0.83,0.19-1.1,0.46c-0.26,0.27-0.38,0.55-0.36,0.85c0.03,0.37,0.16,0.68,0.4,0.93c0.23,0.25,0.67,0.51,1.33,0.76
						l1.51,0.59c1.41,0.54,2.15,1.35,2.24,2.43c0.07,0.83-0.19,1.53-0.77,2.09c-0.59,0.56-1.27,0.87-2.04,0.94
						c-0.56,0.05-1.2,0-1.94-0.14c-0.22-0.05-0.41-0.07-0.55-0.05c-0.15,0.01-0.27,0.11-0.34,0.29l-0.33,0.03l-0.27-3.26l0.33-0.03
						c0.26,0.91,0.68,1.58,1.24,2.01c0.56,0.43,1.17,0.61,1.82,0.56c0.46-0.04,0.82-0.2,1.09-0.5c0.27-0.29,0.38-0.63,0.35-1.01
						c-0.04-0.46-0.23-0.83-0.58-1.12s-1.02-0.63-2.03-1.02c-1-0.4-1.67-0.78-2-1.14c-0.33-0.35-0.52-0.82-0.57-1.4
						c-0.06-0.75,0.14-1.4,0.62-1.95c0.47-0.55,1.12-0.86,1.93-0.93c0.36-0.03,0.8,0.01,1.33,0.12c0.35,0.07,0.58,0.1,0.69,0.09
						c0.11-0.01,0.19-0.04,0.24-0.09c0.06-0.05,0.12-0.16,0.18-0.33L155.29,133.3z"/>
				</g>
				<g id="Penna">
					<g id="SPLINE_4474_">
						<g id="XMLID_5_">
							<g>
								<path class="st0" d="M227.36,131.22c2,2.03,2.89,4.4,1.99,5.29c-0.91,1.06-1.83,2.13-2.74,3.2
									c-3.92,4.58-7.85,9.15-12.01,13.49c-2.79,2.91-5.69,5.72-8.58,8.52c-0.15-0.12-0.3-0.24-0.46-0.36
									c-1.62-1.27-3.23-2.55-4.66-4c-1.43-1.45-2.7-3.07-3.94-4.71c-0.11-0.16-0.23-0.31-0.35-0.46c2.84-2.86,5.69-5.72,8.63-8.47
									c3.55-3.33,7.25-6.5,10.98-9.63c0.88-0.74,1.77-1.48,2.66-2.22c0.63-0.53,1.26-1.06,1.9-1.58c0.44-0.37,0.89-0.74,1.33-1.11
									C223,128.27,225.35,129.19,227.36,131.22z"/>
								<path class="st0" d="M220.76,130.28c-0.63,0.53-1.26,1.06-1.9,1.58c-0.89,0.74-1.77,1.48-2.66,2.22c-0.79,0-1.59,0-2.37,0.1
									c-1.08,0.13-2.13,0.46-3.14,0.91s-1.98,1.04-2.87,1.68c-1.8,1.3-3.33,2.87-4.78,4.51c-1.66,1.87-3.21,3.82-4.73,5.8
									c-0.92,1.21-1.83,2.42-2.79,3.6c-1.88,2.3-3.98,4.42-6.07,6.54c-0.06,0.53-0.49,1.31-0.93,1.71
									c-1.08,1.07-2.62,1.27-3.44,0.44s-0.61-2.36,0.47-3.44c1.08-1.07,2.62-1.27,3.44-0.44c0.72-0.65,1.43-1.29,2.06-2
									c1.18-1.35,2.02-2.96,2.9-4.54c1.56-2.8,3.22-5.51,5.21-7.99c1.48-1.83,3.13-3.53,4.92-5.08c0.7-0.61,1.42-1.19,2.17-1.73
									c1.39-1.02,2.85-1.92,4.41-2.67c1.55-0.75,3.2-1.34,4.97-1.75c0.8-0.19,1.62-0.34,2.42-0.34c0.66,0,1.29,0.1,1.87,0.37
									C220.2,129.93,220.48,130.1,220.76,130.28z"/>
								<path class="st0" d="M205.55,161.37c0.15,0.12,0.3,0.24,0.46,0.36c-0.12,0.16-0.25,0.3-0.39,0.44
									c-0.28,0.28-0.61,0.5-0.94,0.73c-0.25-0.2-0.52-0.4-0.8-0.62c-0.5-0.39-1.03-0.82-1.56-1.25c-0.66-0.55-1.32-1.11-1.94-1.7
									c-0.63-0.59-1.23-1.22-1.81-1.86c-0.78-0.88-1.51-1.79-2.21-2.7c-0.11-0.14-0.23-0.29-0.33-0.43
									c-0.23-0.3-0.45-0.59-0.61-0.8c0.23-0.34,0.46-0.67,0.74-0.94c0.14-0.14,0.29-0.26,0.45-0.38c0.12,0.16,0.24,0.31,0.35,0.46
									c-0.13,0.11-0.26,0.21-0.39,0.33c-0.12,0.12-0.23,0.26-0.34,0.39c-0.03,0.04-0.06,0.08-0.09,0.12
									c1.25,1.62,2.5,3.25,3.93,4.7c1.42,1.44,3.03,2.71,4.64,3.98c0.04-0.03,0.08-0.06,0.12-0.09c0.14-0.11,0.27-0.22,0.4-0.34
									C205.34,161.63,205.44,161.5,205.55,161.37z"/>
								<path class="st3" d="M205.55,161.37c-0.11,0.13-0.22,0.26-0.33,0.38c-0.12,0.12-0.26,0.23-0.4,0.34
									c-0.04,0.03-0.08,0.06-0.12,0.09c-1.61-1.27-3.22-2.54-4.64-3.98c-1.43-1.45-2.68-3.08-3.93-4.7
									c0.03-0.04,0.06-0.08,0.09-0.12c0.11-0.13,0.22-0.27,0.34-0.39s0.25-0.22,0.39-0.33c1.24,1.64,2.51,3.26,3.94,4.71
									C202.32,158.82,203.93,160.1,205.55,161.37z"/>
								<path class="st0" d="M202.32,161.02c0.53,0.44,1.06,0.86,1.56,1.25c-1.85,2.37-3.69,4.74-5.64,7.03
									c-1.67,1.96-3.42,3.87-5.25,5.69c-1.83,1.81-3.76,3.52-5.79,5.1c-1.75,1.36-3.58,2.62-5.41,3.87
									c-0.09-0.07-0.19-0.13-0.28-0.21c-0.16-0.12-0.33-0.24-0.5-0.37c-1.23-0.91-2.44-1.85-3.5-2.93
									c-1.07-1.07-1.99-2.29-2.88-3.53c-0.12-0.17-0.24-0.33-0.36-0.5c-0.07-0.09-0.13-0.19-0.2-0.28
									c1.28-1.82,2.55-3.63,3.93-5.37c1.6-2.02,3.34-3.92,5.17-5.74c1.84-1.81,3.77-3.53,5.75-5.18c2.32-1.92,4.71-3.74,7.1-5.55
									c0.11,0.14,0.22,0.29,0.33,0.43c0.71,0.92,1.43,1.83,2.21,2.7c0.57,0.64,1.18,1.27,1.81,1.86
									C201,159.91,201.65,160.48,202.32,161.02z"/>
								<path class="st0" d="M181.5,183.77c-0.1,0.07-0.2,0.14-0.3,0.22c-0.08,0.07-0.17,0.15-0.24,0.24
									c-0.09,0.1-0.17,0.22-0.25,0.33c-0.16-0.11-0.32-0.23-0.47-0.34c0.07-0.1,0.16-0.24,0.29-0.39c0.13-0.14,0.27-0.26,0.4-0.37
									c0.03-0.02,0.05-0.04,0.08-0.06C181.17,183.52,181.34,183.65,181.5,183.77z"/>
								<path class="st3" d="M181.01,183.4c-0.03,0.02-0.05,0.04-0.08,0.06c-0.13,0.1-0.27,0.22-0.4,0.37
									c-0.13,0.15-0.22,0.29-0.29,0.39c-1.26-0.91-2.49-1.83-3.57-2.92s-1.99-2.34-2.88-3.6c0.1-0.06,0.25-0.16,0.4-0.28
									c0.14-0.12,0.27-0.26,0.37-0.4c0.02-0.03,0.04-0.05,0.06-0.07c0.9,1.24,1.82,2.46,2.88,3.53
									C178.57,181.55,179.78,182.49,181.01,183.4z"/>
								<path class="st0" d="M180.24,184.22c0.16,0.11,0.31,0.23,0.47,0.34c-1.53,0.93-3.06,1.87-4.59,2.84
									c-1.86,1.18-3.74,2.4-5.18,4.01c-1.1,1.22-1.95,2.67-2.8,4.11c-0.25-0.17-0.5-0.33-0.74-0.49c-0.22,0.25-0.41,0.46-0.6,0.68
									c-0.6,0.68-1.17,1.36-1.67,2.08c-0.34,0.49-0.65,1-0.92,1.53c-0.28,0.53-0.52,1.08-0.75,1.64c-0.35,0.85-0.64,1.72-1,2.75
									c-0.9,0.26-1.65,0.47-2.4,0.7c-1.5,0.44-3,0.9-4.48,1.4c-0.98,0.33-1.94,0.69-2.89,1.07c-0.62,0.25-1.24,0.51-2.09,0.87
									c0.02,0.09,0.02,0.26-0.01,0.35c-0.1,0.47-0.56,0.77-1.03,0.68c-0.47-0.1-0.77-0.56-0.67-1.03s0.56-0.77,1.03-0.68
									c0.37-0.85,0.63-1.46,0.89-2.08c0.39-0.95,0.76-1.91,1.1-2.88c0.52-1.48,1-2.97,1.46-4.46c0.23-0.75,0.45-1.5,0.73-2.39
									c1.03-0.34,1.91-0.63,2.76-0.96c0.56-0.22,1.11-0.46,1.65-0.73c0.53-0.27,1.04-0.57,1.54-0.9c0.72-0.5,1.42-1.06,2.1-1.65
									c0.22-0.19,0.43-0.38,0.69-0.6c-0.16-0.25-0.33-0.5-0.49-0.74c1.46-0.84,2.91-1.67,4.15-2.75c1.62-1.42,2.87-3.28,4.07-5.13
									c0.99-1.52,1.94-3.04,2.89-4.56c0.11,0.16,0.22,0.32,0.34,0.48c0.89,1.26,1.8,2.51,2.88,3.6
									C177.75,182.38,178.98,183.31,180.24,184.22z M166.36,195.32c0.19-0.21,0.37-0.42,0.56-0.63c-0.74-0.52-1.46-1.06-2.08-1.69
									s-1.16-1.36-1.67-2.11c-0.19,0.17-0.41,0.36-0.63,0.55c-0.7,0.6-1.4,1.18-2.16,1.69c-0.5,0.33-1.01,0.64-1.54,0.91
									s-1.08,0.51-1.63,0.73c-0.91,0.36-1.84,0.67-2.63,0.93c-0.18,0.6-0.41,1.36-0.64,2.11c-0.46,1.5-0.94,3-1.46,4.48
									c-0.34,0.98-0.71,1.94-1.11,2.89c-0.17,0.42-0.35,0.83-0.53,1.24l6.51-6.43c-0.49-0.63-0.48-1.63,0.02-2.25
									c0.63-0.85,1.83-1.03,2.67-0.4c0.85,0.63,1.03,1.83,0.4,2.68c-0.63,0.85-1.83,1.03-2.68,0.4l-6.51,6.43
									c0.42-0.18,0.84-0.35,1.25-0.52c0.95-0.38,1.92-0.74,2.9-1.07c1.49-0.51,2.99-0.96,4.5-1.41c0.75-0.22,1.51-0.44,2.12-0.61
									c0.27-0.78,0.59-1.71,0.96-2.62c0.23-0.55,0.47-1.1,0.75-1.63s0.59-1.04,0.93-1.53
									C165.17,196.71,165.75,196.01,166.36,195.32z"/>
								<path class="st0" d="M174.62,176.94c-0.02,0.02-0.04,0.05-0.06,0.07c-0.1,0.13-0.23,0.27-0.37,0.4
									c-0.15,0.13-0.29,0.22-0.4,0.28c-0.11-0.16-0.22-0.32-0.34-0.48c0.12-0.07,0.24-0.15,0.35-0.24
									c0.08-0.07,0.16-0.15,0.23-0.24c0.08-0.1,0.15-0.2,0.22-0.29C174.38,176.61,174.5,176.78,174.62,176.94z"/>
								<path class="st3" d="M166.91,194.69c-0.19,0.21-0.37,0.42-0.56,0.63c-0.6,0.69-1.19,1.39-1.71,2.14
									c-0.34,0.48-0.65,1-0.93,1.53c-0.27,0.53-0.52,1.07-0.75,1.63c-0.37,0.91-0.69,1.84-0.96,2.62
									c-0.61,0.17-1.36,0.39-2.12,0.61c-1.51,0.45-3.01,0.9-4.5,1.41c-0.98,0.33-1.95,0.69-2.9,1.07
									c-0.42,0.17-0.84,0.34-1.25,0.52l6.51-6.43c0.85,0.63,2.05,0.45,2.68-0.4c0.62-0.85,0.45-2.05-0.4-2.68
									c-0.85-0.62-2.04-0.45-2.67,0.4c-0.5,0.62-0.5,1.62-0.02,2.25l-6.51,6.43c0.18-0.41,0.36-0.83,0.53-1.24
									c0.4-0.96,0.77-1.92,1.11-2.89c0.53-1.48,1-2.98,1.46-4.48c0.23-0.75,0.46-1.5,0.64-2.11c0.79-0.26,1.72-0.57,2.63-0.93
									c0.56-0.22,1.1-0.46,1.63-0.73c0.53-0.27,1.05-0.58,1.54-0.91c0.75-0.51,1.46-1.09,2.16-1.69c0.22-0.19,0.44-0.38,0.63-0.55
									c0.51,0.75,1.05,1.47,1.67,2.11C165.46,193.63,166.17,194.18,166.91,194.69z"/>
							</g>
						</g>
					</g>
				</g>
			</g>
		</g>
	</g>
</g>
</svg>
