<?xml version="1.0" encoding="utf-8"?>
<!-- Generator: Adobe Illustrator 26.1.0, SVG Export Plug-In . SVG Version: 6.00 Build 0)  -->
<svg version="1.1" id="Lager_1" xmlns="http://www.w3.org/2000/svg" xmlns:xlink="http://www.w3.org/1999/xlink" x="0px" y="0px"
	 viewBox="0 0 283.46 283.46" style="enable-background:new 0 0 283.46 283.46;" xml:space="preserve">
<style type="text/css">
	.st0{fill:#1E2676;}
	.st1{fill:none;}
	.st2{fill:none;stroke:#FFFFFF;stroke-width:2;stroke-linecap:round;stroke-linejoin:round;}
	.st3{fill:none;stroke:#FFFFFF;stroke-width:2;stroke-linejoin:round;}
	.st4{fill:#FFFFFF;}
	.st5{fill:none;stroke:#1E2676;stroke-width:2;stroke-linecap:round;stroke-linejoin:round;}
	.st6{fill:#1E2676;stroke:#1E2676;stroke-width:2;}
</style>
<g id="Priser_2024">
	<g id="Olivkvist">
		<g id="SPLINE_3555_">
			<path class="st0" d="M130.12,249.38c-0.19-2.53-0.38-5.05-1.1-7.44l0,0c-1-3.29-2.99-6.32-5.5-8.74l0,0
				c-2.45-2.37-5.4-4.14-8.5-5.5l0,0c-2.74-1.19-5.6-2.06-8.5-2.79l0,0c-2.41-0.61-4.86-1.13-7.3-1.65"/>
		</g>
		<g id="LINE_2308_">
			<line class="st1" x1="99.23" y1="223.26" x2="130.12" y2="249.38"/>
		</g>
		<g id="SPLINE_3556_">
			<path class="st0" d="M130.12,249.38c-2.52,0.23-5.04,0.47-7.53,0.16l0,0c-3.4-0.44-6.73-1.9-9.53-3.97l0,0
				c-2.74-2.03-4.98-4.63-6.83-7.47l0,0c-1.63-2.5-2.96-5.18-4.17-7.91l0,0c-1.01-2.29-1.92-4.6-2.84-6.92"/>
		</g>
		<g id="SPLINE_3557_">
			<path class="st0" d="M133.81,258.16c-2.14-1.36-4.27-2.72-6.62-3.57l0,0c-3.22-1.17-6.86-1.39-10.29-0.83l0,0
				c-3.37,0.55-6.55,1.85-9.49,3.52l0,0c-2.6,1.48-5.01,3.25-7.32,5.13l0,0c-1.94,1.57-3.81,3.22-5.69,4.86"/>
		</g>
		<g id="LINE_2309_">
			<line class="st1" x1="94.4" y1="267.27" x2="133.81" y2="258.16"/>
		</g>
		<g id="SPLINE_3558_">
			<path class="st0" d="M133.81,258.16c-1.32,2.15-2.64,4.32-4.38,6.11l0,0c-2.38,2.47-5.55,4.26-8.89,5.26l0,0
				c-3.27,0.98-6.69,1.21-10.07,1l0,0c-2.98-0.2-5.92-0.73-8.83-1.4l0,0c-2.43-0.57-4.84-1.22-7.24-1.87"/>
		</g>
		<g id="SPLINE_3559_">
			<path class="st0" d="M93.26,241.45c1.15-2.25,2.29-4.52,2.91-6.94l0,0c0.85-3.32,0.72-6.95-0.18-10.33l0,0
				c-0.87-3.29-2.47-6.33-4.43-9.09l0,0c-1.73-2.44-3.72-4.66-5.82-6.79l0,0c-1.75-1.78-3.57-3.48-5.39-5.19"/>
		</g>
		<g id="LINE_2310_">
			<line class="st1" x1="80.35" y1="203.12" x2="93.26" y2="241.45"/>
		</g>
		<g id="SPLINE_3560_">
			<path class="st0" d="M93.26,241.45c-2.28-1.11-4.56-2.21-6.52-3.76l0,0c-2.69-2.13-4.77-5.11-6.1-8.33l0,0
				c-1.3-3.15-1.86-6.54-1.98-9.92l0,0c-0.1-2.98,0.14-5.97,0.53-8.93l0,0c0.33-2.47,0.74-4.93,1.16-7.39"/>
		</g>
		<g id="SPLINE_3561_">
			<path class="st0" d="M106.98,249.85c-2.02-1.52-4.04-3.05-6.32-4.09l0,0c-3.12-1.42-6.73-1.93-10.2-1.64l0,0
				c-3.4,0.29-6.67,1.33-9.73,2.76l0,0c-2.71,1.27-5.25,2.85-7.71,4.54l0,0c-2.06,1.41-4.06,2.9-6.05,4.39"/>
		</g>
		<g id="LINE_2311_">
			<line class="st1" x1="66.97" y1="255.81" x2="106.98" y2="249.85"/>
		</g>
		<g id="SPLINE_3562_">
			<path class="st0" d="M106.98,249.85c-1.49,2.04-2.97,4.1-4.85,5.75l0,0c-2.57,2.27-5.87,3.8-9.28,4.54l0,0
				c-3.33,0.73-6.77,0.68-10.12,0.21l0,0c-2.96-0.43-5.85-1.2-8.7-2.1l0,0c-2.38-0.75-4.73-1.6-7.07-2.43"/>
		</g>
		<g id="SPLINE_3563_">
			<path class="st0" d="M67.07,227.46c1.76-1.81,3.53-3.62,4.86-5.75l0,0c1.81-2.91,2.77-6.43,2.93-9.9l0,0
				c0.16-3.41-0.46-6.79-1.49-10.01l0,0c-0.91-2.85-2.15-5.57-3.52-8.22l0,0c-1.14-2.22-2.36-4.39-3.59-6.57"/>
		</g>
		<g id="LINE_2312_">
			<line class="st1" x1="66.27" y1="187.01" x2="67.07" y2="227.46"/>
		</g>
		<g id="SPLINE_3564_">
			<path class="st0" d="M67.07,227.46c-1.84-1.75-3.68-3.48-5.08-5.55l0,0c-1.93-2.85-3.02-6.31-3.32-9.78l0,0
				c-0.29-3.4,0.19-6.8,1.09-10.06l0,0c0.79-2.88,1.93-5.65,3.18-8.36l0,0c1.05-2.26,2.19-4.48,3.32-6.7"/>
		</g>
		<g id="SPLINE_3565_">
			<path class="st0" d="M82.13,240.58c-1.54-2.01-3.07-4.02-4.99-5.63l0,0c-2.62-2.21-5.96-3.66-9.38-4.32l0,0
				c-3.35-0.64-6.78-0.51-10.12,0.05l0,0c-2.95,0.5-5.82,1.33-8.65,2.3l0,0c-2.36,0.81-4.69,1.71-7.01,2.62"/>
		</g>
		<g id="LINE_2313_">
			<line class="st1" x1="41.99" y1="235.59" x2="82.13" y2="240.58"/>
		</g>
		<g id="SPLINE_3566_">
			<path class="st0" d="M82.13,240.58c-1.98,1.58-3.96,3.14-6.21,4.23l0,0c-3.09,1.5-6.68,2.1-10.16,1.89l0,0
				c-3.4-0.2-6.7-1.16-9.8-2.51l0,0c-2.73-1.21-5.32-2.72-7.82-4.35l0,0c-2.09-1.37-4.12-2.81-6.16-4.25"/>
		</g>
		<g id="SPLINE_3567_">
			<path class="st0" d="M47.61,209.85c2.12-1.38,4.24-2.76,6-4.54l0,0c2.41-2.45,4.11-5.66,5.03-9.02l0,0
				c0.89-3.29,1.04-6.72,0.73-10.09l0,0c-0.27-2.97-0.88-5.9-1.63-8.79l0,0c-0.62-2.42-1.35-4.8-2.06-7.19"/>
		</g>
		<g id="LINE_2314_">
			<line class="st1" x1="55.67" y1="170.21" x2="47.61" y2="209.85"/>
		</g>
		<g id="SPLINE_3568_">
			<path class="st0" d="M47.61,209.85c-1.41-2.1-2.83-4.2-3.75-6.52l0,0c-1.26-3.19-1.57-6.82-1.1-10.27l0,0
				c0.46-3.38,1.67-6.59,3.27-9.58l0,0c1.41-2.64,3.12-5.09,4.93-7.46l0,0c1.52-1.98,3.11-3.9,4.71-5.82"/>
		</g>
		<g id="SPLINE_3569_">
			<path class="st0" d="M60.39,225.74c-1.12-2.27-2.24-4.54-3.81-6.48l0,0c-2.15-2.67-5.15-4.74-8.38-6.04l0,0
				c-3.16-1.27-6.56-1.81-9.93-1.9l0,0c-2.99-0.08-5.97,0.19-8.93,0.6l0,0c-2.47,0.34-4.93,0.77-7.38,1.21"/>
		</g>
		<g id="LINE_2315_">
			<line class="st1" x1="21.96" y1="213.12" x2="60.39" y2="225.74"/>
		</g>
		<g id="SPLINE_3570_">
			<path class="st0" d="M60.39,225.74c-2.25,1.17-4.5,2.33-6.91,2.97l0,0c-3.32,0.87-6.95,0.76-10.32-0.1l0,0
				c-3.3-0.85-6.35-2.43-9.13-4.36l0,0c-2.45-1.71-4.69-3.69-6.83-5.77l0,0c-1.79-1.75-3.51-3.55-5.23-5.35"/>
		</g>
		<g id="SPLINE_3571_">
			<path class="st0" d="M42.55,207.28c-0.64-2.45-1.29-4.9-2.44-7.12l0,0c-1.58-3.05-4.09-5.67-7-7.59l0,0
				c-2.85-1.88-6.06-3.08-9.36-3.85l0,0c-2.92-0.68-5.89-1.01-8.87-1.2l0,0c-2.49-0.16-4.98-0.22-7.47-0.29"/>
		</g>
		<g id="LINE_2316_">
			<line class="st1" x1="7.42" y1="187.23" x2="42.55" y2="207.28"/>
		</g>
		<g id="SPLINE_3572_">
			<path class="st0" d="M42.55,207.28c-2.43,0.69-4.87,1.38-7.37,1.52l0,0c-3.42,0.19-6.97-0.64-10.09-2.16l0,0
				c-3.07-1.49-5.74-3.65-8.08-6.1l0,0c-2.06-2.16-3.86-4.55-5.55-7.02l0,0c-1.41-2.06-2.73-4.18-4.05-6.29"/>
		</g>
		<g id="SPLINE_3573_">
			<path class="st0" d="M35.19,186.19c-0.36-2.5-0.72-5.01-1.61-7.35l0,0c-1.22-3.21-3.42-6.1-6.09-8.34l0,0
				c-2.61-2.19-5.67-3.76-8.85-4.9l0,0c-2.81-1-5.73-1.67-8.67-2.21l0,0c-2.45-0.44-4.92-0.79-7.39-1.14"/>
		</g>
		<g id="LINE_2317_">
			<line class="st1" x1="2.59" y1="162.25" x2="35.19" y2="186.19"/>
		</g>
		<g id="SPLINE_3574_">
			<path class="st0" d="M35.19,186.19c-2.5,0.41-5,0.81-7.49,0.67l0,0c-3.42-0.2-6.85-1.43-9.78-3.3l0,0
				c-2.88-1.84-5.29-4.28-7.32-6.98l0,0c-1.8-2.39-3.31-4.97-4.7-7.61l0,0c-1.17-2.21-2.23-4.46-3.31-6.71"/>
		</g>
		<g id="SPLINE_3575_">
			<path class="st0" d="M27.29,164.92c0.61-2.46,1.22-4.91,1.29-7.41l0,0c0.09-3.43-0.85-6.94-2.47-10.02l0,0
				c-1.59-3.02-3.83-5.63-6.35-7.88l0,0c-2.23-2-4.67-3.72-7.19-5.32l0,0c-2.1-1.34-4.26-2.6-6.41-3.86"/>
		</g>
		<g id="LINE_2318_">
			<line class="st1" x1="6.15" y1="130.42" x2="27.29" y2="164.92"/>
		</g>
		<g id="SPLINE_3576_">
			<path class="st0" d="M27.29,164.92c-2.47-0.57-4.93-1.14-7.19-2.22l0,0c-3.09-1.48-5.79-3.92-7.8-6.76l0,0
				c-1.97-2.79-3.27-5.96-4.14-9.23l0,0c-0.77-2.89-1.19-5.85-1.48-8.82l0,0c-0.23-2.48-0.38-4.97-0.52-7.46"/>
		</g>
		<g id="SPLINE_3577_">
			<path class="st0" d="M37.79,181.54c2.22-1.21,4.45-2.42,6.33-4.06l0,0c2.59-2.25,4.54-5.32,5.72-8.6l0,0
				c1.15-3.21,1.56-6.62,1.53-10l0,0c-0.03-2.99-0.42-5.96-0.94-8.9l0,0c-0.43-2.46-0.96-4.9-1.48-7.33"/>
		</g>
		<g id="LINE_2319_">
			<line class="st1" x1="48.94" y1="142.66" x2="37.79" y2="181.54"/>
		</g>
		<g id="SPLINE_3578_">
			<path class="st0" d="M37.79,181.54c-1.25-2.2-2.49-4.41-3.22-6.8l0,0c-1-3.28-1.03-6.92-0.29-10.32l0,0
				c0.73-3.33,2.19-6.44,4.01-9.29l0,0c1.61-2.52,3.52-4.83,5.51-7.05l0,0c1.67-1.85,3.41-3.64,5.15-5.42"/>
		</g>
		<g id="SPLINE_3579_">
			<path class="st0" d="M30.84,151.58c2.44-0.68,4.88-1.36,7.08-2.53l0,0c3.03-1.62,5.62-4.17,7.49-7.11l0,0
				c1.84-2.87,3.01-6.1,3.72-9.41l0,0c0.64-2.92,0.93-5.9,1.08-8.88l0,0c0.13-2.49,0.16-4.98,0.19-7.48"/>
		</g>
		<g id="LINE_2320_">
			<line class="st1" x1="50.41" y1="116.18" x2="30.84" y2="151.58"/>
		</g>
		<g id="SPLINE_3580_">
			<path class="st0" d="M30.84,151.58c-0.72-2.42-1.44-4.85-1.62-7.34l0,0c-0.24-3.42,0.55-6.98,2.02-10.13l0,0
				c1.45-3.09,3.57-5.79,5.99-8.16l0,0c2.14-2.09,4.5-3.93,6.94-5.64l0,0c2.04-1.44,4.14-2.79,6.24-4.14"/>
		</g>
		<g id="SPLINE_3581_">
			<path class="st0" d="M25.88,136.6c1.4-2.11,2.81-4.22,3.7-6.55l0,0c1.23-3.2,1.52-6.83,1.02-10.27l0,0
				c-0.49-3.38-1.72-6.58-3.34-9.55l0,0c-1.43-2.63-3.16-5.07-4.99-7.42l0,0c-1.54-1.97-3.14-3.87-4.75-5.78"/>
		</g>
		<g id="LINE_2321_">
			<line class="st1" x1="17.53" y1="97.02" x2="25.88" y2="136.6"/>
		</g>
		<g id="SPLINE_3582_">
			<path class="st0" d="M25.88,136.6c-2.13-1.36-4.26-2.73-6.03-4.5l0,0c-2.42-2.43-4.15-5.63-5.09-8.98l0,0
				c-0.92-3.28-1.09-6.72-0.81-10.08l0,0c0.25-2.98,0.84-5.91,1.57-8.81l0,0c0.61-2.42,1.3-4.81,2-7.21"/>
		</g>
		<g id="SPLINE_3583_">
			<path class="st0" d="M33.86,106.47c1.84-1.74,3.67-3.49,5.06-5.56l0,0c1.91-2.85,3-6.32,3.28-9.79l0,0
				c0.28-3.4-0.21-6.8-1.13-10.05l0,0c-0.81-2.88-1.95-5.65-3.22-8.35l0,0c-1.05-2.26-2.2-4.48-3.34-6.69"/>
		</g>
		<g id="LINE_2322_">
			<line class="st1" x1="34.52" y1="66.02" x2="33.86" y2="106.47"/>
		</g>
		<g id="SPLINE_3584_">
			<path class="st0" d="M33.86,106.47c-1.78-1.8-3.55-3.61-4.88-5.73l0,0c-1.82-2.91-2.79-6.41-2.96-9.89l0,0
				c-0.16-3.41,0.44-6.79,1.46-10.01l0,0c0.91-2.85,2.14-5.58,3.48-8.24l0,0c1.13-2.22,2.35-4.4,3.57-6.58"/>
		</g>
		<g id="SPLINE_3585_">
			<path class="st0" d="M37.47,116.84c2.53,0.04,5.06,0.08,7.51-0.42l0,0c3.36-0.69,6.57-2.4,9.21-4.68l0,0
				c2.58-2.23,4.62-5,6.24-7.96l0,0c1.44-2.62,2.56-5.39,3.56-8.21l0,0c0.83-2.35,1.57-4.74,2.3-7.12"/>
		</g>
		<g id="LINE_2323_">
			<line class="st1" x1="66.29" y1="88.46" x2="37.47" y2="116.84"/>
		</g>
		<g id="SPLINE_3586_">
			<path class="st0" d="M37.47,116.84c0-2.53-0.01-5.06,0.53-7.5l0,0c0.74-3.35,2.51-6.53,4.82-9.13l0,0
				c2.27-2.55,5.07-4.54,8.06-6.12l0,0c2.64-1.4,5.43-2.48,8.26-3.43l0,0c2.36-0.79,4.76-1.5,7.15-2.2"/>
		</g>
		<g id="SPLINE_3587_">
			<path class="st0" d="M45.42,90.54c2.52-0.25,5.04-0.49,7.42-1.27l0,0c3.26-1.07,6.25-3.14,8.61-5.7l0,0
				c2.31-2.51,4.02-5.49,5.3-8.62l0,0c1.13-2.77,1.93-5.65,2.6-8.56l0,0c0.55-2.43,1.02-4.88,1.48-7.33"/>
		</g>
		<g id="LINE_2324_">
			<line class="st1" x1="70.81" y1="59.05" x2="45.42" y2="90.54"/>
		</g>
		<g id="SPLINE_3588_">
			<path class="st0" d="M45.42,90.54c-0.29-2.52-0.59-5.03-0.33-7.52l0,0c0.35-3.41,1.75-6.77,3.74-9.62l0,0
				c1.97-2.79,4.52-5.09,7.31-7l0,0c2.46-1.69,5.11-3.09,7.81-4.35l0,0c2.26-1.06,4.56-2.03,6.86-3"/>
		</g>
		<g id="CIRCLE_234_">
			<path class="st0" d="M148.23,254.6c0-2.99-2.43-5.42-5.42-5.42s-5.42,2.43-5.42,5.42c0,2.99,2.43,5.42,5.42,5.42
				S148.23,257.59,148.23,254.6L148.23,254.6L148.23,254.6z"/>
		</g>
		<g id="SPLINE_3589_">
			<path class="st0" d="M155.49,249.38c0.19-2.53,0.38-5.05,1.1-7.44l0,0c0.99-3.29,3-6.32,5.49-8.74l0,0
				c2.46-2.37,5.4-4.14,8.5-5.5l0,0c2.73-1.19,5.6-2.06,8.5-2.79l0,0c2.41-0.61,4.86-1.13,7.3-1.65"/>
		</g>
		<g id="LINE_2325_">
			<line class="st1" x1="186.38" y1="223.26" x2="155.49" y2="249.38"/>
		</g>
		<g id="SPLINE_3590_">
			<path class="st0" d="M155.49,249.38c2.52,0.23,5.04,0.47,7.52,0.16l0,0c3.41-0.44,6.73-1.9,9.53-3.97l0,0
				c2.75-2.03,4.98-4.63,6.83-7.47l0,0c1.63-2.5,2.97-5.18,4.17-7.91l0,0c1-2.29,1.92-4.6,2.84-6.92"/>
		</g>
		<g id="SPLINE_3591_">
			<path class="st0" d="M151.79,258.16c2.14-1.36,4.27-2.72,6.62-3.57l0,0c3.22-1.17,6.86-1.39,10.29-0.83l0,0
				c3.37,0.55,6.55,1.85,9.49,3.52l0,0c2.6,1.48,5.01,3.25,7.32,5.13l0,0c1.94,1.57,3.82,3.22,5.69,4.86"/>
		</g>
		<g id="LINE_2326_">
			<line class="st1" x1="191.21" y1="267.27" x2="151.79" y2="258.16"/>
		</g>
		<g id="SPLINE_3592_">
			<path class="st0" d="M151.79,258.16c1.32,2.15,2.64,4.32,4.38,6.11l0,0c2.38,2.47,5.55,4.26,8.89,5.26l0,0
				c3.26,0.98,6.69,1.21,10.06,1l0,0c2.99-0.2,5.93-0.73,8.83-1.4l0,0c2.43-0.57,4.84-1.22,7.25-1.87"/>
		</g>
		<g id="SPLINE_3593_">
			<path class="st0" d="M192.35,241.45c-1.15-2.25-2.29-4.52-2.91-6.94l0,0c-0.85-3.32-0.72-6.95,0.18-10.33l0,0
				c0.88-3.29,2.48-6.33,4.43-9.09l0,0c1.73-2.44,3.73-4.66,5.83-6.79l0,0c1.75-1.78,3.57-3.48,5.39-5.19"/>
		</g>
		<g id="LINE_2327_">
			<line class="st1" x1="205.26" y1="203.12" x2="192.35" y2="241.45"/>
		</g>
		<g id="SPLINE_3594_">
			<path class="st0" d="M192.35,241.45c2.28-1.11,4.55-2.21,6.51-3.76l0,0c2.69-2.13,4.78-5.11,6.11-8.33l0,0
				c1.29-3.15,1.86-6.54,1.98-9.92l0,0c0.1-2.98-0.15-5.97-0.54-8.93l0,0c-0.32-2.47-0.74-4.93-1.15-7.39"/>
		</g>
		<g id="SPLINE_3595_">
			<path class="st0" d="M178.63,249.85c2.02-1.52,4.04-3.05,6.31-4.09l0,0c3.12-1.42,6.73-1.93,10.2-1.64l0,0
				c3.4,0.29,6.67,1.33,9.74,2.76l0,0c2.7,1.27,5.25,2.85,7.71,4.54l0,0c2.06,1.41,4.06,2.9,6.05,4.39"/>
		</g>
		<g id="LINE_2328_">
			<line class="st1" x1="218.64" y1="255.81" x2="178.63" y2="249.85"/>
		</g>
		<g id="SPLINE_3596_">
			<path class="st0" d="M178.63,249.85c1.49,2.04,2.98,4.1,4.85,5.75l0,0c2.57,2.27,5.87,3.8,9.28,4.54l0,0
				c3.33,0.73,6.76,0.68,10.11,0.21l0,0c2.96-0.43,5.85-1.2,8.7-2.1l0,0c2.38-0.75,4.73-1.6,7.08-2.43"/>
		</g>
		<g id="SPLINE_3597_">
			<path class="st0" d="M218.54,227.46c-1.77-1.81-3.54-3.62-4.86-5.75l0,0c-1.81-2.91-2.77-6.43-2.93-9.9l0,0
				c-0.16-3.41,0.46-6.79,1.49-10.01l0,0c0.91-2.85,2.15-5.57,3.52-8.22l0,0c1.14-2.22,2.36-4.39,3.59-6.57"/>
		</g>
		<g id="LINE_2329_">
			<line class="st1" x1="219.34" y1="187.01" x2="218.54" y2="227.46"/>
		</g>
		<g id="SPLINE_3598_">
			<path class="st0" d="M218.54,227.46c1.84-1.75,3.68-3.48,5.08-5.55l0,0c1.93-2.85,3.02-6.31,3.32-9.78l0,0
				c0.29-3.4-0.19-6.8-1.09-10.06l0,0c-0.8-2.88-1.93-5.65-3.18-8.36l0,0c-1.05-2.26-2.19-4.48-3.32-6.7"/>
		</g>
		<g id="SPLINE_3599_">
			<path class="st0" d="M203.47,240.58c1.54-2.01,3.08-4.02,4.99-5.63l0,0c2.62-2.21,5.96-3.66,9.38-4.32l0,0
				c3.35-0.64,6.78-0.51,10.12,0.05l0,0c2.95,0.5,5.82,1.33,8.65,2.3l0,0c2.36,0.81,4.68,1.71,7.01,2.62"/>
		</g>
		<g id="LINE_2330_">
			<line class="st1" x1="243.62" y1="235.59" x2="203.47" y2="240.58"/>
		</g>
		<g id="SPLINE_3600_">
			<path class="st0" d="M203.47,240.58c1.99,1.58,3.96,3.14,6.22,4.23l0,0c3.08,1.5,6.68,2.1,10.15,1.89l0,0
				c3.41-0.2,6.71-1.16,9.8-2.51l0,0c2.73-1.21,5.31-2.72,7.81-4.35l0,0c2.1-1.37,4.13-2.81,6.17-4.25"/>
		</g>
		<g id="SPLINE_3601_">
			<path class="st0" d="M238,209.85c-2.12-1.38-4.25-2.76-6-4.54l0,0c-2.4-2.45-4.1-5.66-5.02-9.02l0,0
				c-0.9-3.29-1.04-6.72-0.74-10.09l0,0c0.27-2.97,0.89-5.9,1.63-8.79l0,0c0.62-2.42,1.34-4.8,2.06-7.19"/>
		</g>
		<g id="LINE_2331_">
			<line class="st1" x1="229.94" y1="170.21" x2="238" y2="209.85"/>
		</g>
		<g id="SPLINE_3602_">
			<path class="st0" d="M238,209.85c1.41-2.1,2.83-4.2,3.74-6.52l0,0c1.26-3.19,1.57-6.82,1.1-10.27l0,0
				c-0.46-3.38-1.67-6.59-3.26-9.58l0,0c-1.41-2.64-3.12-5.09-4.93-7.46l0,0c-1.52-1.98-3.11-3.9-4.71-5.82"/>
		</g>
		<g id="SPLINE_3603_">
			<path class="st0" d="M225.22,225.74c1.12-2.27,2.24-4.54,3.81-6.48l0,0c2.16-2.67,5.15-4.74,8.38-6.04l0,0
				c3.16-1.27,6.56-1.81,9.93-1.9l0,0c2.99-0.08,5.97,0.19,8.92,0.6l0,0c2.47,0.34,4.93,0.77,7.38,1.21"/>
		</g>
		<g id="LINE_2332_">
			<line class="st1" x1="263.65" y1="213.12" x2="225.22" y2="225.74"/>
		</g>
		<g id="SPLINE_3604_">
			<path class="st0" d="M225.22,225.74c2.25,1.17,4.49,2.33,6.91,2.97l0,0c3.31,0.87,6.95,0.76,10.32-0.1l0,0
				c3.3-0.85,6.35-2.43,9.13-4.36l0,0c2.45-1.71,4.7-3.69,6.83-5.77l0,0c1.79-1.75,3.51-3.55,5.23-5.35"/>
		</g>
		<g id="SPLINE_3605_">
			<path class="st0" d="M243.06,207.28c0.64-2.45,1.29-4.9,2.43-7.12l0,0c1.58-3.05,4.1-5.67,7-7.59l0,0
				c2.84-1.88,6.06-3.08,9.36-3.85l0,0c2.91-0.68,5.88-1.01,8.87-1.2l0,0c2.49-0.16,4.98-0.22,7.47-0.29"/>
		</g>
		<g id="LINE_2333_">
			<line class="st1" x1="278.19" y1="187.23" x2="243.06" y2="207.28"/>
		</g>
		<g id="SPLINE_3606_">
			<path class="st0" d="M243.06,207.28c2.43,0.69,4.87,1.38,7.36,1.52l0,0c3.43,0.19,6.97-0.64,10.1-2.16l0,0
				c3.07-1.49,5.74-3.65,8.08-6.1l0,0c2.06-2.16,3.86-4.55,5.54-7.02l0,0c1.41-2.06,2.73-4.18,4.06-6.29"/>
		</g>
		<g id="SPLINE_3607_">
			<path class="st0" d="M250.41,186.19c0.36-2.5,0.72-5.01,1.61-7.35l0,0c1.22-3.21,3.42-6.1,6.09-8.34l0,0
				c2.61-2.19,5.66-3.76,8.85-4.9l0,0c2.81-1,5.73-1.67,8.67-2.21l0,0c2.45-0.44,4.93-0.79,7.39-1.14"/>
		</g>
		<g id="LINE_2334_">
			<line class="st1" x1="283.02" y1="162.25" x2="250.41" y2="186.19"/>
		</g>
		<g id="SPLINE_3608_">
			<path class="st0" d="M250.41,186.19c2.5,0.41,5,0.81,7.49,0.67l0,0c3.42-0.2,6.85-1.43,9.78-3.3l0,0
				c2.87-1.84,5.29-4.28,7.32-6.98l0,0c1.8-2.39,3.31-4.97,4.7-7.61l0,0c1.16-2.21,2.23-4.46,3.31-6.71"/>
		</g>
		<g id="SPLINE_3609_">
			<path class="st0" d="M258.32,164.92c-0.61-2.46-1.22-4.91-1.29-7.41l0,0c-0.09-3.43,0.85-6.94,2.47-10.02l0,0
				c1.59-3.02,3.82-5.63,6.34-7.88l0,0c2.23-2,4.67-3.72,7.19-5.32l0,0c2.1-1.34,4.26-2.6,6.41-3.86"/>
		</g>
		<g id="LINE_2335_">
			<line class="st1" x1="279.45" y1="130.42" x2="258.32" y2="164.92"/>
		</g>
		<g id="SPLINE_3610_">
			<path class="st0" d="M258.32,164.92c2.47-0.57,4.93-1.14,7.19-2.22l0,0c3.1-1.48,5.8-3.92,7.81-6.76l0,0
				c1.97-2.79,3.27-5.96,4.14-9.23l0,0c0.77-2.89,1.19-5.85,1.47-8.82l0,0c0.24-2.48,0.38-4.97,0.52-7.46"/>
		</g>
		<g id="SPLINE_3611_">
			<path class="st0" d="M247.82,181.54c-2.23-1.21-4.45-2.42-6.33-4.06l0,0c-2.59-2.25-4.54-5.32-5.72-8.6l0,0
				c-1.16-3.21-1.57-6.62-1.53-10l0,0c0.03-2.99,0.42-5.96,0.93-8.9l0,0c0.44-2.46,0.96-4.9,1.49-7.33"/>
		</g>
		<g id="LINE_2336_">
			<line class="st1" x1="236.66" y1="142.66" x2="247.82" y2="181.54"/>
		</g>
		<g id="SPLINE_3612_">
			<path class="st0" d="M247.82,181.54c1.25-2.2,2.49-4.41,3.22-6.8l0,0c1-3.28,1.03-6.92,0.29-10.32l0,0
				c-0.72-3.33-2.18-6.44-4.01-9.29l0,0c-1.61-2.52-3.51-4.83-5.51-7.05l0,0c-1.67-1.85-3.41-3.64-5.15-5.42"/>
		</g>
		<g id="SPLINE_3613_">
			<path class="st0" d="M254.76,151.58c-2.43-0.68-4.88-1.36-7.08-2.53l0,0c-3.03-1.62-5.62-4.17-7.5-7.11l0,0
				c-1.84-2.87-3-6.1-3.72-9.41l0,0c-0.63-2.92-0.92-5.9-1.07-8.88l0,0c-0.13-2.49-0.16-4.98-0.19-7.48"/>
		</g>
		<g id="LINE_2337_">
			<line class="st1" x1="235.2" y1="116.18" x2="254.76" y2="151.58"/>
		</g>
		<g id="SPLINE_3614_">
			<path class="st0" d="M254.76,151.58c0.73-2.42,1.44-4.85,1.63-7.34l0,0c0.24-3.42-0.55-6.98-2.03-10.13l0,0
				c-1.45-3.09-3.57-5.79-5.98-8.16l0,0c-2.14-2.09-4.5-3.93-6.95-5.64l0,0c-2.04-1.44-4.13-2.79-6.23-4.14"/>
		</g>
		<g id="SPLINE_3615_">
			<path class="st0" d="M259.72,136.6c-1.4-2.11-2.8-4.22-3.7-6.55l0,0c-1.23-3.2-1.52-6.83-1.02-10.27l0,0
				c0.48-3.38,1.72-6.58,3.33-9.55l0,0c1.43-2.63,3.16-5.07,4.99-7.42l0,0c1.54-1.97,3.14-3.87,4.75-5.78"/>
		</g>
		<g id="LINE_2338_">
			<line class="st1" x1="268.08" y1="97.02" x2="259.72" y2="136.6"/>
		</g>
		<g id="SPLINE_3616_">
			<path class="st0" d="M259.72,136.6c2.13-1.36,4.27-2.73,6.03-4.5l0,0c2.42-2.43,4.15-5.63,5.08-8.98l0,0
				c0.92-3.28,1.09-6.72,0.81-10.08l0,0c-0.25-2.98-0.84-5.91-1.57-8.81l0,0c-0.61-2.42-1.31-4.81-2-7.21"/>
		</g>
		<g id="SPLINE_3617_">
			<path class="st0" d="M251.75,106.47c-1.84-1.74-3.67-3.49-5.07-5.56l0,0c-1.91-2.85-3-6.32-3.29-9.79l0,0
				c-0.27-3.4,0.21-6.8,1.13-10.05l0,0c0.81-2.88,1.95-5.65,3.21-8.35l0,0c1.06-2.26,2.21-4.48,3.35-6.69"/>
		</g>
		<g id="LINE_2339_">
			<line class="st1" x1="251.08" y1="66.02" x2="251.75" y2="106.47"/>
		</g>
		<g id="SPLINE_3618_">
			<path class="st0" d="M251.75,106.47c1.78-1.8,3.55-3.61,4.88-5.73l0,0c1.82-2.91,2.79-6.41,2.96-9.89l0,0
				c0.17-3.41-0.43-6.79-1.45-10.01l0,0c-0.9-2.85-2.13-5.58-3.49-8.24l0,0c-1.13-2.22-2.34-4.4-3.56-6.58"/>
		</g>
		<g id="SPLINE_3619_">
			<path class="st0" d="M248.14,116.84c-2.53,0.04-5.06,0.08-7.51-0.42l0,0c-3.37-0.69-6.57-2.4-9.21-4.68l0,0
				c-2.58-2.23-4.62-5-6.24-7.96l0,0c-1.45-2.62-2.57-5.39-3.56-8.21l0,0c-0.83-2.35-1.57-4.74-2.3-7.12"/>
		</g>
		<g id="LINE_2340_">
			<line class="st1" x1="219.32" y1="88.46" x2="248.14" y2="116.84"/>
		</g>
		<g id="SPLINE_3620_">
			<path class="st0" d="M248.14,116.84c0.01-2.53,0.01-5.06-0.54-7.5l0,0c-0.74-3.35-2.5-6.53-4.82-9.13l0,0
				c-2.27-2.55-5.07-4.54-8.06-6.12l0,0c-2.64-1.4-5.43-2.48-8.26-3.43l0,0c-2.36-0.79-4.76-1.5-7.15-2.2"/>
		</g>
		<g id="SPLINE_3621_">
			<path class="st0" d="M240.19,90.54c-2.52-0.25-5.04-0.49-7.42-1.27l0,0c-3.26-1.07-6.25-3.14-8.61-5.7l0,0
				c-2.31-2.51-4.01-5.49-5.29-8.62l0,0c-1.13-2.77-1.93-5.65-2.6-8.56l0,0c-0.56-2.43-1.02-4.88-1.48-7.33"/>
		</g>
		<g id="LINE_2341_">
			<line class="st1" x1="214.8" y1="59.05" x2="240.19" y2="90.54"/>
		</g>
		<g id="SPLINE_3622_">
			<path class="st0" d="M240.19,90.54c0.29-2.52,0.59-5.03,0.33-7.52l0,0c-0.35-3.41-1.74-6.77-3.75-9.62l0,0
				c-1.96-2.79-4.52-5.09-7.3-7l0,0c-2.46-1.69-5.11-3.09-7.81-4.35l0,0c-2.26-1.06-4.56-2.03-6.86-3"/>
		</g>
	</g>
	<g id="Kategorier">
		<g id="Juryns_Specialpris_B">
			<g id="Jokerhatt_2012">
				<g id="Vit_kontur">
					<path class="st2" d="M220.88,98.61l8.17,8.17c0,0,3.31-3.15,8.25-4.11s10.44,2.71,10.6,3.03"/>
					<path class="st2" d="M234.51,129.37c0,0,8.37,3.67,15.7-3.67"/>
					<path class="st2" d="M226.3,198.12c0,0,9.57,7.83,18.45,0.26"/>
					<path class="st2" d="M248.25,182.68c0,0-3.35-7.08-10.84-8.14"/>
					<path class="st3" d="M226.99,177.55c0,0,3.97-3.01,7.77-3.07"/>
					<path class="st2" d="M67.99,86.41c0,0-11.39,10.95-14.89,15.53c-4.5,5.89-8.46,13.92-8.46,14.03c0,0-3.21-3.32-8.46-3.11"/>
					<path class="st2" d="M30.51,114.04c0,0-7.5,3.58-7.5,12.64c0,5.89,4.28,9.85,4.6,10.17"/>
					<path class="st2" d="M28.69,137.81c0,0,11.99,6.96,19.92-4.07c0,0,3.11-5.57,0.96-12.64"/>
					<line class="st2" x1="51.25" y1="118.45" x2="49.38" y2="120.45"/>
				</g>
				<g id="LINE_2501_">
					<g id="XMLID_1_">
						<g>
							<path class="st0" d="M251.53,115.66c0.12,1.27,0.02,2.58-0.3,3.88c-0.64,2.59-2.1,4.76-4.03,6.3
								c0.82-0.9,1.65-1.79,2.26-2.79c-0.68,0.21-1.4,0.28-2.13,0.28c-0.51,0-1.03-0.04-1.54-0.09c-1.3-0.13-2.56-0.36-3.75-0.78
								c-1.36-0.46-2.63-1.16-3.88-1.92c-0.37,0.56-1.25,0.82-1.97,0.58c-1-0.29-1.64-1.25-1.43-2.15c0.23-0.89,1.21-1.38,2.21-1.09
								c1,0.3,1.63,1.26,1.42,2.15c1.37,0.34,2.76,0.68,4.16,0.98c1.15,0.26,2.32,0.5,3.47,0.5c0.11,0,0.22-0.01,0.33-0.01
								c1.38-0.06,2.72-0.49,4.07-0.96c-0.05-2.05-0.17-4.06-0.98-5.83c-0.59-1.29-1.54-2.44-2.61-3.42
								c-1.01-0.92-2.12-1.7-3.26-2.42c-0.3,0.39-1.1,0.56-1.81,0.4c-1.05-0.22-1.84-0.96-1.78-1.66c0.07-0.7,0.96-1.09,2.01-0.87
								c1.04,0.21,1.84,0.96,1.78,1.65c1.35,0.4,2.64,0.88,3.8,1.64c1.22,0.81,2.28,1.93,3,3.2C251,114,251.31,114.82,251.53,115.66
								z"/>
							<path class="st4" d="M251.53,115.66c-0.22-0.84-0.53-1.66-0.96-2.43c-0.72-1.27-1.78-2.39-3-3.2
								c-1.16-0.76-2.45-1.24-3.8-1.64c0.06-0.69-0.74-1.44-1.78-1.65c-1.05-0.22-1.94,0.17-2.01,0.87
								c-0.06,0.7,0.73,1.44,1.78,1.66c0.71,0.16,1.51-0.01,1.81-0.4c1.14,0.72,2.25,1.5,3.26,2.42c1.07,0.98,2.02,2.13,2.61,3.42
								c0.81,1.77,0.93,3.78,0.98,5.83c-1.35,0.47-2.69,0.9-4.07,0.96c-0.11,0-0.22,0.01-0.33,0.01c-1.15,0-2.32-0.24-3.47-0.5
								c-1.4-0.3-2.79-0.64-4.16-0.98c0.21-0.89-0.42-1.85-1.42-2.15c-1-0.29-1.98,0.2-2.21,1.09c-0.21,0.9,0.43,1.86,1.43,2.15
								c0.72,0.24,1.6-0.02,1.97-0.58c1.25,0.76,2.52,1.46,3.88,1.92c1.19,0.42,2.45,0.65,3.75,0.78c0.51,0.05,1.03,0.09,1.54,0.09
								c0.73,0,1.45-0.07,2.13-0.28c-0.61,1-1.44,1.89-2.26,2.79c-2.75,2.21-6.47,3.15-10.15,2.23c-6.28-1.56-10.09-7.91-8.53-14.18
								c0.22-0.88,0.53-1.71,0.93-2.49c0.36-0.72,0.79-1.38,1.28-2c2.78-3.45,7.39-5.18,11.97-4.04
								C247.65,106.59,251.09,110.83,251.53,115.66z"/>
							<path class="st4" d="M238.49,176.71c6.27,1.56,10.09,7.91,8.53,14.18c-0.18,0.72-0.42,1.42-0.73,2.07
								c-0.66,1.02-1.33,2.04-2.15,2.87c0-0.09,0.01-0.18,0.01-0.27c0-1.12-0.33-2.25-0.73-3.34c-0.44-1.22-0.96-2.39-1.65-3.44
								c-0.78-1.21-1.77-2.27-2.81-3.3c0.59-0.71,0.45-1.85-0.31-2.56c-0.78-0.7-1.88-0.71-2.47-0.01c-0.6,0.71-0.45,1.85,0.31,2.56
								c0.55,0.54,1.45,0.7,2.03,0.36c0.67,1.25,1.32,2.5,1.97,3.8c0.57,1.15,1.14,2.33,1.4,3.56c0.13,0.63,0.17,1.26,0.17,1.91
								c0,0.75-0.06,1.51-0.13,2.27c-1.44,0.32-2.88,0.61-4.28,0.61c-0.55,0-1.09-0.04-1.62-0.14c-1.38-0.26-2.73-0.91-3.94-1.71
								c-1.15-0.75-2.17-1.64-3.14-2.58c0.42-0.6,0.21-1.72-0.49-2.51c-0.69-0.79-1.59-0.94-2.01-0.34
								c-0.42,0.59-0.2,1.72,0.48,2.51c0.46,0.55,1.17,0.84,1.61,0.66c0.71,1.21,1.48,2.35,2.51,3.29c1.08,0.98,2.43,1.74,3.83,2.13
								c0.84,0.23,1.71,0.33,2.59,0.34c-1.5,0.23-3.07,0.18-4.64-0.21c-6.26-1.56-10.08-7.91-8.52-14.19
								c0.42-1.68,1.18-3.19,2.2-4.46c0.5-0.63,1.06-1.19,1.67-1.7C230.95,176.77,234.73,175.78,238.49,176.71z"/>
							<path class="st0" d="M244.14,195.83c0.82-0.83,1.49-1.85,2.15-2.87c-1.64,3.6-5,6.07-8.82,6.67
								c-0.88-0.01-1.75-0.11-2.59-0.34c-1.4-0.39-2.75-1.15-3.83-2.13c-1.03-0.94-1.8-2.08-2.51-3.29
								c-0.44,0.18-1.15-0.11-1.61-0.66c-0.68-0.79-0.9-1.92-0.48-2.51c0.42-0.6,1.32-0.45,2.01,0.34c0.7,0.79,0.91,1.91,0.49,2.51
								c0.97,0.94,1.99,1.83,3.14,2.58c1.21,0.8,2.56,1.45,3.94,1.71c0.53,0.1,1.07,0.14,1.62,0.14c1.4,0,2.84-0.29,4.28-0.61
								c0.07-0.76,0.13-1.52,0.13-2.27c0-0.65-0.04-1.28-0.17-1.91c-0.26-1.23-0.83-2.41-1.4-3.56c-0.65-1.3-1.3-2.55-1.97-3.8
								c-0.58,0.34-1.48,0.18-2.03-0.36c-0.76-0.71-0.91-1.85-0.31-2.56c0.59-0.7,1.69-0.69,2.47,0.01c0.76,0.71,0.9,1.85,0.31,2.56
								c1.04,1.03,2.03,2.09,2.81,3.3c0.69,1.05,1.21,2.22,1.65,3.44c0.4,1.09,0.73,2.22,0.73,3.34
								C244.15,195.65,244.14,195.74,244.14,195.83z"/>
							<path class="st0" d="M84.9,141.52c0.64-1.19,1.28-2.4,1.91-3.66c1.51-3.01,3-6.26,4.45-10.01c2.03-5.23,3.98-11.43,3.98-16.2
								c0-2.77-0.66-5.05-2.33-6.4c-1.5-1.2-3.8-1.65-6.44-1.65c-2.65,0-5.64,0.46-8.46,1.08c-13.1,2.89-22.5,9.18-31.32,16.02
								c4.29-5.11,8.56-10.2,13.66-14.28c3.24-2.6,6.81-4.78,10.72-6.34c3.91-1.56,8.15-2.5,12.74-2.59
								c0.26-0.01,0.52-0.01,0.78-0.01c6.53,0,13.58,1.71,16.68,5.96c1.95,2.69,2.33,6.4,2.44,10.35c0.1,3.96-0.07,8.17,0.79,11.85
								c0.85,3.64,2.71,6.79,5.07,9.68c2.36,2.89,5.23,5.54,8.09,8.18c-5.57-11.02-0.53-28.98,8.97-42.45
								c0.77-1.07,1.56-2.11,2.38-3.09c11.4-13.94,27.62-20.24,42.76-20.24c2.4,0,4.77,0.16,7.09,0.47
								c19.84,2.66,36.01,16.45,51.87,31.21c-0.49,0.62-0.92,1.28-1.28,2c-5.41-3.28-10.81-6.55-16.45-9.05
								c-5.64-2.49-11.51-4.21-17.85-4.37c-0.32-0.01-0.65-0.01-0.97-0.01c-8.09,0-16.76,2.51-21.95,7.96
								c-2.53,2.64-4.23,5.97-5.73,9.51s-2.8,7.28-4.5,10.72c-1.78,3.6-4.01,6.88-6.48,9.96c-2.48,3.09-5.2,5.98-7.98,8.8
								c-4.76,4.84-9.66,9.48-14.56,14.13c-7.71-1.87-16.11-1.47-24.71-2.38c-8.64-0.91-17.48-3.13-26.03-10.3
								C83.13,144.77,84.02,143.17,84.9,141.52z"/>
							<path class="st0" d="M177.35,119.45c0.83-0.06,1.46-0.08,2.1-0.08c0.01,0,0.01,0,0.02,0c17.25,0,39.91,14.05,41.11,28.94
								c0.49,6.03-2.55,12.22-2.55,17.41c0,1.11,0.14,2.17,0.48,3.18c1.55,4.58,7.27,8.01,9.67,10.17c-0.61,0.51-1.17,1.07-1.67,1.7
								c-2.99-1.57-5.98-3.14-8.44-4.97c-2.45-1.82-4.37-3.9-5.21-6.47c-0.86-2.61-0.62-5.74-0.62-8.88c0-1.83-0.08-3.67-0.52-5.4
								c-0.62-2.47-1.94-4.73-3.71-6.63c-1.77-1.9-3.97-3.45-6.36-4.48c-2.48-1.07-5.15-1.58-7.79-1.58c-1.82,0-3.63,0.25-5.35,0.72
								c-2.76,0.76-5.3,2.1-7.79,3.57c-2.5,1.47-4.95,3.05-7.53,4.29c-5.19,2.5-10.92,3.6-16.66,4.7
								c6.61-4.58,9.89-8.84,11.69-12.78s2.14-7.58,2.85-10.93c0.98-4.63,2.7-8.72,5.05-12.4
								C176.58,119.5,176.98,119.47,177.35,119.45z"/>
							<path class="st4" d="M218.07,175.8c2.46,1.83,5.45,3.4,8.44,4.97c-13.71-6.07-18.04-9.36-19.46-15.29
								c-0.35-1.46-0.53-3.08-0.94-4.78s-1.06-3.48-2.36-5.29c-0.91-1.25-2.12-2.51-3.42-3.53c-1.3-1.03-2.69-1.83-3.93-2.16
								c-0.45-0.12-0.89-0.18-1.31-0.18c-4.99,0-7.45,8.3-9.53,17.83c-0.36,1.65-0.71,3.33-1.06,5.01
								c-2.87,0.49-5.58,0.71-8.16,0.71c-17.98,0-29.53-10.63-43.25-14.01c-0.04-0.01-0.07-0.02-0.11-0.03
								c4.9-4.65,9.8-9.29,14.56-14.13c2.78-2.82,5.5-5.71,7.98-8.8c2.47-3.08,4.7-6.36,6.48-9.96c1.7-3.44,3-7.18,4.5-10.72
								s3.2-6.87,5.73-9.51c5.19-5.45,13.86-7.96,21.95-7.96c0.32,0,0.65,0,0.97,0.01c6.34,0.16,12.21,1.88,17.85,4.37
								c5.64,2.5,11.04,5.77,16.45,9.05c-13.35-4.99-26.52-8.91-38.24-4.41c-2.89,1.11-5.52,2.93-7.91,5.22
								c-2.17,2.07-4.15,4.55-5.95,7.24c-0.37,0.02-0.77,0.05-1.23,0.08c-2.35,3.68-4.07,7.77-5.05,12.4
								c-0.71,3.35-1.05,6.99-2.85,10.93s-5.08,8.2-11.69,12.78c5.74-1.1,11.47-2.2,16.66-4.7c2.58-1.24,5.03-2.82,7.53-4.29
								c2.49-1.47,5.03-2.81,7.79-3.57c1.72-0.47,3.53-0.72,5.35-0.72c2.64,0,5.31,0.51,7.79,1.58c2.39,1.03,4.59,2.58,6.36,4.48
								s3.09,4.16,3.71,6.63c0.44,1.73,0.52,3.57,0.52,5.4c0,3.14-0.24,6.27,0.62,8.88C213.7,171.9,215.62,173.98,218.07,175.8z"/>
							<path class="st4" d="M188.58,170.63c0,0.06-0.01,0.12-0.03,0.18c-0.04,0.11-0.1,0.22-0.24,0.36
								c-0.3,0.29-0.86,0.53-1.54,0.73s-1.48,0.35-2.27,0.48c0.35-1.68,0.7-3.36,1.06-5.01
								C187.07,168.57,188.58,169.77,188.58,170.63z"/>
							<path class="st4" d="M132.98,159.05c0.04,0.01,0.07,0.02,0.11,0.03c13.72,3.38,25.27,14.01,43.25,14.01
								c2.58,0,5.29-0.22,8.16-0.71c0.79-0.13,1.59-0.28,2.27-0.48c0.68-0.2,1.24-0.44,1.54-0.73l-6.1,9.52
								c-0.98,3.87-24.55,1.23-52.65-5.9c-28.1-7.13-50.08-16.04-49.09-19.91l-0.85-11.48c0.18,0.81,1.39,1.94,2.62,2.97
								c8.55,7.17,17.39,9.39,26.03,10.3C116.87,157.58,125.27,157.18,132.98,159.05z M136.16,168.19l-3.63-6.17l-6.17,3.63
								l3.63,6.17L136.16,168.19z"/>
							<path class="st4" d="M132.53,162.02l3.63,6.17l-6.17,3.63l-3.63-6.17L132.53,162.02z M135.1,167.92l-2.84-4.83l-4.83,2.84
								l2.85,4.82L135.1,167.92z"/>
							<polygon class="st0" points="132.26,163.09 135.1,167.92 130.28,170.75 127.43,165.93 							"/>
							<path class="st4" d="M116.46,86.24c3.55,3.44,6.8,8.28,10.17,14.81c-9.5,13.47-14.54,31.43-8.97,42.45
								c-2.86-2.64-5.73-5.29-8.09-8.18s-4.22-6.04-5.07-9.68c-0.86-3.68-0.69-7.89-0.79-11.85c-0.11-3.95-0.49-7.66-2.44-10.35
								c-3.1-4.25-10.15-5.96-16.68-5.96c-0.26,0-0.52,0-0.78,0.01c-4.59,0.09-8.83,1.03-12.74,2.59
								c-3.91,1.56-7.48,3.74-10.72,6.34c-5.1,4.08-9.37,9.17-13.66,14.28c-0.45-0.82-1.01-1.57-1.64-2.26
								c11.37-20.53,22.28-31.66,37.27-36.6c5.01-1.64,10.47-2.6,15.55-2.6c2.28,0,4.48,0.19,6.53,0.6
								C109.03,80.77,112.9,82.81,116.46,86.24z"/>
							<path class="st4" d="M84.9,141.52c-0.88,1.65-1.77,3.25-2.66,4.85c-1.23-1.03-2.44-2.16-2.62-2.97
								c-0.01-0.06-0.01-0.12-0.01-0.17c0-0.02,0-0.04,0-0.06C79.7,142.08,82.29,141.8,84.9,141.52z"/>
							<path class="st4" d="M46.69,120.7c1.42,2.51,1.92,5.55,1.16,8.57c-1.56,6.27-7.9,10.09-14.18,8.53
								c-0.98-0.24-1.9-0.6-2.74-1.06l0.01-0.01c0.83,0.29,1.68,0.5,2.56,0.56c0.19,0.01,0.37,0.02,0.56,0.02
								c1.27,0,2.58-0.26,3.76-0.76c1.28-0.54,2.39-1.35,3.46-2.26c0.55,0.43,1.61,0.19,2.37-0.57c0.76-0.75,0.93-1.72,0.38-2.16
								c-0.55-0.43-1.6-0.19-2.36,0.57c-0.53,0.5-0.83,1.26-0.67,1.72c-1.23,0.56-2.49,1.06-3.82,1.39
								c-0.97,0.24-1.97,0.39-2.96,0.39c-0.45,0-0.89-0.03-1.33-0.1c-1.92-0.3-3.66-1.32-5.4-2.41c0.35-1.38,0.73-2.74,1.44-3.91
								c0.64-1.08,1.58-2.01,2.5-2.91c1.04-1,2.08-1.96,3.12-2.92c0.63,0.67,1.78,0.67,2.58,0c0.79-0.67,0.94-1.76,0.31-2.44
								c-0.63-0.67-1.78-0.68-2.58,0c-0.6,0.47-0.87,1.34-0.6,1.96c-1.33,0.62-2.61,1.3-3.75,2.18c-1.01,0.77-1.89,1.69-2.72,2.69
								c-0.78,0.97-1.52,2.01-1.87,3.17c-0.49-1.05-0.78-2.22-1.07-3.39c-0.12-1.29-0.03-2.61,0.3-3.93
								c1.56-6.28,7.91-10.09,14.18-8.53c2.27,0.56,4.22,1.76,5.72,3.35C45.68,119.13,46.24,119.88,46.69,120.7z"/>
							<path class="st0" d="M44.03,131.56c0.55,0.44,0.38,1.41-0.38,2.16c-0.76,0.76-1.82,1-2.37,0.57
								c-1.07,0.91-2.18,1.72-3.46,2.26c-1.18,0.5-2.49,0.76-3.76,0.76c-0.19,0-0.37-0.01-0.56-0.02c-0.88-0.06-1.73-0.27-2.56-0.56
								l-0.01,0.01c-3.45-1.86-5.72-5.34-6.08-9.19c0.29,1.17,0.58,2.34,1.07,3.39c0.35-1.16,1.09-2.2,1.87-3.17
								c0.83-1,1.71-1.92,2.72-2.69c1.14-0.88,2.42-1.56,3.75-2.18c-0.27-0.62,0-1.49,0.6-1.96c0.8-0.68,1.95-0.67,2.58,0
								c0.63,0.68,0.48,1.77-0.31,2.44c-0.8,0.67-1.95,0.67-2.58,0c-1.04,0.96-2.08,1.92-3.12,2.92c-0.92,0.9-1.86,1.83-2.5,2.91
								c-0.71,1.17-1.09,2.53-1.44,3.91c1.74,1.09,3.48,2.11,5.4,2.41c0.44,0.07,0.88,0.1,1.33,0.1c0.99,0,1.99-0.15,2.96-0.39
								c1.33-0.33,2.59-0.83,3.82-1.39c-0.16-0.46,0.14-1.22,0.67-1.72C42.43,131.37,43.48,131.13,44.03,131.56z"/>
						</g>
						<g>
							<path class="st5" d="M80.47,154.88c-0.99,3.87,20.99,12.78,49.09,19.91s51.67,9.77,52.65,5.9"/>
							<line class="st5" x1="80.47" y1="154.88" x2="79.62" y2="143.4"/>
							<line class="st5" x1="182.21" y1="180.69" x2="188.31" y2="171.17"/>
							<path class="st5" d="M246.29,192.96c0.31-0.65,0.55-1.35,0.73-2.07c1.56-6.27-2.26-12.62-8.53-14.18
								c-3.76-0.93-7.54,0.06-10.31,2.36c-0.61,0.51-1.17,1.07-1.67,1.7c-1.02,1.27-1.78,2.78-2.2,4.46
								c-1.56,6.28,2.26,12.63,8.52,14.19c1.57,0.39,3.14,0.44,4.64,0.21C241.29,199.03,244.65,196.56,246.29,192.96z"/>
							<path class="st5" d="M30.93,136.74c0.84,0.46,1.76,0.82,2.74,1.06c6.28,1.56,12.62-2.26,14.18-8.53
								c0.76-3.02,0.26-6.06-1.16-8.57c-0.45-0.82-1.01-1.57-1.64-2.26c-1.5-1.59-3.45-2.79-5.72-3.35
								c-6.27-1.56-12.62,2.25-14.18,8.53c-0.33,1.32-0.42,2.64-0.3,3.93C25.21,131.4,27.48,134.88,30.93,136.74z"/>
							<path class="st5" d="M247.2,125.84c1.93-1.54,3.39-3.71,4.03-6.3c0.32-1.3,0.42-2.61,0.3-3.88
								c-0.44-4.83-3.88-9.07-8.83-10.3c-4.58-1.14-9.19,0.59-11.97,4.04c-0.49,0.62-0.92,1.28-1.28,2
								c-0.4,0.78-0.71,1.61-0.93,2.49c-1.56,6.27,2.25,12.62,8.53,14.18C240.73,128.99,244.45,128.05,247.2,125.84z"/>
							<path class="st5" d="M229.45,111.4c-13.35-4.99-26.52-8.91-38.24-4.41c-2.89,1.11-5.52,2.93-7.91,5.22
								c-2.17,2.07-4.15,4.55-5.95,7.24c-0.19,0.28-0.38,0.56-0.56,0.85"/>
							<path class="st5" d="M45.05,118.44c11.37-20.53,22.28-31.66,37.27-36.6c5.01-1.64,10.47-2.6,15.55-2.6
								c2.28,0,4.48,0.19,6.53,0.6c4.63,0.93,8.5,2.97,12.06,6.4c3.55,3.44,6.8,8.28,10.17,14.81"/>
							<path class="st5" d="M226.51,180.77c-13.71-6.07-18.04-9.36-19.46-15.29c-0.35-1.46-0.53-3.08-0.94-4.78
								s-1.06-3.48-2.36-5.29c-0.91-1.25-2.12-2.51-3.42-3.53c-1.3-1.03-2.69-1.83-3.93-2.16c-0.45-0.12-0.89-0.18-1.31-0.18
								c-4.99,0-7.45,8.3-9.53,17.83c-0.36,1.65-0.71,3.33-1.06,5.01"/>
							<path class="st5" d="M84.91,141.52H84.9c-2.61,0.28-5.2,0.56-5.29,1.65c0,0.02,0,0.04,0,0.06c0,0.05,0,0.11,0.01,0.17"/>
							<path class="st5" d="M79.62,143.4c0.18,0.81,1.39,1.94,2.62,2.97c8.55,7.17,17.39,9.39,26.03,10.3
								c8.6,0.91,17,0.51,24.71,2.38c0.04,0.01,0.07,0.02,0.11,0.03c13.72,3.38,25.27,14.01,43.25,14.01c2.58,0,5.29-0.22,8.16-0.71
								c0.79-0.13,1.59-0.28,2.27-0.48c0.68-0.2,1.24-0.44,1.54-0.73"/>
							<path class="st5" d="M188.31,171.17c0.14-0.14,0.2-0.25,0.24-0.36c0.02-0.06,0.03-0.12,0.03-0.18c0-0.86-1.51-2.06-3.02-3.26
								"/>
						</g>
					</g>
				</g>
				<g id="Text_1_">
					<g>
						<g>
							<path class="st6" d="M82.49,59.6c1.67,0.38,3.92,0.45,6.08-0.16c3.21-0.91,4.68-3.01,4.08-5.38c-0.56-2.2-2.26-3.19-5.98-3.4
								c-4.46-0.25-7.72-1.31-8.75-4.57c-1.14-3.6,1.47-7.41,6.73-8.84c2.77-0.75,4.93-0.69,6.28-0.39
								c-0.14,1.09-0.21,1.63-0.35,2.72c-0.98-0.2-2.94-0.46-5.36,0.2c-3.65,0.99-4.46,3.33-3.99,4.92
								c0.65,2.17,2.55,2.75,6.44,3.03c4.77,0.35,7.41,1.8,8.23,5.26c0.86,3.64-1.16,7.42-6.81,9.02c-2.31,0.66-5.03,0.74-6.58,0.32
								C82.49,61.25,82.49,60.7,82.49,59.6z"/>
							<path class="st6" d="M96.69,35.04c1.64-0.61,3.83-1.28,6.68-1.8c3.5-0.64,6.2-0.29,8,0.73c1.64,0.93,2.78,2.55,3.07,4.69
								c0.29,2.18-0.2,3.98-1.31,5.42c-1.53,1.97-4.23,3.33-7.46,3.92c-0.99,0.18-1.9,0.32-2.7,0.29c0.75,3.81,1.13,5.72,1.88,9.54
								c-1.26,0.25-1.89,0.38-3.14,0.65C99.7,49.11,98.69,44.42,96.69,35.04z M102.47,45.79c0.76,0.03,1.7-0.07,2.81-0.28
								c4.03-0.74,6.23-2.91,5.73-6.22c-0.48-3.17-3.26-4.33-7.12-3.63c-1.53,0.28-2.67,0.61-3.25,0.87
								C101.38,40.24,101.74,42.09,102.47,45.79z"/>
							<path class="st6" d="M133.25,42.93c-4.06,0.2-6.09,0.35-10.14,0.74c0.34,3.48,0.51,5.22,0.85,8.71
								c4.33-0.42,6.49-0.57,10.83-0.76c0.05,1.05,0.07,1.58,0.12,2.62c-5.56,0.24-8.34,0.46-13.87,1.09
								c-1.1-9.64-1.64-14.46-2.74-24.1c5.96-0.68,8.95-0.91,14.94-1.19c0.05,1.05,0.07,1.58,0.12,2.62
								c-4.5,0.21-6.75,0.37-11.24,0.81c0.3,3.05,0.45,4.58,0.74,7.63c4.1-0.4,6.15-0.55,10.26-0.75
								C133.17,41.37,133.2,41.89,133.25,42.93z"/>
							<path class="st6" d="M156.38,53.66c-1.21,0.5-3.59,0.97-6.59,0.88c-6.96-0.21-12.32-4.35-12.57-12.31
								c-0.23-7.59,5.51-13,14.12-12.71c3.46,0.12,5.61,0.91,6.52,1.4c-0.41,1-0.61,1.5-1.01,2.5c-1.3-0.65-3.19-1.19-5.47-1.27
								c-6.43-0.22-10.66,3.52-10.58,9.89c0.08,5.94,3.66,9.65,9.74,9.85c1.97,0.07,3.99-0.23,5.33-0.76
								C156.08,52.14,156.18,52.65,156.38,53.66z"/>
							<path class="st6" d="M165.91,30.89c-0.96,9.66-1.44,14.48-2.4,24.14c-1.27-0.13-1.91-0.19-3.18-0.29
								c0.81-9.67,1.21-14.5,2.02-24.18C163.77,30.68,164.48,30.75,165.91,30.89z"/>
							<path class="st6" d="M174.15,48.66c-1.51,2.86-2.24,4.3-3.67,7.19c-1.31-0.18-1.97-0.26-3.29-0.42
								c4.49-9.24,6.93-13.81,12.21-22.79c1.71,0.28,2.57,0.42,4.27,0.73c2.01,10.23,2.81,15.35,3.99,25.56
								c-1.34-0.3-2.01-0.45-3.35-0.73c-0.42-3.2-0.65-4.81-1.16-8.01C179.56,49.5,177.76,49.2,174.15,48.66z M182.94,47.67
								c-0.48-2.94-0.75-4.4-1.3-7.34c-0.31-1.66-0.47-3.15-0.63-4.61c-0.03-0.01-0.05-0.01-0.08-0.01
								c-0.64,1.35-1.33,2.73-2.08,4.1c-1.5,2.6-2.23,3.91-3.66,6.53C178.3,46.81,179.85,47.08,182.94,47.67z"/>
							<path class="st6" d="M196.99,36.21c1.4,0.34,2.1,0.52,3.5,0.88c-2.19,8.37-3.28,12.56-5.47,20.93
								c4.18,1.09,6.26,1.7,10.39,3.01c-0.32,1-0.48,1.5-0.8,2.5c-5.31-1.69-7.99-2.45-13.37-3.77
								C193.53,50.35,194.69,45.63,196.99,36.21z"/>
						</g>
					</g>
				</g>
				<g id="Lager_69">
					<g>
						<g id="XMLID_00000123433542164990537240000002342628241221914289_">
							<g>
								<polygon class="st0" points="169.15,211.05 169.15,211.28 169.12,211.51 169.08,211.75 169.03,211.98 168.96,212.2 
									168.88,212.43 168.77,212.65 168.66,212.87 168.53,213.09 168.39,213.3 168.23,213.52 168.06,213.72 167.88,213.92 
									167.67,214.12 167.46,214.32 167.24,214.5 167,214.68 166.75,214.86 166.49,215.03 166.21,215.2 165.93,215.35 
									165.64,215.5 165.34,215.64 165.03,215.78 164.71,215.9 164.37,216.03 164.04,216.14 163.69,216.24 163.34,216.34 
									162.99,216.42 162.62,216.5 162.25,216.57 161.88,216.63 161.5,216.68 161.13,216.72 160.75,216.76 160.36,216.78 
									159.98,216.79 159.6,216.8 159.21,216.79 158.83,216.78 158.44,216.76 158.06,216.72 157.69,216.68 157.3,216.63 
									156.94,216.57 156.57,216.5 156.2,216.42 155.85,216.34 155.49,216.24 155.15,216.14 154.82,216.03 154.48,215.9 
									154.16,215.78 153.85,215.64 153.55,215.5 153.26,215.35 152.97,215.2 152.7,215.03 152.44,214.86 152.19,214.68 
									151.95,214.5 151.73,214.32 151.52,214.12 151.31,213.92 151.13,213.72 150.96,213.52 150.8,213.3 150.66,213.09 
									150.53,212.87 150.42,212.65 150.31,212.43 150.23,212.2 150.16,211.98 150.11,211.75 150.07,211.51 150.04,211.28 
									150.03,211.05 152.57,211.05 153.4,211.05 165.78,211.05 166.62,211.05 								"/>
								<polygon class="st0" points="160.06,194.83 166.62,211.05 165.78,211.05 159.6,195.73 153.4,211.05 152.57,211.05 
									159.09,194.91 159.09,194.91 								"/>
								<polygon class="st0" points="160.06,194.83 159.09,194.91 159.09,194.91 143.93,196.19 143.93,196.19 143.88,195.56 
									143.87,195.55 143.91,195.5 143.99,195.38 144.06,195.26 144.11,195.12 144.14,194.98 144.17,194.84 144.17,194.7 
									144.17,194.55 144.14,194.42 144.11,194.27 144.06,194.14 143.99,194.01 143.91,193.89 143.82,193.78 143.75,193.71 
									143.75,193.7 143.71,193.05 144.06,193.12 144.41,193.06 144.71,192.88 144.95,192.62 145.78,191.61 146.28,191.19 
									146.84,190.85 147.44,190.57 148.06,190.34 149.33,190.02 150.63,189.88 151.94,189.88 153.24,190 154.54,190.22 
									159.65,191.31 160.95,191.52 162.25,191.65 163.56,191.7 163.89,191.65 164.19,191.52 164.32,191.42 164.45,191.56 
									164.46,191.88 164.36,194.46 								"/>
								<rect x="142.65" y="226.32" class="st0" width="12.42" height="1.69"/>
								<polygon class="st0" points="154.4,225.46 155.07,226.32 142.65,226.32 142.78,196.07 142.8,196.07 142.95,196.06 
									143.09,196.03 143.23,196 143.36,195.95 143.49,195.89 143.61,195.81 143.72,195.71 143.82,195.62 143.87,195.55 
									143.88,195.56 143.93,196.19 145.26,215.71 145.26,217.41 147.29,220.44 147.29,222.79 149.44,223.18 150.51,223.44 
									151.56,223.78 152.57,224.22 153.55,224.76 153.99,225.09 								"/>
								<polygon class="st4" points="144.17,194.55 144.17,194.7 144.17,194.84 144.14,194.98 144.11,195.12 144.06,195.26 
									143.99,195.38 143.91,195.5 143.87,195.55 143.82,195.62 143.72,195.71 143.61,195.81 143.49,195.89 143.36,195.95 
									143.23,196 143.09,196.03 142.95,196.06 142.8,196.07 142.78,196.07 142.78,195.61 142.8,195.61 142.92,195.6 
									143.04,195.58 143.15,195.54 143.26,195.48 143.36,195.42 143.45,195.34 143.53,195.26 143.59,195.15 143.64,195.05 
									143.68,194.93 143.71,194.81 143.72,194.7 143.71,194.58 143.68,194.46 143.64,194.35 143.59,194.24 143.53,194.14 
									143.45,194.05 143.36,193.98 143.26,193.91 143.15,193.86 143.04,193.82 142.92,193.79 142.8,193.79 142.79,193.79 
									142.79,193.33 142.8,193.33 142.95,193.33 143.09,193.36 143.23,193.39 143.36,193.45 143.49,193.51 143.61,193.59 
									143.72,193.68 143.75,193.71 143.82,193.78 143.91,193.89 143.99,194.01 144.06,194.14 144.11,194.27 144.14,194.42 
																	"/>
								<polygon class="st0" points="143.71,193.05 143.75,193.7 143.75,193.71 143.72,193.68 143.61,193.59 143.49,193.51 
									143.36,193.45 143.23,193.39 143.09,193.36 142.95,193.33 142.8,193.33 142.79,193.33 142.83,184.65 143.13,184.65 								
									"/>
								<polygon class="st0" points="143.71,194.58 143.72,194.7 143.71,194.81 143.68,194.93 143.64,195.05 143.59,195.15 
									143.53,195.26 143.45,195.34 143.36,195.42 143.26,195.48 143.15,195.54 143.04,195.58 142.92,195.6 142.8,195.61 
									142.78,195.61 142.79,193.79 142.8,193.79 142.92,193.79 143.04,193.82 143.15,193.86 143.26,193.91 143.36,193.98 
									143.45,194.05 143.53,194.14 143.59,194.24 143.64,194.35 143.68,194.46 								"/>
								<polygon class="st0" points="141.91,192.96 142.48,184.65 142.83,184.65 142.79,193.33 142.66,193.33 142.52,193.36 
									142.38,193.39 142.25,193.45 142.12,193.51 142,193.59 141.89,193.68 141.86,193.7 141.86,193.7 								"/>
								<polygon class="st4" points="142.79,193.33 142.79,193.79 142.69,193.79 142.57,193.82 142.46,193.86 142.35,193.91 
									142.25,193.98 142.16,194.05 142.08,194.14 142.02,194.24 141.96,194.35 141.93,194.46 141.9,194.58 141.89,194.7 
									141.9,194.81 141.93,194.93 141.96,195.05 142.02,195.15 142.08,195.26 142.16,195.34 142.25,195.42 142.35,195.48 
									142.46,195.54 142.57,195.58 142.69,195.6 142.78,195.61 142.78,196.07 142.66,196.06 142.52,196.03 142.38,196 
									142.25,195.95 142.12,195.89 142,195.81 141.89,195.71 141.79,195.62 141.73,195.55 141.69,195.5 141.62,195.38 
									141.55,195.26 141.5,195.12 141.47,194.98 141.44,194.84 141.43,194.7 141.44,194.55 141.47,194.42 141.5,194.27 
									141.55,194.14 141.62,194.01 141.69,193.89 141.79,193.78 141.86,193.7 141.89,193.68 142,193.59 142.12,193.51 
									142.25,193.45 142.38,193.39 142.52,193.36 142.66,193.33 								"/>
								<polygon class="st0" points="142.79,193.79 142.78,195.61 142.69,195.6 142.57,195.58 142.46,195.54 142.35,195.48 
									142.25,195.42 142.16,195.34 142.08,195.26 142.02,195.15 141.96,195.05 141.93,194.93 141.9,194.81 141.89,194.7 
									141.9,194.58 141.93,194.46 141.96,194.35 142.02,194.24 142.08,194.14 142.16,194.05 142.25,193.98 142.35,193.91 
									142.46,193.86 142.57,193.82 142.69,193.79 								"/>
								<polygon class="st0" points="141.67,196.38 141.73,195.56 141.73,195.55 141.79,195.62 141.89,195.71 142,195.81 
									142.12,195.89 142.25,195.95 142.38,196 142.52,196.03 142.66,196.06 142.78,196.07 142.65,226.32 130.54,226.32 
									131.22,225.46 131.62,225.09 132.06,224.76 133.04,224.22 134.06,223.78 135.1,223.44 136.16,223.18 138.33,222.79 
									138.33,220.44 140.34,217.41 140.34,215.71 								"/>
								
									<rect x="135.75" y="221.11" transform="matrix(3.722007e-03 -1 1 3.722007e-03 -91.0797 362.9163)" class="st0" width="1.69" height="12.11"/>
								<polygon class="st0" points="141.91,192.96 141.86,193.7 141.86,193.7 141.79,193.78 141.69,193.89 141.62,194.01 
									141.55,194.14 141.5,194.27 141.47,194.42 141.44,194.55 141.43,194.7 141.44,194.84 141.47,194.98 141.5,195.12 
									141.55,195.26 141.62,195.38 141.69,195.5 141.73,195.55 141.73,195.56 141.67,196.38 126.48,197.67 125.53,197.75 
									125.53,197.75 121.52,198.09 120.99,195.56 120.94,195.23 121.05,195.09 121.19,195.16 121.51,195.24 121.84,195.23 
									123.13,194.97 124.39,194.61 125.63,194.19 130.49,192.25 131.73,191.82 132.99,191.48 134.29,191.25 135.59,191.18 
									136.89,191.29 137.55,191.41 138.19,191.59 138.79,191.83 139.35,192.16 140.34,193.01 140.71,193.27 141.14,193.36 
									141.58,193.25 141.77,193.13 								"/>
								<polygon class="st0" points="135.58,213.92 135.57,214.15 135.55,214.38 135.51,214.61 135.46,214.84 135.39,215.06 
									135.3,215.3 135.2,215.52 135.09,215.73 134.96,215.96 134.81,216.17 134.66,216.38 134.49,216.59 134.3,216.79 
									134.1,216.99 133.89,217.18 133.66,217.37 133.43,217.55 133.18,217.73 132.92,217.9 132.64,218.06 132.36,218.22 
									132.06,218.37 131.76,218.51 131.45,218.65 131.13,218.77 130.8,218.9 130.46,219.01 130.12,219.11 129.77,219.2 
									129.41,219.29 129.05,219.37 128.68,219.43 128.31,219.5 127.93,219.55 127.56,219.59 127.18,219.62 126.79,219.64 
									126.41,219.66 126.02,219.66 125.63,219.66 125.25,219.64 124.87,219.62 124.49,219.59 124.11,219.55 123.73,219.5 
									123.36,219.43 123,219.37 122.63,219.29 122.27,219.2 121.92,219.11 121.58,219.01 121.25,218.9 120.91,218.77 
									120.59,218.65 120.28,218.51 119.98,218.37 119.68,218.22 119.4,218.06 119.12,217.9 118.86,217.73 118.61,217.55 
									118.38,217.37 118.15,217.18 117.94,216.99 117.74,216.79 117.56,216.59 117.39,216.38 117.23,216.17 117.08,215.96 
									116.95,215.73 116.84,215.52 116.74,215.3 116.65,215.06 116.59,214.84 116.53,214.61 116.49,214.38 116.47,214.15 
									116.46,213.92 119,213.92 119.83,213.92 132.21,213.92 133.04,213.92 								"/>
								<polygon class="st0" points="126.48,197.67 133.04,213.92 132.21,213.92 126.02,198.59 119.83,213.92 119,213.92 
									125.53,197.75 125.53,197.75 								"/>
							</g>
						</g>
					</g>
				</g>
			</g>
		</g>
	</g>
</g>
</svg>
